G04 EAGLE Gerber RS-274X export*
G75*
%MOMM*%
%FSLAX34Y34*%
%LPD*%
%INSilkscreen Bottom*%
%IPPOS*%
%AMOC8*
5,1,8,0,0,1.08239X$1,22.5*%
G01*
%ADD10C,0.152400*%
%ADD11C,3.100000*%
%ADD12C,0.400000*%
%ADD13C,0.127000*%
%ADD14C,0.200000*%
%ADD15R,12.344400X0.457200*%
%ADD16R,0.457200X0.457200*%
%ADD17R,0.914400X0.457200*%
%ADD18R,1.371600X0.457200*%
%ADD19R,2.286000X0.457200*%
%ADD20R,1.828800X0.457200*%
%ADD21R,2.743200X0.457200*%
%ADD22R,4.114800X0.457200*%
%ADD23R,5.029200X0.457200*%
%ADD24C,0.203200*%
%ADD25C,0.101600*%
%ADD26R,0.950000X0.500100*%
%ADD27C,0.177800*%
%ADD28C,0.500000*%
%ADD29C,0.120000*%
%ADD30R,0.200000X0.200000*%
%ADD31R,0.406400X0.863600*%
%ADD32R,0.863600X0.406400*%


D10*
X65738Y163479D02*
X59146Y163479D01*
X59146Y163480D02*
X59061Y163478D01*
X58977Y163472D01*
X58893Y163463D01*
X58810Y163450D01*
X58727Y163433D01*
X58645Y163412D01*
X58564Y163388D01*
X58484Y163360D01*
X58406Y163328D01*
X58329Y163293D01*
X58253Y163255D01*
X58180Y163213D01*
X58108Y163168D01*
X58039Y163120D01*
X57971Y163069D01*
X57906Y163015D01*
X57844Y162958D01*
X57784Y162898D01*
X57727Y162836D01*
X57673Y162771D01*
X57622Y162703D01*
X57574Y162634D01*
X57529Y162562D01*
X57487Y162489D01*
X57449Y162413D01*
X57414Y162336D01*
X57382Y162258D01*
X57354Y162178D01*
X57330Y162097D01*
X57309Y162015D01*
X57292Y161932D01*
X57279Y161849D01*
X57270Y161765D01*
X57264Y161681D01*
X57262Y161596D01*
X57262Y160654D01*
X57262Y168343D02*
X65738Y168343D01*
X57262Y168343D02*
X57262Y172110D01*
X57262Y177663D02*
X57262Y179546D01*
X57262Y177663D02*
X57264Y177578D01*
X57270Y177494D01*
X57279Y177410D01*
X57292Y177327D01*
X57309Y177244D01*
X57330Y177162D01*
X57354Y177081D01*
X57382Y177001D01*
X57414Y176923D01*
X57449Y176846D01*
X57487Y176770D01*
X57529Y176697D01*
X57574Y176625D01*
X57622Y176556D01*
X57673Y176488D01*
X57727Y176423D01*
X57784Y176361D01*
X57844Y176301D01*
X57906Y176244D01*
X57971Y176190D01*
X58039Y176139D01*
X58108Y176091D01*
X58180Y176046D01*
X58253Y176004D01*
X58329Y175966D01*
X58406Y175931D01*
X58484Y175899D01*
X58564Y175871D01*
X58645Y175847D01*
X58727Y175826D01*
X58810Y175809D01*
X58893Y175796D01*
X58977Y175787D01*
X59061Y175781D01*
X59146Y175779D01*
X63854Y175779D01*
X63939Y175781D01*
X64023Y175787D01*
X64107Y175796D01*
X64190Y175809D01*
X64273Y175826D01*
X64355Y175847D01*
X64436Y175871D01*
X64516Y175899D01*
X64594Y175931D01*
X64671Y175966D01*
X64747Y176004D01*
X64820Y176046D01*
X64892Y176091D01*
X64961Y176139D01*
X65029Y176190D01*
X65094Y176244D01*
X65156Y176301D01*
X65216Y176361D01*
X65273Y176423D01*
X65327Y176488D01*
X65378Y176556D01*
X65426Y176625D01*
X65471Y176697D01*
X65513Y176770D01*
X65551Y176846D01*
X65586Y176923D01*
X65618Y177001D01*
X65646Y177081D01*
X65670Y177162D01*
X65691Y177244D01*
X65708Y177327D01*
X65721Y177410D01*
X65730Y177494D01*
X65736Y177578D01*
X65738Y177663D01*
X65738Y179546D01*
X65738Y185079D02*
X59146Y185079D01*
X59146Y185080D02*
X59061Y185078D01*
X58977Y185072D01*
X58893Y185063D01*
X58810Y185050D01*
X58727Y185033D01*
X58645Y185012D01*
X58564Y184988D01*
X58484Y184960D01*
X58406Y184928D01*
X58329Y184893D01*
X58253Y184855D01*
X58180Y184813D01*
X58108Y184768D01*
X58039Y184720D01*
X57971Y184669D01*
X57906Y184615D01*
X57844Y184558D01*
X57784Y184498D01*
X57727Y184436D01*
X57673Y184371D01*
X57622Y184303D01*
X57574Y184234D01*
X57529Y184162D01*
X57487Y184089D01*
X57449Y184013D01*
X57414Y183936D01*
X57382Y183858D01*
X57354Y183778D01*
X57330Y183697D01*
X57309Y183615D01*
X57292Y183532D01*
X57279Y183449D01*
X57270Y183365D01*
X57264Y183281D01*
X57262Y183196D01*
X57262Y182254D01*
X57262Y189943D02*
X65738Y189943D01*
X57262Y189943D02*
X57262Y193710D01*
X57262Y199263D02*
X57262Y201146D01*
X57262Y199263D02*
X57264Y199178D01*
X57270Y199094D01*
X57279Y199010D01*
X57292Y198927D01*
X57309Y198844D01*
X57330Y198762D01*
X57354Y198681D01*
X57382Y198601D01*
X57414Y198523D01*
X57449Y198446D01*
X57487Y198370D01*
X57529Y198297D01*
X57574Y198225D01*
X57622Y198156D01*
X57673Y198088D01*
X57727Y198023D01*
X57784Y197961D01*
X57844Y197901D01*
X57906Y197844D01*
X57971Y197790D01*
X58039Y197739D01*
X58108Y197691D01*
X58180Y197646D01*
X58253Y197604D01*
X58329Y197566D01*
X58406Y197531D01*
X58484Y197499D01*
X58564Y197471D01*
X58645Y197447D01*
X58727Y197426D01*
X58810Y197409D01*
X58893Y197396D01*
X58977Y197387D01*
X59061Y197381D01*
X59146Y197379D01*
X63854Y197379D01*
X63939Y197381D01*
X64023Y197387D01*
X64107Y197396D01*
X64190Y197409D01*
X64273Y197426D01*
X64355Y197447D01*
X64436Y197471D01*
X64516Y197499D01*
X64594Y197531D01*
X64671Y197566D01*
X64747Y197604D01*
X64820Y197646D01*
X64892Y197691D01*
X64961Y197739D01*
X65029Y197790D01*
X65094Y197844D01*
X65156Y197901D01*
X65216Y197961D01*
X65273Y198023D01*
X65327Y198088D01*
X65378Y198156D01*
X65426Y198225D01*
X65471Y198297D01*
X65513Y198370D01*
X65551Y198446D01*
X65586Y198523D01*
X65618Y198601D01*
X65646Y198681D01*
X65670Y198762D01*
X65691Y198844D01*
X65708Y198927D01*
X65721Y199010D01*
X65730Y199094D01*
X65736Y199178D01*
X65738Y199263D01*
X65738Y201146D01*
X65738Y206679D02*
X59146Y206679D01*
X59146Y206680D02*
X59061Y206678D01*
X58977Y206672D01*
X58893Y206663D01*
X58810Y206650D01*
X58727Y206633D01*
X58645Y206612D01*
X58564Y206588D01*
X58484Y206560D01*
X58406Y206528D01*
X58329Y206493D01*
X58253Y206455D01*
X58180Y206413D01*
X58108Y206368D01*
X58039Y206320D01*
X57971Y206269D01*
X57906Y206215D01*
X57844Y206158D01*
X57784Y206098D01*
X57727Y206036D01*
X57673Y205971D01*
X57622Y205903D01*
X57574Y205834D01*
X57529Y205762D01*
X57487Y205689D01*
X57449Y205613D01*
X57414Y205536D01*
X57382Y205458D01*
X57354Y205378D01*
X57330Y205297D01*
X57309Y205215D01*
X57292Y205132D01*
X57279Y205049D01*
X57270Y204965D01*
X57264Y204881D01*
X57262Y204796D01*
X57262Y203854D01*
X57262Y211543D02*
X65738Y211543D01*
X57262Y211543D02*
X57262Y215310D01*
X57262Y220863D02*
X57262Y222746D01*
X57262Y220863D02*
X57264Y220778D01*
X57270Y220694D01*
X57279Y220610D01*
X57292Y220527D01*
X57309Y220444D01*
X57330Y220362D01*
X57354Y220281D01*
X57382Y220201D01*
X57414Y220123D01*
X57449Y220046D01*
X57487Y219970D01*
X57529Y219897D01*
X57574Y219825D01*
X57622Y219756D01*
X57673Y219688D01*
X57727Y219623D01*
X57784Y219561D01*
X57844Y219501D01*
X57906Y219444D01*
X57971Y219390D01*
X58039Y219339D01*
X58108Y219291D01*
X58180Y219246D01*
X58253Y219204D01*
X58329Y219166D01*
X58406Y219131D01*
X58484Y219099D01*
X58564Y219071D01*
X58645Y219047D01*
X58727Y219026D01*
X58810Y219009D01*
X58893Y218996D01*
X58977Y218987D01*
X59061Y218981D01*
X59146Y218979D01*
X63854Y218979D01*
X63939Y218981D01*
X64023Y218987D01*
X64107Y218996D01*
X64190Y219009D01*
X64273Y219026D01*
X64355Y219047D01*
X64436Y219071D01*
X64516Y219099D01*
X64594Y219131D01*
X64671Y219166D01*
X64747Y219204D01*
X64820Y219246D01*
X64892Y219291D01*
X64961Y219339D01*
X65029Y219390D01*
X65094Y219444D01*
X65156Y219501D01*
X65216Y219561D01*
X65273Y219623D01*
X65327Y219688D01*
X65378Y219756D01*
X65426Y219825D01*
X65471Y219897D01*
X65513Y219970D01*
X65551Y220046D01*
X65586Y220123D01*
X65618Y220201D01*
X65646Y220281D01*
X65670Y220362D01*
X65691Y220444D01*
X65708Y220527D01*
X65721Y220610D01*
X65730Y220694D01*
X65736Y220778D01*
X65738Y220863D01*
X65738Y222746D01*
X65738Y228279D02*
X59146Y228279D01*
X59061Y228277D01*
X58977Y228271D01*
X58893Y228262D01*
X58810Y228249D01*
X58727Y228232D01*
X58645Y228211D01*
X58564Y228187D01*
X58484Y228159D01*
X58406Y228127D01*
X58329Y228092D01*
X58253Y228054D01*
X58180Y228012D01*
X58108Y227967D01*
X58039Y227919D01*
X57971Y227868D01*
X57906Y227814D01*
X57844Y227757D01*
X57784Y227697D01*
X57727Y227635D01*
X57673Y227570D01*
X57622Y227502D01*
X57574Y227433D01*
X57529Y227361D01*
X57487Y227288D01*
X57449Y227212D01*
X57414Y227135D01*
X57382Y227057D01*
X57354Y226977D01*
X57330Y226896D01*
X57309Y226814D01*
X57292Y226731D01*
X57279Y226648D01*
X57270Y226564D01*
X57264Y226480D01*
X57262Y226395D01*
X57262Y225454D01*
X57262Y233143D02*
X65738Y233143D01*
X57262Y233143D02*
X57262Y236910D01*
X57262Y242462D02*
X57262Y244346D01*
X57262Y242462D02*
X57264Y242377D01*
X57270Y242293D01*
X57279Y242209D01*
X57292Y242126D01*
X57309Y242043D01*
X57330Y241961D01*
X57354Y241880D01*
X57382Y241800D01*
X57414Y241722D01*
X57449Y241645D01*
X57487Y241569D01*
X57529Y241496D01*
X57574Y241424D01*
X57622Y241355D01*
X57673Y241287D01*
X57727Y241222D01*
X57784Y241160D01*
X57844Y241100D01*
X57906Y241043D01*
X57971Y240989D01*
X58039Y240938D01*
X58108Y240890D01*
X58180Y240845D01*
X58253Y240803D01*
X58329Y240765D01*
X58406Y240730D01*
X58484Y240698D01*
X58564Y240670D01*
X58645Y240646D01*
X58727Y240625D01*
X58810Y240608D01*
X58893Y240595D01*
X58977Y240586D01*
X59061Y240580D01*
X59146Y240578D01*
X59146Y240579D02*
X63854Y240579D01*
X63939Y240581D01*
X64023Y240587D01*
X64107Y240596D01*
X64190Y240609D01*
X64273Y240626D01*
X64355Y240647D01*
X64436Y240671D01*
X64516Y240699D01*
X64594Y240731D01*
X64671Y240766D01*
X64747Y240804D01*
X64820Y240846D01*
X64892Y240891D01*
X64961Y240939D01*
X65029Y240990D01*
X65094Y241044D01*
X65156Y241101D01*
X65216Y241161D01*
X65273Y241223D01*
X65327Y241288D01*
X65378Y241356D01*
X65426Y241425D01*
X65471Y241497D01*
X65513Y241570D01*
X65551Y241646D01*
X65586Y241723D01*
X65618Y241801D01*
X65646Y241881D01*
X65670Y241962D01*
X65691Y242044D01*
X65708Y242127D01*
X65721Y242210D01*
X65730Y242294D01*
X65736Y242378D01*
X65738Y242463D01*
X65738Y242462D02*
X65738Y244346D01*
D11*
X22500Y305000D03*
X552500Y110000D03*
X22500Y102500D03*
D12*
X487500Y105000D02*
X497500Y105000D01*
X492500Y110000D02*
X492500Y100000D01*
X477500Y105000D02*
X467500Y105000D01*
D13*
X546135Y85699D02*
X550865Y87275D01*
X550865Y84122D02*
X546135Y85699D01*
X546135Y80216D02*
X546137Y80153D01*
X546143Y80089D01*
X546152Y80027D01*
X546166Y79964D01*
X546183Y79903D01*
X546203Y79843D01*
X546228Y79785D01*
X546255Y79728D01*
X546287Y79672D01*
X546321Y79619D01*
X546359Y79568D01*
X546399Y79519D01*
X546443Y79473D01*
X546489Y79429D01*
X546538Y79389D01*
X546589Y79351D01*
X546642Y79317D01*
X546698Y79285D01*
X546755Y79258D01*
X546813Y79233D01*
X546873Y79213D01*
X546934Y79196D01*
X546997Y79182D01*
X547059Y79173D01*
X547123Y79167D01*
X547186Y79165D01*
X546135Y80216D02*
X546137Y80308D01*
X546143Y80400D01*
X546152Y80492D01*
X546166Y80583D01*
X546183Y80674D01*
X546204Y80764D01*
X546228Y80853D01*
X546257Y80941D01*
X546288Y81027D01*
X546324Y81112D01*
X546363Y81196D01*
X546405Y81278D01*
X546451Y81358D01*
X546500Y81436D01*
X546553Y81512D01*
X546608Y81586D01*
X546666Y81657D01*
X546728Y81726D01*
X546792Y81792D01*
X549814Y81661D02*
X549877Y81659D01*
X549941Y81653D01*
X550003Y81644D01*
X550066Y81630D01*
X550127Y81613D01*
X550187Y81593D01*
X550245Y81568D01*
X550302Y81541D01*
X550358Y81509D01*
X550411Y81475D01*
X550462Y81437D01*
X550511Y81397D01*
X550557Y81353D01*
X550601Y81307D01*
X550641Y81258D01*
X550679Y81207D01*
X550713Y81154D01*
X550745Y81098D01*
X550772Y81041D01*
X550797Y80983D01*
X550817Y80923D01*
X550834Y80862D01*
X550848Y80799D01*
X550857Y80737D01*
X550863Y80673D01*
X550865Y80610D01*
X550863Y80525D01*
X550858Y80441D01*
X550849Y80357D01*
X550836Y80273D01*
X550820Y80190D01*
X550800Y80108D01*
X550777Y80027D01*
X550750Y79947D01*
X550720Y79868D01*
X550686Y79790D01*
X550650Y79714D01*
X550610Y79640D01*
X550566Y79567D01*
X550520Y79496D01*
X550471Y79427D01*
X548894Y81136D02*
X548927Y81188D01*
X548962Y81239D01*
X549001Y81287D01*
X549042Y81332D01*
X549086Y81376D01*
X549132Y81416D01*
X549181Y81454D01*
X549232Y81489D01*
X549284Y81521D01*
X549338Y81550D01*
X549394Y81576D01*
X549452Y81599D01*
X549510Y81618D01*
X549570Y81634D01*
X549630Y81646D01*
X549691Y81655D01*
X549752Y81660D01*
X549814Y81662D01*
X548106Y79690D02*
X548073Y79638D01*
X548038Y79587D01*
X547999Y79539D01*
X547958Y79494D01*
X547914Y79450D01*
X547868Y79410D01*
X547819Y79372D01*
X547768Y79337D01*
X547716Y79305D01*
X547662Y79276D01*
X547606Y79250D01*
X547548Y79227D01*
X547490Y79208D01*
X547430Y79192D01*
X547370Y79180D01*
X547309Y79171D01*
X547248Y79166D01*
X547186Y79164D01*
X548106Y79690D02*
X548894Y81136D01*
X550865Y76835D02*
X548631Y75259D01*
X550865Y73682D01*
X548631Y75259D02*
X546135Y75259D01*
X546135Y69776D02*
X546137Y69713D01*
X546143Y69649D01*
X546152Y69587D01*
X546166Y69524D01*
X546183Y69463D01*
X546203Y69403D01*
X546228Y69345D01*
X546255Y69288D01*
X546287Y69232D01*
X546321Y69179D01*
X546359Y69128D01*
X546399Y69079D01*
X546443Y69033D01*
X546489Y68989D01*
X546538Y68949D01*
X546589Y68911D01*
X546642Y68877D01*
X546698Y68845D01*
X546755Y68818D01*
X546813Y68793D01*
X546873Y68773D01*
X546934Y68756D01*
X546997Y68742D01*
X547059Y68733D01*
X547123Y68727D01*
X547186Y68725D01*
X546135Y69776D02*
X546137Y69868D01*
X546143Y69960D01*
X546152Y70052D01*
X546166Y70143D01*
X546183Y70234D01*
X546204Y70324D01*
X546228Y70413D01*
X546257Y70501D01*
X546288Y70587D01*
X546324Y70672D01*
X546363Y70756D01*
X546405Y70838D01*
X546451Y70918D01*
X546500Y70996D01*
X546553Y71072D01*
X546608Y71146D01*
X546666Y71217D01*
X546728Y71286D01*
X546792Y71352D01*
X549814Y71221D02*
X549877Y71219D01*
X549941Y71213D01*
X550003Y71204D01*
X550066Y71190D01*
X550127Y71173D01*
X550187Y71153D01*
X550245Y71128D01*
X550302Y71101D01*
X550358Y71069D01*
X550411Y71035D01*
X550462Y70997D01*
X550511Y70957D01*
X550557Y70913D01*
X550601Y70867D01*
X550641Y70818D01*
X550679Y70767D01*
X550713Y70714D01*
X550745Y70658D01*
X550772Y70601D01*
X550797Y70543D01*
X550817Y70483D01*
X550834Y70422D01*
X550848Y70359D01*
X550857Y70297D01*
X550863Y70233D01*
X550865Y70170D01*
X550863Y70085D01*
X550858Y70001D01*
X550849Y69917D01*
X550836Y69833D01*
X550820Y69750D01*
X550800Y69668D01*
X550777Y69587D01*
X550750Y69507D01*
X550720Y69428D01*
X550686Y69350D01*
X550650Y69274D01*
X550610Y69200D01*
X550566Y69127D01*
X550520Y69056D01*
X550471Y68987D01*
X548894Y70696D02*
X548927Y70748D01*
X548962Y70799D01*
X549001Y70847D01*
X549042Y70892D01*
X549086Y70936D01*
X549132Y70976D01*
X549181Y71014D01*
X549232Y71049D01*
X549284Y71081D01*
X549338Y71110D01*
X549394Y71136D01*
X549452Y71159D01*
X549510Y71178D01*
X549570Y71194D01*
X549630Y71206D01*
X549691Y71215D01*
X549752Y71220D01*
X549814Y71222D01*
X548106Y69250D02*
X548073Y69198D01*
X548038Y69147D01*
X547999Y69099D01*
X547958Y69054D01*
X547914Y69010D01*
X547868Y68970D01*
X547819Y68932D01*
X547768Y68897D01*
X547716Y68865D01*
X547662Y68836D01*
X547606Y68810D01*
X547548Y68787D01*
X547490Y68768D01*
X547430Y68752D01*
X547370Y68740D01*
X547309Y68731D01*
X547248Y68726D01*
X547186Y68724D01*
X548106Y69250D02*
X548894Y70696D01*
D14*
X554000Y90000D02*
X553386Y90145D01*
X552768Y90276D01*
X552147Y90391D01*
X551524Y90491D01*
X550899Y90576D01*
X550271Y90645D01*
X549642Y90699D01*
X549012Y90738D01*
X548381Y90761D01*
X547750Y90769D01*
X547119Y90761D01*
X546488Y90738D01*
X545858Y90699D01*
X545229Y90645D01*
X544601Y90576D01*
X543976Y90491D01*
X543353Y90391D01*
X542732Y90276D01*
X542114Y90145D01*
X541500Y90000D01*
X545000Y92500D01*
X541500Y90000D02*
X545500Y88000D01*
D12*
X82500Y107500D02*
X72500Y107500D01*
X77500Y112500D02*
X77500Y102500D01*
X62500Y107500D02*
X52500Y107500D01*
D15*
X322503Y140145D03*
D16*
X263067Y144717D03*
D17*
X306501Y144717D03*
D18*
X331647Y144717D03*
D16*
X345363Y144717D03*
X381939Y144717D03*
D18*
X267639Y149289D03*
D16*
X281355Y149289D03*
D17*
X292785Y149289D03*
D16*
X304215Y149289D03*
X336219Y149289D03*
X345363Y149289D03*
D19*
X363651Y149289D03*
D16*
X381939Y149289D03*
D17*
X265353Y153861D03*
D16*
X281355Y153861D03*
X290499Y153861D03*
D18*
X304215Y153861D03*
D17*
X320217Y153861D03*
D16*
X331647Y153861D03*
X345363Y153861D03*
X354507Y153861D03*
X372795Y153861D03*
X381939Y153861D03*
X263067Y158433D03*
X290499Y158433D03*
X322503Y158433D03*
X336219Y158433D03*
X345363Y158433D03*
X354507Y158433D03*
X372795Y158433D03*
X381939Y158433D03*
X263067Y163005D03*
D17*
X274497Y163005D03*
D16*
X308787Y163005D03*
X327075Y163005D03*
D17*
X343077Y163005D03*
D16*
X354507Y163005D03*
X372795Y163005D03*
X381939Y163005D03*
D19*
X272211Y167577D03*
D18*
X295071Y167577D03*
D20*
X315645Y167577D03*
X338505Y167577D03*
D19*
X363651Y167577D03*
D16*
X381939Y167577D03*
X263067Y172149D03*
X281355Y172149D03*
X290499Y172149D03*
X299643Y172149D03*
X308787Y172149D03*
D21*
X333933Y172149D03*
D16*
X381939Y172149D03*
X263067Y176721D03*
X272211Y176721D03*
X281355Y176721D03*
D18*
X295071Y176721D03*
D16*
X308787Y176721D03*
D17*
X324789Y176721D03*
D22*
X363651Y176721D03*
D16*
X263067Y181293D03*
X313359Y181293D03*
D17*
X324789Y181293D03*
X338505Y181293D03*
D18*
X359079Y181293D03*
X377367Y181293D03*
D16*
X263067Y185865D03*
D18*
X276783Y185865D03*
D16*
X295071Y185865D03*
D20*
X315645Y185865D03*
D17*
X333933Y185865D03*
D18*
X354507Y185865D03*
D16*
X372795Y185865D03*
X381939Y185865D03*
D17*
X265353Y190437D03*
D16*
X281355Y190437D03*
D17*
X292785Y190437D03*
D20*
X315645Y190437D03*
D16*
X331647Y190437D03*
X340791Y190437D03*
X354507Y190437D03*
D17*
X365937Y190437D03*
X379653Y190437D03*
D16*
X263067Y195009D03*
D18*
X276783Y195009D03*
D16*
X313359Y195009D03*
D19*
X340791Y195009D03*
D16*
X359079Y195009D03*
D20*
X375081Y195009D03*
D16*
X263067Y199581D03*
X281355Y199581D03*
X290499Y199581D03*
X304215Y199581D03*
X327075Y199581D03*
X345363Y199581D03*
D17*
X370509Y199581D03*
D16*
X381939Y199581D03*
D18*
X267639Y204153D03*
D16*
X295071Y204153D03*
D17*
X324789Y204153D03*
D16*
X340791Y204153D03*
D18*
X354507Y204153D03*
D17*
X379653Y204153D03*
D19*
X272211Y208725D03*
D16*
X299643Y208725D03*
D17*
X311073Y208725D03*
D16*
X345363Y208725D03*
X354507Y208725D03*
X381939Y208725D03*
D17*
X265353Y213297D03*
D18*
X281355Y213297D03*
D17*
X297357Y213297D03*
D18*
X313359Y213297D03*
D16*
X327075Y213297D03*
D17*
X338505Y213297D03*
D18*
X354507Y213297D03*
D16*
X368223Y213297D03*
X381939Y213297D03*
X263067Y217869D03*
X272211Y217869D03*
D17*
X292785Y217869D03*
D16*
X336219Y217869D03*
X345363Y217869D03*
D17*
X356793Y217869D03*
D16*
X381939Y217869D03*
D22*
X281355Y222441D03*
D16*
X317931Y222441D03*
X327075Y222441D03*
D23*
X359079Y222441D03*
D16*
X263067Y227013D03*
X299643Y227013D03*
X308787Y227013D03*
X317931Y227013D03*
X327075Y227013D03*
X336219Y227013D03*
X345363Y227013D03*
X381939Y227013D03*
X263067Y231585D03*
D19*
X281355Y231585D03*
D20*
X306501Y231585D03*
D16*
X322503Y231585D03*
D18*
X340791Y231585D03*
D19*
X363651Y231585D03*
D16*
X381939Y231585D03*
X263067Y236157D03*
X272211Y236157D03*
X290499Y236157D03*
X299643Y236157D03*
D17*
X315645Y236157D03*
X333933Y236157D03*
D16*
X345363Y236157D03*
X354507Y236157D03*
X372795Y236157D03*
X381939Y236157D03*
X263067Y240729D03*
X272211Y240729D03*
X290499Y240729D03*
D20*
X306501Y240729D03*
D16*
X327075Y240729D03*
X345363Y240729D03*
X354507Y240729D03*
X372795Y240729D03*
X381939Y240729D03*
X263067Y245301D03*
X272211Y245301D03*
X290499Y245301D03*
D18*
X304215Y245301D03*
D17*
X324789Y245301D03*
D16*
X345363Y245301D03*
X354507Y245301D03*
X372795Y245301D03*
X381939Y245301D03*
X263067Y249873D03*
D19*
X281355Y249873D03*
D16*
X299643Y249873D03*
D17*
X311073Y249873D03*
X343077Y249873D03*
D19*
X363651Y249873D03*
D16*
X381939Y249873D03*
X263067Y254445D03*
D20*
X306501Y254445D03*
D16*
X327075Y254445D03*
X336219Y254445D03*
X345363Y254445D03*
X381939Y254445D03*
D15*
X322503Y259017D03*
D24*
X170000Y322000D02*
X161000Y322000D01*
X144000Y322000D01*
X135000Y322000D01*
X135000Y293000D02*
X170000Y293000D01*
X161000Y328500D02*
X144000Y328500D01*
X161000Y328500D02*
X161000Y322000D01*
X161055Y322015D01*
X144000Y322000D02*
X144000Y328500D01*
X143479Y322082D02*
X144000Y322000D01*
X221000Y327000D02*
X230000Y327000D01*
X221000Y327000D02*
X204000Y327000D01*
X195000Y327000D01*
X195000Y298000D02*
X230000Y298000D01*
X221000Y333500D02*
X204000Y333500D01*
X221000Y333500D02*
X221000Y327000D01*
X221055Y327015D01*
X204000Y327000D02*
X204000Y333500D01*
X203479Y327082D02*
X204000Y327000D01*
D25*
X316320Y312060D02*
X316320Y304940D01*
X307810Y304940D02*
X307810Y312060D01*
D26*
X312051Y302619D03*
X312051Y314303D03*
D27*
X315810Y308500D02*
X308190Y308500D01*
D25*
X221820Y248560D02*
X221820Y241440D01*
X213310Y241440D02*
X213310Y248560D01*
D26*
X217551Y239119D03*
X217551Y250803D03*
D27*
X221310Y245000D02*
X213690Y245000D01*
D28*
X534986Y175724D03*
D29*
X536000Y186500D02*
X532486Y186500D01*
X536000Y186500D02*
X536000Y223500D01*
X520986Y223500D01*
X472514Y186500D02*
X469000Y186500D01*
X469000Y223500D01*
X484014Y223500D01*
D25*
X556820Y173560D02*
X556820Y166440D01*
X548310Y166440D02*
X548310Y173560D01*
D26*
X552551Y164119D03*
X552551Y175803D03*
D27*
X556310Y170000D02*
X548690Y170000D01*
D25*
X165680Y106060D02*
X165680Y98940D01*
X174190Y98940D02*
X174190Y106060D01*
D26*
X169949Y108382D03*
X169949Y96698D03*
D27*
X166190Y102500D02*
X173810Y102500D01*
D30*
X452500Y208500D03*
D10*
X460680Y241060D02*
X469320Y241060D01*
X469320Y233940D02*
X460680Y233940D01*
D31*
X471350Y237500D03*
X458650Y237500D03*
D27*
X459920Y237500D02*
X470080Y237500D01*
D30*
X52500Y308500D03*
X72500Y308500D03*
X92500Y308500D03*
X112500Y308500D03*
X552500Y208500D03*
D10*
X147310Y66820D02*
X147310Y58180D01*
X140190Y58180D02*
X140190Y66820D01*
D32*
X143750Y56150D03*
X143750Y68850D03*
D27*
X143750Y67580D02*
X143750Y57420D01*
D13*
X187500Y282500D02*
X27500Y282500D01*
X27500Y122500D01*
X187500Y122500D01*
X187500Y282500D01*
X167500Y277500D02*
X167500Y127500D01*
X47500Y127500D01*
X47500Y277500D01*
X167500Y277500D01*
D14*
X146500Y262500D02*
X146502Y262654D01*
X146508Y262809D01*
X146518Y262963D01*
X146532Y263117D01*
X146550Y263270D01*
X146571Y263423D01*
X146597Y263576D01*
X146627Y263727D01*
X146660Y263878D01*
X146698Y264028D01*
X146739Y264177D01*
X146784Y264325D01*
X146833Y264471D01*
X146886Y264617D01*
X146942Y264760D01*
X147002Y264903D01*
X147066Y265043D01*
X147133Y265183D01*
X147204Y265320D01*
X147278Y265455D01*
X147356Y265589D01*
X147437Y265720D01*
X147522Y265849D01*
X147610Y265977D01*
X147701Y266101D01*
X147795Y266224D01*
X147893Y266344D01*
X147993Y266461D01*
X148097Y266576D01*
X148203Y266688D01*
X148312Y266797D01*
X148424Y266903D01*
X148539Y267007D01*
X148656Y267107D01*
X148776Y267205D01*
X148899Y267299D01*
X149023Y267390D01*
X149151Y267478D01*
X149280Y267563D01*
X149411Y267644D01*
X149545Y267722D01*
X149680Y267796D01*
X149817Y267867D01*
X149957Y267934D01*
X150097Y267998D01*
X150240Y268058D01*
X150383Y268114D01*
X150529Y268167D01*
X150675Y268216D01*
X150823Y268261D01*
X150972Y268302D01*
X151122Y268340D01*
X151273Y268373D01*
X151424Y268403D01*
X151577Y268429D01*
X151730Y268450D01*
X151883Y268468D01*
X152037Y268482D01*
X152191Y268492D01*
X152346Y268498D01*
X152500Y268500D01*
X152654Y268498D01*
X152809Y268492D01*
X152963Y268482D01*
X153117Y268468D01*
X153270Y268450D01*
X153423Y268429D01*
X153576Y268403D01*
X153727Y268373D01*
X153878Y268340D01*
X154028Y268302D01*
X154177Y268261D01*
X154325Y268216D01*
X154471Y268167D01*
X154617Y268114D01*
X154760Y268058D01*
X154903Y267998D01*
X155043Y267934D01*
X155183Y267867D01*
X155320Y267796D01*
X155455Y267722D01*
X155589Y267644D01*
X155720Y267563D01*
X155849Y267478D01*
X155977Y267390D01*
X156101Y267299D01*
X156224Y267205D01*
X156344Y267107D01*
X156461Y267007D01*
X156576Y266903D01*
X156688Y266797D01*
X156797Y266688D01*
X156903Y266576D01*
X157007Y266461D01*
X157107Y266344D01*
X157205Y266224D01*
X157299Y266101D01*
X157390Y265977D01*
X157478Y265849D01*
X157563Y265720D01*
X157644Y265589D01*
X157722Y265455D01*
X157796Y265320D01*
X157867Y265183D01*
X157934Y265043D01*
X157998Y264903D01*
X158058Y264760D01*
X158114Y264617D01*
X158167Y264471D01*
X158216Y264325D01*
X158261Y264177D01*
X158302Y264028D01*
X158340Y263878D01*
X158373Y263727D01*
X158403Y263576D01*
X158429Y263423D01*
X158450Y263270D01*
X158468Y263117D01*
X158482Y262963D01*
X158492Y262809D01*
X158498Y262654D01*
X158500Y262500D01*
X158498Y262346D01*
X158492Y262191D01*
X158482Y262037D01*
X158468Y261883D01*
X158450Y261730D01*
X158429Y261577D01*
X158403Y261424D01*
X158373Y261273D01*
X158340Y261122D01*
X158302Y260972D01*
X158261Y260823D01*
X158216Y260675D01*
X158167Y260529D01*
X158114Y260383D01*
X158058Y260240D01*
X157998Y260097D01*
X157934Y259957D01*
X157867Y259817D01*
X157796Y259680D01*
X157722Y259545D01*
X157644Y259411D01*
X157563Y259280D01*
X157478Y259151D01*
X157390Y259023D01*
X157299Y258899D01*
X157205Y258776D01*
X157107Y258656D01*
X157007Y258539D01*
X156903Y258424D01*
X156797Y258312D01*
X156688Y258203D01*
X156576Y258097D01*
X156461Y257993D01*
X156344Y257893D01*
X156224Y257795D01*
X156101Y257701D01*
X155977Y257610D01*
X155849Y257522D01*
X155720Y257437D01*
X155589Y257356D01*
X155455Y257278D01*
X155320Y257204D01*
X155183Y257133D01*
X155043Y257066D01*
X154903Y257002D01*
X154760Y256942D01*
X154617Y256886D01*
X154471Y256833D01*
X154325Y256784D01*
X154177Y256739D01*
X154028Y256698D01*
X153878Y256660D01*
X153727Y256627D01*
X153576Y256597D01*
X153423Y256571D01*
X153270Y256550D01*
X153117Y256532D01*
X152963Y256518D01*
X152809Y256508D01*
X152654Y256502D01*
X152500Y256500D01*
X152346Y256502D01*
X152191Y256508D01*
X152037Y256518D01*
X151883Y256532D01*
X151730Y256550D01*
X151577Y256571D01*
X151424Y256597D01*
X151273Y256627D01*
X151122Y256660D01*
X150972Y256698D01*
X150823Y256739D01*
X150675Y256784D01*
X150529Y256833D01*
X150383Y256886D01*
X150240Y256942D01*
X150097Y257002D01*
X149957Y257066D01*
X149817Y257133D01*
X149680Y257204D01*
X149545Y257278D01*
X149411Y257356D01*
X149280Y257437D01*
X149151Y257522D01*
X149023Y257610D01*
X148899Y257701D01*
X148776Y257795D01*
X148656Y257893D01*
X148539Y257993D01*
X148424Y258097D01*
X148312Y258203D01*
X148203Y258312D01*
X148097Y258424D01*
X147993Y258539D01*
X147893Y258656D01*
X147795Y258776D01*
X147701Y258899D01*
X147610Y259023D01*
X147522Y259151D01*
X147437Y259280D01*
X147356Y259411D01*
X147278Y259545D01*
X147204Y259680D01*
X147133Y259817D01*
X147066Y259957D01*
X147002Y260097D01*
X146942Y260240D01*
X146886Y260383D01*
X146833Y260529D01*
X146784Y260675D01*
X146739Y260823D01*
X146698Y260972D01*
X146660Y261122D01*
X146627Y261273D01*
X146597Y261424D01*
X146571Y261577D01*
X146550Y261730D01*
X146532Y261883D01*
X146518Y262037D01*
X146508Y262191D01*
X146502Y262346D01*
X146500Y262500D01*
D13*
X242500Y115000D02*
X402500Y115000D01*
X402500Y275000D01*
X242500Y275000D01*
X242500Y115000D01*
X230500Y105000D02*
X414500Y105000D01*
X414500Y289000D01*
X230500Y289000D01*
X230500Y105000D01*
D10*
X334000Y294500D02*
X401000Y294500D01*
X334000Y294500D02*
X334000Y320500D01*
X401000Y320500D02*
X401000Y294500D01*
X401000Y320500D02*
X365500Y320500D01*
X352500Y320500D01*
X334000Y320500D01*
X352500Y335500D02*
X365500Y335500D01*
X365500Y320500D01*
X352500Y320500D02*
X352500Y335500D01*
D25*
X221820Y213560D02*
X221820Y206440D01*
X213310Y206440D02*
X213310Y213560D01*
D26*
X217551Y204119D03*
X217551Y215803D03*
D27*
X221310Y210000D02*
X213690Y210000D01*
D24*
X281000Y327000D02*
X290000Y327000D01*
X281000Y327000D02*
X264000Y327000D01*
X255000Y327000D01*
X255000Y298000D02*
X290000Y298000D01*
X281000Y333500D02*
X264000Y333500D01*
X281000Y333500D02*
X281000Y327000D01*
X281055Y327015D01*
X264000Y327000D02*
X264000Y333500D01*
X263479Y327082D02*
X264000Y327000D01*
D13*
X127000Y83000D02*
X127000Y7000D01*
X28000Y7000D01*
X118500Y83000D02*
X127000Y83000D01*
X36500Y83000D02*
X28000Y83000D01*
X28000Y7000D01*
X36500Y67000D02*
X118500Y67000D01*
X36500Y67000D02*
X36500Y83000D01*
X118500Y83000D02*
X118500Y67000D01*
X44500Y72000D02*
X44502Y72089D01*
X44508Y72178D01*
X44518Y72267D01*
X44532Y72355D01*
X44549Y72442D01*
X44571Y72528D01*
X44597Y72614D01*
X44626Y72698D01*
X44659Y72781D01*
X44695Y72862D01*
X44736Y72942D01*
X44779Y73019D01*
X44826Y73095D01*
X44877Y73168D01*
X44930Y73239D01*
X44987Y73308D01*
X45047Y73374D01*
X45110Y73438D01*
X45175Y73498D01*
X45243Y73556D01*
X45314Y73610D01*
X45387Y73661D01*
X45462Y73709D01*
X45539Y73754D01*
X45618Y73795D01*
X45699Y73832D01*
X45781Y73866D01*
X45865Y73897D01*
X45950Y73923D01*
X46036Y73946D01*
X46123Y73964D01*
X46211Y73979D01*
X46300Y73990D01*
X46389Y73997D01*
X46478Y74000D01*
X46567Y73999D01*
X46656Y73994D01*
X46744Y73985D01*
X46833Y73972D01*
X46920Y73955D01*
X47007Y73935D01*
X47093Y73910D01*
X47177Y73882D01*
X47260Y73850D01*
X47342Y73814D01*
X47422Y73775D01*
X47500Y73732D01*
X47576Y73686D01*
X47650Y73636D01*
X47722Y73583D01*
X47791Y73527D01*
X47858Y73468D01*
X47922Y73406D01*
X47983Y73342D01*
X48042Y73274D01*
X48097Y73204D01*
X48149Y73132D01*
X48198Y73057D01*
X48243Y72981D01*
X48285Y72902D01*
X48323Y72822D01*
X48358Y72740D01*
X48389Y72656D01*
X48417Y72571D01*
X48440Y72485D01*
X48460Y72398D01*
X48476Y72311D01*
X48488Y72222D01*
X48496Y72134D01*
X48500Y72045D01*
X48500Y71955D01*
X48496Y71866D01*
X48488Y71778D01*
X48476Y71689D01*
X48460Y71602D01*
X48440Y71515D01*
X48417Y71429D01*
X48389Y71344D01*
X48358Y71260D01*
X48323Y71178D01*
X48285Y71098D01*
X48243Y71019D01*
X48198Y70943D01*
X48149Y70868D01*
X48097Y70796D01*
X48042Y70726D01*
X47983Y70658D01*
X47922Y70594D01*
X47858Y70532D01*
X47791Y70473D01*
X47722Y70417D01*
X47650Y70364D01*
X47576Y70314D01*
X47500Y70268D01*
X47422Y70225D01*
X47342Y70186D01*
X47260Y70150D01*
X47177Y70118D01*
X47093Y70090D01*
X47007Y70065D01*
X46920Y70045D01*
X46833Y70028D01*
X46744Y70015D01*
X46656Y70006D01*
X46567Y70001D01*
X46478Y70000D01*
X46389Y70003D01*
X46300Y70010D01*
X46211Y70021D01*
X46123Y70036D01*
X46036Y70054D01*
X45950Y70077D01*
X45865Y70103D01*
X45781Y70134D01*
X45699Y70168D01*
X45618Y70205D01*
X45539Y70246D01*
X45462Y70291D01*
X45387Y70339D01*
X45314Y70390D01*
X45243Y70444D01*
X45175Y70502D01*
X45110Y70562D01*
X45047Y70626D01*
X44987Y70692D01*
X44930Y70761D01*
X44877Y70832D01*
X44826Y70905D01*
X44779Y70981D01*
X44736Y71058D01*
X44695Y71138D01*
X44659Y71219D01*
X44626Y71302D01*
X44597Y71386D01*
X44571Y71472D01*
X44549Y71558D01*
X44532Y71645D01*
X44518Y71733D01*
X44508Y71822D01*
X44502Y71911D01*
X44500Y72000D01*
D10*
X535680Y241060D02*
X544320Y241060D01*
X544320Y233940D02*
X535680Y233940D01*
D31*
X546350Y237500D03*
X533650Y237500D03*
D27*
X534920Y237500D02*
X545080Y237500D01*
D13*
X440200Y184000D02*
X440200Y311000D01*
X414800Y311000D02*
X414800Y184000D01*
X414800Y311000D02*
X414804Y311309D01*
X414815Y311618D01*
X414834Y311927D01*
X414860Y312235D01*
X414894Y312543D01*
X414935Y312849D01*
X414984Y313155D01*
X415040Y313459D01*
X415104Y313761D01*
X415175Y314062D01*
X415253Y314362D01*
X415338Y314659D01*
X415431Y314954D01*
X415531Y315247D01*
X415638Y315537D01*
X415752Y315824D01*
X415873Y316109D01*
X416001Y316391D01*
X416135Y316669D01*
X416277Y316944D01*
X416425Y317216D01*
X416580Y317483D01*
X416741Y317747D01*
X416908Y318007D01*
X417082Y318263D01*
X417262Y318515D01*
X417448Y318762D01*
X417640Y319004D01*
X417838Y319242D01*
X418041Y319475D01*
X418251Y319703D01*
X418465Y319925D01*
X418685Y320143D01*
X418911Y320355D01*
X419141Y320561D01*
X419376Y320762D01*
X419616Y320957D01*
X419861Y321146D01*
X420110Y321329D01*
X420364Y321506D01*
X420622Y321676D01*
X420884Y321841D01*
X421150Y321999D01*
X421420Y322150D01*
X421693Y322295D01*
X421970Y322433D01*
X422250Y322564D01*
X422533Y322688D01*
X422819Y322806D01*
X423108Y322916D01*
X423399Y323020D01*
X423693Y323116D01*
X423989Y323205D01*
X424288Y323287D01*
X424588Y323362D01*
X424890Y323429D01*
X425193Y323489D01*
X425498Y323541D01*
X425804Y323586D01*
X426111Y323624D01*
X426419Y323654D01*
X426727Y323676D01*
X427036Y323692D01*
X427345Y323699D01*
X427655Y323699D01*
X427964Y323692D01*
X428273Y323676D01*
X428581Y323654D01*
X428889Y323624D01*
X429196Y323586D01*
X429502Y323541D01*
X429807Y323489D01*
X430110Y323429D01*
X430412Y323362D01*
X430712Y323287D01*
X431011Y323205D01*
X431307Y323116D01*
X431601Y323020D01*
X431892Y322916D01*
X432181Y322806D01*
X432467Y322688D01*
X432750Y322564D01*
X433030Y322433D01*
X433307Y322295D01*
X433580Y322150D01*
X433850Y321999D01*
X434116Y321841D01*
X434378Y321676D01*
X434636Y321506D01*
X434890Y321329D01*
X435139Y321146D01*
X435384Y320957D01*
X435624Y320762D01*
X435859Y320561D01*
X436089Y320355D01*
X436315Y320143D01*
X436535Y319925D01*
X436749Y319703D01*
X436959Y319475D01*
X437162Y319242D01*
X437360Y319004D01*
X437552Y318762D01*
X437738Y318515D01*
X437918Y318263D01*
X438092Y318007D01*
X438259Y317747D01*
X438420Y317483D01*
X438575Y317216D01*
X438723Y316944D01*
X438865Y316669D01*
X438999Y316391D01*
X439127Y316109D01*
X439248Y315824D01*
X439362Y315537D01*
X439469Y315247D01*
X439569Y314954D01*
X439662Y314659D01*
X439747Y314362D01*
X439825Y314062D01*
X439896Y313761D01*
X439960Y313459D01*
X440016Y313155D01*
X440065Y312849D01*
X440106Y312543D01*
X440140Y312235D01*
X440166Y311927D01*
X440185Y311618D01*
X440196Y311309D01*
X440200Y311000D01*
X440200Y184000D02*
X440196Y183691D01*
X440185Y183382D01*
X440166Y183073D01*
X440140Y182765D01*
X440106Y182457D01*
X440065Y182151D01*
X440016Y181845D01*
X439960Y181541D01*
X439896Y181239D01*
X439825Y180938D01*
X439747Y180638D01*
X439662Y180341D01*
X439569Y180046D01*
X439469Y179753D01*
X439362Y179463D01*
X439248Y179176D01*
X439127Y178891D01*
X438999Y178609D01*
X438865Y178331D01*
X438723Y178056D01*
X438575Y177784D01*
X438420Y177517D01*
X438259Y177253D01*
X438092Y176993D01*
X437918Y176737D01*
X437738Y176485D01*
X437552Y176238D01*
X437360Y175996D01*
X437162Y175758D01*
X436959Y175525D01*
X436749Y175297D01*
X436535Y175075D01*
X436315Y174857D01*
X436089Y174645D01*
X435859Y174439D01*
X435624Y174238D01*
X435384Y174043D01*
X435139Y173854D01*
X434890Y173671D01*
X434636Y173494D01*
X434378Y173324D01*
X434116Y173159D01*
X433850Y173001D01*
X433580Y172850D01*
X433307Y172705D01*
X433030Y172567D01*
X432750Y172436D01*
X432467Y172312D01*
X432181Y172194D01*
X431892Y172084D01*
X431601Y171980D01*
X431307Y171884D01*
X431011Y171795D01*
X430712Y171713D01*
X430412Y171638D01*
X430110Y171571D01*
X429807Y171511D01*
X429502Y171459D01*
X429196Y171414D01*
X428889Y171376D01*
X428581Y171346D01*
X428273Y171324D01*
X427964Y171308D01*
X427655Y171301D01*
X427345Y171301D01*
X427036Y171308D01*
X426727Y171324D01*
X426419Y171346D01*
X426111Y171376D01*
X425804Y171414D01*
X425498Y171459D01*
X425193Y171511D01*
X424890Y171571D01*
X424588Y171638D01*
X424288Y171713D01*
X423989Y171795D01*
X423693Y171884D01*
X423399Y171980D01*
X423108Y172084D01*
X422819Y172194D01*
X422533Y172312D01*
X422250Y172436D01*
X421970Y172567D01*
X421693Y172705D01*
X421420Y172850D01*
X421150Y173001D01*
X420884Y173159D01*
X420622Y173324D01*
X420364Y173494D01*
X420110Y173671D01*
X419861Y173854D01*
X419616Y174043D01*
X419376Y174238D01*
X419141Y174439D01*
X418911Y174645D01*
X418685Y174857D01*
X418465Y175075D01*
X418251Y175297D01*
X418041Y175525D01*
X417838Y175758D01*
X417640Y175996D01*
X417448Y176238D01*
X417262Y176485D01*
X417082Y176737D01*
X416908Y176993D01*
X416741Y177253D01*
X416580Y177517D01*
X416425Y177784D01*
X416277Y178056D01*
X416135Y178331D01*
X416001Y178609D01*
X415873Y178891D01*
X415752Y179176D01*
X415638Y179463D01*
X415531Y179753D01*
X415431Y180046D01*
X415338Y180341D01*
X415253Y180638D01*
X415175Y180938D01*
X415104Y181239D01*
X415040Y181541D01*
X414984Y181845D01*
X414935Y182151D01*
X414894Y182457D01*
X414860Y182765D01*
X414834Y183073D01*
X414815Y183382D01*
X414804Y183691D01*
X414800Y184000D01*
X279500Y83000D02*
X279500Y7000D01*
X160500Y7000D01*
X259500Y83000D02*
X279500Y83000D01*
X180500Y83000D02*
X160500Y83000D01*
X160500Y7000D01*
X180500Y67000D02*
X259500Y67000D01*
X259500Y83000D01*
X180500Y83000D02*
X180500Y67000D01*
X180500Y48500D02*
X180500Y40000D01*
X180500Y58500D02*
X180500Y67000D01*
X259500Y48500D02*
X259500Y40000D01*
X259500Y58500D02*
X259500Y67000D01*
X409500Y83000D02*
X409500Y7000D01*
X290500Y7000D01*
X389500Y83000D02*
X409500Y83000D01*
X310500Y83000D02*
X290500Y83000D01*
X290500Y7000D01*
X310500Y67000D02*
X389500Y67000D01*
X389500Y83000D01*
X310500Y83000D02*
X310500Y67000D01*
X310500Y48500D02*
X310500Y40000D01*
X310500Y58500D02*
X310500Y67000D01*
X389500Y48500D02*
X389500Y40000D01*
X389500Y58500D02*
X389500Y67000D01*
D10*
X538180Y146060D02*
X546820Y146060D01*
X546820Y138940D02*
X538180Y138940D01*
D31*
X548850Y142500D03*
X536150Y142500D03*
D27*
X537420Y142500D02*
X547580Y142500D01*
D24*
X515000Y149000D02*
X481000Y149000D01*
X481000Y138500D01*
X481000Y116500D02*
X481000Y106000D01*
X515000Y106000D01*
X524000Y115000D02*
X524000Y116500D01*
X524000Y138000D02*
X524000Y140000D01*
X515000Y149000D01*
X524000Y115000D02*
X515000Y106000D01*
X519000Y137000D02*
X518763Y137399D01*
X518517Y137793D01*
X518261Y138180D01*
X517996Y138561D01*
X517722Y138936D01*
X517439Y139303D01*
X517146Y139664D01*
X516846Y140018D01*
X516536Y140364D01*
X516218Y140702D01*
X515892Y141032D01*
X515559Y141355D01*
X515217Y141669D01*
X514868Y141975D01*
X514511Y142272D01*
X514147Y142561D01*
X513777Y142840D01*
X513399Y143110D01*
X513016Y143371D01*
X512626Y143623D01*
X512230Y143865D01*
X511828Y144098D01*
X511420Y144320D01*
X511008Y144532D01*
X510590Y144735D01*
X510167Y144927D01*
X509740Y145109D01*
X509309Y145280D01*
X508873Y145441D01*
X508434Y145591D01*
X507991Y145730D01*
X507545Y145858D01*
X507096Y145976D01*
X506644Y146082D01*
X506190Y146178D01*
X505734Y146262D01*
X505275Y146336D01*
X504815Y146398D01*
X504354Y146449D01*
X503891Y146488D01*
X503428Y146516D01*
X502964Y146533D01*
X502500Y146539D01*
X502036Y146533D01*
X501572Y146516D01*
X501109Y146488D01*
X500646Y146449D01*
X500185Y146398D01*
X499725Y146336D01*
X499266Y146262D01*
X498810Y146178D01*
X498356Y146082D01*
X497904Y145976D01*
X497455Y145858D01*
X497009Y145730D01*
X496566Y145591D01*
X496127Y145441D01*
X495691Y145280D01*
X495260Y145109D01*
X494833Y144927D01*
X494410Y144735D01*
X493992Y144532D01*
X493580Y144320D01*
X493172Y144098D01*
X492770Y143865D01*
X492374Y143623D01*
X491984Y143371D01*
X491601Y143110D01*
X491223Y142840D01*
X490853Y142561D01*
X490489Y142272D01*
X490132Y141975D01*
X489783Y141669D01*
X489441Y141355D01*
X489108Y141032D01*
X488782Y140702D01*
X488464Y140364D01*
X488154Y140018D01*
X487854Y139664D01*
X487561Y139303D01*
X487278Y138936D01*
X487004Y138561D01*
X486739Y138180D01*
X486483Y137793D01*
X486237Y137399D01*
X486000Y137000D01*
X486000Y118000D02*
X486237Y117601D01*
X486483Y117207D01*
X486739Y116820D01*
X487004Y116439D01*
X487278Y116064D01*
X487561Y115697D01*
X487854Y115336D01*
X488154Y114982D01*
X488464Y114636D01*
X488782Y114298D01*
X489108Y113968D01*
X489441Y113645D01*
X489783Y113331D01*
X490132Y113025D01*
X490489Y112728D01*
X490853Y112439D01*
X491223Y112160D01*
X491601Y111890D01*
X491984Y111629D01*
X492374Y111377D01*
X492770Y111135D01*
X493172Y110902D01*
X493580Y110680D01*
X493992Y110468D01*
X494410Y110265D01*
X494833Y110073D01*
X495260Y109891D01*
X495691Y109720D01*
X496127Y109559D01*
X496566Y109409D01*
X497009Y109270D01*
X497455Y109142D01*
X497904Y109024D01*
X498356Y108918D01*
X498810Y108822D01*
X499266Y108738D01*
X499725Y108664D01*
X500185Y108602D01*
X500646Y108551D01*
X501109Y108512D01*
X501572Y108484D01*
X502036Y108467D01*
X502500Y108461D01*
X502964Y108467D01*
X503428Y108484D01*
X503891Y108512D01*
X504354Y108551D01*
X504815Y108602D01*
X505275Y108664D01*
X505734Y108738D01*
X506190Y108822D01*
X506644Y108918D01*
X507096Y109024D01*
X507545Y109142D01*
X507991Y109270D01*
X508434Y109409D01*
X508873Y109559D01*
X509309Y109720D01*
X509740Y109891D01*
X510167Y110073D01*
X510590Y110265D01*
X511008Y110468D01*
X511420Y110680D01*
X511828Y110902D01*
X512230Y111135D01*
X512626Y111377D01*
X513016Y111629D01*
X513399Y111890D01*
X513777Y112160D01*
X514147Y112439D01*
X514511Y112728D01*
X514868Y113025D01*
X515217Y113331D01*
X515559Y113645D01*
X515892Y113968D01*
X516218Y114298D01*
X516536Y114636D01*
X516846Y114982D01*
X517146Y115336D01*
X517439Y115697D01*
X517722Y116064D01*
X517996Y116439D01*
X518261Y116820D01*
X518517Y117207D01*
X518763Y117601D01*
X519000Y118000D01*
D13*
X562000Y83000D02*
X562000Y7000D01*
X443000Y7000D01*
X553500Y83000D02*
X562000Y83000D01*
X451500Y83000D02*
X443000Y83000D01*
X443000Y7000D01*
X451500Y67000D02*
X542000Y67000D01*
X553500Y67000D01*
X451500Y67000D02*
X451500Y83000D01*
X553500Y83000D02*
X553500Y67000D01*
X542000Y48250D02*
X542000Y39500D01*
X542000Y58250D02*
X542000Y67000D01*
M02*
