G04 EAGLE Gerber RS-274X export*
G75*
%MOMM*%
%FSLAX34Y34*%
%LPD*%
%INSilkscreen Top*%
%IPPOS*%
%AMOC8*
5,1,8,0,0,1.08239X$1,22.5*%
G01*
%ADD10C,0.800000*%
%ADD11C,0.152400*%
%ADD12C,0.200000*%
%ADD13C,0.203200*%
%ADD14C,0.400000*%
%ADD15C,0.101600*%
%ADD16R,0.500100X0.950000*%
%ADD17C,0.177800*%
%ADD18R,0.950000X0.500100*%
%ADD19R,0.863600X0.406400*%
%ADD20C,0.120000*%
%ADD21C,0.762000*%
%ADD22C,0.127000*%
%ADD23C,0.100000*%
%ADD24C,0.500000*%
%ADD25C,0.000000*%
%ADD26C,0.050000*%
%ADD27R,0.406400X0.863600*%
%ADD28R,0.070000X0.010000*%
%ADD29R,0.190000X0.010000*%
%ADD30R,0.260000X0.010000*%
%ADD31R,0.320000X0.010000*%
%ADD32R,0.360000X0.010000*%
%ADD33R,0.370000X0.010000*%
%ADD34R,0.010000X0.010000*%
%ADD35R,0.060000X0.010000*%
%ADD36R,0.100000X0.010000*%
%ADD37R,0.130000X0.010000*%
%ADD38R,0.160000X0.010000*%
%ADD39R,0.350000X0.010000*%
%ADD40R,0.220000X0.010000*%
%ADD41R,0.270000X0.010000*%
%ADD42R,0.240000X0.010000*%
%ADD43R,0.180000X0.010000*%
%ADD44R,0.120000X0.010000*%
%ADD45R,0.290000X0.010000*%
%ADD46R,0.050000X0.010000*%
%ADD47R,0.310000X0.010000*%
%ADD48R,0.330000X0.010000*%
%ADD49R,0.340000X0.010000*%
%ADD50R,0.280000X0.010000*%
%ADD51R,0.250000X0.010000*%
%ADD52R,0.040000X0.010000*%
%ADD53R,0.140000X0.010000*%
%ADD54R,0.110000X0.010000*%
%ADD55R,0.090000X0.010000*%
%ADD56R,0.440000X0.010000*%
%ADD57R,0.170000X0.010000*%
%ADD58R,0.560000X0.010000*%
%ADD59R,0.660000X0.010000*%
%ADD60R,0.210000X0.010000*%
%ADD61R,0.740000X0.010000*%
%ADD62R,0.820000X0.010000*%
%ADD63R,0.230000X0.010000*%
%ADD64R,0.880000X0.010000*%
%ADD65R,0.940000X0.010000*%
%ADD66R,0.490000X0.010000*%
%ADD67R,0.500000X0.010000*%
%ADD68R,0.510000X0.010000*%
%ADD69R,0.520000X0.010000*%
%ADD70R,0.200000X0.010000*%
%ADD71R,0.530000X0.010000*%
%ADD72R,0.030000X0.010000*%
%ADD73R,0.020000X0.010000*%
%ADD74R,0.540000X0.010000*%
%ADD75R,0.400000X0.010000*%
%ADD76R,0.420000X0.010000*%
%ADD77R,0.460000X0.010000*%
%ADD78R,0.580000X0.010000*%
%ADD79R,0.150000X0.010000*%
%ADD80R,0.600000X0.010000*%
%ADD81R,0.640000X0.010000*%
%ADD82R,0.680000X0.010000*%
%ADD83R,0.700000X0.010000*%
%ADD84R,0.720000X0.010000*%
%ADD85R,0.760000X0.010000*%
%ADD86R,0.780000X0.010000*%
%ADD87R,0.800000X0.010000*%
%ADD88R,0.840000X0.010000*%
%ADD89R,0.860000X0.010000*%
%ADD90R,0.900000X0.010000*%
%ADD91R,0.920000X0.010000*%
%ADD92R,0.960000X0.010000*%
%ADD93R,0.570000X0.010000*%
%ADD94R,0.550000X0.010000*%
%ADD95R,0.480000X0.010000*%
%ADD96R,0.470000X0.010000*%
%ADD97R,0.430000X0.010000*%
%ADD98R,0.410000X0.010000*%
%ADD99R,0.390000X0.010000*%
%ADD100R,0.380000X0.010000*%
%ADD101R,0.450000X0.010000*%
%ADD102R,0.300000X0.010000*%
%ADD103R,1.130000X0.010000*%
%ADD104R,1.720000X0.010000*%
%ADD105R,1.740000X0.010000*%
%ADD106R,1.760000X0.010000*%
%ADD107R,1.780000X0.010000*%
%ADD108R,1.800000X0.010000*%
%ADD109R,1.820000X0.010000*%
%ADD110R,0.080000X0.010000*%
%ADD111R,2.020000X0.010000*%
%ADD112R,2.000000X0.010000*%
%ADD113R,1.980000X0.010000*%
%ADD114R,1.960000X0.010000*%
%ADD115R,1.920000X0.010000*%
%ADD116R,1.880000X0.010000*%
%ADD117R,1.840000X0.010000*%
%ADD118R,1.700000X0.010000*%
%ADD119R,1.640000X0.010000*%
%ADD120R,1.600000X0.010000*%
%ADD121R,1.560000X0.010000*%
%ADD122R,1.500000X0.010000*%
%ADD123R,1.440000X0.010000*%
%ADD124R,1.380000X0.010000*%
%ADD125R,1.320000X0.010000*%
%ADD126R,1.260000X0.010000*%
%ADD127R,1.180000X0.010000*%
%ADD128R,1.120000X0.010000*%
%ADD129R,1.020000X0.010000*%
%ADD130R,0.770000X0.010000*%
%ADD131R,0.890000X0.010000*%
%ADD132R,2.080000X0.010000*%
%ADD133R,2.060000X0.010000*%
%ADD134R,2.040000X0.010000*%
%ADD135R,1.940000X0.010000*%
%ADD136R,1.860000X0.010000*%
%ADD137R,1.680000X0.010000*%
%ADD138R,1.620000X0.010000*%
%ADD139R,1.580000X0.010000*%
%ADD140R,1.540000X0.010000*%
%ADD141R,1.520000X0.010000*%
%ADD142R,1.480000X0.010000*%
%ADD143R,1.420000X0.010000*%
%ADD144R,1.340000X0.010000*%
%ADD145R,1.300000X0.010000*%
%ADD146R,1.240000X0.010000*%
%ADD147R,1.200000X0.010000*%
%ADD148R,1.160000X0.010000*%
%ADD149R,1.100000X0.010000*%
%ADD150R,1.060000X0.010000*%
%ADD151R,1.000000X0.010000*%

G36*
X10377Y3393D02*
X10377Y3393D01*
X10474Y3401D01*
X10515Y3417D01*
X10559Y3425D01*
X10646Y3468D01*
X10737Y3502D01*
X10772Y3529D01*
X10812Y3549D01*
X10884Y3614D01*
X10961Y3673D01*
X10988Y3709D01*
X11021Y3739D01*
X11064Y3811D01*
X11129Y3900D01*
X11151Y3958D01*
X11178Y4004D01*
X17428Y19629D01*
X17454Y19738D01*
X17487Y19846D01*
X17488Y19875D01*
X17495Y19903D01*
X17490Y20015D01*
X17491Y20128D01*
X17483Y20156D01*
X17482Y20185D01*
X17446Y20291D01*
X17416Y20400D01*
X17401Y20424D01*
X17391Y20452D01*
X17327Y20544D01*
X17268Y20640D01*
X17246Y20659D01*
X17230Y20683D01*
X17142Y20753D01*
X17058Y20829D01*
X17032Y20841D01*
X17010Y20859D01*
X16906Y20903D01*
X16805Y20952D01*
X16778Y20956D01*
X16749Y20968D01*
X16587Y20986D01*
X16500Y20999D01*
X4000Y20999D01*
X3889Y20983D01*
X3776Y20974D01*
X3749Y20964D01*
X3721Y20959D01*
X3618Y20913D01*
X3513Y20873D01*
X3490Y20855D01*
X3464Y20843D01*
X3378Y20770D01*
X3289Y20702D01*
X3272Y20679D01*
X3250Y20660D01*
X3188Y20566D01*
X3121Y20475D01*
X3111Y20448D01*
X3095Y20424D01*
X3062Y20316D01*
X3023Y20211D01*
X3021Y20182D01*
X3013Y20154D01*
X3011Y20042D01*
X3003Y19929D01*
X3009Y19903D01*
X3009Y19872D01*
X3053Y19715D01*
X3072Y19629D01*
X9322Y4004D01*
X9344Y3965D01*
X9359Y3923D01*
X9414Y3844D01*
X9463Y3759D01*
X9495Y3729D01*
X9520Y3692D01*
X9596Y3631D01*
X9666Y3564D01*
X9706Y3543D01*
X9740Y3516D01*
X9830Y3478D01*
X9916Y3433D01*
X9960Y3424D01*
X10001Y3407D01*
X10097Y3397D01*
X10193Y3377D01*
X10237Y3381D01*
X10281Y3376D01*
X10377Y3393D01*
G37*
G36*
X45115Y8001D02*
X45115Y8001D01*
X45215Y8008D01*
X45255Y8023D01*
X45298Y8029D01*
X45388Y8072D01*
X45481Y8106D01*
X45516Y8132D01*
X45555Y8150D01*
X45630Y8216D01*
X45710Y8275D01*
X45733Y8306D01*
X45769Y8337D01*
X45866Y8489D01*
X45908Y8546D01*
X47908Y12546D01*
X47911Y12554D01*
X47916Y12561D01*
X47956Y12689D01*
X47998Y12816D01*
X47999Y12824D01*
X48001Y12832D01*
X48005Y12967D01*
X48010Y13100D01*
X48008Y13108D01*
X48009Y13116D01*
X47975Y13246D01*
X47943Y13376D01*
X47939Y13383D01*
X47937Y13391D01*
X47869Y13506D01*
X47802Y13623D01*
X47796Y13629D01*
X47792Y13636D01*
X47694Y13728D01*
X47598Y13821D01*
X47590Y13824D01*
X47584Y13830D01*
X47465Y13891D01*
X47347Y13954D01*
X47339Y13956D01*
X47331Y13960D01*
X47279Y13968D01*
X47069Y14013D01*
X47031Y14010D01*
X47000Y14015D01*
X43000Y14015D01*
X42992Y14014D01*
X42983Y14015D01*
X42851Y13994D01*
X42719Y13975D01*
X42711Y13972D01*
X42702Y13971D01*
X42581Y13914D01*
X42459Y13859D01*
X42453Y13854D01*
X42445Y13850D01*
X42344Y13762D01*
X42242Y13676D01*
X42237Y13668D01*
X42231Y13663D01*
X42159Y13550D01*
X42085Y13439D01*
X42082Y13431D01*
X42077Y13424D01*
X42039Y13295D01*
X41999Y13168D01*
X41999Y13159D01*
X41996Y13151D01*
X41995Y13017D01*
X41991Y12884D01*
X41994Y12875D01*
X41994Y12867D01*
X42009Y12816D01*
X42063Y12609D01*
X42083Y12576D01*
X42092Y12546D01*
X44092Y8546D01*
X44149Y8464D01*
X44198Y8377D01*
X44229Y8347D01*
X44253Y8312D01*
X44331Y8249D01*
X44402Y8180D01*
X44440Y8159D01*
X44473Y8132D01*
X44565Y8093D01*
X44653Y8046D01*
X44695Y8037D01*
X44735Y8020D01*
X44834Y8008D01*
X44931Y7987D01*
X44974Y7990D01*
X45017Y7985D01*
X45115Y8001D01*
G37*
D10*
X10500Y20000D03*
D11*
X11020Y80360D02*
X11020Y83070D01*
X11022Y83151D01*
X11028Y83231D01*
X11037Y83311D01*
X11051Y83390D01*
X11068Y83469D01*
X11089Y83547D01*
X11113Y83624D01*
X11141Y83699D01*
X11173Y83773D01*
X11208Y83846D01*
X11247Y83917D01*
X11289Y83985D01*
X11334Y84052D01*
X11382Y84117D01*
X11434Y84179D01*
X11488Y84238D01*
X11545Y84295D01*
X11604Y84349D01*
X11666Y84401D01*
X11731Y84449D01*
X11798Y84494D01*
X11866Y84536D01*
X11937Y84575D01*
X12010Y84610D01*
X12084Y84642D01*
X12159Y84670D01*
X12236Y84694D01*
X12314Y84715D01*
X12393Y84732D01*
X12472Y84746D01*
X12552Y84755D01*
X12632Y84761D01*
X12713Y84763D01*
X12794Y84761D01*
X12874Y84755D01*
X12954Y84746D01*
X13033Y84732D01*
X13112Y84715D01*
X13190Y84694D01*
X13267Y84670D01*
X13342Y84642D01*
X13416Y84610D01*
X13489Y84575D01*
X13560Y84536D01*
X13628Y84494D01*
X13695Y84449D01*
X13760Y84401D01*
X13822Y84349D01*
X13881Y84295D01*
X13938Y84238D01*
X13992Y84179D01*
X14044Y84117D01*
X14092Y84052D01*
X14137Y83985D01*
X14179Y83917D01*
X14218Y83846D01*
X14253Y83773D01*
X14285Y83699D01*
X14313Y83624D01*
X14337Y83547D01*
X14358Y83469D01*
X14375Y83390D01*
X14389Y83311D01*
X14398Y83231D01*
X14404Y83151D01*
X14406Y83070D01*
X14406Y80360D01*
X14404Y80279D01*
X14398Y80199D01*
X14389Y80119D01*
X14375Y80040D01*
X14358Y79961D01*
X14337Y79883D01*
X14313Y79806D01*
X14285Y79731D01*
X14253Y79657D01*
X14218Y79584D01*
X14179Y79514D01*
X14137Y79445D01*
X14092Y79378D01*
X14044Y79313D01*
X13992Y79251D01*
X13938Y79192D01*
X13881Y79135D01*
X13822Y79081D01*
X13760Y79029D01*
X13695Y78981D01*
X13628Y78936D01*
X13560Y78894D01*
X13489Y78855D01*
X13416Y78820D01*
X13342Y78788D01*
X13267Y78760D01*
X13190Y78736D01*
X13112Y78715D01*
X13033Y78698D01*
X12954Y78684D01*
X12874Y78675D01*
X12794Y78669D01*
X12713Y78667D01*
X12632Y78669D01*
X12552Y78675D01*
X12472Y78684D01*
X12393Y78698D01*
X12314Y78715D01*
X12236Y78736D01*
X12159Y78760D01*
X12084Y78788D01*
X12010Y78820D01*
X11937Y78855D01*
X11866Y78894D01*
X11798Y78936D01*
X11731Y78981D01*
X11666Y79029D01*
X11604Y79081D01*
X11545Y79135D01*
X11488Y79192D01*
X11434Y79251D01*
X11382Y79313D01*
X11334Y79378D01*
X11289Y79445D01*
X11247Y79514D01*
X11208Y79584D01*
X11173Y79657D01*
X11141Y79731D01*
X11113Y79806D01*
X11089Y79883D01*
X11068Y79961D01*
X11051Y80040D01*
X11037Y80119D01*
X11028Y80199D01*
X11022Y80279D01*
X11020Y80360D01*
X18284Y78667D02*
X18284Y84763D01*
X19977Y84763D01*
X20058Y84761D01*
X20138Y84755D01*
X20218Y84746D01*
X20297Y84732D01*
X20376Y84715D01*
X20454Y84694D01*
X20531Y84670D01*
X20606Y84642D01*
X20680Y84610D01*
X20753Y84575D01*
X20823Y84536D01*
X20892Y84494D01*
X20959Y84449D01*
X21024Y84401D01*
X21086Y84349D01*
X21145Y84295D01*
X21202Y84238D01*
X21256Y84179D01*
X21308Y84117D01*
X21356Y84052D01*
X21401Y83985D01*
X21443Y83917D01*
X21482Y83846D01*
X21517Y83773D01*
X21549Y83699D01*
X21577Y83624D01*
X21601Y83547D01*
X21622Y83469D01*
X21639Y83390D01*
X21653Y83311D01*
X21662Y83231D01*
X21668Y83151D01*
X21670Y83070D01*
X21668Y82989D01*
X21662Y82909D01*
X21653Y82829D01*
X21639Y82750D01*
X21622Y82671D01*
X21601Y82593D01*
X21577Y82516D01*
X21549Y82441D01*
X21517Y82367D01*
X21482Y82294D01*
X21443Y82224D01*
X21401Y82155D01*
X21356Y82088D01*
X21308Y82023D01*
X21256Y81961D01*
X21202Y81902D01*
X21145Y81845D01*
X21086Y81791D01*
X21024Y81739D01*
X20959Y81691D01*
X20892Y81646D01*
X20824Y81604D01*
X20753Y81565D01*
X20680Y81530D01*
X20606Y81498D01*
X20531Y81470D01*
X20454Y81446D01*
X20376Y81425D01*
X20297Y81408D01*
X20218Y81394D01*
X20138Y81385D01*
X20058Y81379D01*
X19977Y81377D01*
X19977Y81376D02*
X18284Y81376D01*
X25142Y78667D02*
X25142Y84763D01*
X26835Y84763D01*
X26916Y84761D01*
X26996Y84755D01*
X27076Y84746D01*
X27155Y84732D01*
X27234Y84715D01*
X27312Y84694D01*
X27389Y84670D01*
X27464Y84642D01*
X27538Y84610D01*
X27611Y84575D01*
X27681Y84536D01*
X27750Y84494D01*
X27817Y84449D01*
X27882Y84401D01*
X27944Y84349D01*
X28003Y84295D01*
X28060Y84238D01*
X28114Y84179D01*
X28166Y84117D01*
X28214Y84052D01*
X28259Y83985D01*
X28301Y83917D01*
X28340Y83846D01*
X28375Y83773D01*
X28407Y83699D01*
X28435Y83624D01*
X28459Y83547D01*
X28480Y83469D01*
X28497Y83390D01*
X28511Y83311D01*
X28520Y83231D01*
X28526Y83151D01*
X28528Y83070D01*
X28526Y82989D01*
X28520Y82909D01*
X28511Y82829D01*
X28497Y82750D01*
X28480Y82671D01*
X28459Y82593D01*
X28435Y82516D01*
X28407Y82441D01*
X28375Y82367D01*
X28340Y82294D01*
X28301Y82224D01*
X28259Y82155D01*
X28214Y82088D01*
X28166Y82023D01*
X28114Y81961D01*
X28060Y81902D01*
X28003Y81845D01*
X27944Y81791D01*
X27882Y81739D01*
X27817Y81691D01*
X27750Y81646D01*
X27682Y81604D01*
X27611Y81565D01*
X27538Y81530D01*
X27464Y81498D01*
X27389Y81470D01*
X27312Y81446D01*
X27234Y81425D01*
X27155Y81408D01*
X27076Y81394D01*
X26996Y81385D01*
X26916Y81379D01*
X26835Y81377D01*
X26835Y81376D02*
X25142Y81376D01*
X31594Y80360D02*
X31594Y83070D01*
X31596Y83151D01*
X31602Y83231D01*
X31611Y83311D01*
X31625Y83390D01*
X31642Y83469D01*
X31663Y83547D01*
X31687Y83624D01*
X31715Y83699D01*
X31747Y83773D01*
X31782Y83846D01*
X31821Y83917D01*
X31863Y83985D01*
X31908Y84052D01*
X31956Y84117D01*
X32008Y84179D01*
X32062Y84238D01*
X32119Y84295D01*
X32178Y84349D01*
X32240Y84401D01*
X32305Y84449D01*
X32372Y84494D01*
X32441Y84536D01*
X32511Y84575D01*
X32584Y84610D01*
X32658Y84642D01*
X32733Y84670D01*
X32810Y84694D01*
X32888Y84715D01*
X32967Y84732D01*
X33046Y84746D01*
X33126Y84755D01*
X33206Y84761D01*
X33287Y84763D01*
X33368Y84761D01*
X33448Y84755D01*
X33528Y84746D01*
X33607Y84732D01*
X33686Y84715D01*
X33764Y84694D01*
X33841Y84670D01*
X33916Y84642D01*
X33990Y84610D01*
X34063Y84575D01*
X34134Y84536D01*
X34202Y84494D01*
X34269Y84449D01*
X34334Y84401D01*
X34396Y84349D01*
X34455Y84295D01*
X34512Y84238D01*
X34566Y84179D01*
X34618Y84117D01*
X34666Y84052D01*
X34711Y83985D01*
X34753Y83917D01*
X34792Y83846D01*
X34827Y83773D01*
X34859Y83699D01*
X34887Y83624D01*
X34911Y83547D01*
X34932Y83469D01*
X34949Y83390D01*
X34963Y83311D01*
X34972Y83231D01*
X34978Y83151D01*
X34980Y83070D01*
X34980Y80360D01*
X34978Y80279D01*
X34972Y80199D01*
X34963Y80119D01*
X34949Y80040D01*
X34932Y79961D01*
X34911Y79883D01*
X34887Y79806D01*
X34859Y79731D01*
X34827Y79657D01*
X34792Y79584D01*
X34753Y79514D01*
X34711Y79445D01*
X34666Y79378D01*
X34618Y79313D01*
X34566Y79251D01*
X34512Y79192D01*
X34455Y79135D01*
X34396Y79081D01*
X34334Y79029D01*
X34269Y78981D01*
X34202Y78936D01*
X34134Y78894D01*
X34063Y78855D01*
X33990Y78820D01*
X33916Y78788D01*
X33841Y78760D01*
X33764Y78736D01*
X33686Y78715D01*
X33607Y78698D01*
X33528Y78684D01*
X33448Y78675D01*
X33368Y78669D01*
X33287Y78667D01*
X33206Y78669D01*
X33126Y78675D01*
X33046Y78684D01*
X32967Y78698D01*
X32888Y78715D01*
X32810Y78736D01*
X32733Y78760D01*
X32658Y78788D01*
X32584Y78820D01*
X32511Y78855D01*
X32440Y78894D01*
X32372Y78936D01*
X32305Y78981D01*
X32240Y79029D01*
X32178Y79081D01*
X32119Y79135D01*
X32062Y79192D01*
X32008Y79251D01*
X31956Y79313D01*
X31908Y79378D01*
X31863Y79445D01*
X31821Y79514D01*
X31782Y79584D01*
X31747Y79657D01*
X31715Y79731D01*
X31687Y79806D01*
X31663Y79883D01*
X31642Y79961D01*
X31625Y80040D01*
X31611Y80119D01*
X31602Y80199D01*
X31596Y80279D01*
X31594Y80360D01*
X10879Y73333D02*
X10879Y67237D01*
X10879Y73333D02*
X13589Y73333D01*
X13589Y70624D02*
X10879Y70624D01*
X16823Y73333D02*
X16823Y67237D01*
X19532Y67237D01*
X22766Y67237D02*
X25476Y67237D01*
X22766Y67237D02*
X22766Y73333D01*
X25476Y73333D01*
X24798Y70624D02*
X22766Y70624D01*
X28119Y67237D02*
X32183Y73333D01*
X28119Y73333D02*
X32183Y67237D01*
X34951Y69269D02*
X34951Y73333D01*
X34782Y67576D02*
X34782Y67237D01*
X34782Y67576D02*
X35121Y67576D01*
X35121Y67237D01*
X34782Y67237D01*
D12*
X18000Y54000D02*
X17700Y53965D01*
X17400Y53937D01*
X17100Y53917D01*
X16799Y53904D01*
X16497Y53898D01*
X16196Y53900D01*
X15895Y53909D01*
X15594Y53926D01*
X15293Y53950D01*
X14994Y53981D01*
X14695Y54020D01*
X14397Y54066D01*
X14100Y54119D01*
X13805Y54179D01*
X13511Y54247D01*
X13219Y54322D01*
X12929Y54404D01*
X12641Y54493D01*
X12356Y54589D01*
X12073Y54692D01*
X11792Y54803D01*
X11514Y54919D01*
X11239Y55043D01*
X10968Y55173D01*
X10699Y55310D01*
X10434Y55454D01*
X10173Y55604D01*
X9915Y55760D01*
X9661Y55923D01*
X9412Y56091D01*
X9166Y56266D01*
X8925Y56447D01*
X8688Y56634D01*
X8456Y56826D01*
X8229Y57024D01*
X8007Y57227D01*
X7790Y57436D01*
X7578Y57650D01*
X7371Y57870D01*
X7169Y58094D01*
X6974Y58323D01*
X6784Y58557D01*
X6599Y58796D01*
X6421Y59038D01*
X6249Y59286D01*
X6082Y59537D01*
X5922Y59792D01*
X5769Y60052D01*
X5621Y60315D01*
X5480Y60581D01*
X5346Y60851D01*
X5218Y61124D01*
X5097Y61400D01*
X4983Y61679D01*
X4876Y61960D01*
X4776Y62245D01*
X4682Y62531D01*
X4596Y62820D01*
X4517Y63111D01*
X4445Y63403D01*
X4380Y63698D01*
X4323Y63994D01*
X4272Y64291D01*
X4229Y64589D01*
X4194Y64888D01*
X4165Y65188D01*
X4144Y65489D01*
X4131Y65790D01*
X4124Y66091D01*
X4126Y66393D01*
X4134Y66694D01*
X4150Y66995D01*
X4173Y67295D01*
X4204Y67595D01*
X4242Y67894D01*
X4287Y68192D01*
X4340Y68489D01*
X4400Y68784D01*
X4467Y69078D01*
X4541Y69370D01*
X4622Y69660D01*
X4711Y69948D01*
X4806Y70234D01*
X4909Y70518D01*
X5018Y70799D01*
X5134Y71077D01*
X5257Y71352D01*
X5387Y71624D01*
X5524Y71893D01*
X5666Y72158D01*
X5816Y72420D01*
X5972Y72678D01*
X6134Y72932D01*
X6302Y73182D01*
X6476Y73428D01*
X6656Y73669D01*
X6842Y73906D01*
X7034Y74139D01*
X7232Y74366D01*
X7435Y74589D01*
X7643Y74807D01*
X7857Y75019D01*
X8076Y75227D01*
X8299Y75428D01*
X8528Y75625D01*
X8762Y75815D01*
X9000Y76000D01*
X13000Y58000D02*
X18000Y54000D01*
X13000Y51000D01*
D11*
X314921Y22762D02*
X314996Y22764D01*
X315071Y22770D01*
X315146Y22780D01*
X315220Y22793D01*
X315293Y22811D01*
X315366Y22832D01*
X315437Y22858D01*
X315506Y22886D01*
X315574Y22919D01*
X315641Y22955D01*
X315705Y22994D01*
X315767Y23037D01*
X315827Y23083D01*
X315884Y23132D01*
X315939Y23183D01*
X315990Y23238D01*
X316039Y23295D01*
X316085Y23355D01*
X316128Y23417D01*
X316167Y23482D01*
X316203Y23548D01*
X316236Y23616D01*
X316264Y23685D01*
X316290Y23756D01*
X316311Y23829D01*
X316329Y23902D01*
X316342Y23976D01*
X316352Y24051D01*
X316358Y24126D01*
X316360Y24201D01*
X314921Y22762D02*
X314812Y22764D01*
X314703Y22770D01*
X314594Y22780D01*
X314486Y22793D01*
X314378Y22811D01*
X314271Y22832D01*
X314165Y22857D01*
X314060Y22886D01*
X313956Y22919D01*
X313853Y22956D01*
X313752Y22996D01*
X313652Y23040D01*
X313554Y23087D01*
X313457Y23138D01*
X313362Y23192D01*
X313270Y23250D01*
X313179Y23311D01*
X313091Y23375D01*
X313005Y23442D01*
X312921Y23512D01*
X312841Y23585D01*
X312762Y23661D01*
X312942Y27799D02*
X312944Y27874D01*
X312950Y27949D01*
X312960Y28024D01*
X312973Y28098D01*
X312991Y28171D01*
X313012Y28244D01*
X313038Y28315D01*
X313066Y28384D01*
X313099Y28452D01*
X313135Y28519D01*
X313174Y28583D01*
X313217Y28645D01*
X313263Y28705D01*
X313312Y28762D01*
X313363Y28817D01*
X313418Y28868D01*
X313475Y28917D01*
X313535Y28963D01*
X313597Y29006D01*
X313662Y29045D01*
X313728Y29081D01*
X313796Y29114D01*
X313865Y29142D01*
X313936Y29168D01*
X314009Y29189D01*
X314082Y29207D01*
X314156Y29220D01*
X314231Y29230D01*
X314306Y29236D01*
X314381Y29238D01*
X314483Y29236D01*
X314585Y29230D01*
X314687Y29221D01*
X314788Y29207D01*
X314889Y29190D01*
X314989Y29169D01*
X315088Y29144D01*
X315186Y29115D01*
X315283Y29083D01*
X315378Y29047D01*
X315472Y29007D01*
X315565Y28964D01*
X315656Y28918D01*
X315745Y28868D01*
X315832Y28815D01*
X315917Y28758D01*
X316000Y28698D01*
X313662Y26539D02*
X313597Y26580D01*
X313535Y26623D01*
X313475Y26670D01*
X313418Y26720D01*
X313363Y26772D01*
X313311Y26828D01*
X313262Y26886D01*
X313217Y26946D01*
X313174Y27009D01*
X313135Y27074D01*
X313099Y27140D01*
X313066Y27209D01*
X313037Y27279D01*
X313012Y27351D01*
X312991Y27424D01*
X312973Y27498D01*
X312960Y27572D01*
X312950Y27647D01*
X312944Y27723D01*
X312942Y27799D01*
X315640Y25461D02*
X315705Y25420D01*
X315767Y25377D01*
X315827Y25330D01*
X315884Y25280D01*
X315939Y25228D01*
X315991Y25172D01*
X316040Y25114D01*
X316085Y25054D01*
X316128Y24991D01*
X316167Y24926D01*
X316203Y24860D01*
X316236Y24791D01*
X316265Y24721D01*
X316290Y24649D01*
X316311Y24576D01*
X316329Y24502D01*
X316342Y24428D01*
X316352Y24353D01*
X316358Y24277D01*
X316360Y24201D01*
X315640Y25460D02*
X313661Y26540D01*
X319602Y25640D02*
X319602Y24201D01*
X319602Y25640D02*
X319604Y25715D01*
X319610Y25790D01*
X319620Y25865D01*
X319633Y25939D01*
X319651Y26012D01*
X319672Y26085D01*
X319698Y26156D01*
X319726Y26225D01*
X319759Y26293D01*
X319795Y26360D01*
X319834Y26424D01*
X319877Y26486D01*
X319923Y26546D01*
X319972Y26603D01*
X320023Y26658D01*
X320078Y26709D01*
X320135Y26758D01*
X320195Y26804D01*
X320257Y26847D01*
X320322Y26886D01*
X320388Y26922D01*
X320456Y26955D01*
X320525Y26983D01*
X320596Y27009D01*
X320669Y27030D01*
X320742Y27048D01*
X320816Y27061D01*
X320891Y27071D01*
X320966Y27077D01*
X321041Y27079D01*
X321116Y27077D01*
X321191Y27071D01*
X321266Y27061D01*
X321340Y27048D01*
X321413Y27030D01*
X321486Y27009D01*
X321557Y26983D01*
X321626Y26955D01*
X321694Y26922D01*
X321761Y26886D01*
X321825Y26847D01*
X321887Y26804D01*
X321947Y26758D01*
X322004Y26709D01*
X322059Y26658D01*
X322110Y26603D01*
X322159Y26546D01*
X322205Y26486D01*
X322248Y26424D01*
X322287Y26360D01*
X322323Y26293D01*
X322356Y26225D01*
X322384Y26156D01*
X322410Y26085D01*
X322431Y26012D01*
X322449Y25939D01*
X322462Y25865D01*
X322472Y25790D01*
X322478Y25715D01*
X322480Y25640D01*
X322480Y24201D01*
X322478Y24126D01*
X322472Y24051D01*
X322462Y23976D01*
X322449Y23902D01*
X322431Y23829D01*
X322410Y23756D01*
X322384Y23685D01*
X322356Y23616D01*
X322323Y23548D01*
X322287Y23482D01*
X322248Y23417D01*
X322205Y23355D01*
X322159Y23295D01*
X322110Y23238D01*
X322059Y23183D01*
X322004Y23132D01*
X321947Y23083D01*
X321887Y23037D01*
X321825Y22994D01*
X321761Y22955D01*
X321694Y22919D01*
X321626Y22886D01*
X321557Y22858D01*
X321486Y22832D01*
X321413Y22811D01*
X321340Y22793D01*
X321266Y22780D01*
X321191Y22770D01*
X321116Y22764D01*
X321041Y22762D01*
X320966Y22764D01*
X320891Y22770D01*
X320816Y22780D01*
X320742Y22793D01*
X320669Y22811D01*
X320596Y22832D01*
X320525Y22858D01*
X320456Y22886D01*
X320388Y22919D01*
X320322Y22955D01*
X320257Y22994D01*
X320195Y23037D01*
X320135Y23083D01*
X320078Y23132D01*
X320023Y23183D01*
X319972Y23238D01*
X319923Y23295D01*
X319877Y23355D01*
X319834Y23417D01*
X319795Y23482D01*
X319759Y23548D01*
X319726Y23616D01*
X319698Y23685D01*
X319672Y23756D01*
X319651Y23829D01*
X319633Y23902D01*
X319620Y23976D01*
X319610Y24051D01*
X319604Y24126D01*
X319602Y24201D01*
X326144Y22762D02*
X326144Y29238D01*
X326144Y22762D02*
X327943Y22762D01*
X328008Y22764D01*
X328073Y22770D01*
X328137Y22780D01*
X328201Y22793D01*
X328264Y22811D01*
X328326Y22832D01*
X328386Y22857D01*
X328444Y22886D01*
X328501Y22918D01*
X328556Y22953D01*
X328608Y22992D01*
X328658Y23033D01*
X328706Y23078D01*
X328751Y23125D01*
X328792Y23176D01*
X328831Y23228D01*
X328866Y23283D01*
X328898Y23340D01*
X328927Y23398D01*
X328952Y23458D01*
X328973Y23520D01*
X328991Y23583D01*
X329004Y23646D01*
X329014Y23711D01*
X329020Y23776D01*
X329022Y23841D01*
X329023Y23841D02*
X329023Y26000D01*
X329022Y26000D02*
X329020Y26063D01*
X329015Y26125D01*
X329006Y26187D01*
X328993Y26249D01*
X328977Y26309D01*
X328957Y26369D01*
X328934Y26427D01*
X328907Y26484D01*
X328877Y26540D01*
X328844Y26593D01*
X328808Y26644D01*
X328770Y26694D01*
X328728Y26740D01*
X328683Y26785D01*
X328637Y26827D01*
X328587Y26865D01*
X328536Y26901D01*
X328483Y26934D01*
X328427Y26964D01*
X328370Y26991D01*
X328312Y27014D01*
X328252Y27034D01*
X328192Y27050D01*
X328130Y27063D01*
X328068Y27072D01*
X328006Y27077D01*
X327943Y27079D01*
X326144Y27079D01*
X332081Y27079D02*
X332081Y22762D01*
X331901Y28878D02*
X331901Y29238D01*
X332261Y29238D01*
X332261Y28878D01*
X331901Y28878D01*
X336281Y22762D02*
X338080Y22762D01*
X336281Y22762D02*
X336218Y22764D01*
X336156Y22769D01*
X336094Y22778D01*
X336032Y22791D01*
X335972Y22807D01*
X335912Y22827D01*
X335854Y22850D01*
X335797Y22877D01*
X335742Y22907D01*
X335688Y22940D01*
X335637Y22976D01*
X335587Y23014D01*
X335541Y23056D01*
X335496Y23101D01*
X335454Y23147D01*
X335416Y23197D01*
X335380Y23248D01*
X335347Y23302D01*
X335317Y23357D01*
X335290Y23414D01*
X335267Y23472D01*
X335247Y23532D01*
X335231Y23592D01*
X335218Y23654D01*
X335209Y23716D01*
X335204Y23778D01*
X335202Y23841D01*
X335202Y25640D01*
X335204Y25715D01*
X335210Y25790D01*
X335220Y25865D01*
X335233Y25939D01*
X335251Y26012D01*
X335272Y26085D01*
X335298Y26156D01*
X335326Y26225D01*
X335359Y26293D01*
X335395Y26360D01*
X335434Y26424D01*
X335477Y26486D01*
X335523Y26546D01*
X335572Y26603D01*
X335623Y26658D01*
X335678Y26709D01*
X335735Y26758D01*
X335795Y26804D01*
X335857Y26847D01*
X335922Y26886D01*
X335988Y26922D01*
X336056Y26955D01*
X336125Y26983D01*
X336196Y27009D01*
X336269Y27030D01*
X336342Y27048D01*
X336416Y27061D01*
X336491Y27071D01*
X336566Y27077D01*
X336641Y27079D01*
X336716Y27077D01*
X336791Y27071D01*
X336866Y27061D01*
X336940Y27048D01*
X337013Y27030D01*
X337086Y27009D01*
X337157Y26983D01*
X337226Y26955D01*
X337294Y26922D01*
X337361Y26886D01*
X337425Y26847D01*
X337487Y26804D01*
X337547Y26758D01*
X337604Y26709D01*
X337659Y26658D01*
X337710Y26603D01*
X337759Y26546D01*
X337805Y26486D01*
X337848Y26424D01*
X337887Y26360D01*
X337923Y26293D01*
X337956Y26225D01*
X337984Y26156D01*
X338010Y26085D01*
X338031Y26012D01*
X338049Y25939D01*
X338062Y25865D01*
X338072Y25790D01*
X338078Y25715D01*
X338080Y25640D01*
X338080Y24921D01*
X335202Y24921D01*
X341981Y25280D02*
X343780Y24561D01*
X341982Y25281D02*
X341926Y25305D01*
X341873Y25333D01*
X341821Y25364D01*
X341772Y25398D01*
X341725Y25435D01*
X341680Y25476D01*
X341638Y25519D01*
X341599Y25565D01*
X341563Y25613D01*
X341530Y25663D01*
X341501Y25716D01*
X341474Y25770D01*
X341452Y25826D01*
X341433Y25883D01*
X341418Y25941D01*
X341407Y26001D01*
X341399Y26060D01*
X341395Y26120D01*
X341396Y26181D01*
X341400Y26241D01*
X341408Y26300D01*
X341419Y26359D01*
X341435Y26418D01*
X341454Y26475D01*
X341477Y26530D01*
X341504Y26584D01*
X341534Y26637D01*
X341567Y26687D01*
X341603Y26735D01*
X341643Y26780D01*
X341685Y26823D01*
X341730Y26863D01*
X341777Y26900D01*
X341827Y26934D01*
X341879Y26965D01*
X341933Y26992D01*
X341988Y27016D01*
X342045Y27036D01*
X342103Y27052D01*
X342162Y27065D01*
X342221Y27074D01*
X342281Y27079D01*
X342341Y27080D01*
X342461Y27076D01*
X342580Y27069D01*
X342699Y27059D01*
X342817Y27045D01*
X342935Y27028D01*
X343053Y27007D01*
X343169Y26983D01*
X343285Y26955D01*
X343401Y26924D01*
X343515Y26890D01*
X343628Y26852D01*
X343740Y26811D01*
X343851Y26767D01*
X343960Y26720D01*
X343780Y24561D02*
X343836Y24537D01*
X343889Y24509D01*
X343941Y24478D01*
X343990Y24444D01*
X344037Y24407D01*
X344082Y24366D01*
X344124Y24323D01*
X344163Y24277D01*
X344199Y24229D01*
X344232Y24179D01*
X344261Y24126D01*
X344288Y24072D01*
X344310Y24016D01*
X344329Y23959D01*
X344344Y23901D01*
X344355Y23841D01*
X344363Y23782D01*
X344367Y23722D01*
X344366Y23661D01*
X344362Y23601D01*
X344354Y23542D01*
X344343Y23483D01*
X344327Y23424D01*
X344308Y23367D01*
X344285Y23312D01*
X344258Y23258D01*
X344228Y23205D01*
X344195Y23155D01*
X344159Y23107D01*
X344119Y23062D01*
X344077Y23019D01*
X344032Y22979D01*
X343985Y22942D01*
X343935Y22908D01*
X343883Y22877D01*
X343829Y22850D01*
X343774Y22826D01*
X343717Y22806D01*
X343659Y22790D01*
X343600Y22777D01*
X343541Y22768D01*
X343481Y22763D01*
X343421Y22762D01*
X343265Y22766D01*
X343110Y22774D01*
X342955Y22786D01*
X342801Y22802D01*
X342646Y22822D01*
X342493Y22846D01*
X342340Y22874D01*
X342188Y22905D01*
X342037Y22941D01*
X341886Y22980D01*
X341737Y23024D01*
X341589Y23071D01*
X341442Y23121D01*
X348066Y22762D02*
X348066Y29238D01*
X350944Y27079D02*
X348066Y24921D01*
X349325Y25820D02*
X350944Y22762D01*
X353681Y22762D02*
X353681Y27079D01*
X353501Y28878D02*
X353501Y29238D01*
X353861Y29238D01*
X353861Y28878D01*
X353501Y28878D01*
X358841Y22762D02*
X358916Y22764D01*
X358991Y22770D01*
X359066Y22780D01*
X359140Y22793D01*
X359213Y22811D01*
X359286Y22832D01*
X359357Y22858D01*
X359426Y22886D01*
X359494Y22919D01*
X359561Y22955D01*
X359625Y22994D01*
X359687Y23037D01*
X359747Y23083D01*
X359804Y23132D01*
X359859Y23183D01*
X359910Y23238D01*
X359959Y23295D01*
X360005Y23355D01*
X360048Y23417D01*
X360087Y23482D01*
X360123Y23548D01*
X360156Y23616D01*
X360184Y23685D01*
X360210Y23756D01*
X360231Y23829D01*
X360249Y23902D01*
X360262Y23976D01*
X360272Y24051D01*
X360278Y24126D01*
X360280Y24201D01*
X358840Y22762D02*
X358731Y22764D01*
X358622Y22770D01*
X358513Y22780D01*
X358405Y22793D01*
X358297Y22811D01*
X358190Y22832D01*
X358084Y22857D01*
X357979Y22886D01*
X357875Y22919D01*
X357772Y22956D01*
X357671Y22996D01*
X357571Y23040D01*
X357473Y23087D01*
X357376Y23138D01*
X357281Y23192D01*
X357189Y23250D01*
X357098Y23311D01*
X357010Y23375D01*
X356924Y23442D01*
X356840Y23512D01*
X356760Y23585D01*
X356681Y23661D01*
X356862Y27799D02*
X356864Y27874D01*
X356870Y27949D01*
X356880Y28024D01*
X356893Y28098D01*
X356911Y28171D01*
X356932Y28244D01*
X356958Y28315D01*
X356986Y28384D01*
X357019Y28452D01*
X357055Y28519D01*
X357094Y28583D01*
X357137Y28645D01*
X357183Y28705D01*
X357232Y28762D01*
X357283Y28817D01*
X357338Y28868D01*
X357395Y28917D01*
X357455Y28963D01*
X357517Y29006D01*
X357582Y29045D01*
X357648Y29081D01*
X357716Y29114D01*
X357785Y29142D01*
X357856Y29168D01*
X357929Y29189D01*
X358002Y29207D01*
X358076Y29220D01*
X358151Y29230D01*
X358226Y29236D01*
X358301Y29238D01*
X358403Y29236D01*
X358505Y29230D01*
X358607Y29221D01*
X358708Y29207D01*
X358809Y29190D01*
X358909Y29169D01*
X359008Y29144D01*
X359106Y29115D01*
X359203Y29083D01*
X359298Y29047D01*
X359392Y29007D01*
X359485Y28964D01*
X359576Y28918D01*
X359665Y28868D01*
X359752Y28815D01*
X359837Y28758D01*
X359920Y28698D01*
X357581Y26539D02*
X357516Y26580D01*
X357454Y26623D01*
X357394Y26670D01*
X357337Y26720D01*
X357282Y26772D01*
X357230Y26828D01*
X357181Y26886D01*
X357136Y26946D01*
X357093Y27009D01*
X357054Y27074D01*
X357018Y27140D01*
X356985Y27209D01*
X356956Y27279D01*
X356931Y27351D01*
X356910Y27424D01*
X356892Y27498D01*
X356879Y27572D01*
X356869Y27647D01*
X356863Y27723D01*
X356861Y27799D01*
X359560Y25461D02*
X359625Y25420D01*
X359687Y25377D01*
X359747Y25330D01*
X359804Y25280D01*
X359859Y25228D01*
X359911Y25172D01*
X359960Y25114D01*
X360005Y25054D01*
X360048Y24991D01*
X360087Y24926D01*
X360123Y24860D01*
X360156Y24791D01*
X360185Y24721D01*
X360210Y24649D01*
X360231Y24576D01*
X360249Y24502D01*
X360262Y24428D01*
X360272Y24353D01*
X360278Y24277D01*
X360280Y24201D01*
X359560Y25460D02*
X357581Y26540D01*
X364718Y25280D02*
X366337Y25280D01*
X364718Y25280D02*
X364649Y25278D01*
X364579Y25272D01*
X364511Y25263D01*
X364443Y25250D01*
X364375Y25232D01*
X364309Y25212D01*
X364244Y25187D01*
X364181Y25160D01*
X364119Y25128D01*
X364059Y25094D01*
X364001Y25056D01*
X363945Y25015D01*
X363891Y24970D01*
X363840Y24923D01*
X363792Y24874D01*
X363746Y24821D01*
X363704Y24767D01*
X363664Y24710D01*
X363628Y24651D01*
X363595Y24589D01*
X363565Y24527D01*
X363539Y24462D01*
X363516Y24397D01*
X363498Y24330D01*
X363482Y24262D01*
X363471Y24194D01*
X363463Y24125D01*
X363459Y24056D01*
X363459Y23986D01*
X363463Y23917D01*
X363471Y23848D01*
X363482Y23780D01*
X363498Y23712D01*
X363516Y23645D01*
X363539Y23580D01*
X363565Y23515D01*
X363595Y23453D01*
X363628Y23392D01*
X363664Y23332D01*
X363704Y23275D01*
X363746Y23221D01*
X363792Y23168D01*
X363840Y23119D01*
X363891Y23072D01*
X363945Y23027D01*
X364001Y22986D01*
X364059Y22948D01*
X364119Y22914D01*
X364181Y22882D01*
X364244Y22855D01*
X364309Y22830D01*
X364375Y22810D01*
X364443Y22792D01*
X364511Y22779D01*
X364579Y22770D01*
X364649Y22764D01*
X364718Y22762D01*
X366337Y22762D01*
X366337Y26000D01*
X366335Y26063D01*
X366330Y26125D01*
X366321Y26187D01*
X366308Y26249D01*
X366292Y26309D01*
X366272Y26369D01*
X366249Y26427D01*
X366222Y26484D01*
X366192Y26540D01*
X366159Y26593D01*
X366123Y26644D01*
X366085Y26694D01*
X366043Y26740D01*
X365998Y26785D01*
X365952Y26827D01*
X365902Y26865D01*
X365851Y26901D01*
X365798Y26934D01*
X365742Y26964D01*
X365685Y26991D01*
X365627Y27014D01*
X365567Y27034D01*
X365507Y27050D01*
X365445Y27063D01*
X365383Y27072D01*
X365321Y27077D01*
X365258Y27079D01*
X363819Y27079D01*
X369303Y27079D02*
X371462Y27079D01*
X370023Y29238D02*
X370023Y23841D01*
X370025Y23778D01*
X370030Y23716D01*
X370039Y23654D01*
X370052Y23592D01*
X370068Y23532D01*
X370088Y23472D01*
X370111Y23414D01*
X370138Y23357D01*
X370168Y23301D01*
X370201Y23248D01*
X370237Y23197D01*
X370275Y23147D01*
X370317Y23101D01*
X370362Y23056D01*
X370408Y23014D01*
X370458Y22975D01*
X370509Y22939D01*
X370563Y22907D01*
X370618Y22877D01*
X370675Y22850D01*
X370733Y22827D01*
X370793Y22807D01*
X370853Y22791D01*
X370915Y22778D01*
X370977Y22769D01*
X371039Y22764D01*
X371102Y22762D01*
X371462Y22762D01*
X312762Y17238D02*
X312762Y10762D01*
X312762Y17238D02*
X314561Y17238D01*
X314644Y17236D01*
X314727Y17230D01*
X314810Y17221D01*
X314892Y17207D01*
X314973Y17190D01*
X315053Y17169D01*
X315133Y17145D01*
X315211Y17117D01*
X315288Y17085D01*
X315363Y17049D01*
X315436Y17011D01*
X315508Y16969D01*
X315578Y16923D01*
X315645Y16875D01*
X315710Y16823D01*
X315773Y16768D01*
X315833Y16711D01*
X315890Y16651D01*
X315945Y16588D01*
X315997Y16523D01*
X316045Y16456D01*
X316091Y16386D01*
X316133Y16314D01*
X316171Y16241D01*
X316207Y16166D01*
X316239Y16089D01*
X316267Y16011D01*
X316291Y15931D01*
X316312Y15851D01*
X316329Y15770D01*
X316343Y15688D01*
X316352Y15605D01*
X316358Y15522D01*
X316360Y15439D01*
X316358Y15356D01*
X316352Y15273D01*
X316343Y15190D01*
X316329Y15108D01*
X316312Y15027D01*
X316291Y14947D01*
X316267Y14867D01*
X316239Y14789D01*
X316207Y14712D01*
X316171Y14637D01*
X316133Y14564D01*
X316091Y14492D01*
X316045Y14422D01*
X315997Y14355D01*
X315945Y14290D01*
X315890Y14227D01*
X315833Y14167D01*
X315773Y14110D01*
X315710Y14055D01*
X315645Y14003D01*
X315578Y13955D01*
X315508Y13909D01*
X315436Y13867D01*
X315363Y13829D01*
X315288Y13793D01*
X315211Y13761D01*
X315133Y13733D01*
X315053Y13709D01*
X314973Y13688D01*
X314892Y13671D01*
X314810Y13657D01*
X314727Y13648D01*
X314644Y13642D01*
X314561Y13640D01*
X312762Y13640D01*
X319732Y15079D02*
X319732Y10762D01*
X319732Y15079D02*
X321891Y15079D01*
X321891Y14360D01*
X324461Y13640D02*
X324461Y12201D01*
X324461Y13640D02*
X324463Y13715D01*
X324469Y13790D01*
X324479Y13865D01*
X324492Y13939D01*
X324510Y14012D01*
X324531Y14085D01*
X324557Y14156D01*
X324585Y14225D01*
X324618Y14293D01*
X324654Y14360D01*
X324693Y14424D01*
X324736Y14486D01*
X324782Y14546D01*
X324831Y14603D01*
X324882Y14658D01*
X324937Y14709D01*
X324994Y14758D01*
X325054Y14804D01*
X325116Y14847D01*
X325181Y14886D01*
X325247Y14922D01*
X325315Y14955D01*
X325384Y14983D01*
X325455Y15009D01*
X325528Y15030D01*
X325601Y15048D01*
X325675Y15061D01*
X325750Y15071D01*
X325825Y15077D01*
X325900Y15079D01*
X325975Y15077D01*
X326050Y15071D01*
X326125Y15061D01*
X326199Y15048D01*
X326272Y15030D01*
X326345Y15009D01*
X326416Y14983D01*
X326485Y14955D01*
X326553Y14922D01*
X326620Y14886D01*
X326684Y14847D01*
X326746Y14804D01*
X326806Y14758D01*
X326863Y14709D01*
X326918Y14658D01*
X326969Y14603D01*
X327018Y14546D01*
X327064Y14486D01*
X327107Y14424D01*
X327146Y14360D01*
X327182Y14293D01*
X327215Y14225D01*
X327243Y14156D01*
X327269Y14085D01*
X327290Y14012D01*
X327308Y13939D01*
X327321Y13865D01*
X327331Y13790D01*
X327337Y13715D01*
X327339Y13640D01*
X327340Y13640D02*
X327340Y12201D01*
X327339Y12201D02*
X327337Y12126D01*
X327331Y12051D01*
X327321Y11976D01*
X327308Y11902D01*
X327290Y11829D01*
X327269Y11756D01*
X327243Y11685D01*
X327215Y11616D01*
X327182Y11548D01*
X327146Y11482D01*
X327107Y11417D01*
X327064Y11355D01*
X327018Y11295D01*
X326969Y11238D01*
X326918Y11183D01*
X326863Y11132D01*
X326806Y11083D01*
X326746Y11037D01*
X326684Y10994D01*
X326620Y10955D01*
X326553Y10919D01*
X326485Y10886D01*
X326416Y10858D01*
X326345Y10832D01*
X326272Y10811D01*
X326199Y10793D01*
X326125Y10780D01*
X326050Y10770D01*
X325975Y10764D01*
X325900Y10762D01*
X325825Y10764D01*
X325750Y10770D01*
X325675Y10780D01*
X325601Y10793D01*
X325528Y10811D01*
X325455Y10832D01*
X325384Y10858D01*
X325315Y10886D01*
X325247Y10919D01*
X325181Y10955D01*
X325116Y10994D01*
X325054Y11037D01*
X324994Y11083D01*
X324937Y11132D01*
X324882Y11183D01*
X324831Y11238D01*
X324782Y11295D01*
X324736Y11355D01*
X324693Y11417D01*
X324654Y11482D01*
X324618Y11548D01*
X324585Y11616D01*
X324557Y11685D01*
X324531Y11756D01*
X324510Y11829D01*
X324492Y11902D01*
X324479Y11976D01*
X324469Y12051D01*
X324463Y12126D01*
X324461Y12201D01*
X330003Y15079D02*
X332161Y15079D01*
X330722Y17238D02*
X330722Y11841D01*
X330723Y11841D02*
X330725Y11778D01*
X330730Y11716D01*
X330739Y11654D01*
X330752Y11592D01*
X330768Y11532D01*
X330788Y11472D01*
X330811Y11414D01*
X330838Y11357D01*
X330868Y11301D01*
X330901Y11248D01*
X330937Y11197D01*
X330975Y11147D01*
X331017Y11101D01*
X331062Y11056D01*
X331108Y11014D01*
X331158Y10975D01*
X331209Y10939D01*
X331263Y10907D01*
X331318Y10877D01*
X331375Y10850D01*
X331433Y10827D01*
X331493Y10807D01*
X331553Y10791D01*
X331615Y10778D01*
X331677Y10769D01*
X331739Y10764D01*
X331802Y10762D01*
X332161Y10762D01*
X335261Y12201D02*
X335261Y13640D01*
X335263Y13715D01*
X335269Y13790D01*
X335279Y13865D01*
X335292Y13939D01*
X335310Y14012D01*
X335331Y14085D01*
X335357Y14156D01*
X335385Y14225D01*
X335418Y14293D01*
X335454Y14360D01*
X335493Y14424D01*
X335536Y14486D01*
X335582Y14546D01*
X335631Y14603D01*
X335682Y14658D01*
X335737Y14709D01*
X335794Y14758D01*
X335854Y14804D01*
X335916Y14847D01*
X335981Y14886D01*
X336047Y14922D01*
X336115Y14955D01*
X336184Y14983D01*
X336255Y15009D01*
X336328Y15030D01*
X336401Y15048D01*
X336475Y15061D01*
X336550Y15071D01*
X336625Y15077D01*
X336700Y15079D01*
X336775Y15077D01*
X336850Y15071D01*
X336925Y15061D01*
X336999Y15048D01*
X337072Y15030D01*
X337145Y15009D01*
X337216Y14983D01*
X337285Y14955D01*
X337353Y14922D01*
X337420Y14886D01*
X337484Y14847D01*
X337546Y14804D01*
X337606Y14758D01*
X337663Y14709D01*
X337718Y14658D01*
X337769Y14603D01*
X337818Y14546D01*
X337864Y14486D01*
X337907Y14424D01*
X337946Y14360D01*
X337982Y14293D01*
X338015Y14225D01*
X338043Y14156D01*
X338069Y14085D01*
X338090Y14012D01*
X338108Y13939D01*
X338121Y13865D01*
X338131Y13790D01*
X338137Y13715D01*
X338139Y13640D01*
X338140Y13640D02*
X338140Y12201D01*
X338139Y12201D02*
X338137Y12126D01*
X338131Y12051D01*
X338121Y11976D01*
X338108Y11902D01*
X338090Y11829D01*
X338069Y11756D01*
X338043Y11685D01*
X338015Y11616D01*
X337982Y11548D01*
X337946Y11482D01*
X337907Y11417D01*
X337864Y11355D01*
X337818Y11295D01*
X337769Y11238D01*
X337718Y11183D01*
X337663Y11132D01*
X337606Y11083D01*
X337546Y11037D01*
X337484Y10994D01*
X337420Y10955D01*
X337353Y10919D01*
X337285Y10886D01*
X337216Y10858D01*
X337145Y10832D01*
X337072Y10811D01*
X336999Y10793D01*
X336925Y10780D01*
X336850Y10770D01*
X336775Y10764D01*
X336700Y10762D01*
X336625Y10764D01*
X336550Y10770D01*
X336475Y10780D01*
X336401Y10793D01*
X336328Y10811D01*
X336255Y10832D01*
X336184Y10858D01*
X336115Y10886D01*
X336047Y10919D01*
X335981Y10955D01*
X335916Y10994D01*
X335854Y11037D01*
X335794Y11083D01*
X335737Y11132D01*
X335682Y11183D01*
X335631Y11238D01*
X335582Y11295D01*
X335536Y11355D01*
X335493Y11417D01*
X335454Y11482D01*
X335418Y11548D01*
X335385Y11616D01*
X335357Y11685D01*
X335331Y11756D01*
X335310Y11829D01*
X335292Y11902D01*
X335279Y11976D01*
X335269Y12051D01*
X335263Y12126D01*
X335261Y12201D01*
X340803Y15079D02*
X342961Y15079D01*
X341522Y17238D02*
X341522Y11841D01*
X341523Y11841D02*
X341525Y11778D01*
X341530Y11716D01*
X341539Y11654D01*
X341552Y11592D01*
X341568Y11532D01*
X341588Y11472D01*
X341611Y11414D01*
X341638Y11357D01*
X341668Y11301D01*
X341701Y11248D01*
X341737Y11197D01*
X341775Y11147D01*
X341817Y11101D01*
X341862Y11056D01*
X341908Y11014D01*
X341958Y10975D01*
X342009Y10939D01*
X342063Y10907D01*
X342118Y10877D01*
X342175Y10850D01*
X342233Y10827D01*
X342293Y10807D01*
X342353Y10791D01*
X342415Y10778D01*
X342477Y10769D01*
X342539Y10764D01*
X342602Y10762D01*
X342961Y10762D01*
X345821Y8603D02*
X346541Y8603D01*
X348699Y15079D01*
X345821Y15079D02*
X347260Y10762D01*
X352124Y8603D02*
X352124Y15079D01*
X353923Y15079D01*
X353988Y15077D01*
X354053Y15071D01*
X354117Y15061D01*
X354181Y15048D01*
X354244Y15030D01*
X354306Y15009D01*
X354366Y14984D01*
X354424Y14955D01*
X354481Y14923D01*
X354536Y14888D01*
X354588Y14849D01*
X354638Y14808D01*
X354686Y14763D01*
X354731Y14716D01*
X354772Y14665D01*
X354811Y14613D01*
X354846Y14558D01*
X354878Y14501D01*
X354907Y14443D01*
X354932Y14383D01*
X354953Y14321D01*
X354971Y14258D01*
X354984Y14195D01*
X354994Y14130D01*
X355000Y14065D01*
X355002Y14000D01*
X355002Y11841D01*
X355000Y11778D01*
X354995Y11716D01*
X354986Y11654D01*
X354973Y11592D01*
X354957Y11532D01*
X354937Y11472D01*
X354914Y11414D01*
X354887Y11357D01*
X354857Y11302D01*
X354824Y11248D01*
X354788Y11197D01*
X354750Y11147D01*
X354708Y11101D01*
X354663Y11056D01*
X354617Y11014D01*
X354567Y10976D01*
X354516Y10940D01*
X354463Y10907D01*
X354407Y10877D01*
X354350Y10850D01*
X354292Y10827D01*
X354232Y10807D01*
X354172Y10791D01*
X354110Y10778D01*
X354048Y10769D01*
X353986Y10764D01*
X353923Y10762D01*
X352124Y10762D01*
X359381Y10762D02*
X361179Y10762D01*
X359381Y10762D02*
X359318Y10764D01*
X359256Y10769D01*
X359194Y10778D01*
X359132Y10791D01*
X359072Y10807D01*
X359012Y10827D01*
X358954Y10850D01*
X358897Y10877D01*
X358842Y10907D01*
X358788Y10940D01*
X358737Y10976D01*
X358687Y11014D01*
X358641Y11056D01*
X358596Y11101D01*
X358554Y11147D01*
X358516Y11197D01*
X358480Y11248D01*
X358447Y11302D01*
X358417Y11357D01*
X358390Y11414D01*
X358367Y11472D01*
X358347Y11532D01*
X358331Y11592D01*
X358318Y11654D01*
X358309Y11716D01*
X358304Y11778D01*
X358302Y11841D01*
X358301Y11841D02*
X358301Y13640D01*
X358303Y13715D01*
X358309Y13790D01*
X358319Y13865D01*
X358332Y13939D01*
X358350Y14012D01*
X358371Y14085D01*
X358397Y14156D01*
X358425Y14225D01*
X358458Y14293D01*
X358494Y14360D01*
X358533Y14424D01*
X358576Y14486D01*
X358622Y14546D01*
X358671Y14603D01*
X358722Y14658D01*
X358777Y14709D01*
X358834Y14758D01*
X358894Y14804D01*
X358956Y14847D01*
X359021Y14886D01*
X359087Y14922D01*
X359155Y14955D01*
X359224Y14983D01*
X359295Y15009D01*
X359368Y15030D01*
X359441Y15048D01*
X359515Y15061D01*
X359590Y15071D01*
X359665Y15077D01*
X359740Y15079D01*
X359815Y15077D01*
X359890Y15071D01*
X359965Y15061D01*
X360039Y15048D01*
X360112Y15030D01*
X360185Y15009D01*
X360256Y14983D01*
X360325Y14955D01*
X360393Y14922D01*
X360460Y14886D01*
X360524Y14847D01*
X360586Y14804D01*
X360646Y14758D01*
X360703Y14709D01*
X360758Y14658D01*
X360809Y14603D01*
X360858Y14546D01*
X360904Y14486D01*
X360947Y14424D01*
X360986Y14360D01*
X361022Y14293D01*
X361055Y14225D01*
X361083Y14156D01*
X361109Y14085D01*
X361130Y14012D01*
X361148Y13939D01*
X361161Y13865D01*
X361171Y13790D01*
X361177Y13715D01*
X361179Y13640D01*
X361179Y12921D01*
X358301Y12921D01*
X364661Y10762D02*
X366460Y10762D01*
X366543Y10764D01*
X366626Y10770D01*
X366709Y10779D01*
X366791Y10793D01*
X366872Y10810D01*
X366952Y10831D01*
X367032Y10855D01*
X367110Y10883D01*
X367187Y10915D01*
X367262Y10951D01*
X367335Y10989D01*
X367407Y11031D01*
X367477Y11077D01*
X367544Y11125D01*
X367609Y11177D01*
X367672Y11232D01*
X367732Y11289D01*
X367789Y11349D01*
X367844Y11412D01*
X367896Y11477D01*
X367944Y11544D01*
X367990Y11614D01*
X368032Y11686D01*
X368070Y11759D01*
X368106Y11834D01*
X368138Y11911D01*
X368166Y11989D01*
X368190Y12069D01*
X368211Y12149D01*
X368228Y12230D01*
X368242Y12312D01*
X368251Y12395D01*
X368257Y12478D01*
X368259Y12561D01*
X368257Y12644D01*
X368251Y12727D01*
X368242Y12810D01*
X368228Y12892D01*
X368211Y12973D01*
X368190Y13053D01*
X368166Y13133D01*
X368138Y13211D01*
X368106Y13288D01*
X368070Y13363D01*
X368032Y13436D01*
X367990Y13508D01*
X367944Y13578D01*
X367896Y13645D01*
X367844Y13710D01*
X367789Y13773D01*
X367732Y13833D01*
X367672Y13890D01*
X367609Y13945D01*
X367544Y13997D01*
X367477Y14045D01*
X367407Y14091D01*
X367335Y14133D01*
X367262Y14171D01*
X367187Y14207D01*
X367110Y14239D01*
X367032Y14267D01*
X366952Y14291D01*
X366872Y14312D01*
X366791Y14329D01*
X366709Y14343D01*
X366626Y14352D01*
X366543Y14358D01*
X366460Y14360D01*
X366820Y17238D02*
X364661Y17238D01*
X366820Y17238D02*
X366895Y17236D01*
X366970Y17230D01*
X367045Y17220D01*
X367119Y17207D01*
X367192Y17189D01*
X367265Y17168D01*
X367336Y17142D01*
X367405Y17114D01*
X367473Y17081D01*
X367540Y17045D01*
X367604Y17006D01*
X367666Y16963D01*
X367726Y16917D01*
X367783Y16868D01*
X367838Y16817D01*
X367889Y16762D01*
X367938Y16705D01*
X367984Y16645D01*
X368027Y16583D01*
X368066Y16519D01*
X368102Y16452D01*
X368135Y16384D01*
X368163Y16315D01*
X368189Y16244D01*
X368210Y16171D01*
X368228Y16098D01*
X368241Y16024D01*
X368251Y15949D01*
X368257Y15874D01*
X368259Y15799D01*
X368257Y15724D01*
X368251Y15649D01*
X368241Y15574D01*
X368228Y15500D01*
X368210Y15427D01*
X368189Y15354D01*
X368163Y15283D01*
X368135Y15214D01*
X368102Y15146D01*
X368066Y15080D01*
X368027Y15015D01*
X367984Y14953D01*
X367938Y14893D01*
X367889Y14836D01*
X367838Y14781D01*
X367783Y14730D01*
X367726Y14681D01*
X367666Y14635D01*
X367604Y14592D01*
X367540Y14553D01*
X367473Y14517D01*
X367405Y14484D01*
X367336Y14456D01*
X367265Y14430D01*
X367192Y14409D01*
X367119Y14391D01*
X367045Y14378D01*
X366970Y14368D01*
X366895Y14362D01*
X366820Y14360D01*
X365381Y14360D01*
D12*
X308500Y6000D02*
X308500Y33500D01*
X308500Y6000D02*
X334750Y6000D01*
X341600Y6000D02*
X342900Y6000D01*
X349750Y6000D02*
X376000Y6000D01*
X376000Y33500D01*
X349750Y33500D01*
X342900Y33500D02*
X341600Y33500D01*
X334750Y33500D02*
X308500Y33500D01*
D11*
X216943Y28762D02*
X214064Y28762D01*
X214064Y35238D01*
X216943Y35238D01*
X216223Y32360D02*
X214064Y32360D01*
X220160Y33079D02*
X220160Y29841D01*
X220162Y29778D01*
X220167Y29716D01*
X220176Y29654D01*
X220189Y29592D01*
X220205Y29532D01*
X220225Y29472D01*
X220248Y29414D01*
X220275Y29357D01*
X220305Y29302D01*
X220338Y29248D01*
X220374Y29197D01*
X220412Y29147D01*
X220454Y29101D01*
X220499Y29056D01*
X220545Y29014D01*
X220595Y28976D01*
X220646Y28940D01*
X220700Y28907D01*
X220755Y28877D01*
X220812Y28850D01*
X220870Y28827D01*
X220930Y28807D01*
X220990Y28791D01*
X221052Y28778D01*
X221114Y28769D01*
X221176Y28764D01*
X221239Y28762D01*
X223038Y28762D01*
X223038Y33079D01*
X226951Y33079D02*
X226951Y28762D01*
X226951Y33079D02*
X229109Y33079D01*
X229109Y32360D01*
X231680Y31640D02*
X231680Y30201D01*
X231680Y31640D02*
X231682Y31715D01*
X231688Y31790D01*
X231698Y31865D01*
X231711Y31939D01*
X231729Y32012D01*
X231750Y32085D01*
X231776Y32156D01*
X231804Y32225D01*
X231837Y32293D01*
X231873Y32360D01*
X231912Y32424D01*
X231955Y32486D01*
X232001Y32546D01*
X232050Y32603D01*
X232101Y32658D01*
X232156Y32709D01*
X232213Y32758D01*
X232273Y32804D01*
X232335Y32847D01*
X232400Y32886D01*
X232466Y32922D01*
X232534Y32955D01*
X232603Y32983D01*
X232674Y33009D01*
X232747Y33030D01*
X232820Y33048D01*
X232894Y33061D01*
X232969Y33071D01*
X233044Y33077D01*
X233119Y33079D01*
X233194Y33077D01*
X233269Y33071D01*
X233344Y33061D01*
X233418Y33048D01*
X233491Y33030D01*
X233564Y33009D01*
X233635Y32983D01*
X233704Y32955D01*
X233772Y32922D01*
X233839Y32886D01*
X233903Y32847D01*
X233965Y32804D01*
X234025Y32758D01*
X234082Y32709D01*
X234137Y32658D01*
X234188Y32603D01*
X234237Y32546D01*
X234283Y32486D01*
X234326Y32424D01*
X234365Y32360D01*
X234401Y32293D01*
X234434Y32225D01*
X234462Y32156D01*
X234488Y32085D01*
X234509Y32012D01*
X234527Y31939D01*
X234540Y31865D01*
X234550Y31790D01*
X234556Y31715D01*
X234558Y31640D01*
X234558Y30201D01*
X234556Y30126D01*
X234550Y30051D01*
X234540Y29976D01*
X234527Y29902D01*
X234509Y29829D01*
X234488Y29756D01*
X234462Y29685D01*
X234434Y29616D01*
X234401Y29548D01*
X234365Y29482D01*
X234326Y29417D01*
X234283Y29355D01*
X234237Y29295D01*
X234188Y29238D01*
X234137Y29183D01*
X234082Y29132D01*
X234025Y29083D01*
X233965Y29037D01*
X233903Y28994D01*
X233839Y28955D01*
X233772Y28919D01*
X233704Y28886D01*
X233635Y28858D01*
X233564Y28832D01*
X233491Y28811D01*
X233418Y28793D01*
X233344Y28780D01*
X233269Y28770D01*
X233194Y28764D01*
X233119Y28762D01*
X233044Y28764D01*
X232969Y28770D01*
X232894Y28780D01*
X232820Y28793D01*
X232747Y28811D01*
X232674Y28832D01*
X232603Y28858D01*
X232534Y28886D01*
X232466Y28919D01*
X232400Y28955D01*
X232335Y28994D01*
X232273Y29037D01*
X232213Y29083D01*
X232156Y29132D01*
X232101Y29183D01*
X232050Y29238D01*
X232001Y29295D01*
X231955Y29355D01*
X231912Y29417D01*
X231873Y29482D01*
X231837Y29548D01*
X231804Y29616D01*
X231776Y29685D01*
X231750Y29756D01*
X231729Y29829D01*
X231711Y29902D01*
X231698Y29976D01*
X231688Y30051D01*
X231682Y30126D01*
X231680Y30201D01*
X238223Y33079D02*
X238223Y26603D01*
X238223Y33079D02*
X240021Y33079D01*
X240086Y33077D01*
X240151Y33071D01*
X240215Y33061D01*
X240279Y33048D01*
X240342Y33030D01*
X240404Y33009D01*
X240464Y32984D01*
X240522Y32955D01*
X240579Y32923D01*
X240634Y32888D01*
X240686Y32849D01*
X240736Y32808D01*
X240784Y32763D01*
X240829Y32716D01*
X240870Y32665D01*
X240909Y32613D01*
X240944Y32558D01*
X240976Y32501D01*
X241005Y32443D01*
X241030Y32383D01*
X241051Y32321D01*
X241069Y32258D01*
X241082Y32195D01*
X241092Y32130D01*
X241098Y32065D01*
X241100Y32000D01*
X241101Y32000D02*
X241101Y29841D01*
X241100Y29841D02*
X241098Y29778D01*
X241093Y29716D01*
X241084Y29654D01*
X241071Y29592D01*
X241055Y29532D01*
X241035Y29472D01*
X241012Y29414D01*
X240985Y29357D01*
X240955Y29302D01*
X240922Y29248D01*
X240886Y29197D01*
X240848Y29147D01*
X240806Y29101D01*
X240761Y29056D01*
X240715Y29014D01*
X240665Y28976D01*
X240614Y28940D01*
X240561Y28907D01*
X240505Y28877D01*
X240448Y28850D01*
X240390Y28827D01*
X240330Y28807D01*
X240270Y28791D01*
X240208Y28778D01*
X240146Y28769D01*
X240084Y28764D01*
X240021Y28762D01*
X238223Y28762D01*
X245479Y28762D02*
X247278Y28762D01*
X245479Y28762D02*
X245416Y28764D01*
X245354Y28769D01*
X245292Y28778D01*
X245230Y28791D01*
X245170Y28807D01*
X245110Y28827D01*
X245052Y28850D01*
X244995Y28877D01*
X244940Y28907D01*
X244886Y28940D01*
X244835Y28976D01*
X244785Y29014D01*
X244739Y29056D01*
X244694Y29101D01*
X244652Y29147D01*
X244614Y29197D01*
X244578Y29248D01*
X244545Y29302D01*
X244515Y29357D01*
X244488Y29414D01*
X244465Y29472D01*
X244445Y29532D01*
X244429Y29592D01*
X244416Y29654D01*
X244407Y29716D01*
X244402Y29778D01*
X244400Y29841D01*
X244400Y31640D01*
X244402Y31715D01*
X244408Y31790D01*
X244418Y31865D01*
X244431Y31939D01*
X244449Y32012D01*
X244470Y32085D01*
X244496Y32156D01*
X244524Y32225D01*
X244557Y32293D01*
X244593Y32360D01*
X244632Y32424D01*
X244675Y32486D01*
X244721Y32546D01*
X244770Y32603D01*
X244821Y32658D01*
X244876Y32709D01*
X244933Y32758D01*
X244993Y32804D01*
X245055Y32847D01*
X245120Y32886D01*
X245186Y32922D01*
X245254Y32955D01*
X245323Y32983D01*
X245394Y33009D01*
X245467Y33030D01*
X245540Y33048D01*
X245614Y33061D01*
X245689Y33071D01*
X245764Y33077D01*
X245839Y33079D01*
X245914Y33077D01*
X245989Y33071D01*
X246064Y33061D01*
X246138Y33048D01*
X246211Y33030D01*
X246284Y33009D01*
X246355Y32983D01*
X246424Y32955D01*
X246492Y32922D01*
X246559Y32886D01*
X246623Y32847D01*
X246685Y32804D01*
X246745Y32758D01*
X246802Y32709D01*
X246857Y32658D01*
X246908Y32603D01*
X246957Y32546D01*
X247003Y32486D01*
X247046Y32424D01*
X247085Y32360D01*
X247121Y32293D01*
X247154Y32225D01*
X247182Y32156D01*
X247208Y32085D01*
X247229Y32012D01*
X247247Y31939D01*
X247260Y31865D01*
X247270Y31790D01*
X247276Y31715D01*
X247278Y31640D01*
X247278Y30921D01*
X244400Y30921D01*
X251836Y31280D02*
X253455Y31280D01*
X251836Y31280D02*
X251767Y31278D01*
X251697Y31272D01*
X251629Y31263D01*
X251561Y31250D01*
X251493Y31232D01*
X251427Y31212D01*
X251362Y31187D01*
X251299Y31160D01*
X251237Y31128D01*
X251177Y31094D01*
X251119Y31056D01*
X251063Y31015D01*
X251009Y30970D01*
X250958Y30923D01*
X250910Y30874D01*
X250864Y30821D01*
X250822Y30767D01*
X250782Y30710D01*
X250746Y30651D01*
X250713Y30589D01*
X250683Y30527D01*
X250657Y30462D01*
X250634Y30397D01*
X250616Y30330D01*
X250600Y30262D01*
X250589Y30194D01*
X250581Y30125D01*
X250577Y30056D01*
X250577Y29986D01*
X250581Y29917D01*
X250589Y29848D01*
X250600Y29780D01*
X250616Y29712D01*
X250634Y29645D01*
X250657Y29580D01*
X250683Y29515D01*
X250713Y29453D01*
X250746Y29392D01*
X250782Y29332D01*
X250822Y29275D01*
X250864Y29221D01*
X250910Y29168D01*
X250958Y29119D01*
X251009Y29072D01*
X251063Y29027D01*
X251119Y28986D01*
X251177Y28948D01*
X251237Y28914D01*
X251299Y28882D01*
X251362Y28855D01*
X251427Y28830D01*
X251493Y28810D01*
X251561Y28792D01*
X251629Y28779D01*
X251697Y28770D01*
X251767Y28764D01*
X251836Y28762D01*
X253455Y28762D01*
X253455Y32000D01*
X253453Y32063D01*
X253448Y32125D01*
X253439Y32187D01*
X253426Y32249D01*
X253410Y32309D01*
X253390Y32369D01*
X253367Y32427D01*
X253340Y32484D01*
X253310Y32540D01*
X253277Y32593D01*
X253241Y32644D01*
X253203Y32694D01*
X253161Y32740D01*
X253116Y32785D01*
X253070Y32827D01*
X253020Y32865D01*
X252969Y32901D01*
X252916Y32934D01*
X252860Y32964D01*
X252803Y32991D01*
X252745Y33014D01*
X252685Y33034D01*
X252625Y33050D01*
X252563Y33063D01*
X252501Y33072D01*
X252439Y33077D01*
X252376Y33079D01*
X250937Y33079D01*
X257360Y33079D02*
X257360Y28762D01*
X257360Y33079D02*
X259159Y33079D01*
X259224Y33077D01*
X259289Y33071D01*
X259353Y33061D01*
X259417Y33048D01*
X259480Y33030D01*
X259542Y33009D01*
X259602Y32984D01*
X259660Y32955D01*
X259717Y32923D01*
X259772Y32888D01*
X259824Y32849D01*
X259874Y32808D01*
X259922Y32763D01*
X259967Y32716D01*
X260008Y32665D01*
X260047Y32613D01*
X260082Y32558D01*
X260114Y32501D01*
X260143Y32443D01*
X260168Y32383D01*
X260189Y32321D01*
X260207Y32258D01*
X260220Y32195D01*
X260230Y32130D01*
X260236Y32065D01*
X260238Y32000D01*
X260238Y28762D01*
X229341Y16762D02*
X227902Y16762D01*
X227827Y16764D01*
X227752Y16770D01*
X227677Y16780D01*
X227603Y16793D01*
X227530Y16811D01*
X227457Y16832D01*
X227386Y16858D01*
X227317Y16886D01*
X227249Y16919D01*
X227183Y16955D01*
X227118Y16994D01*
X227056Y17037D01*
X226996Y17083D01*
X226939Y17132D01*
X226884Y17183D01*
X226833Y17238D01*
X226784Y17295D01*
X226738Y17355D01*
X226695Y17417D01*
X226656Y17482D01*
X226620Y17548D01*
X226587Y17616D01*
X226559Y17685D01*
X226533Y17756D01*
X226512Y17829D01*
X226494Y17902D01*
X226481Y17976D01*
X226471Y18051D01*
X226465Y18126D01*
X226463Y18201D01*
X226463Y21799D01*
X226465Y21874D01*
X226471Y21949D01*
X226481Y22024D01*
X226494Y22098D01*
X226512Y22171D01*
X226533Y22244D01*
X226559Y22315D01*
X226587Y22384D01*
X226620Y22452D01*
X226656Y22518D01*
X226695Y22583D01*
X226738Y22645D01*
X226784Y22705D01*
X226833Y22762D01*
X226884Y22817D01*
X226939Y22868D01*
X226996Y22917D01*
X227056Y22963D01*
X227118Y23006D01*
X227182Y23045D01*
X227249Y23081D01*
X227317Y23114D01*
X227386Y23142D01*
X227457Y23168D01*
X227530Y23189D01*
X227603Y23207D01*
X227677Y23220D01*
X227752Y23230D01*
X227827Y23236D01*
X227902Y23238D01*
X229341Y23238D01*
X233575Y19280D02*
X235194Y19280D01*
X233575Y19280D02*
X233506Y19278D01*
X233436Y19272D01*
X233368Y19263D01*
X233300Y19250D01*
X233232Y19232D01*
X233166Y19212D01*
X233101Y19187D01*
X233038Y19160D01*
X232976Y19128D01*
X232916Y19094D01*
X232858Y19056D01*
X232802Y19015D01*
X232748Y18970D01*
X232697Y18923D01*
X232649Y18874D01*
X232603Y18821D01*
X232561Y18767D01*
X232521Y18710D01*
X232485Y18651D01*
X232452Y18589D01*
X232422Y18527D01*
X232396Y18462D01*
X232373Y18397D01*
X232355Y18330D01*
X232339Y18262D01*
X232328Y18194D01*
X232320Y18125D01*
X232316Y18056D01*
X232316Y17986D01*
X232320Y17917D01*
X232328Y17848D01*
X232339Y17780D01*
X232355Y17712D01*
X232373Y17645D01*
X232396Y17580D01*
X232422Y17515D01*
X232452Y17453D01*
X232485Y17392D01*
X232521Y17332D01*
X232561Y17275D01*
X232603Y17221D01*
X232649Y17168D01*
X232697Y17119D01*
X232748Y17072D01*
X232802Y17027D01*
X232858Y16986D01*
X232916Y16948D01*
X232976Y16914D01*
X233038Y16882D01*
X233101Y16855D01*
X233166Y16830D01*
X233232Y16810D01*
X233300Y16792D01*
X233368Y16779D01*
X233436Y16770D01*
X233506Y16764D01*
X233575Y16762D01*
X235194Y16762D01*
X235194Y20000D01*
X235193Y20000D02*
X235191Y20063D01*
X235186Y20125D01*
X235177Y20187D01*
X235164Y20249D01*
X235148Y20309D01*
X235128Y20369D01*
X235105Y20427D01*
X235078Y20484D01*
X235048Y20540D01*
X235015Y20593D01*
X234979Y20644D01*
X234941Y20694D01*
X234899Y20740D01*
X234854Y20785D01*
X234808Y20827D01*
X234758Y20865D01*
X234707Y20901D01*
X234654Y20934D01*
X234598Y20964D01*
X234541Y20991D01*
X234483Y21014D01*
X234423Y21034D01*
X234363Y21050D01*
X234301Y21063D01*
X234239Y21072D01*
X234177Y21077D01*
X234114Y21079D01*
X232675Y21079D01*
X239098Y21079D02*
X239098Y16762D01*
X239098Y21079D02*
X240897Y21079D01*
X240962Y21077D01*
X241027Y21071D01*
X241091Y21061D01*
X241155Y21048D01*
X241218Y21030D01*
X241280Y21009D01*
X241340Y20984D01*
X241398Y20955D01*
X241455Y20923D01*
X241510Y20888D01*
X241562Y20849D01*
X241612Y20808D01*
X241660Y20763D01*
X241705Y20716D01*
X241746Y20665D01*
X241785Y20613D01*
X241820Y20558D01*
X241852Y20501D01*
X241881Y20443D01*
X241906Y20383D01*
X241927Y20321D01*
X241945Y20258D01*
X241958Y20195D01*
X241968Y20130D01*
X241974Y20065D01*
X241976Y20000D01*
X241976Y16762D01*
X247617Y16762D02*
X247692Y16764D01*
X247767Y16770D01*
X247842Y16780D01*
X247916Y16793D01*
X247989Y16811D01*
X248062Y16832D01*
X248133Y16858D01*
X248202Y16886D01*
X248270Y16919D01*
X248337Y16955D01*
X248401Y16994D01*
X248463Y17037D01*
X248523Y17083D01*
X248580Y17132D01*
X248635Y17183D01*
X248686Y17238D01*
X248735Y17295D01*
X248781Y17355D01*
X248824Y17417D01*
X248863Y17482D01*
X248899Y17548D01*
X248932Y17616D01*
X248960Y17685D01*
X248986Y17756D01*
X249007Y17829D01*
X249025Y17902D01*
X249038Y17976D01*
X249048Y18051D01*
X249054Y18126D01*
X249056Y18201D01*
X247617Y16762D02*
X247508Y16764D01*
X247399Y16770D01*
X247290Y16780D01*
X247182Y16793D01*
X247074Y16811D01*
X246967Y16832D01*
X246861Y16857D01*
X246756Y16886D01*
X246652Y16919D01*
X246549Y16956D01*
X246448Y16996D01*
X246348Y17040D01*
X246250Y17087D01*
X246153Y17138D01*
X246058Y17192D01*
X245966Y17250D01*
X245875Y17311D01*
X245787Y17375D01*
X245701Y17442D01*
X245617Y17512D01*
X245537Y17585D01*
X245458Y17661D01*
X245638Y21799D02*
X245640Y21874D01*
X245646Y21949D01*
X245656Y22024D01*
X245669Y22098D01*
X245687Y22171D01*
X245708Y22244D01*
X245734Y22315D01*
X245762Y22384D01*
X245795Y22452D01*
X245831Y22519D01*
X245870Y22583D01*
X245913Y22645D01*
X245959Y22705D01*
X246008Y22762D01*
X246059Y22817D01*
X246114Y22868D01*
X246171Y22917D01*
X246231Y22963D01*
X246293Y23006D01*
X246358Y23045D01*
X246424Y23081D01*
X246492Y23114D01*
X246561Y23142D01*
X246632Y23168D01*
X246705Y23189D01*
X246778Y23207D01*
X246852Y23220D01*
X246927Y23230D01*
X247002Y23236D01*
X247077Y23238D01*
X247179Y23236D01*
X247281Y23230D01*
X247383Y23221D01*
X247484Y23207D01*
X247585Y23190D01*
X247685Y23169D01*
X247784Y23144D01*
X247882Y23115D01*
X247979Y23083D01*
X248074Y23047D01*
X248168Y23007D01*
X248261Y22964D01*
X248352Y22918D01*
X248441Y22868D01*
X248528Y22815D01*
X248613Y22758D01*
X248696Y22698D01*
X246358Y20539D02*
X246293Y20580D01*
X246231Y20623D01*
X246171Y20670D01*
X246114Y20720D01*
X246059Y20772D01*
X246007Y20828D01*
X245958Y20886D01*
X245913Y20946D01*
X245870Y21009D01*
X245831Y21074D01*
X245795Y21140D01*
X245762Y21209D01*
X245733Y21279D01*
X245708Y21351D01*
X245687Y21424D01*
X245669Y21498D01*
X245656Y21572D01*
X245646Y21647D01*
X245640Y21723D01*
X245638Y21799D01*
X248336Y19461D02*
X248401Y19420D01*
X248463Y19377D01*
X248523Y19330D01*
X248580Y19280D01*
X248635Y19228D01*
X248687Y19172D01*
X248736Y19114D01*
X248781Y19054D01*
X248824Y18991D01*
X248863Y18926D01*
X248899Y18860D01*
X248932Y18791D01*
X248961Y18721D01*
X248986Y18649D01*
X249007Y18576D01*
X249025Y18502D01*
X249038Y18428D01*
X249048Y18353D01*
X249054Y18277D01*
X249056Y18201D01*
X248336Y19460D02*
X246358Y20540D01*
X253494Y19280D02*
X255113Y19280D01*
X253494Y19280D02*
X253425Y19278D01*
X253355Y19272D01*
X253287Y19263D01*
X253219Y19250D01*
X253151Y19232D01*
X253085Y19212D01*
X253020Y19187D01*
X252957Y19160D01*
X252895Y19128D01*
X252835Y19094D01*
X252777Y19056D01*
X252721Y19015D01*
X252667Y18970D01*
X252616Y18923D01*
X252568Y18874D01*
X252522Y18821D01*
X252480Y18767D01*
X252440Y18710D01*
X252404Y18651D01*
X252371Y18589D01*
X252341Y18527D01*
X252315Y18462D01*
X252292Y18397D01*
X252274Y18330D01*
X252258Y18262D01*
X252247Y18194D01*
X252239Y18125D01*
X252235Y18056D01*
X252235Y17986D01*
X252239Y17917D01*
X252247Y17848D01*
X252258Y17780D01*
X252274Y17712D01*
X252292Y17645D01*
X252315Y17580D01*
X252341Y17515D01*
X252371Y17453D01*
X252404Y17392D01*
X252440Y17332D01*
X252480Y17275D01*
X252522Y17221D01*
X252568Y17168D01*
X252616Y17119D01*
X252667Y17072D01*
X252721Y17027D01*
X252777Y16986D01*
X252835Y16948D01*
X252895Y16914D01*
X252957Y16882D01*
X253020Y16855D01*
X253085Y16830D01*
X253151Y16810D01*
X253219Y16792D01*
X253287Y16779D01*
X253355Y16770D01*
X253425Y16764D01*
X253494Y16762D01*
X255113Y16762D01*
X255113Y20000D01*
X255111Y20063D01*
X255106Y20125D01*
X255097Y20187D01*
X255084Y20249D01*
X255068Y20309D01*
X255048Y20369D01*
X255025Y20427D01*
X254998Y20484D01*
X254968Y20540D01*
X254935Y20593D01*
X254899Y20644D01*
X254861Y20694D01*
X254819Y20740D01*
X254774Y20785D01*
X254728Y20827D01*
X254678Y20865D01*
X254627Y20901D01*
X254574Y20934D01*
X254518Y20964D01*
X254461Y20991D01*
X254403Y21014D01*
X254343Y21034D01*
X254283Y21050D01*
X254221Y21063D01*
X254159Y21072D01*
X254097Y21077D01*
X254034Y21079D01*
X252595Y21079D01*
X258079Y21079D02*
X260238Y21079D01*
X258799Y23238D02*
X258799Y17841D01*
X258801Y17778D01*
X258806Y17716D01*
X258815Y17654D01*
X258828Y17592D01*
X258844Y17532D01*
X258864Y17472D01*
X258887Y17414D01*
X258914Y17357D01*
X258944Y17301D01*
X258977Y17248D01*
X259013Y17197D01*
X259051Y17147D01*
X259093Y17101D01*
X259138Y17056D01*
X259184Y17014D01*
X259234Y16975D01*
X259285Y16939D01*
X259339Y16907D01*
X259394Y16877D01*
X259451Y16850D01*
X259509Y16827D01*
X259569Y16807D01*
X259629Y16791D01*
X259691Y16778D01*
X259753Y16769D01*
X259815Y16764D01*
X259878Y16762D01*
X260238Y16762D01*
X208243Y4762D02*
X206804Y4762D01*
X206729Y4764D01*
X206654Y4770D01*
X206579Y4780D01*
X206505Y4793D01*
X206432Y4811D01*
X206359Y4832D01*
X206288Y4858D01*
X206219Y4886D01*
X206151Y4919D01*
X206085Y4955D01*
X206020Y4994D01*
X205958Y5037D01*
X205898Y5083D01*
X205841Y5132D01*
X205786Y5183D01*
X205735Y5238D01*
X205686Y5295D01*
X205640Y5355D01*
X205597Y5417D01*
X205558Y5482D01*
X205522Y5548D01*
X205489Y5616D01*
X205461Y5685D01*
X205435Y5756D01*
X205414Y5829D01*
X205396Y5902D01*
X205383Y5976D01*
X205373Y6051D01*
X205367Y6126D01*
X205365Y6201D01*
X205365Y9799D01*
X205367Y9874D01*
X205373Y9949D01*
X205383Y10024D01*
X205396Y10098D01*
X205414Y10171D01*
X205435Y10244D01*
X205461Y10315D01*
X205489Y10384D01*
X205522Y10452D01*
X205558Y10518D01*
X205597Y10583D01*
X205640Y10645D01*
X205686Y10705D01*
X205735Y10762D01*
X205786Y10817D01*
X205841Y10868D01*
X205898Y10917D01*
X205958Y10963D01*
X206020Y11006D01*
X206084Y11045D01*
X206151Y11081D01*
X206219Y11114D01*
X206288Y11142D01*
X206359Y11168D01*
X206432Y11189D01*
X206505Y11207D01*
X206579Y11220D01*
X206654Y11230D01*
X206729Y11236D01*
X206804Y11238D01*
X208243Y11238D01*
X211280Y7640D02*
X211280Y6201D01*
X211280Y7640D02*
X211282Y7715D01*
X211288Y7790D01*
X211298Y7865D01*
X211311Y7939D01*
X211329Y8012D01*
X211350Y8085D01*
X211376Y8156D01*
X211404Y8225D01*
X211437Y8293D01*
X211473Y8360D01*
X211512Y8424D01*
X211555Y8486D01*
X211601Y8546D01*
X211650Y8603D01*
X211701Y8658D01*
X211756Y8709D01*
X211813Y8758D01*
X211873Y8804D01*
X211935Y8847D01*
X212000Y8886D01*
X212066Y8922D01*
X212134Y8955D01*
X212203Y8983D01*
X212274Y9009D01*
X212347Y9030D01*
X212420Y9048D01*
X212494Y9061D01*
X212569Y9071D01*
X212644Y9077D01*
X212719Y9079D01*
X212794Y9077D01*
X212869Y9071D01*
X212944Y9061D01*
X213018Y9048D01*
X213091Y9030D01*
X213164Y9009D01*
X213235Y8983D01*
X213304Y8955D01*
X213372Y8922D01*
X213439Y8886D01*
X213503Y8847D01*
X213565Y8804D01*
X213625Y8758D01*
X213682Y8709D01*
X213737Y8658D01*
X213788Y8603D01*
X213837Y8546D01*
X213883Y8486D01*
X213926Y8424D01*
X213965Y8360D01*
X214001Y8293D01*
X214034Y8225D01*
X214062Y8156D01*
X214088Y8085D01*
X214109Y8012D01*
X214127Y7939D01*
X214140Y7865D01*
X214150Y7790D01*
X214156Y7715D01*
X214158Y7640D01*
X214158Y6201D01*
X214156Y6126D01*
X214150Y6051D01*
X214140Y5976D01*
X214127Y5902D01*
X214109Y5829D01*
X214088Y5756D01*
X214062Y5685D01*
X214034Y5616D01*
X214001Y5548D01*
X213965Y5482D01*
X213926Y5417D01*
X213883Y5355D01*
X213837Y5295D01*
X213788Y5238D01*
X213737Y5183D01*
X213682Y5132D01*
X213625Y5083D01*
X213565Y5037D01*
X213503Y4994D01*
X213439Y4955D01*
X213372Y4919D01*
X213304Y4886D01*
X213235Y4858D01*
X213164Y4832D01*
X213091Y4811D01*
X213018Y4793D01*
X212944Y4780D01*
X212869Y4770D01*
X212794Y4764D01*
X212719Y4762D01*
X212644Y4764D01*
X212569Y4770D01*
X212494Y4780D01*
X212420Y4793D01*
X212347Y4811D01*
X212274Y4832D01*
X212203Y4858D01*
X212134Y4886D01*
X212066Y4919D01*
X212000Y4955D01*
X211935Y4994D01*
X211873Y5037D01*
X211813Y5083D01*
X211756Y5132D01*
X211701Y5183D01*
X211650Y5238D01*
X211601Y5295D01*
X211555Y5355D01*
X211512Y5417D01*
X211473Y5482D01*
X211437Y5548D01*
X211404Y5616D01*
X211376Y5685D01*
X211350Y5756D01*
X211329Y5829D01*
X211311Y5902D01*
X211298Y5976D01*
X211288Y6051D01*
X211282Y6126D01*
X211280Y6201D01*
X218000Y4762D02*
X218000Y9079D01*
X221238Y9079D01*
X221301Y9077D01*
X221363Y9072D01*
X221425Y9063D01*
X221487Y9050D01*
X221547Y9034D01*
X221607Y9014D01*
X221665Y8991D01*
X221722Y8964D01*
X221778Y8934D01*
X221831Y8901D01*
X221882Y8865D01*
X221932Y8827D01*
X221978Y8785D01*
X222023Y8740D01*
X222065Y8694D01*
X222103Y8644D01*
X222139Y8593D01*
X222172Y8540D01*
X222202Y8484D01*
X222229Y8427D01*
X222252Y8369D01*
X222272Y8309D01*
X222288Y8249D01*
X222301Y8187D01*
X222310Y8125D01*
X222315Y8063D01*
X222317Y8000D01*
X222318Y8000D02*
X222318Y4762D01*
X220159Y4762D02*
X220159Y9079D01*
X226463Y9079D02*
X226463Y2603D01*
X226463Y9079D02*
X228262Y9079D01*
X228327Y9077D01*
X228392Y9071D01*
X228456Y9061D01*
X228520Y9048D01*
X228583Y9030D01*
X228645Y9009D01*
X228705Y8984D01*
X228763Y8955D01*
X228820Y8923D01*
X228875Y8888D01*
X228927Y8849D01*
X228977Y8808D01*
X229025Y8763D01*
X229070Y8716D01*
X229111Y8665D01*
X229150Y8613D01*
X229185Y8558D01*
X229217Y8501D01*
X229246Y8443D01*
X229271Y8383D01*
X229292Y8321D01*
X229310Y8258D01*
X229323Y8195D01*
X229333Y8130D01*
X229339Y8065D01*
X229341Y8000D01*
X229341Y5841D01*
X229339Y5778D01*
X229334Y5716D01*
X229325Y5654D01*
X229312Y5592D01*
X229296Y5532D01*
X229276Y5472D01*
X229253Y5414D01*
X229226Y5357D01*
X229196Y5302D01*
X229163Y5248D01*
X229127Y5197D01*
X229089Y5147D01*
X229047Y5101D01*
X229002Y5056D01*
X228956Y5014D01*
X228906Y4976D01*
X228855Y4940D01*
X228802Y4907D01*
X228746Y4877D01*
X228689Y4850D01*
X228631Y4827D01*
X228571Y4807D01*
X228511Y4791D01*
X228449Y4778D01*
X228387Y4769D01*
X228325Y4764D01*
X228262Y4762D01*
X226463Y4762D01*
X233719Y4762D02*
X235518Y4762D01*
X233719Y4762D02*
X233656Y4764D01*
X233594Y4769D01*
X233532Y4778D01*
X233470Y4791D01*
X233410Y4807D01*
X233350Y4827D01*
X233292Y4850D01*
X233235Y4877D01*
X233180Y4907D01*
X233126Y4940D01*
X233075Y4976D01*
X233025Y5014D01*
X232979Y5056D01*
X232934Y5101D01*
X232892Y5147D01*
X232854Y5197D01*
X232818Y5248D01*
X232785Y5302D01*
X232755Y5357D01*
X232728Y5414D01*
X232705Y5472D01*
X232685Y5532D01*
X232669Y5592D01*
X232656Y5654D01*
X232647Y5716D01*
X232642Y5778D01*
X232640Y5841D01*
X232640Y7640D01*
X232642Y7715D01*
X232648Y7790D01*
X232658Y7865D01*
X232671Y7939D01*
X232689Y8012D01*
X232710Y8085D01*
X232736Y8156D01*
X232764Y8225D01*
X232797Y8293D01*
X232833Y8360D01*
X232872Y8424D01*
X232915Y8486D01*
X232961Y8546D01*
X233010Y8603D01*
X233061Y8658D01*
X233116Y8709D01*
X233173Y8758D01*
X233233Y8804D01*
X233295Y8847D01*
X233360Y8886D01*
X233426Y8922D01*
X233494Y8955D01*
X233563Y8983D01*
X233634Y9009D01*
X233707Y9030D01*
X233780Y9048D01*
X233854Y9061D01*
X233929Y9071D01*
X234004Y9077D01*
X234079Y9079D01*
X234154Y9077D01*
X234229Y9071D01*
X234304Y9061D01*
X234378Y9048D01*
X234451Y9030D01*
X234524Y9009D01*
X234595Y8983D01*
X234664Y8955D01*
X234732Y8922D01*
X234799Y8886D01*
X234863Y8847D01*
X234925Y8804D01*
X234985Y8758D01*
X235042Y8709D01*
X235097Y8658D01*
X235148Y8603D01*
X235197Y8546D01*
X235243Y8486D01*
X235286Y8424D01*
X235325Y8360D01*
X235361Y8293D01*
X235394Y8225D01*
X235422Y8156D01*
X235448Y8085D01*
X235469Y8012D01*
X235487Y7939D01*
X235500Y7865D01*
X235510Y7790D01*
X235516Y7715D01*
X235518Y7640D01*
X235518Y6921D01*
X232640Y6921D01*
X238181Y9079D02*
X240340Y9079D01*
X238901Y11238D02*
X238901Y5841D01*
X238903Y5778D01*
X238908Y5716D01*
X238917Y5654D01*
X238930Y5592D01*
X238946Y5532D01*
X238966Y5472D01*
X238989Y5414D01*
X239016Y5357D01*
X239046Y5301D01*
X239079Y5248D01*
X239115Y5197D01*
X239153Y5147D01*
X239195Y5101D01*
X239240Y5056D01*
X239286Y5014D01*
X239336Y4975D01*
X239387Y4939D01*
X239441Y4907D01*
X239496Y4877D01*
X239553Y4850D01*
X239611Y4827D01*
X239671Y4807D01*
X239731Y4791D01*
X239793Y4778D01*
X239855Y4769D01*
X239917Y4764D01*
X239980Y4762D01*
X240340Y4762D01*
X243199Y4762D02*
X243199Y9079D01*
X243019Y10878D02*
X243019Y11238D01*
X243379Y11238D01*
X243379Y10878D01*
X243019Y10878D01*
X245621Y9079D02*
X247780Y9079D01*
X246341Y11238D02*
X246341Y5841D01*
X246343Y5778D01*
X246348Y5716D01*
X246357Y5654D01*
X246370Y5592D01*
X246386Y5532D01*
X246406Y5472D01*
X246429Y5414D01*
X246456Y5357D01*
X246486Y5301D01*
X246519Y5248D01*
X246555Y5197D01*
X246593Y5147D01*
X246635Y5101D01*
X246680Y5056D01*
X246726Y5014D01*
X246776Y4975D01*
X246827Y4939D01*
X246881Y4907D01*
X246936Y4877D01*
X246993Y4850D01*
X247051Y4827D01*
X247111Y4807D01*
X247171Y4791D01*
X247233Y4778D01*
X247295Y4769D01*
X247357Y4764D01*
X247420Y4762D01*
X247780Y4762D01*
X250880Y6201D02*
X250880Y7640D01*
X250882Y7715D01*
X250888Y7790D01*
X250898Y7865D01*
X250911Y7939D01*
X250929Y8012D01*
X250950Y8085D01*
X250976Y8156D01*
X251004Y8225D01*
X251037Y8293D01*
X251073Y8360D01*
X251112Y8424D01*
X251155Y8486D01*
X251201Y8546D01*
X251250Y8603D01*
X251301Y8658D01*
X251356Y8709D01*
X251413Y8758D01*
X251473Y8804D01*
X251535Y8847D01*
X251600Y8886D01*
X251666Y8922D01*
X251734Y8955D01*
X251803Y8983D01*
X251874Y9009D01*
X251947Y9030D01*
X252020Y9048D01*
X252094Y9061D01*
X252169Y9071D01*
X252244Y9077D01*
X252319Y9079D01*
X252394Y9077D01*
X252469Y9071D01*
X252544Y9061D01*
X252618Y9048D01*
X252691Y9030D01*
X252764Y9009D01*
X252835Y8983D01*
X252904Y8955D01*
X252972Y8922D01*
X253039Y8886D01*
X253103Y8847D01*
X253165Y8804D01*
X253225Y8758D01*
X253282Y8709D01*
X253337Y8658D01*
X253388Y8603D01*
X253437Y8546D01*
X253483Y8486D01*
X253526Y8424D01*
X253565Y8360D01*
X253601Y8293D01*
X253634Y8225D01*
X253662Y8156D01*
X253688Y8085D01*
X253709Y8012D01*
X253727Y7939D01*
X253740Y7865D01*
X253750Y7790D01*
X253756Y7715D01*
X253758Y7640D01*
X253758Y6201D01*
X253756Y6126D01*
X253750Y6051D01*
X253740Y5976D01*
X253727Y5902D01*
X253709Y5829D01*
X253688Y5756D01*
X253662Y5685D01*
X253634Y5616D01*
X253601Y5548D01*
X253565Y5482D01*
X253526Y5417D01*
X253483Y5355D01*
X253437Y5295D01*
X253388Y5238D01*
X253337Y5183D01*
X253282Y5132D01*
X253225Y5083D01*
X253165Y5037D01*
X253103Y4994D01*
X253039Y4955D01*
X252972Y4919D01*
X252904Y4886D01*
X252835Y4858D01*
X252764Y4832D01*
X252691Y4811D01*
X252618Y4793D01*
X252544Y4780D01*
X252469Y4770D01*
X252394Y4764D01*
X252319Y4762D01*
X252244Y4764D01*
X252169Y4770D01*
X252094Y4780D01*
X252020Y4793D01*
X251947Y4811D01*
X251874Y4832D01*
X251803Y4858D01*
X251734Y4886D01*
X251666Y4919D01*
X251600Y4955D01*
X251535Y4994D01*
X251473Y5037D01*
X251413Y5083D01*
X251356Y5132D01*
X251301Y5183D01*
X251250Y5238D01*
X251201Y5295D01*
X251155Y5355D01*
X251112Y5417D01*
X251073Y5482D01*
X251037Y5548D01*
X251004Y5616D01*
X250976Y5685D01*
X250950Y5756D01*
X250929Y5829D01*
X250911Y5902D01*
X250898Y5976D01*
X250888Y6051D01*
X250882Y6126D01*
X250880Y6201D01*
X257360Y4762D02*
X257360Y9079D01*
X259159Y9079D01*
X259224Y9077D01*
X259289Y9071D01*
X259353Y9061D01*
X259417Y9048D01*
X259480Y9030D01*
X259542Y9009D01*
X259602Y8984D01*
X259660Y8955D01*
X259717Y8923D01*
X259772Y8888D01*
X259824Y8849D01*
X259874Y8808D01*
X259922Y8763D01*
X259967Y8716D01*
X260008Y8665D01*
X260047Y8613D01*
X260082Y8558D01*
X260114Y8501D01*
X260143Y8443D01*
X260168Y8383D01*
X260189Y8321D01*
X260207Y8258D01*
X260220Y8195D01*
X260230Y8130D01*
X260236Y8065D01*
X260238Y8000D01*
X260238Y4762D01*
D12*
X312500Y130000D02*
X312500Y135000D01*
X312500Y130000D02*
X312500Y125000D01*
X312500Y130000D02*
X317500Y130000D01*
X317500Y135000D02*
X317500Y125000D01*
X252500Y125000D02*
X252500Y135000D01*
X252500Y125000D02*
X257500Y125000D01*
X350000Y125000D02*
X350000Y135000D01*
X350000Y125000D02*
X355000Y125000D01*
X410000Y130000D02*
X410000Y135000D01*
X410000Y130000D02*
X410000Y125000D01*
X410000Y130000D02*
X415000Y130000D01*
X415000Y135000D02*
X415000Y125000D01*
D13*
X272463Y146016D02*
X272463Y153984D01*
X272463Y146016D02*
X276005Y146016D01*
X280089Y147787D02*
X285401Y147787D01*
X285401Y150443D02*
X280089Y150443D01*
X290132Y147787D02*
X291902Y153984D01*
X290132Y147787D02*
X294558Y147787D01*
X293230Y149557D02*
X293230Y146016D01*
X298363Y146016D02*
X298806Y146016D01*
X298363Y146016D02*
X298363Y146459D01*
X298806Y146459D01*
X298806Y146016D01*
X298142Y144245D01*
X307832Y146016D02*
X307832Y153984D01*
X307832Y150443D02*
X312258Y150443D01*
X312258Y153984D02*
X312258Y146016D01*
X317289Y147787D02*
X322601Y147787D01*
X322601Y150443D02*
X317289Y150443D01*
X329766Y153984D02*
X329853Y153982D01*
X329940Y153976D01*
X330026Y153967D01*
X330112Y153954D01*
X330197Y153937D01*
X330282Y153916D01*
X330365Y153892D01*
X330447Y153864D01*
X330528Y153832D01*
X330608Y153797D01*
X330686Y153759D01*
X330762Y153717D01*
X330836Y153672D01*
X330909Y153624D01*
X330979Y153572D01*
X331046Y153518D01*
X331112Y153461D01*
X331175Y153401D01*
X331235Y153338D01*
X331292Y153272D01*
X331346Y153205D01*
X331398Y153135D01*
X331446Y153062D01*
X331491Y152988D01*
X331533Y152912D01*
X331571Y152834D01*
X331606Y152754D01*
X331638Y152673D01*
X331666Y152591D01*
X331690Y152508D01*
X331711Y152423D01*
X331728Y152338D01*
X331741Y152252D01*
X331750Y152166D01*
X331756Y152079D01*
X331758Y151992D01*
X329766Y153984D02*
X329665Y153982D01*
X329565Y153976D01*
X329465Y153966D01*
X329365Y153952D01*
X329266Y153935D01*
X329168Y153913D01*
X329071Y153888D01*
X328975Y153859D01*
X328880Y153826D01*
X328786Y153789D01*
X328694Y153749D01*
X328603Y153705D01*
X328515Y153657D01*
X328428Y153606D01*
X328343Y153552D01*
X328261Y153495D01*
X328181Y153434D01*
X328103Y153370D01*
X328028Y153303D01*
X327955Y153233D01*
X327886Y153161D01*
X327819Y153086D01*
X327755Y153008D01*
X327695Y152928D01*
X327637Y152845D01*
X327583Y152760D01*
X327532Y152674D01*
X327485Y152585D01*
X327441Y152494D01*
X327401Y152402D01*
X327364Y152308D01*
X327331Y152213D01*
X331095Y150442D02*
X331160Y150507D01*
X331221Y150574D01*
X331280Y150643D01*
X331336Y150715D01*
X331389Y150790D01*
X331439Y150866D01*
X331485Y150945D01*
X331528Y151025D01*
X331568Y151107D01*
X331603Y151191D01*
X331636Y151276D01*
X331664Y151363D01*
X331689Y151451D01*
X331711Y151539D01*
X331728Y151629D01*
X331742Y151719D01*
X331751Y151810D01*
X331757Y151901D01*
X331759Y151992D01*
X331094Y150443D02*
X327332Y146016D01*
X331758Y146016D01*
X342321Y146016D02*
X344091Y146016D01*
X342321Y146016D02*
X342249Y146018D01*
X342177Y146024D01*
X342106Y146033D01*
X342036Y146047D01*
X341966Y146064D01*
X341897Y146086D01*
X341829Y146110D01*
X341763Y146139D01*
X341699Y146171D01*
X341636Y146206D01*
X341576Y146245D01*
X341517Y146287D01*
X341461Y146332D01*
X341408Y146380D01*
X341357Y146431D01*
X341309Y146484D01*
X341264Y146540D01*
X341222Y146599D01*
X341183Y146659D01*
X341148Y146722D01*
X341116Y146786D01*
X341087Y146852D01*
X341063Y146920D01*
X341041Y146989D01*
X341024Y147059D01*
X341010Y147129D01*
X341001Y147200D01*
X340995Y147272D01*
X340993Y147344D01*
X340993Y150000D01*
X340995Y150072D01*
X341001Y150144D01*
X341010Y150215D01*
X341024Y150285D01*
X341041Y150355D01*
X341063Y150424D01*
X341087Y150492D01*
X341116Y150558D01*
X341148Y150622D01*
X341183Y150685D01*
X341222Y150745D01*
X341264Y150804D01*
X341309Y150860D01*
X341357Y150913D01*
X341408Y150964D01*
X341461Y151012D01*
X341517Y151057D01*
X341576Y151099D01*
X341636Y151138D01*
X341699Y151173D01*
X341763Y151205D01*
X341829Y151234D01*
X341897Y151258D01*
X341966Y151280D01*
X342036Y151297D01*
X342106Y151311D01*
X342177Y151320D01*
X342249Y151326D01*
X342321Y151328D01*
X344091Y151328D01*
X348174Y153984D02*
X348174Y146016D01*
X348174Y151328D02*
X350388Y151328D01*
X350460Y151326D01*
X350532Y151320D01*
X350603Y151311D01*
X350673Y151297D01*
X350743Y151280D01*
X350812Y151258D01*
X350880Y151234D01*
X350946Y151205D01*
X351010Y151173D01*
X351073Y151138D01*
X351133Y151099D01*
X351192Y151057D01*
X351248Y151012D01*
X351301Y150964D01*
X351352Y150913D01*
X351400Y150860D01*
X351445Y150804D01*
X351487Y150745D01*
X351526Y150685D01*
X351561Y150622D01*
X351593Y150558D01*
X351622Y150492D01*
X351646Y150424D01*
X351668Y150355D01*
X351685Y150285D01*
X351699Y150215D01*
X351708Y150144D01*
X351714Y150072D01*
X351716Y150000D01*
X351716Y146016D01*
X357741Y149115D02*
X359733Y149115D01*
X357741Y149114D02*
X357664Y149112D01*
X357587Y149106D01*
X357510Y149097D01*
X357434Y149083D01*
X357359Y149066D01*
X357284Y149045D01*
X357211Y149021D01*
X357139Y148992D01*
X357069Y148961D01*
X357000Y148925D01*
X356933Y148887D01*
X356868Y148845D01*
X356806Y148800D01*
X356745Y148752D01*
X356687Y148700D01*
X356632Y148647D01*
X356580Y148590D01*
X356530Y148531D01*
X356483Y148469D01*
X356440Y148405D01*
X356400Y148340D01*
X356363Y148272D01*
X356329Y148202D01*
X356299Y148131D01*
X356273Y148058D01*
X356250Y147985D01*
X356231Y147910D01*
X356216Y147834D01*
X356204Y147758D01*
X356196Y147681D01*
X356192Y147604D01*
X356192Y147526D01*
X356196Y147449D01*
X356204Y147372D01*
X356216Y147296D01*
X356231Y147220D01*
X356250Y147145D01*
X356273Y147072D01*
X356299Y146999D01*
X356329Y146928D01*
X356363Y146858D01*
X356400Y146791D01*
X356440Y146725D01*
X356483Y146661D01*
X356530Y146599D01*
X356580Y146540D01*
X356632Y146483D01*
X356687Y146430D01*
X356745Y146378D01*
X356806Y146330D01*
X356868Y146285D01*
X356933Y146243D01*
X357000Y146205D01*
X357069Y146169D01*
X357139Y146138D01*
X357211Y146109D01*
X357284Y146085D01*
X357359Y146064D01*
X357434Y146047D01*
X357510Y146033D01*
X357587Y146024D01*
X357664Y146018D01*
X357741Y146016D01*
X359733Y146016D01*
X359733Y150000D01*
X359731Y150072D01*
X359725Y150144D01*
X359716Y150215D01*
X359702Y150285D01*
X359685Y150355D01*
X359663Y150424D01*
X359639Y150492D01*
X359610Y150558D01*
X359578Y150622D01*
X359543Y150685D01*
X359504Y150745D01*
X359462Y150804D01*
X359417Y150860D01*
X359369Y150913D01*
X359318Y150964D01*
X359265Y151012D01*
X359209Y151057D01*
X359150Y151099D01*
X359090Y151138D01*
X359027Y151173D01*
X358963Y151205D01*
X358897Y151234D01*
X358829Y151258D01*
X358760Y151280D01*
X358690Y151297D01*
X358620Y151311D01*
X358549Y151320D01*
X358477Y151326D01*
X358405Y151328D01*
X356635Y151328D01*
X364674Y151328D02*
X364674Y146016D01*
X364674Y151328D02*
X366888Y151328D01*
X366960Y151326D01*
X367032Y151320D01*
X367103Y151311D01*
X367173Y151297D01*
X367243Y151280D01*
X367312Y151258D01*
X367380Y151234D01*
X367446Y151205D01*
X367510Y151173D01*
X367573Y151138D01*
X367633Y151099D01*
X367692Y151057D01*
X367748Y151012D01*
X367801Y150964D01*
X367852Y150913D01*
X367900Y150860D01*
X367945Y150804D01*
X367987Y150745D01*
X368026Y150685D01*
X368061Y150622D01*
X368093Y150558D01*
X368122Y150492D01*
X368146Y150424D01*
X368168Y150355D01*
X368185Y150285D01*
X368199Y150215D01*
X368208Y150144D01*
X368214Y150072D01*
X368216Y150000D01*
X368216Y146016D01*
X373074Y146016D02*
X373074Y151328D01*
X375288Y151328D01*
X375360Y151326D01*
X375432Y151320D01*
X375503Y151311D01*
X375573Y151297D01*
X375643Y151280D01*
X375712Y151258D01*
X375780Y151234D01*
X375846Y151205D01*
X375910Y151173D01*
X375973Y151138D01*
X376033Y151099D01*
X376092Y151057D01*
X376148Y151012D01*
X376201Y150964D01*
X376252Y150913D01*
X376300Y150860D01*
X376345Y150804D01*
X376387Y150745D01*
X376426Y150685D01*
X376461Y150622D01*
X376493Y150558D01*
X376522Y150492D01*
X376546Y150424D01*
X376568Y150355D01*
X376585Y150285D01*
X376599Y150215D01*
X376608Y150144D01*
X376614Y150072D01*
X376616Y150000D01*
X376616Y146016D01*
X382502Y146016D02*
X384716Y146016D01*
X382502Y146016D02*
X382430Y146018D01*
X382358Y146024D01*
X382287Y146033D01*
X382217Y146047D01*
X382147Y146064D01*
X382078Y146086D01*
X382010Y146110D01*
X381944Y146139D01*
X381880Y146171D01*
X381817Y146206D01*
X381757Y146245D01*
X381698Y146287D01*
X381642Y146332D01*
X381589Y146380D01*
X381538Y146431D01*
X381490Y146484D01*
X381445Y146540D01*
X381403Y146599D01*
X381364Y146659D01*
X381329Y146722D01*
X381297Y146786D01*
X381268Y146852D01*
X381244Y146920D01*
X381222Y146989D01*
X381205Y147059D01*
X381191Y147129D01*
X381182Y147200D01*
X381176Y147272D01*
X381174Y147344D01*
X381174Y149557D01*
X381176Y149640D01*
X381182Y149723D01*
X381191Y149805D01*
X381205Y149887D01*
X381222Y149968D01*
X381244Y150049D01*
X381269Y150128D01*
X381297Y150206D01*
X381329Y150282D01*
X381365Y150357D01*
X381404Y150430D01*
X381447Y150502D01*
X381493Y150571D01*
X381542Y150638D01*
X381594Y150702D01*
X381649Y150764D01*
X381707Y150824D01*
X381768Y150880D01*
X381832Y150934D01*
X381897Y150985D01*
X381965Y151032D01*
X382036Y151077D01*
X382108Y151118D01*
X382182Y151155D01*
X382258Y151189D01*
X382335Y151220D01*
X382414Y151246D01*
X382493Y151269D01*
X382574Y151289D01*
X382656Y151304D01*
X382738Y151316D01*
X382821Y151324D01*
X382903Y151328D01*
X382987Y151328D01*
X383069Y151324D01*
X383152Y151316D01*
X383234Y151304D01*
X383316Y151289D01*
X383397Y151269D01*
X383476Y151246D01*
X383555Y151220D01*
X383632Y151189D01*
X383708Y151155D01*
X383782Y151118D01*
X383854Y151077D01*
X383925Y151032D01*
X383993Y150985D01*
X384058Y150934D01*
X384122Y150880D01*
X384183Y150824D01*
X384241Y150764D01*
X384296Y150702D01*
X384348Y150638D01*
X384397Y150571D01*
X384443Y150502D01*
X384486Y150430D01*
X384525Y150357D01*
X384561Y150282D01*
X384593Y150206D01*
X384621Y150128D01*
X384646Y150049D01*
X384668Y149968D01*
X384685Y149887D01*
X384699Y149805D01*
X384708Y149723D01*
X384714Y149640D01*
X384716Y149557D01*
X384716Y148672D01*
X381174Y148672D01*
X388952Y147344D02*
X388952Y153984D01*
X388952Y147344D02*
X388954Y147272D01*
X388960Y147200D01*
X388969Y147129D01*
X388983Y147059D01*
X389000Y146989D01*
X389022Y146920D01*
X389046Y146852D01*
X389075Y146786D01*
X389107Y146722D01*
X389142Y146659D01*
X389181Y146599D01*
X389223Y146540D01*
X389268Y146484D01*
X389316Y146431D01*
X389367Y146380D01*
X389420Y146332D01*
X389476Y146287D01*
X389535Y146245D01*
X389595Y146206D01*
X389658Y146171D01*
X389722Y146139D01*
X389788Y146110D01*
X389856Y146086D01*
X389925Y146064D01*
X389995Y146047D01*
X390065Y146033D01*
X390136Y146024D01*
X390208Y146018D01*
X390280Y146016D01*
X394438Y149115D02*
X396651Y148229D01*
X394438Y149114D02*
X394377Y149141D01*
X394317Y149170D01*
X394260Y149204D01*
X394205Y149240D01*
X394151Y149280D01*
X394101Y149323D01*
X394052Y149368D01*
X394007Y149416D01*
X393964Y149467D01*
X393924Y149520D01*
X393888Y149576D01*
X393855Y149633D01*
X393825Y149692D01*
X393798Y149753D01*
X393775Y149816D01*
X393756Y149879D01*
X393741Y149944D01*
X393729Y150009D01*
X393721Y150075D01*
X393717Y150141D01*
X393716Y150207D01*
X393720Y150274D01*
X393727Y150340D01*
X393738Y150405D01*
X393753Y150470D01*
X393772Y150534D01*
X393794Y150596D01*
X393820Y150657D01*
X393849Y150717D01*
X393882Y150774D01*
X393918Y150830D01*
X393957Y150884D01*
X393999Y150935D01*
X394044Y150984D01*
X394092Y151030D01*
X394143Y151073D01*
X394195Y151113D01*
X394250Y151150D01*
X394307Y151184D01*
X394366Y151215D01*
X394427Y151242D01*
X394489Y151265D01*
X394552Y151285D01*
X394617Y151301D01*
X394682Y151313D01*
X394748Y151322D01*
X394814Y151327D01*
X394880Y151328D01*
X394881Y151328D02*
X395018Y151325D01*
X395155Y151317D01*
X395291Y151306D01*
X395427Y151291D01*
X395563Y151272D01*
X395698Y151250D01*
X395833Y151224D01*
X395966Y151194D01*
X396099Y151161D01*
X396231Y151124D01*
X396362Y151083D01*
X396492Y151039D01*
X396620Y150991D01*
X396747Y150940D01*
X396873Y150886D01*
X396651Y148230D02*
X396712Y148203D01*
X396772Y148174D01*
X396829Y148140D01*
X396884Y148104D01*
X396938Y148064D01*
X396988Y148021D01*
X397037Y147976D01*
X397082Y147928D01*
X397125Y147877D01*
X397165Y147824D01*
X397201Y147768D01*
X397234Y147711D01*
X397264Y147652D01*
X397291Y147591D01*
X397314Y147528D01*
X397333Y147465D01*
X397348Y147400D01*
X397360Y147335D01*
X397368Y147269D01*
X397372Y147203D01*
X397373Y147137D01*
X397369Y147070D01*
X397362Y147004D01*
X397351Y146939D01*
X397336Y146874D01*
X397317Y146810D01*
X397295Y146748D01*
X397269Y146687D01*
X397240Y146627D01*
X397207Y146570D01*
X397171Y146514D01*
X397132Y146460D01*
X397090Y146409D01*
X397045Y146360D01*
X396997Y146314D01*
X396946Y146271D01*
X396894Y146231D01*
X396839Y146194D01*
X396782Y146160D01*
X396723Y146129D01*
X396662Y146102D01*
X396600Y146079D01*
X396537Y146059D01*
X396472Y146043D01*
X396407Y146031D01*
X396341Y146022D01*
X396275Y146017D01*
X396209Y146016D01*
X396031Y146020D01*
X395854Y146029D01*
X395677Y146042D01*
X395500Y146059D01*
X395324Y146081D01*
X395148Y146106D01*
X394973Y146136D01*
X394799Y146170D01*
X394625Y146208D01*
X394453Y146250D01*
X394281Y146296D01*
X394111Y146346D01*
X393942Y146400D01*
X393774Y146458D01*
D14*
X420000Y30000D02*
X430000Y30000D01*
X425000Y35000D02*
X425000Y25000D01*
X497500Y110000D02*
X507500Y110000D01*
X502500Y115000D02*
X502500Y105000D01*
X517500Y110000D02*
X527500Y110000D01*
X410000Y30000D02*
X400000Y30000D01*
X280000Y65000D02*
X270000Y65000D01*
X275000Y70000D02*
X275000Y60000D01*
X290000Y65000D02*
X300000Y65000D01*
D15*
X90572Y94463D02*
X85537Y89428D01*
X79520Y95445D02*
X84555Y100480D01*
D16*
G36*
X84069Y100713D02*
X87605Y104249D01*
X94321Y97533D01*
X90785Y93997D01*
X84069Y100713D01*
G37*
G36*
X75807Y92451D02*
X79343Y95987D01*
X86059Y89271D01*
X82523Y85735D01*
X75807Y92451D01*
G37*
D17*
X82306Y97694D02*
X87694Y92306D01*
D15*
X238940Y204320D02*
X246060Y204320D01*
X246060Y195810D02*
X238940Y195810D01*
D16*
X236619Y200051D03*
X248303Y200051D03*
D17*
X242500Y203810D02*
X242500Y196190D01*
D15*
X238940Y226820D02*
X246060Y226820D01*
X246060Y218310D02*
X238940Y218310D01*
D16*
X236619Y222551D03*
X248303Y222551D03*
D17*
X242500Y226310D02*
X242500Y218690D01*
D15*
X121060Y271820D02*
X113940Y271820D01*
X113940Y263310D02*
X121060Y263310D01*
D16*
X111619Y267551D03*
X123303Y267551D03*
D17*
X117500Y271310D02*
X117500Y263690D01*
D15*
X44320Y143560D02*
X44320Y136440D01*
X35810Y136440D02*
X35810Y143560D01*
D18*
X40051Y145882D03*
X40051Y134198D03*
D17*
X43810Y140000D02*
X36190Y140000D01*
D15*
X21820Y143560D02*
X21820Y136440D01*
X13310Y136440D02*
X13310Y143560D01*
D18*
X17551Y145882D03*
X17551Y134198D03*
D17*
X21310Y140000D02*
X13690Y140000D01*
D15*
X53940Y240680D02*
X61060Y240680D01*
X61060Y249190D02*
X53940Y249190D01*
D16*
X63382Y244949D03*
X51698Y244949D03*
D17*
X57500Y241190D02*
X57500Y248810D01*
D15*
X178072Y94463D02*
X173037Y89428D01*
X167020Y95445D02*
X172055Y100480D01*
D16*
G36*
X171569Y100713D02*
X175105Y104249D01*
X181821Y97533D01*
X178285Y93997D01*
X171569Y100713D01*
G37*
G36*
X163307Y92451D02*
X166843Y95987D01*
X173559Y89271D01*
X170023Y85735D01*
X163307Y92451D01*
G37*
D17*
X169806Y97694D02*
X175194Y92306D01*
D11*
X66060Y135680D02*
X66060Y144320D01*
X58940Y144320D02*
X58940Y135680D01*
D19*
X62500Y146350D03*
X62500Y133650D03*
D17*
X62500Y134920D02*
X62500Y145080D01*
D20*
X95000Y218940D02*
X95000Y227500D01*
X103560Y227500D01*
X195000Y227500D02*
X195000Y218940D01*
X195000Y227500D02*
X186440Y227500D01*
X195000Y136060D02*
X195000Y127500D01*
X186440Y127500D01*
X95000Y127500D02*
X95000Y136060D01*
X95000Y127500D02*
X103560Y127500D01*
D21*
X106900Y215600D03*
D22*
X276100Y307200D02*
X407100Y307200D01*
X407100Y166700D01*
X276100Y166700D02*
X276100Y307200D01*
X276100Y166700D02*
X407100Y166700D01*
D15*
X121060Y316820D02*
X113940Y316820D01*
X113940Y308310D02*
X121060Y308310D01*
D16*
X111619Y312551D03*
X123303Y312551D03*
D17*
X117500Y316310D02*
X117500Y308690D01*
D15*
X66820Y181060D02*
X66820Y173940D01*
X58310Y173940D02*
X58310Y181060D01*
D18*
X62551Y183382D03*
X62551Y171698D03*
D17*
X66310Y177500D02*
X58690Y177500D01*
D15*
X13180Y211440D02*
X13180Y218560D01*
X21690Y218560D02*
X21690Y211440D01*
D18*
X17449Y209119D03*
X17449Y220803D03*
D17*
X13690Y215000D02*
X21310Y215000D01*
D15*
X18940Y240680D02*
X26060Y240680D01*
X26060Y249190D02*
X18940Y249190D01*
D16*
X28382Y244949D03*
X16698Y244949D03*
D17*
X22500Y241190D02*
X22500Y248810D01*
D15*
X58180Y218560D02*
X58180Y211440D01*
X66690Y211440D02*
X66690Y218560D01*
D18*
X62449Y209119D03*
X62449Y220803D03*
D17*
X58690Y215000D02*
X66310Y215000D01*
D15*
X85680Y301440D02*
X85680Y308560D01*
X94190Y308560D02*
X94190Y301440D01*
D18*
X89949Y299119D03*
X89949Y310803D03*
D17*
X86190Y305000D02*
X93810Y305000D01*
D22*
X142500Y290000D02*
X162500Y290000D01*
X162500Y265000D01*
X142500Y265000D01*
X142500Y290000D01*
D23*
X164000Y292500D02*
X164002Y292563D01*
X164008Y292625D01*
X164018Y292687D01*
X164031Y292749D01*
X164049Y292809D01*
X164070Y292868D01*
X164095Y292926D01*
X164124Y292982D01*
X164156Y293036D01*
X164191Y293088D01*
X164229Y293137D01*
X164271Y293185D01*
X164315Y293229D01*
X164363Y293271D01*
X164412Y293309D01*
X164464Y293344D01*
X164518Y293376D01*
X164574Y293405D01*
X164632Y293430D01*
X164691Y293451D01*
X164751Y293469D01*
X164813Y293482D01*
X164875Y293492D01*
X164937Y293498D01*
X165000Y293500D01*
X165063Y293498D01*
X165125Y293492D01*
X165187Y293482D01*
X165249Y293469D01*
X165309Y293451D01*
X165368Y293430D01*
X165426Y293405D01*
X165482Y293376D01*
X165536Y293344D01*
X165588Y293309D01*
X165637Y293271D01*
X165685Y293229D01*
X165729Y293185D01*
X165771Y293137D01*
X165809Y293088D01*
X165844Y293036D01*
X165876Y292982D01*
X165905Y292926D01*
X165930Y292868D01*
X165951Y292809D01*
X165969Y292749D01*
X165982Y292687D01*
X165992Y292625D01*
X165998Y292563D01*
X166000Y292500D01*
X165998Y292437D01*
X165992Y292375D01*
X165982Y292313D01*
X165969Y292251D01*
X165951Y292191D01*
X165930Y292132D01*
X165905Y292074D01*
X165876Y292018D01*
X165844Y291964D01*
X165809Y291912D01*
X165771Y291863D01*
X165729Y291815D01*
X165685Y291771D01*
X165637Y291729D01*
X165588Y291691D01*
X165536Y291656D01*
X165482Y291624D01*
X165426Y291595D01*
X165368Y291570D01*
X165309Y291549D01*
X165249Y291531D01*
X165187Y291518D01*
X165125Y291508D01*
X165063Y291502D01*
X165000Y291500D01*
X164937Y291502D01*
X164875Y291508D01*
X164813Y291518D01*
X164751Y291531D01*
X164691Y291549D01*
X164632Y291570D01*
X164574Y291595D01*
X164518Y291624D01*
X164464Y291656D01*
X164412Y291691D01*
X164363Y291729D01*
X164315Y291771D01*
X164271Y291815D01*
X164229Y291863D01*
X164191Y291912D01*
X164156Y291964D01*
X164124Y292018D01*
X164095Y292074D01*
X164070Y292132D01*
X164049Y292191D01*
X164031Y292251D01*
X164018Y292313D01*
X164008Y292375D01*
X164002Y292437D01*
X164000Y292500D01*
D15*
X121060Y291820D02*
X113940Y291820D01*
X113940Y283310D02*
X121060Y283310D01*
D16*
X111619Y287551D03*
X123303Y287551D03*
D17*
X117500Y291310D02*
X117500Y283690D01*
D24*
X176960Y293640D03*
D20*
X182000Y293000D02*
X182000Y291140D01*
X182000Y293000D02*
X183860Y293000D01*
X213000Y293000D02*
X213000Y291140D01*
X213000Y293000D02*
X211140Y293000D01*
X213000Y263860D02*
X213000Y262000D01*
X211140Y262000D01*
X182000Y262000D02*
X182000Y263860D01*
X182000Y262000D02*
X183860Y262000D01*
D15*
X238940Y283180D02*
X246060Y283180D01*
X246060Y291690D02*
X238940Y291690D01*
D16*
X248382Y287449D03*
X236698Y287449D03*
D17*
X242500Y283690D02*
X242500Y291310D01*
D15*
X238940Y271820D02*
X246060Y271820D01*
X246060Y263310D02*
X238940Y263310D01*
D16*
X236619Y267551D03*
X248303Y267551D03*
D17*
X242500Y271310D02*
X242500Y263690D01*
D22*
X48000Y220000D02*
X48000Y210000D01*
X32000Y210000D02*
X32000Y220000D01*
D24*
X6401Y168500D03*
D20*
X10841Y177099D02*
X10841Y177901D01*
X49159Y177901D02*
X49159Y177099D01*
X31401Y193159D02*
X28599Y193159D01*
X28599Y161841D02*
X31401Y161841D01*
D25*
X460250Y270300D02*
X544750Y270300D01*
X455750Y274800D02*
X455750Y327500D01*
X549250Y327500D02*
X549250Y274800D01*
X552000Y261000D02*
X552002Y260867D01*
X552008Y260733D01*
X552018Y260600D01*
X552032Y260468D01*
X552049Y260336D01*
X552071Y260204D01*
X552096Y260073D01*
X552126Y259943D01*
X552159Y259814D01*
X552196Y259686D01*
X552237Y259559D01*
X552282Y259433D01*
X552330Y259309D01*
X552382Y259186D01*
X552437Y259065D01*
X552497Y258945D01*
X552559Y258827D01*
X552625Y258712D01*
X552695Y258598D01*
X552768Y258486D01*
X552844Y258377D01*
X552923Y258269D01*
X553006Y258165D01*
X553091Y258062D01*
X553180Y257963D01*
X553271Y257866D01*
X553366Y257771D01*
X553463Y257680D01*
X553562Y257591D01*
X553665Y257506D01*
X553769Y257423D01*
X553877Y257344D01*
X553986Y257268D01*
X554098Y257195D01*
X554212Y257125D01*
X554327Y257059D01*
X554445Y256997D01*
X554565Y256937D01*
X554686Y256882D01*
X554809Y256830D01*
X554933Y256782D01*
X555059Y256737D01*
X555186Y256696D01*
X555314Y256659D01*
X555443Y256626D01*
X555573Y256596D01*
X555704Y256571D01*
X555836Y256549D01*
X555968Y256532D01*
X556100Y256518D01*
X556233Y256508D01*
X556367Y256502D01*
X556500Y256500D01*
X556633Y256502D01*
X556767Y256508D01*
X556900Y256518D01*
X557032Y256532D01*
X557164Y256549D01*
X557296Y256571D01*
X557427Y256596D01*
X557557Y256626D01*
X557686Y256659D01*
X557814Y256696D01*
X557941Y256737D01*
X558067Y256782D01*
X558191Y256830D01*
X558314Y256882D01*
X558435Y256937D01*
X558555Y256997D01*
X558673Y257059D01*
X558788Y257125D01*
X558902Y257195D01*
X559014Y257268D01*
X559123Y257344D01*
X559231Y257423D01*
X559335Y257506D01*
X559438Y257591D01*
X559537Y257680D01*
X559634Y257771D01*
X559729Y257866D01*
X559820Y257963D01*
X559909Y258062D01*
X559994Y258165D01*
X560077Y258269D01*
X560156Y258377D01*
X560232Y258486D01*
X560305Y258598D01*
X560375Y258712D01*
X560441Y258827D01*
X560503Y258945D01*
X560563Y259065D01*
X560618Y259186D01*
X560670Y259309D01*
X560718Y259433D01*
X560763Y259559D01*
X560804Y259686D01*
X560841Y259814D01*
X560874Y259943D01*
X560904Y260073D01*
X560929Y260204D01*
X560951Y260336D01*
X560968Y260468D01*
X560982Y260600D01*
X560992Y260733D01*
X560998Y260867D01*
X561000Y261000D01*
X561000Y277000D02*
X560998Y277133D01*
X560992Y277267D01*
X560982Y277400D01*
X560968Y277532D01*
X560951Y277664D01*
X560929Y277796D01*
X560904Y277927D01*
X560874Y278057D01*
X560841Y278186D01*
X560804Y278314D01*
X560763Y278441D01*
X560718Y278567D01*
X560670Y278691D01*
X560618Y278814D01*
X560563Y278935D01*
X560503Y279055D01*
X560441Y279173D01*
X560375Y279288D01*
X560305Y279402D01*
X560232Y279514D01*
X560156Y279623D01*
X560077Y279731D01*
X559994Y279835D01*
X559909Y279938D01*
X559820Y280037D01*
X559729Y280134D01*
X559634Y280229D01*
X559537Y280320D01*
X559438Y280409D01*
X559335Y280494D01*
X559231Y280577D01*
X559123Y280656D01*
X559014Y280732D01*
X558902Y280805D01*
X558788Y280875D01*
X558673Y280941D01*
X558555Y281003D01*
X558435Y281063D01*
X558314Y281118D01*
X558191Y281170D01*
X558067Y281218D01*
X557941Y281263D01*
X557814Y281304D01*
X557686Y281341D01*
X557557Y281374D01*
X557427Y281404D01*
X557296Y281429D01*
X557164Y281451D01*
X557032Y281468D01*
X556900Y281482D01*
X556767Y281492D01*
X556633Y281498D01*
X556500Y281500D01*
X556367Y281498D01*
X556233Y281492D01*
X556100Y281482D01*
X555968Y281468D01*
X555836Y281451D01*
X555704Y281429D01*
X555573Y281404D01*
X555443Y281374D01*
X555314Y281341D01*
X555186Y281304D01*
X555059Y281263D01*
X554933Y281218D01*
X554809Y281170D01*
X554686Y281118D01*
X554565Y281063D01*
X554445Y281003D01*
X554327Y280941D01*
X554212Y280875D01*
X554098Y280805D01*
X553986Y280732D01*
X553877Y280656D01*
X553769Y280577D01*
X553665Y280494D01*
X553562Y280409D01*
X553463Y280320D01*
X553366Y280229D01*
X553271Y280134D01*
X553180Y280037D01*
X553091Y279938D01*
X553006Y279835D01*
X552923Y279731D01*
X552844Y279623D01*
X552768Y279514D01*
X552695Y279402D01*
X552625Y279288D01*
X552559Y279173D01*
X552497Y279055D01*
X552437Y278935D01*
X552382Y278814D01*
X552330Y278691D01*
X552282Y278567D01*
X552237Y278441D01*
X552196Y278314D01*
X552159Y278186D01*
X552126Y278057D01*
X552096Y277927D01*
X552071Y277796D01*
X552049Y277664D01*
X552032Y277532D01*
X552018Y277400D01*
X552008Y277267D01*
X552002Y277133D01*
X552000Y277000D01*
X561000Y277000D02*
X561000Y261000D01*
X552000Y261000D02*
X552000Y277000D01*
X451000Y307800D02*
X450998Y307898D01*
X450992Y307996D01*
X450983Y308094D01*
X450969Y308191D01*
X450952Y308288D01*
X450931Y308384D01*
X450906Y308479D01*
X450878Y308573D01*
X450845Y308665D01*
X450810Y308757D01*
X450770Y308847D01*
X450728Y308935D01*
X450681Y309022D01*
X450632Y309106D01*
X450579Y309189D01*
X450523Y309269D01*
X450463Y309348D01*
X450401Y309424D01*
X450336Y309497D01*
X450268Y309568D01*
X450197Y309636D01*
X450124Y309701D01*
X450048Y309763D01*
X449969Y309823D01*
X449889Y309879D01*
X449806Y309932D01*
X449722Y309981D01*
X449635Y310028D01*
X449547Y310070D01*
X449457Y310110D01*
X449365Y310145D01*
X449273Y310178D01*
X449179Y310206D01*
X449084Y310231D01*
X448988Y310252D01*
X448891Y310269D01*
X448794Y310283D01*
X448696Y310292D01*
X448598Y310298D01*
X448500Y310300D01*
X448402Y310298D01*
X448304Y310292D01*
X448206Y310283D01*
X448109Y310269D01*
X448012Y310252D01*
X447916Y310231D01*
X447821Y310206D01*
X447727Y310178D01*
X447635Y310145D01*
X447543Y310110D01*
X447453Y310070D01*
X447365Y310028D01*
X447278Y309981D01*
X447194Y309932D01*
X447111Y309879D01*
X447031Y309823D01*
X446952Y309763D01*
X446876Y309701D01*
X446803Y309636D01*
X446732Y309568D01*
X446664Y309497D01*
X446599Y309424D01*
X446537Y309348D01*
X446477Y309269D01*
X446421Y309189D01*
X446368Y309106D01*
X446319Y309022D01*
X446272Y308935D01*
X446230Y308847D01*
X446190Y308757D01*
X446155Y308665D01*
X446122Y308573D01*
X446094Y308479D01*
X446069Y308384D01*
X446048Y308288D01*
X446031Y308191D01*
X446017Y308094D01*
X446008Y307996D01*
X446002Y307898D01*
X446000Y307800D01*
X446000Y294800D02*
X446002Y294702D01*
X446008Y294604D01*
X446017Y294506D01*
X446031Y294409D01*
X446048Y294312D01*
X446069Y294216D01*
X446094Y294121D01*
X446122Y294027D01*
X446155Y293935D01*
X446190Y293843D01*
X446230Y293753D01*
X446272Y293665D01*
X446319Y293578D01*
X446368Y293494D01*
X446421Y293411D01*
X446477Y293331D01*
X446537Y293252D01*
X446599Y293176D01*
X446664Y293103D01*
X446732Y293032D01*
X446803Y292964D01*
X446876Y292899D01*
X446952Y292837D01*
X447031Y292777D01*
X447111Y292721D01*
X447194Y292668D01*
X447278Y292619D01*
X447365Y292572D01*
X447453Y292530D01*
X447543Y292490D01*
X447635Y292455D01*
X447727Y292422D01*
X447821Y292394D01*
X447916Y292369D01*
X448012Y292348D01*
X448109Y292331D01*
X448206Y292317D01*
X448304Y292308D01*
X448402Y292302D01*
X448500Y292300D01*
X448598Y292302D01*
X448696Y292308D01*
X448794Y292317D01*
X448891Y292331D01*
X448988Y292348D01*
X449084Y292369D01*
X449179Y292394D01*
X449273Y292422D01*
X449365Y292455D01*
X449457Y292490D01*
X449547Y292530D01*
X449635Y292572D01*
X449722Y292619D01*
X449806Y292668D01*
X449889Y292721D01*
X449969Y292777D01*
X450048Y292837D01*
X450124Y292899D01*
X450197Y292964D01*
X450268Y293032D01*
X450336Y293103D01*
X450401Y293176D01*
X450463Y293252D01*
X450523Y293331D01*
X450579Y293411D01*
X450632Y293494D01*
X450681Y293578D01*
X450728Y293665D01*
X450770Y293753D01*
X450810Y293843D01*
X450845Y293935D01*
X450878Y294027D01*
X450906Y294121D01*
X450931Y294216D01*
X450952Y294312D01*
X450969Y294409D01*
X450983Y294506D01*
X450992Y294604D01*
X450998Y294702D01*
X451000Y294800D01*
X453000Y294800D02*
X452998Y294667D01*
X452992Y294533D01*
X452982Y294400D01*
X452968Y294268D01*
X452951Y294136D01*
X452929Y294004D01*
X452904Y293873D01*
X452874Y293743D01*
X452841Y293614D01*
X452804Y293486D01*
X452763Y293359D01*
X452718Y293233D01*
X452670Y293109D01*
X452618Y292986D01*
X452563Y292865D01*
X452503Y292745D01*
X452441Y292627D01*
X452375Y292512D01*
X452305Y292398D01*
X452232Y292286D01*
X452156Y292177D01*
X452077Y292069D01*
X451994Y291965D01*
X451909Y291862D01*
X451820Y291763D01*
X451729Y291666D01*
X451634Y291571D01*
X451537Y291480D01*
X451438Y291391D01*
X451335Y291306D01*
X451231Y291223D01*
X451123Y291144D01*
X451014Y291068D01*
X450902Y290995D01*
X450788Y290925D01*
X450673Y290859D01*
X450555Y290797D01*
X450435Y290737D01*
X450314Y290682D01*
X450191Y290630D01*
X450067Y290582D01*
X449941Y290537D01*
X449814Y290496D01*
X449686Y290459D01*
X449557Y290426D01*
X449427Y290396D01*
X449296Y290371D01*
X449164Y290349D01*
X449032Y290332D01*
X448900Y290318D01*
X448767Y290308D01*
X448633Y290302D01*
X448500Y290300D01*
X448367Y290302D01*
X448233Y290308D01*
X448100Y290318D01*
X447968Y290332D01*
X447836Y290349D01*
X447704Y290371D01*
X447573Y290396D01*
X447443Y290426D01*
X447314Y290459D01*
X447186Y290496D01*
X447059Y290537D01*
X446933Y290582D01*
X446809Y290630D01*
X446686Y290682D01*
X446565Y290737D01*
X446445Y290797D01*
X446327Y290859D01*
X446212Y290925D01*
X446098Y290995D01*
X445986Y291068D01*
X445877Y291144D01*
X445769Y291223D01*
X445665Y291306D01*
X445562Y291391D01*
X445463Y291480D01*
X445366Y291571D01*
X445271Y291666D01*
X445180Y291763D01*
X445091Y291862D01*
X445006Y291965D01*
X444923Y292069D01*
X444844Y292177D01*
X444768Y292286D01*
X444695Y292398D01*
X444625Y292512D01*
X444559Y292627D01*
X444497Y292745D01*
X444437Y292865D01*
X444382Y292986D01*
X444330Y293109D01*
X444282Y293233D01*
X444237Y293359D01*
X444196Y293486D01*
X444159Y293614D01*
X444126Y293743D01*
X444096Y293873D01*
X444071Y294004D01*
X444049Y294136D01*
X444032Y294268D01*
X444018Y294400D01*
X444008Y294533D01*
X444002Y294667D01*
X444000Y294800D01*
X444000Y307800D02*
X444002Y307933D01*
X444008Y308067D01*
X444018Y308200D01*
X444032Y308332D01*
X444049Y308464D01*
X444071Y308596D01*
X444096Y308727D01*
X444126Y308857D01*
X444159Y308986D01*
X444196Y309114D01*
X444237Y309241D01*
X444282Y309367D01*
X444330Y309491D01*
X444382Y309614D01*
X444437Y309735D01*
X444497Y309855D01*
X444559Y309973D01*
X444625Y310088D01*
X444695Y310202D01*
X444768Y310314D01*
X444844Y310423D01*
X444923Y310531D01*
X445006Y310635D01*
X445091Y310738D01*
X445180Y310837D01*
X445271Y310934D01*
X445366Y311029D01*
X445463Y311120D01*
X445562Y311209D01*
X445665Y311294D01*
X445769Y311377D01*
X445877Y311456D01*
X445986Y311532D01*
X446098Y311605D01*
X446212Y311675D01*
X446327Y311741D01*
X446445Y311803D01*
X446565Y311863D01*
X446686Y311918D01*
X446809Y311970D01*
X446933Y312018D01*
X447059Y312063D01*
X447186Y312104D01*
X447314Y312141D01*
X447443Y312174D01*
X447573Y312204D01*
X447704Y312229D01*
X447836Y312251D01*
X447968Y312268D01*
X448100Y312282D01*
X448233Y312292D01*
X448367Y312298D01*
X448500Y312300D01*
X448633Y312298D01*
X448767Y312292D01*
X448900Y312282D01*
X449032Y312268D01*
X449164Y312251D01*
X449296Y312229D01*
X449427Y312204D01*
X449557Y312174D01*
X449686Y312141D01*
X449814Y312104D01*
X449941Y312063D01*
X450067Y312018D01*
X450191Y311970D01*
X450314Y311918D01*
X450435Y311863D01*
X450555Y311803D01*
X450673Y311741D01*
X450788Y311675D01*
X450902Y311605D01*
X451014Y311532D01*
X451123Y311456D01*
X451231Y311377D01*
X451335Y311294D01*
X451438Y311209D01*
X451537Y311120D01*
X451634Y311029D01*
X451729Y310934D01*
X451820Y310837D01*
X451909Y310738D01*
X451994Y310635D01*
X452077Y310531D01*
X452156Y310423D01*
X452232Y310314D01*
X452305Y310202D01*
X452375Y310088D01*
X452441Y309973D01*
X452503Y309855D01*
X452563Y309735D01*
X452618Y309614D01*
X452670Y309491D01*
X452718Y309367D01*
X452763Y309241D01*
X452804Y309114D01*
X452841Y308986D01*
X452874Y308857D01*
X452904Y308727D01*
X452929Y308596D01*
X452951Y308464D01*
X452968Y308332D01*
X452982Y308200D01*
X452992Y308067D01*
X452998Y307933D01*
X453000Y307800D01*
X552000Y294800D02*
X552002Y294667D01*
X552008Y294533D01*
X552018Y294400D01*
X552032Y294268D01*
X552049Y294136D01*
X552071Y294004D01*
X552096Y293873D01*
X552126Y293743D01*
X552159Y293614D01*
X552196Y293486D01*
X552237Y293359D01*
X552282Y293233D01*
X552330Y293109D01*
X552382Y292986D01*
X552437Y292865D01*
X552497Y292745D01*
X552559Y292627D01*
X552625Y292512D01*
X552695Y292398D01*
X552768Y292286D01*
X552844Y292177D01*
X552923Y292069D01*
X553006Y291965D01*
X553091Y291862D01*
X553180Y291763D01*
X553271Y291666D01*
X553366Y291571D01*
X553463Y291480D01*
X553562Y291391D01*
X553665Y291306D01*
X553769Y291223D01*
X553877Y291144D01*
X553986Y291068D01*
X554098Y290995D01*
X554212Y290925D01*
X554327Y290859D01*
X554445Y290797D01*
X554565Y290737D01*
X554686Y290682D01*
X554809Y290630D01*
X554933Y290582D01*
X555059Y290537D01*
X555186Y290496D01*
X555314Y290459D01*
X555443Y290426D01*
X555573Y290396D01*
X555704Y290371D01*
X555836Y290349D01*
X555968Y290332D01*
X556100Y290318D01*
X556233Y290308D01*
X556367Y290302D01*
X556500Y290300D01*
X556633Y290302D01*
X556767Y290308D01*
X556900Y290318D01*
X557032Y290332D01*
X557164Y290349D01*
X557296Y290371D01*
X557427Y290396D01*
X557557Y290426D01*
X557686Y290459D01*
X557814Y290496D01*
X557941Y290537D01*
X558067Y290582D01*
X558191Y290630D01*
X558314Y290682D01*
X558435Y290737D01*
X558555Y290797D01*
X558673Y290859D01*
X558788Y290925D01*
X558902Y290995D01*
X559014Y291068D01*
X559123Y291144D01*
X559231Y291223D01*
X559335Y291306D01*
X559438Y291391D01*
X559537Y291480D01*
X559634Y291571D01*
X559729Y291666D01*
X559820Y291763D01*
X559909Y291862D01*
X559994Y291965D01*
X560077Y292069D01*
X560156Y292177D01*
X560232Y292286D01*
X560305Y292398D01*
X560375Y292512D01*
X560441Y292627D01*
X560503Y292745D01*
X560563Y292865D01*
X560618Y292986D01*
X560670Y293109D01*
X560718Y293233D01*
X560763Y293359D01*
X560804Y293486D01*
X560841Y293614D01*
X560874Y293743D01*
X560904Y293873D01*
X560929Y294004D01*
X560951Y294136D01*
X560968Y294268D01*
X560982Y294400D01*
X560992Y294533D01*
X560998Y294667D01*
X561000Y294800D01*
X561000Y307800D02*
X560998Y307933D01*
X560992Y308067D01*
X560982Y308200D01*
X560968Y308332D01*
X560951Y308464D01*
X560929Y308596D01*
X560904Y308727D01*
X560874Y308857D01*
X560841Y308986D01*
X560804Y309114D01*
X560763Y309241D01*
X560718Y309367D01*
X560670Y309491D01*
X560618Y309614D01*
X560563Y309735D01*
X560503Y309855D01*
X560441Y309973D01*
X560375Y310088D01*
X560305Y310202D01*
X560232Y310314D01*
X560156Y310423D01*
X560077Y310531D01*
X559994Y310635D01*
X559909Y310738D01*
X559820Y310837D01*
X559729Y310934D01*
X559634Y311029D01*
X559537Y311120D01*
X559438Y311209D01*
X559335Y311294D01*
X559231Y311377D01*
X559123Y311456D01*
X559014Y311532D01*
X558902Y311605D01*
X558788Y311675D01*
X558673Y311741D01*
X558555Y311803D01*
X558435Y311863D01*
X558314Y311918D01*
X558191Y311970D01*
X558067Y312018D01*
X557941Y312063D01*
X557814Y312104D01*
X557686Y312141D01*
X557557Y312174D01*
X557427Y312204D01*
X557296Y312229D01*
X557164Y312251D01*
X557032Y312268D01*
X556900Y312282D01*
X556767Y312292D01*
X556633Y312298D01*
X556500Y312300D01*
X556367Y312298D01*
X556233Y312292D01*
X556100Y312282D01*
X555968Y312268D01*
X555836Y312251D01*
X555704Y312229D01*
X555573Y312204D01*
X555443Y312174D01*
X555314Y312141D01*
X555186Y312104D01*
X555059Y312063D01*
X554933Y312018D01*
X554809Y311970D01*
X554686Y311918D01*
X554565Y311863D01*
X554445Y311803D01*
X554327Y311741D01*
X554212Y311675D01*
X554098Y311605D01*
X553986Y311532D01*
X553877Y311456D01*
X553769Y311377D01*
X553665Y311294D01*
X553562Y311209D01*
X553463Y311120D01*
X553366Y311029D01*
X553271Y310934D01*
X553180Y310837D01*
X553091Y310738D01*
X553006Y310635D01*
X552923Y310531D01*
X552844Y310423D01*
X552768Y310314D01*
X552695Y310202D01*
X552625Y310088D01*
X552559Y309973D01*
X552497Y309855D01*
X552437Y309735D01*
X552382Y309614D01*
X552330Y309491D01*
X552282Y309367D01*
X552237Y309241D01*
X552196Y309114D01*
X552159Y308986D01*
X552126Y308857D01*
X552096Y308727D01*
X552071Y308596D01*
X552049Y308464D01*
X552032Y308332D01*
X552018Y308200D01*
X552008Y308067D01*
X552002Y307933D01*
X552000Y307800D01*
X561000Y307800D02*
X561000Y294800D01*
X552000Y294800D02*
X552000Y307800D01*
X451000Y277000D02*
X450998Y277098D01*
X450992Y277196D01*
X450983Y277294D01*
X450969Y277391D01*
X450952Y277488D01*
X450931Y277584D01*
X450906Y277679D01*
X450878Y277773D01*
X450845Y277865D01*
X450810Y277957D01*
X450770Y278047D01*
X450728Y278135D01*
X450681Y278222D01*
X450632Y278306D01*
X450579Y278389D01*
X450523Y278469D01*
X450463Y278548D01*
X450401Y278624D01*
X450336Y278697D01*
X450268Y278768D01*
X450197Y278836D01*
X450124Y278901D01*
X450048Y278963D01*
X449969Y279023D01*
X449889Y279079D01*
X449806Y279132D01*
X449722Y279181D01*
X449635Y279228D01*
X449547Y279270D01*
X449457Y279310D01*
X449365Y279345D01*
X449273Y279378D01*
X449179Y279406D01*
X449084Y279431D01*
X448988Y279452D01*
X448891Y279469D01*
X448794Y279483D01*
X448696Y279492D01*
X448598Y279498D01*
X448500Y279500D01*
X448402Y279498D01*
X448304Y279492D01*
X448206Y279483D01*
X448109Y279469D01*
X448012Y279452D01*
X447916Y279431D01*
X447821Y279406D01*
X447727Y279378D01*
X447635Y279345D01*
X447543Y279310D01*
X447453Y279270D01*
X447365Y279228D01*
X447278Y279181D01*
X447194Y279132D01*
X447111Y279079D01*
X447031Y279023D01*
X446952Y278963D01*
X446876Y278901D01*
X446803Y278836D01*
X446732Y278768D01*
X446664Y278697D01*
X446599Y278624D01*
X446537Y278548D01*
X446477Y278469D01*
X446421Y278389D01*
X446368Y278306D01*
X446319Y278222D01*
X446272Y278135D01*
X446230Y278047D01*
X446190Y277957D01*
X446155Y277865D01*
X446122Y277773D01*
X446094Y277679D01*
X446069Y277584D01*
X446048Y277488D01*
X446031Y277391D01*
X446017Y277294D01*
X446008Y277196D01*
X446002Y277098D01*
X446000Y277000D01*
X446000Y261000D02*
X446002Y260902D01*
X446008Y260804D01*
X446017Y260706D01*
X446031Y260609D01*
X446048Y260512D01*
X446069Y260416D01*
X446094Y260321D01*
X446122Y260227D01*
X446155Y260135D01*
X446190Y260043D01*
X446230Y259953D01*
X446272Y259865D01*
X446319Y259778D01*
X446368Y259694D01*
X446421Y259611D01*
X446477Y259531D01*
X446537Y259452D01*
X446599Y259376D01*
X446664Y259303D01*
X446732Y259232D01*
X446803Y259164D01*
X446876Y259099D01*
X446952Y259037D01*
X447031Y258977D01*
X447111Y258921D01*
X447194Y258868D01*
X447278Y258819D01*
X447365Y258772D01*
X447453Y258730D01*
X447543Y258690D01*
X447635Y258655D01*
X447727Y258622D01*
X447821Y258594D01*
X447916Y258569D01*
X448012Y258548D01*
X448109Y258531D01*
X448206Y258517D01*
X448304Y258508D01*
X448402Y258502D01*
X448500Y258500D01*
X448598Y258502D01*
X448696Y258508D01*
X448794Y258517D01*
X448891Y258531D01*
X448988Y258548D01*
X449084Y258569D01*
X449179Y258594D01*
X449273Y258622D01*
X449365Y258655D01*
X449457Y258690D01*
X449547Y258730D01*
X449635Y258772D01*
X449722Y258819D01*
X449806Y258868D01*
X449889Y258921D01*
X449969Y258977D01*
X450048Y259037D01*
X450124Y259099D01*
X450197Y259164D01*
X450268Y259232D01*
X450336Y259303D01*
X450401Y259376D01*
X450463Y259452D01*
X450523Y259531D01*
X450579Y259611D01*
X450632Y259694D01*
X450681Y259778D01*
X450728Y259865D01*
X450770Y259953D01*
X450810Y260043D01*
X450845Y260135D01*
X450878Y260227D01*
X450906Y260321D01*
X450931Y260416D01*
X450952Y260512D01*
X450969Y260609D01*
X450983Y260706D01*
X450992Y260804D01*
X450998Y260902D01*
X451000Y261000D01*
X451000Y277000D01*
X446000Y277000D02*
X446000Y261000D01*
X444000Y261000D02*
X444002Y260867D01*
X444008Y260733D01*
X444018Y260600D01*
X444032Y260468D01*
X444049Y260336D01*
X444071Y260204D01*
X444096Y260073D01*
X444126Y259943D01*
X444159Y259814D01*
X444196Y259686D01*
X444237Y259559D01*
X444282Y259433D01*
X444330Y259309D01*
X444382Y259186D01*
X444437Y259065D01*
X444497Y258945D01*
X444559Y258827D01*
X444625Y258712D01*
X444695Y258598D01*
X444768Y258486D01*
X444844Y258377D01*
X444923Y258269D01*
X445006Y258165D01*
X445091Y258062D01*
X445180Y257963D01*
X445271Y257866D01*
X445366Y257771D01*
X445463Y257680D01*
X445562Y257591D01*
X445665Y257506D01*
X445769Y257423D01*
X445877Y257344D01*
X445986Y257268D01*
X446098Y257195D01*
X446212Y257125D01*
X446327Y257059D01*
X446445Y256997D01*
X446565Y256937D01*
X446686Y256882D01*
X446809Y256830D01*
X446933Y256782D01*
X447059Y256737D01*
X447186Y256696D01*
X447314Y256659D01*
X447443Y256626D01*
X447573Y256596D01*
X447704Y256571D01*
X447836Y256549D01*
X447968Y256532D01*
X448100Y256518D01*
X448233Y256508D01*
X448367Y256502D01*
X448500Y256500D01*
X448633Y256502D01*
X448767Y256508D01*
X448900Y256518D01*
X449032Y256532D01*
X449164Y256549D01*
X449296Y256571D01*
X449427Y256596D01*
X449557Y256626D01*
X449686Y256659D01*
X449814Y256696D01*
X449941Y256737D01*
X450067Y256782D01*
X450191Y256830D01*
X450314Y256882D01*
X450435Y256937D01*
X450555Y256997D01*
X450673Y257059D01*
X450788Y257125D01*
X450902Y257195D01*
X451014Y257268D01*
X451123Y257344D01*
X451231Y257423D01*
X451335Y257506D01*
X451438Y257591D01*
X451537Y257680D01*
X451634Y257771D01*
X451729Y257866D01*
X451820Y257963D01*
X451909Y258062D01*
X451994Y258165D01*
X452077Y258269D01*
X452156Y258377D01*
X452232Y258486D01*
X452305Y258598D01*
X452375Y258712D01*
X452441Y258827D01*
X452503Y258945D01*
X452563Y259065D01*
X452618Y259186D01*
X452670Y259309D01*
X452718Y259433D01*
X452763Y259559D01*
X452804Y259686D01*
X452841Y259814D01*
X452874Y259943D01*
X452904Y260073D01*
X452929Y260204D01*
X452951Y260336D01*
X452968Y260468D01*
X452982Y260600D01*
X452992Y260733D01*
X452998Y260867D01*
X453000Y261000D01*
X453000Y277000D02*
X452998Y277133D01*
X452992Y277267D01*
X452982Y277400D01*
X452968Y277532D01*
X452951Y277664D01*
X452929Y277796D01*
X452904Y277927D01*
X452874Y278057D01*
X452841Y278186D01*
X452804Y278314D01*
X452763Y278441D01*
X452718Y278567D01*
X452670Y278691D01*
X452618Y278814D01*
X452563Y278935D01*
X452503Y279055D01*
X452441Y279173D01*
X452375Y279288D01*
X452305Y279402D01*
X452232Y279514D01*
X452156Y279623D01*
X452077Y279731D01*
X451994Y279835D01*
X451909Y279938D01*
X451820Y280037D01*
X451729Y280134D01*
X451634Y280229D01*
X451537Y280320D01*
X451438Y280409D01*
X451335Y280494D01*
X451231Y280577D01*
X451123Y280656D01*
X451014Y280732D01*
X450902Y280805D01*
X450788Y280875D01*
X450673Y280941D01*
X450555Y281003D01*
X450435Y281063D01*
X450314Y281118D01*
X450191Y281170D01*
X450067Y281218D01*
X449941Y281263D01*
X449814Y281304D01*
X449686Y281341D01*
X449557Y281374D01*
X449427Y281404D01*
X449296Y281429D01*
X449164Y281451D01*
X449032Y281468D01*
X448900Y281482D01*
X448767Y281492D01*
X448633Y281498D01*
X448500Y281500D01*
X448367Y281498D01*
X448233Y281492D01*
X448100Y281482D01*
X447968Y281468D01*
X447836Y281451D01*
X447704Y281429D01*
X447573Y281404D01*
X447443Y281374D01*
X447314Y281341D01*
X447186Y281304D01*
X447059Y281263D01*
X446933Y281218D01*
X446809Y281170D01*
X446686Y281118D01*
X446565Y281063D01*
X446445Y281003D01*
X446327Y280941D01*
X446212Y280875D01*
X446098Y280805D01*
X445986Y280732D01*
X445877Y280656D01*
X445769Y280577D01*
X445665Y280494D01*
X445562Y280409D01*
X445463Y280320D01*
X445366Y280229D01*
X445271Y280134D01*
X445180Y280037D01*
X445091Y279938D01*
X445006Y279835D01*
X444923Y279731D01*
X444844Y279623D01*
X444768Y279514D01*
X444695Y279402D01*
X444625Y279288D01*
X444559Y279173D01*
X444497Y279055D01*
X444437Y278935D01*
X444382Y278814D01*
X444330Y278691D01*
X444282Y278567D01*
X444237Y278441D01*
X444196Y278314D01*
X444159Y278186D01*
X444126Y278057D01*
X444096Y277927D01*
X444071Y277796D01*
X444049Y277664D01*
X444032Y277532D01*
X444018Y277400D01*
X444008Y277267D01*
X444002Y277133D01*
X444000Y277000D01*
X453000Y277000D02*
X453000Y261000D01*
X444000Y261000D02*
X444000Y277000D01*
X544750Y270300D02*
X544883Y270302D01*
X545017Y270308D01*
X545150Y270318D01*
X545282Y270332D01*
X545414Y270349D01*
X545546Y270371D01*
X545677Y270396D01*
X545807Y270426D01*
X545936Y270459D01*
X546064Y270496D01*
X546191Y270537D01*
X546317Y270582D01*
X546441Y270630D01*
X546564Y270682D01*
X546685Y270737D01*
X546805Y270797D01*
X546923Y270859D01*
X547038Y270925D01*
X547152Y270995D01*
X547264Y271068D01*
X547373Y271144D01*
X547481Y271223D01*
X547585Y271306D01*
X547688Y271391D01*
X547787Y271480D01*
X547884Y271571D01*
X547979Y271666D01*
X548070Y271763D01*
X548159Y271862D01*
X548244Y271965D01*
X548327Y272069D01*
X548406Y272177D01*
X548482Y272286D01*
X548555Y272398D01*
X548625Y272512D01*
X548691Y272627D01*
X548753Y272745D01*
X548813Y272865D01*
X548868Y272986D01*
X548920Y273109D01*
X548968Y273233D01*
X549013Y273359D01*
X549054Y273486D01*
X549091Y273614D01*
X549124Y273743D01*
X549154Y273873D01*
X549179Y274004D01*
X549201Y274136D01*
X549218Y274268D01*
X549232Y274400D01*
X549242Y274533D01*
X549248Y274667D01*
X549250Y274800D01*
X460250Y270300D02*
X460117Y270302D01*
X459983Y270308D01*
X459850Y270318D01*
X459718Y270332D01*
X459586Y270349D01*
X459454Y270371D01*
X459323Y270396D01*
X459193Y270426D01*
X459064Y270459D01*
X458936Y270496D01*
X458809Y270537D01*
X458683Y270582D01*
X458559Y270630D01*
X458436Y270682D01*
X458315Y270737D01*
X458195Y270797D01*
X458077Y270859D01*
X457962Y270925D01*
X457848Y270995D01*
X457736Y271068D01*
X457627Y271144D01*
X457519Y271223D01*
X457415Y271306D01*
X457312Y271391D01*
X457213Y271480D01*
X457116Y271571D01*
X457021Y271666D01*
X456930Y271763D01*
X456841Y271862D01*
X456756Y271965D01*
X456673Y272069D01*
X456594Y272177D01*
X456518Y272286D01*
X456445Y272398D01*
X456375Y272512D01*
X456309Y272627D01*
X456247Y272745D01*
X456187Y272865D01*
X456132Y272986D01*
X456080Y273109D01*
X456032Y273233D01*
X455987Y273359D01*
X455946Y273486D01*
X455909Y273614D01*
X455876Y273743D01*
X455846Y273873D01*
X455821Y274004D01*
X455799Y274136D01*
X455782Y274268D01*
X455768Y274400D01*
X455758Y274533D01*
X455752Y274667D01*
X455750Y274800D01*
X549250Y327500D02*
X555000Y327500D01*
X455750Y327500D02*
X450000Y327500D01*
D26*
X555500Y301300D02*
X557500Y301300D01*
X556500Y300300D02*
X556500Y302300D01*
D25*
X453000Y294800D02*
X452998Y294667D01*
X452992Y294533D01*
X452982Y294400D01*
X452968Y294268D01*
X452951Y294136D01*
X452929Y294004D01*
X452904Y293873D01*
X452874Y293743D01*
X452841Y293614D01*
X452804Y293486D01*
X452763Y293359D01*
X452718Y293233D01*
X452670Y293109D01*
X452618Y292986D01*
X452563Y292865D01*
X452503Y292745D01*
X452441Y292627D01*
X452375Y292512D01*
X452305Y292398D01*
X452232Y292286D01*
X452156Y292177D01*
X452077Y292069D01*
X451994Y291965D01*
X451909Y291862D01*
X451820Y291763D01*
X451729Y291666D01*
X451634Y291571D01*
X451537Y291480D01*
X451438Y291391D01*
X451335Y291306D01*
X451231Y291223D01*
X451123Y291144D01*
X451014Y291068D01*
X450902Y290995D01*
X450788Y290925D01*
X450673Y290859D01*
X450555Y290797D01*
X450435Y290737D01*
X450314Y290682D01*
X450191Y290630D01*
X450067Y290582D01*
X449941Y290537D01*
X449814Y290496D01*
X449686Y290459D01*
X449557Y290426D01*
X449427Y290396D01*
X449296Y290371D01*
X449164Y290349D01*
X449032Y290332D01*
X448900Y290318D01*
X448767Y290308D01*
X448633Y290302D01*
X448500Y290300D01*
X448367Y290302D01*
X448233Y290308D01*
X448100Y290318D01*
X447968Y290332D01*
X447836Y290349D01*
X447704Y290371D01*
X447573Y290396D01*
X447443Y290426D01*
X447314Y290459D01*
X447186Y290496D01*
X447059Y290537D01*
X446933Y290582D01*
X446809Y290630D01*
X446686Y290682D01*
X446565Y290737D01*
X446445Y290797D01*
X446327Y290859D01*
X446212Y290925D01*
X446098Y290995D01*
X445986Y291068D01*
X445877Y291144D01*
X445769Y291223D01*
X445665Y291306D01*
X445562Y291391D01*
X445463Y291480D01*
X445366Y291571D01*
X445271Y291666D01*
X445180Y291763D01*
X445091Y291862D01*
X445006Y291965D01*
X444923Y292069D01*
X444844Y292177D01*
X444768Y292286D01*
X444695Y292398D01*
X444625Y292512D01*
X444559Y292627D01*
X444497Y292745D01*
X444437Y292865D01*
X444382Y292986D01*
X444330Y293109D01*
X444282Y293233D01*
X444237Y293359D01*
X444196Y293486D01*
X444159Y293614D01*
X444126Y293743D01*
X444096Y293873D01*
X444071Y294004D01*
X444049Y294136D01*
X444032Y294268D01*
X444018Y294400D01*
X444008Y294533D01*
X444002Y294667D01*
X444000Y294800D01*
X444000Y307800D02*
X444002Y307933D01*
X444008Y308067D01*
X444018Y308200D01*
X444032Y308332D01*
X444049Y308464D01*
X444071Y308596D01*
X444096Y308727D01*
X444126Y308857D01*
X444159Y308986D01*
X444196Y309114D01*
X444237Y309241D01*
X444282Y309367D01*
X444330Y309491D01*
X444382Y309614D01*
X444437Y309735D01*
X444497Y309855D01*
X444559Y309973D01*
X444625Y310088D01*
X444695Y310202D01*
X444768Y310314D01*
X444844Y310423D01*
X444923Y310531D01*
X445006Y310635D01*
X445091Y310738D01*
X445180Y310837D01*
X445271Y310934D01*
X445366Y311029D01*
X445463Y311120D01*
X445562Y311209D01*
X445665Y311294D01*
X445769Y311377D01*
X445877Y311456D01*
X445986Y311532D01*
X446098Y311605D01*
X446212Y311675D01*
X446327Y311741D01*
X446445Y311803D01*
X446565Y311863D01*
X446686Y311918D01*
X446809Y311970D01*
X446933Y312018D01*
X447059Y312063D01*
X447186Y312104D01*
X447314Y312141D01*
X447443Y312174D01*
X447573Y312204D01*
X447704Y312229D01*
X447836Y312251D01*
X447968Y312268D01*
X448100Y312282D01*
X448233Y312292D01*
X448367Y312298D01*
X448500Y312300D01*
X448633Y312298D01*
X448767Y312292D01*
X448900Y312282D01*
X449032Y312268D01*
X449164Y312251D01*
X449296Y312229D01*
X449427Y312204D01*
X449557Y312174D01*
X449686Y312141D01*
X449814Y312104D01*
X449941Y312063D01*
X450067Y312018D01*
X450191Y311970D01*
X450314Y311918D01*
X450435Y311863D01*
X450555Y311803D01*
X450673Y311741D01*
X450788Y311675D01*
X450902Y311605D01*
X451014Y311532D01*
X451123Y311456D01*
X451231Y311377D01*
X451335Y311294D01*
X451438Y311209D01*
X451537Y311120D01*
X451634Y311029D01*
X451729Y310934D01*
X451820Y310837D01*
X451909Y310738D01*
X451994Y310635D01*
X452077Y310531D01*
X452156Y310423D01*
X452232Y310314D01*
X452305Y310202D01*
X452375Y310088D01*
X452441Y309973D01*
X452503Y309855D01*
X452563Y309735D01*
X452618Y309614D01*
X452670Y309491D01*
X452718Y309367D01*
X452763Y309241D01*
X452804Y309114D01*
X452841Y308986D01*
X452874Y308857D01*
X452904Y308727D01*
X452929Y308596D01*
X452951Y308464D01*
X452968Y308332D01*
X452982Y308200D01*
X452992Y308067D01*
X452998Y307933D01*
X453000Y307800D01*
X453000Y294800D01*
X444000Y294800D02*
X444000Y307800D01*
D26*
X447500Y301300D02*
X449500Y301300D01*
X448500Y300300D02*
X448500Y302300D01*
X555500Y269000D02*
X557500Y269000D01*
X556500Y268000D02*
X556500Y270000D01*
D25*
X453000Y261000D02*
X452998Y260867D01*
X452992Y260733D01*
X452982Y260600D01*
X452968Y260468D01*
X452951Y260336D01*
X452929Y260204D01*
X452904Y260073D01*
X452874Y259943D01*
X452841Y259814D01*
X452804Y259686D01*
X452763Y259559D01*
X452718Y259433D01*
X452670Y259309D01*
X452618Y259186D01*
X452563Y259065D01*
X452503Y258945D01*
X452441Y258827D01*
X452375Y258712D01*
X452305Y258598D01*
X452232Y258486D01*
X452156Y258377D01*
X452077Y258269D01*
X451994Y258165D01*
X451909Y258062D01*
X451820Y257963D01*
X451729Y257866D01*
X451634Y257771D01*
X451537Y257680D01*
X451438Y257591D01*
X451335Y257506D01*
X451231Y257423D01*
X451123Y257344D01*
X451014Y257268D01*
X450902Y257195D01*
X450788Y257125D01*
X450673Y257059D01*
X450555Y256997D01*
X450435Y256937D01*
X450314Y256882D01*
X450191Y256830D01*
X450067Y256782D01*
X449941Y256737D01*
X449814Y256696D01*
X449686Y256659D01*
X449557Y256626D01*
X449427Y256596D01*
X449296Y256571D01*
X449164Y256549D01*
X449032Y256532D01*
X448900Y256518D01*
X448767Y256508D01*
X448633Y256502D01*
X448500Y256500D01*
X448367Y256502D01*
X448233Y256508D01*
X448100Y256518D01*
X447968Y256532D01*
X447836Y256549D01*
X447704Y256571D01*
X447573Y256596D01*
X447443Y256626D01*
X447314Y256659D01*
X447186Y256696D01*
X447059Y256737D01*
X446933Y256782D01*
X446809Y256830D01*
X446686Y256882D01*
X446565Y256937D01*
X446445Y256997D01*
X446327Y257059D01*
X446212Y257125D01*
X446098Y257195D01*
X445986Y257268D01*
X445877Y257344D01*
X445769Y257423D01*
X445665Y257506D01*
X445562Y257591D01*
X445463Y257680D01*
X445366Y257771D01*
X445271Y257866D01*
X445180Y257963D01*
X445091Y258062D01*
X445006Y258165D01*
X444923Y258269D01*
X444844Y258377D01*
X444768Y258486D01*
X444695Y258598D01*
X444625Y258712D01*
X444559Y258827D01*
X444497Y258945D01*
X444437Y259065D01*
X444382Y259186D01*
X444330Y259309D01*
X444282Y259433D01*
X444237Y259559D01*
X444196Y259686D01*
X444159Y259814D01*
X444126Y259943D01*
X444096Y260073D01*
X444071Y260204D01*
X444049Y260336D01*
X444032Y260468D01*
X444018Y260600D01*
X444008Y260733D01*
X444002Y260867D01*
X444000Y261000D01*
X444000Y277000D02*
X444002Y277133D01*
X444008Y277267D01*
X444018Y277400D01*
X444032Y277532D01*
X444049Y277664D01*
X444071Y277796D01*
X444096Y277927D01*
X444126Y278057D01*
X444159Y278186D01*
X444196Y278314D01*
X444237Y278441D01*
X444282Y278567D01*
X444330Y278691D01*
X444382Y278814D01*
X444437Y278935D01*
X444497Y279055D01*
X444559Y279173D01*
X444625Y279288D01*
X444695Y279402D01*
X444768Y279514D01*
X444844Y279623D01*
X444923Y279731D01*
X445006Y279835D01*
X445091Y279938D01*
X445180Y280037D01*
X445271Y280134D01*
X445366Y280229D01*
X445463Y280320D01*
X445562Y280409D01*
X445665Y280494D01*
X445769Y280577D01*
X445877Y280656D01*
X445986Y280732D01*
X446098Y280805D01*
X446212Y280875D01*
X446327Y280941D01*
X446445Y281003D01*
X446565Y281063D01*
X446686Y281118D01*
X446809Y281170D01*
X446933Y281218D01*
X447059Y281263D01*
X447186Y281304D01*
X447314Y281341D01*
X447443Y281374D01*
X447573Y281404D01*
X447704Y281429D01*
X447836Y281451D01*
X447968Y281468D01*
X448100Y281482D01*
X448233Y281492D01*
X448367Y281498D01*
X448500Y281500D01*
X448633Y281498D01*
X448767Y281492D01*
X448900Y281482D01*
X449032Y281468D01*
X449164Y281451D01*
X449296Y281429D01*
X449427Y281404D01*
X449557Y281374D01*
X449686Y281341D01*
X449814Y281304D01*
X449941Y281263D01*
X450067Y281218D01*
X450191Y281170D01*
X450314Y281118D01*
X450435Y281063D01*
X450555Y281003D01*
X450673Y280941D01*
X450788Y280875D01*
X450902Y280805D01*
X451014Y280732D01*
X451123Y280656D01*
X451231Y280577D01*
X451335Y280494D01*
X451438Y280409D01*
X451537Y280320D01*
X451634Y280229D01*
X451729Y280134D01*
X451820Y280037D01*
X451909Y279938D01*
X451994Y279835D01*
X452077Y279731D01*
X452156Y279623D01*
X452232Y279514D01*
X452305Y279402D01*
X452375Y279288D01*
X452441Y279173D01*
X452503Y279055D01*
X452563Y278935D01*
X452618Y278814D01*
X452670Y278691D01*
X452718Y278567D01*
X452763Y278441D01*
X452804Y278314D01*
X452841Y278186D01*
X452874Y278057D01*
X452904Y277927D01*
X452929Y277796D01*
X452951Y277664D01*
X452968Y277532D01*
X452982Y277400D01*
X452992Y277267D01*
X452998Y277133D01*
X453000Y277000D01*
X453000Y261000D01*
X444000Y261000D02*
X444000Y277000D01*
D26*
X447500Y269000D02*
X449500Y269000D01*
X448500Y268000D02*
X448500Y270000D01*
D24*
X471104Y180277D03*
D20*
X473509Y185000D02*
X476436Y182073D01*
X473509Y185000D02*
X476436Y187927D01*
X502500Y213991D02*
X505427Y211064D01*
X502500Y213991D02*
X499573Y211064D01*
X528564Y187927D02*
X531491Y185000D01*
X528564Y182073D01*
X502500Y156009D02*
X499573Y158936D01*
X502500Y156009D02*
X505427Y158936D01*
D11*
X451440Y180680D02*
X451440Y189320D01*
X458560Y189320D02*
X458560Y180680D01*
D19*
X455000Y178650D03*
X455000Y191350D03*
D17*
X455000Y190080D02*
X455000Y179920D01*
D11*
X533560Y144320D02*
X533560Y135680D01*
X526440Y135680D02*
X526440Y144320D01*
D19*
X530000Y146350D03*
X530000Y133650D03*
D17*
X530000Y134920D02*
X530000Y145080D01*
D11*
X458560Y144320D02*
X458560Y135680D01*
X451440Y135680D02*
X451440Y144320D01*
D19*
X455000Y146350D03*
X455000Y133650D03*
D17*
X455000Y134920D02*
X455000Y145080D01*
D11*
X471440Y144320D02*
X471440Y135680D01*
X478560Y135680D02*
X478560Y144320D01*
D19*
X475000Y133650D03*
X475000Y146350D03*
D17*
X475000Y145080D02*
X475000Y134920D01*
D15*
X498940Y228180D02*
X506060Y228180D01*
X506060Y236690D02*
X498940Y236690D01*
D16*
X508382Y232449D03*
X496698Y232449D03*
D17*
X502500Y228690D02*
X502500Y236310D01*
D15*
X554320Y188560D02*
X554320Y181440D01*
X545810Y181440D02*
X545810Y188560D01*
D18*
X550051Y190882D03*
X550051Y179198D03*
D17*
X553810Y185000D02*
X546190Y185000D01*
D15*
X470680Y221440D02*
X470680Y228560D01*
X479190Y228560D02*
X479190Y221440D01*
D18*
X474949Y219119D03*
X474949Y230803D03*
D17*
X471190Y225000D02*
X478810Y225000D01*
D15*
X459320Y228560D02*
X459320Y221440D01*
X450810Y221440D02*
X450810Y228560D01*
D18*
X455051Y230882D03*
X455051Y219198D03*
D17*
X458810Y225000D02*
X451190Y225000D01*
D15*
X554320Y143560D02*
X554320Y136440D01*
X545810Y136440D02*
X545810Y143560D01*
D18*
X550051Y145882D03*
X550051Y134198D03*
D17*
X553810Y140000D02*
X546190Y140000D01*
D11*
X246820Y181060D02*
X238180Y181060D01*
X238180Y173940D02*
X246820Y173940D01*
D27*
X236150Y177500D03*
X248850Y177500D03*
D17*
X247580Y177500D02*
X237420Y177500D01*
D11*
X308560Y84320D02*
X308560Y75680D01*
X301440Y75680D02*
X301440Y84320D01*
D19*
X305000Y86350D03*
X305000Y73650D03*
D17*
X305000Y74920D02*
X305000Y85080D01*
D22*
X51000Y260000D02*
X19000Y260000D01*
X19000Y285000D02*
X51000Y285000D01*
X19000Y285000D02*
X19000Y260000D01*
X51000Y260000D02*
X51000Y285000D01*
D11*
X53560Y300680D02*
X53560Y309320D01*
X46440Y309320D02*
X46440Y300680D01*
D19*
X50000Y311350D03*
X50000Y298650D03*
D17*
X50000Y299920D02*
X50000Y310080D01*
D11*
X73560Y309320D02*
X73560Y300680D01*
X66440Y300680D02*
X66440Y309320D01*
D19*
X70000Y311350D03*
X70000Y298650D03*
D17*
X70000Y299920D02*
X70000Y310080D01*
D12*
X545000Y239142D02*
X559142Y225000D01*
X545000Y210858D02*
X530858Y225000D01*
D11*
X506820Y128940D02*
X498180Y128940D01*
X498180Y136060D02*
X506820Y136060D01*
D27*
X508850Y132500D03*
X496150Y132500D03*
D17*
X497420Y132500D02*
X507580Y132500D01*
D24*
X233890Y100540D03*
D20*
X235500Y95500D02*
X231390Y95500D01*
X235500Y95500D02*
X235500Y91390D01*
X235500Y64500D02*
X231390Y64500D01*
X235500Y64500D02*
X235500Y68610D01*
X208610Y64500D02*
X204500Y64500D01*
X204500Y68610D01*
X204500Y95500D02*
X208610Y95500D01*
X204500Y95500D02*
X204500Y91390D01*
D23*
X181500Y304500D02*
X181500Y320500D01*
X213500Y320500D02*
X213500Y304500D01*
X64000Y278000D02*
X64000Y262000D01*
X96000Y262000D02*
X96000Y278000D01*
D22*
X453000Y85500D02*
X453000Y9500D01*
X552000Y9500D01*
X461500Y85500D02*
X453000Y85500D01*
X543500Y85500D02*
X552000Y85500D01*
X552000Y9500D01*
X543500Y69500D02*
X461500Y69500D01*
X543500Y69500D02*
X543500Y85500D01*
X461500Y85500D02*
X461500Y69500D01*
X531500Y74500D02*
X531502Y74589D01*
X531508Y74678D01*
X531518Y74767D01*
X531532Y74855D01*
X531549Y74942D01*
X531571Y75028D01*
X531597Y75114D01*
X531626Y75198D01*
X531659Y75281D01*
X531695Y75362D01*
X531736Y75442D01*
X531779Y75519D01*
X531826Y75595D01*
X531877Y75668D01*
X531930Y75739D01*
X531987Y75808D01*
X532047Y75874D01*
X532110Y75938D01*
X532175Y75998D01*
X532243Y76056D01*
X532314Y76110D01*
X532387Y76161D01*
X532462Y76209D01*
X532539Y76254D01*
X532618Y76295D01*
X532699Y76332D01*
X532781Y76366D01*
X532865Y76397D01*
X532950Y76423D01*
X533036Y76446D01*
X533123Y76464D01*
X533211Y76479D01*
X533300Y76490D01*
X533389Y76497D01*
X533478Y76500D01*
X533567Y76499D01*
X533656Y76494D01*
X533744Y76485D01*
X533833Y76472D01*
X533920Y76455D01*
X534007Y76435D01*
X534093Y76410D01*
X534177Y76382D01*
X534260Y76350D01*
X534342Y76314D01*
X534422Y76275D01*
X534500Y76232D01*
X534576Y76186D01*
X534650Y76136D01*
X534722Y76083D01*
X534791Y76027D01*
X534858Y75968D01*
X534922Y75906D01*
X534983Y75842D01*
X535042Y75774D01*
X535097Y75704D01*
X535149Y75632D01*
X535198Y75557D01*
X535243Y75481D01*
X535285Y75402D01*
X535323Y75322D01*
X535358Y75240D01*
X535389Y75156D01*
X535417Y75071D01*
X535440Y74985D01*
X535460Y74898D01*
X535476Y74811D01*
X535488Y74722D01*
X535496Y74634D01*
X535500Y74545D01*
X535500Y74455D01*
X535496Y74366D01*
X535488Y74278D01*
X535476Y74189D01*
X535460Y74102D01*
X535440Y74015D01*
X535417Y73929D01*
X535389Y73844D01*
X535358Y73760D01*
X535323Y73678D01*
X535285Y73598D01*
X535243Y73519D01*
X535198Y73443D01*
X535149Y73368D01*
X535097Y73296D01*
X535042Y73226D01*
X534983Y73158D01*
X534922Y73094D01*
X534858Y73032D01*
X534791Y72973D01*
X534722Y72917D01*
X534650Y72864D01*
X534576Y72814D01*
X534500Y72768D01*
X534422Y72725D01*
X534342Y72686D01*
X534260Y72650D01*
X534177Y72618D01*
X534093Y72590D01*
X534007Y72565D01*
X533920Y72545D01*
X533833Y72528D01*
X533744Y72515D01*
X533656Y72506D01*
X533567Y72501D01*
X533478Y72500D01*
X533389Y72503D01*
X533300Y72510D01*
X533211Y72521D01*
X533123Y72536D01*
X533036Y72554D01*
X532950Y72577D01*
X532865Y72603D01*
X532781Y72634D01*
X532699Y72668D01*
X532618Y72705D01*
X532539Y72746D01*
X532462Y72791D01*
X532387Y72839D01*
X532314Y72890D01*
X532243Y72944D01*
X532175Y73002D01*
X532110Y73062D01*
X532047Y73126D01*
X531987Y73192D01*
X531930Y73261D01*
X531877Y73332D01*
X531826Y73405D01*
X531779Y73481D01*
X531736Y73558D01*
X531695Y73638D01*
X531659Y73719D01*
X531626Y73802D01*
X531597Y73886D01*
X531571Y73972D01*
X531549Y74058D01*
X531532Y74145D01*
X531518Y74233D01*
X531508Y74322D01*
X531502Y74411D01*
X531500Y74500D01*
D13*
X31000Y16000D02*
X28000Y16000D01*
X31000Y16000D02*
X31000Y13000D01*
X28000Y13000D01*
X28000Y6000D01*
X177000Y6000D02*
X177000Y13000D01*
X174000Y13000D01*
X174000Y16000D01*
X177000Y16000D01*
X174000Y16000D02*
X31000Y16000D01*
X28000Y6000D02*
X177000Y6000D01*
X28000Y50000D02*
X28000Y60000D01*
X40000Y60000D01*
X177000Y60000D02*
X177000Y50000D01*
X177000Y60000D02*
X165000Y60000D01*
X28000Y20000D02*
X28000Y16000D01*
X177000Y16000D02*
X177000Y20000D01*
D23*
X136500Y304500D02*
X136500Y320500D01*
X168500Y320500D02*
X168500Y304500D01*
X226500Y304500D02*
X226500Y320500D01*
X258500Y320500D02*
X258500Y304500D01*
D24*
X363890Y100540D03*
D20*
X365500Y95500D02*
X361390Y95500D01*
X365500Y95500D02*
X365500Y91390D01*
X365500Y64500D02*
X361390Y64500D01*
X365500Y64500D02*
X365500Y68610D01*
X338610Y64500D02*
X334500Y64500D01*
X334500Y68610D01*
X334500Y95500D02*
X338610Y95500D01*
X334500Y95500D02*
X334500Y91390D01*
D11*
X297820Y126440D02*
X289180Y126440D01*
X289180Y133560D02*
X297820Y133560D01*
D27*
X299850Y130000D03*
X287150Y130000D03*
D17*
X288420Y130000D02*
X298580Y130000D01*
D11*
X280820Y126440D02*
X272180Y126440D01*
X272180Y133560D02*
X280820Y133560D01*
D27*
X282850Y130000D03*
X270150Y130000D03*
D17*
X271420Y130000D02*
X281580Y130000D01*
D11*
X386680Y126440D02*
X395320Y126440D01*
X395320Y133560D02*
X386680Y133560D01*
D27*
X397350Y130000D03*
X384650Y130000D03*
D17*
X385920Y130000D02*
X396080Y130000D01*
D11*
X378320Y126440D02*
X369680Y126440D01*
X369680Y133560D02*
X378320Y133560D01*
D27*
X380350Y130000D03*
X367650Y130000D03*
D17*
X368920Y130000D02*
X379080Y130000D01*
D11*
X289320Y111060D02*
X280680Y111060D01*
X280680Y103940D02*
X289320Y103940D01*
D27*
X278650Y107500D03*
X291350Y107500D03*
D17*
X290080Y107500D02*
X279920Y107500D01*
D11*
X385680Y111060D02*
X394320Y111060D01*
X394320Y103940D02*
X385680Y103940D01*
D27*
X383650Y107500D03*
X396350Y107500D03*
D17*
X395080Y107500D02*
X384920Y107500D01*
D15*
X280680Y83560D02*
X280680Y76440D01*
X289190Y76440D02*
X289190Y83560D01*
D18*
X284949Y74119D03*
X284949Y85803D03*
D17*
X281190Y80000D02*
X288810Y80000D01*
D15*
X410680Y76440D02*
X410680Y83560D01*
X419190Y83560D02*
X419190Y76440D01*
D18*
X414949Y74119D03*
X414949Y85803D03*
D17*
X411190Y80000D02*
X418810Y80000D01*
D15*
X390680Y76440D02*
X390680Y83560D01*
X399190Y83560D02*
X399190Y76440D01*
D18*
X394949Y74119D03*
X394949Y85803D03*
D17*
X391190Y80000D02*
X398810Y80000D01*
D15*
X260680Y76440D02*
X260680Y83560D01*
X269190Y83560D02*
X269190Y76440D01*
D18*
X264949Y74119D03*
X264949Y85803D03*
D17*
X261190Y80000D02*
X268810Y80000D01*
D28*
X285900Y1800D03*
D29*
X286400Y1900D03*
D30*
X286650Y2000D03*
D31*
X286950Y2100D03*
D32*
X287150Y2200D03*
D33*
X287200Y2300D03*
X287200Y2400D03*
X287200Y2500D03*
D34*
X279500Y2600D03*
D33*
X287200Y2600D03*
D35*
X279450Y2700D03*
D33*
X287200Y2700D03*
D36*
X279350Y2800D03*
D33*
X287200Y2800D03*
D37*
X279200Y2900D03*
D33*
X287200Y2900D03*
D38*
X279050Y3000D03*
D33*
X287200Y3000D03*
D29*
X279000Y3100D03*
D39*
X287200Y3100D03*
D40*
X278850Y3200D03*
D41*
X287600Y3200D03*
D42*
X278750Y3300D03*
D43*
X288050Y3300D03*
D41*
X278700Y3400D03*
D44*
X288350Y3400D03*
D45*
X278600Y3500D03*
D46*
X288600Y3500D03*
D47*
X278500Y3600D03*
D48*
X278400Y3700D03*
D39*
X278300Y3800D03*
D32*
X278150Y3900D03*
D49*
X278050Y4000D03*
D47*
X277900Y4100D03*
D50*
X277750Y4200D03*
D51*
X277600Y4300D03*
D40*
X277550Y4400D03*
D29*
X277400Y4500D03*
D38*
X277350Y4600D03*
D52*
X294550Y4600D03*
D53*
X277250Y4700D03*
D28*
X294600Y4700D03*
D54*
X277200Y4800D03*
D55*
X294600Y4800D03*
X277100Y4900D03*
D54*
X294700Y4900D03*
D35*
X277050Y5000D03*
D37*
X294700Y5000D03*
D50*
X284950Y5100D03*
D38*
X294750Y5100D03*
D56*
X284950Y5200D03*
D57*
X294800Y5200D03*
D58*
X284950Y5300D03*
D29*
X294800Y5300D03*
D59*
X284950Y5400D03*
D60*
X294900Y5400D03*
D61*
X284950Y5500D03*
D40*
X294950Y5500D03*
D62*
X284950Y5600D03*
D63*
X295000Y5600D03*
D64*
X284950Y5700D03*
D51*
X295100Y5700D03*
D65*
X284950Y5800D03*
D51*
X295200Y5800D03*
D66*
X282400Y5900D03*
X287500Y5900D03*
D42*
X295350Y5900D03*
D66*
X282100Y6000D03*
X287800Y6000D03*
D42*
X295450Y6000D03*
D66*
X281900Y6100D03*
X288000Y6100D03*
D63*
X295600Y6100D03*
D67*
X281650Y6200D03*
X288250Y6200D03*
D42*
X295750Y6200D03*
D67*
X281450Y6300D03*
X288450Y6300D03*
D63*
X295900Y6300D03*
D67*
X281250Y6400D03*
X288650Y6400D03*
D63*
X296000Y6400D03*
D68*
X281000Y6500D03*
X288900Y6500D03*
D63*
X296100Y6500D03*
D68*
X280800Y6600D03*
X289100Y6600D03*
D40*
X296250Y6600D03*
D69*
X280650Y6700D03*
X289250Y6700D03*
D60*
X296300Y6700D03*
D69*
X280450Y6800D03*
X289450Y6800D03*
D70*
X296350Y6800D03*
D68*
X280300Y6900D03*
X289600Y6900D03*
D43*
X296450Y6900D03*
D69*
X280150Y7000D03*
X289750Y7000D03*
D38*
X296450Y7000D03*
D69*
X279950Y7100D03*
X289950Y7100D03*
D53*
X296450Y7100D03*
D69*
X279850Y7200D03*
X290050Y7200D03*
D44*
X296450Y7200D03*
D69*
X279650Y7300D03*
X290250Y7300D03*
D36*
X296450Y7300D03*
D71*
X279500Y7400D03*
X290400Y7400D03*
D28*
X296500Y7400D03*
D69*
X279350Y7500D03*
X290550Y7500D03*
D46*
X296500Y7500D03*
D71*
X279200Y7600D03*
X290700Y7600D03*
D72*
X296500Y7600D03*
D46*
X271700Y7700D03*
D69*
X279050Y7700D03*
X290850Y7700D03*
D28*
X271700Y7800D03*
D71*
X278900Y7800D03*
X291000Y7800D03*
D55*
X271700Y7900D03*
D71*
X278800Y7900D03*
X291100Y7900D03*
D54*
X271700Y8000D03*
D71*
X278700Y8000D03*
X291200Y8000D03*
D44*
X271750Y8100D03*
D71*
X278500Y8100D03*
X291400Y8100D03*
D53*
X271750Y8200D03*
D71*
X278400Y8200D03*
X291500Y8200D03*
D38*
X271750Y8300D03*
D71*
X278300Y8300D03*
X291600Y8300D03*
D57*
X271700Y8400D03*
D71*
X278200Y8400D03*
D73*
X284950Y8400D03*
D71*
X291700Y8400D03*
D43*
X271650Y8500D03*
D74*
X278050Y8500D03*
D35*
X284950Y8500D03*
D74*
X291850Y8500D03*
D29*
X271600Y8600D03*
D71*
X277900Y8600D03*
D36*
X284950Y8600D03*
D71*
X292000Y8600D03*
D43*
X271550Y8700D03*
D71*
X277800Y8700D03*
D44*
X284950Y8700D03*
D71*
X292100Y8700D03*
D43*
X271450Y8800D03*
D71*
X277700Y8800D03*
D38*
X284950Y8800D03*
D71*
X292200Y8800D03*
D43*
X271350Y8900D03*
D71*
X277600Y8900D03*
D70*
X284950Y8900D03*
D71*
X292300Y8900D03*
D29*
X271300Y9000D03*
D71*
X277500Y9000D03*
D40*
X284950Y9000D03*
D71*
X292400Y9000D03*
D43*
X271250Y9100D03*
D71*
X277400Y9100D03*
D30*
X284950Y9100D03*
D71*
X292500Y9100D03*
D43*
X271150Y9200D03*
D71*
X277300Y9200D03*
D50*
X284950Y9200D03*
D71*
X292600Y9200D03*
D43*
X271050Y9300D03*
D71*
X277200Y9300D03*
D31*
X284950Y9300D03*
D71*
X292700Y9300D03*
D43*
X270950Y9400D03*
D71*
X277100Y9400D03*
D49*
X284950Y9400D03*
D71*
X292800Y9400D03*
D43*
X270950Y9500D03*
D71*
X277000Y9500D03*
D32*
X284950Y9500D03*
D71*
X292900Y9500D03*
D43*
X270850Y9600D03*
D71*
X276900Y9600D03*
D75*
X284950Y9600D03*
D71*
X293000Y9600D03*
D43*
X270750Y9700D03*
D71*
X276800Y9700D03*
D76*
X284950Y9700D03*
D71*
X293100Y9700D03*
D57*
X270700Y9800D03*
D71*
X276700Y9800D03*
D56*
X284950Y9800D03*
D71*
X293200Y9800D03*
D57*
X270600Y9900D03*
D71*
X276600Y9900D03*
D77*
X284950Y9900D03*
D71*
X293300Y9900D03*
D43*
X270550Y10000D03*
D71*
X276500Y10000D03*
D67*
X284950Y10000D03*
D71*
X293400Y10000D03*
D57*
X270500Y10100D03*
D71*
X276400Y10100D03*
D69*
X284950Y10100D03*
D71*
X293500Y10100D03*
D57*
X270400Y10200D03*
D71*
X276300Y10200D03*
D74*
X284950Y10200D03*
D71*
X293600Y10200D03*
D57*
X270400Y10300D03*
D71*
X276200Y10300D03*
D58*
X284950Y10300D03*
D71*
X293700Y10300D03*
D38*
X270350Y10400D03*
D71*
X276100Y10400D03*
D78*
X284950Y10400D03*
D71*
X293800Y10400D03*
D79*
X270300Y10500D03*
D71*
X276100Y10500D03*
D80*
X284950Y10500D03*
D71*
X293800Y10500D03*
D79*
X270300Y10600D03*
D71*
X276000Y10600D03*
D81*
X284950Y10600D03*
D71*
X293900Y10600D03*
D37*
X270300Y10700D03*
D71*
X275900Y10700D03*
D59*
X284950Y10700D03*
D71*
X294000Y10700D03*
D36*
X270350Y10800D03*
D71*
X275800Y10800D03*
D82*
X284950Y10800D03*
D71*
X294100Y10800D03*
D55*
X270400Y10900D03*
D71*
X275700Y10900D03*
D83*
X284950Y10900D03*
D71*
X294200Y10900D03*
D35*
X270450Y11000D03*
D69*
X275650Y11000D03*
D84*
X284950Y11000D03*
D69*
X294250Y11000D03*
D52*
X270450Y11100D03*
D71*
X275600Y11100D03*
D61*
X284950Y11100D03*
D71*
X294300Y11100D03*
X275500Y11200D03*
D85*
X284950Y11200D03*
D71*
X294400Y11200D03*
X275400Y11300D03*
D86*
X284950Y11300D03*
D71*
X294500Y11300D03*
D69*
X275350Y11400D03*
D87*
X284950Y11400D03*
D69*
X294550Y11400D03*
D72*
X300800Y11400D03*
D69*
X275250Y11500D03*
D62*
X284950Y11500D03*
D69*
X294650Y11500D03*
D35*
X300750Y11500D03*
D71*
X275200Y11600D03*
D88*
X284950Y11600D03*
D71*
X294700Y11600D03*
D55*
X300700Y11600D03*
D69*
X275150Y11700D03*
D88*
X284950Y11700D03*
D69*
X294750Y11700D03*
D54*
X300600Y11700D03*
D69*
X275050Y11800D03*
D89*
X284950Y11800D03*
D69*
X294850Y11800D03*
D37*
X300600Y11800D03*
D69*
X274950Y11900D03*
D64*
X284950Y11900D03*
D69*
X294950Y11900D03*
D53*
X300550Y11900D03*
D69*
X274950Y12000D03*
D90*
X284950Y12000D03*
D69*
X294950Y12000D03*
D79*
X300600Y12000D03*
D69*
X274850Y12100D03*
D91*
X284950Y12100D03*
D69*
X295050Y12100D03*
D79*
X300600Y12100D03*
D68*
X274800Y12200D03*
D65*
X284950Y12200D03*
D68*
X295100Y12200D03*
D38*
X300650Y12200D03*
D68*
X274700Y12300D03*
D92*
X284950Y12300D03*
D68*
X295200Y12300D03*
D38*
X300650Y12300D03*
D69*
X274650Y12400D03*
D85*
X283950Y12400D03*
D29*
X288800Y12400D03*
D69*
X295250Y12400D03*
D38*
X300750Y12400D03*
D68*
X274600Y12500D03*
D43*
X280950Y12500D03*
D78*
X284850Y12500D03*
D70*
X288850Y12500D03*
D68*
X295300Y12500D03*
D38*
X300750Y12500D03*
D68*
X274500Y12600D03*
D29*
X280900Y12600D03*
D78*
X284850Y12600D03*
D60*
X288900Y12600D03*
D68*
X295400Y12600D03*
D38*
X300850Y12600D03*
D68*
X274500Y12700D03*
D29*
X280800Y12700D03*
D78*
X284850Y12700D03*
D40*
X288950Y12700D03*
D68*
X295400Y12700D03*
D38*
X300850Y12700D03*
D68*
X274400Y12800D03*
D70*
X280750Y12800D03*
D93*
X284800Y12800D03*
D63*
X289000Y12800D03*
D68*
X295500Y12800D03*
D38*
X300950Y12800D03*
D68*
X274300Y12900D03*
D70*
X280750Y12900D03*
D93*
X284800Y12900D03*
D63*
X289000Y12900D03*
D68*
X295600Y12900D03*
D38*
X300950Y12900D03*
D68*
X274300Y13000D03*
D60*
X280700Y13000D03*
D58*
X284850Y13000D03*
D63*
X289100Y13000D03*
D68*
X295600Y13000D03*
D79*
X301000Y13000D03*
D68*
X274200Y13100D03*
D60*
X280600Y13100D03*
D58*
X284850Y13100D03*
D42*
X289150Y13100D03*
D68*
X295700Y13100D03*
D38*
X301050Y13100D03*
D67*
X274150Y13200D03*
D40*
X280550Y13200D03*
D94*
X284800Y13200D03*
D51*
X289200Y13200D03*
D67*
X295750Y13200D03*
D79*
X301100Y13200D03*
D68*
X274100Y13300D03*
D40*
X280550Y13300D03*
D74*
X284850Y13300D03*
D42*
X289250Y13300D03*
D68*
X295800Y13300D03*
D38*
X301150Y13300D03*
D67*
X274050Y13400D03*
D40*
X280450Y13400D03*
D71*
X284800Y13400D03*
D51*
X289300Y13400D03*
D67*
X295850Y13400D03*
D79*
X301200Y13400D03*
D67*
X273950Y13500D03*
D63*
X280400Y13500D03*
D71*
X284800Y13500D03*
D51*
X289400Y13500D03*
D67*
X295950Y13500D03*
D79*
X301200Y13500D03*
D67*
X273950Y13600D03*
D63*
X280300Y13600D03*
D69*
X284850Y13600D03*
D30*
X289450Y13600D03*
D67*
X295950Y13600D03*
D38*
X301250Y13600D03*
D66*
X273900Y13700D03*
D63*
X280300Y13700D03*
D68*
X284800Y13700D03*
D51*
X289500Y13700D03*
D66*
X296000Y13700D03*
D79*
X301300Y13700D03*
D66*
X273800Y13800D03*
D63*
X280200Y13800D03*
D66*
X284800Y13800D03*
D30*
X289550Y13800D03*
D66*
X296100Y13800D03*
D79*
X301300Y13800D03*
D66*
X273800Y13900D03*
D42*
X280150Y13900D03*
D95*
X284850Y13900D03*
D30*
X289650Y13900D03*
D66*
X296100Y13900D03*
D79*
X301400Y13900D03*
D66*
X273700Y14000D03*
D42*
X280050Y14000D03*
D96*
X284800Y14000D03*
D41*
X289700Y14000D03*
D66*
X296200Y14000D03*
D79*
X301400Y14000D03*
D66*
X273700Y14100D03*
D63*
X280000Y14100D03*
D77*
X284850Y14100D03*
D30*
X289750Y14100D03*
D66*
X296200Y14100D03*
D38*
X301450Y14100D03*
D66*
X273600Y14200D03*
D42*
X279950Y14200D03*
D56*
X284850Y14200D03*
D30*
X289850Y14200D03*
D66*
X296300Y14200D03*
D79*
X301500Y14200D03*
D95*
X273550Y14300D03*
D42*
X279850Y14300D03*
D97*
X284800Y14300D03*
D30*
X289950Y14300D03*
D95*
X296350Y14300D03*
D79*
X301500Y14300D03*
D95*
X273550Y14400D03*
D63*
X279800Y14400D03*
D98*
X284800Y14400D03*
D30*
X289950Y14400D03*
D95*
X296350Y14400D03*
D38*
X301550Y14400D03*
D95*
X273450Y14500D03*
D63*
X279700Y14500D03*
D99*
X284800Y14500D03*
D30*
X290050Y14500D03*
D95*
X296450Y14500D03*
D79*
X301600Y14500D03*
D95*
X273450Y14600D03*
D63*
X279600Y14600D03*
D100*
X284850Y14600D03*
D30*
X290150Y14600D03*
D95*
X296450Y14600D03*
D79*
X301600Y14600D03*
D95*
X273350Y14700D03*
D40*
X279550Y14700D03*
D32*
X284850Y14700D03*
D51*
X290200Y14700D03*
D95*
X296550Y14700D03*
D79*
X301600Y14700D03*
D95*
X273350Y14800D03*
D40*
X279450Y14800D03*
D49*
X284850Y14800D03*
D51*
X290300Y14800D03*
D95*
X296550Y14800D03*
D37*
X301600Y14800D03*
D96*
X273300Y14900D03*
D40*
X279350Y14900D03*
D47*
X284800Y14900D03*
D51*
X290400Y14900D03*
D96*
X296600Y14900D03*
D54*
X301500Y14900D03*
D96*
X273200Y15000D03*
D60*
X279300Y15000D03*
D45*
X284800Y15000D03*
D63*
X290500Y15000D03*
D96*
X296700Y15000D03*
D28*
X301400Y15000D03*
D96*
X273200Y15100D03*
D60*
X279200Y15100D03*
D30*
X284850Y15100D03*
D63*
X290600Y15100D03*
D96*
X296700Y15100D03*
D72*
X301300Y15100D03*
D77*
X273150Y15200D03*
D29*
X279100Y15200D03*
D63*
X284800Y15200D03*
D60*
X290700Y15200D03*
D77*
X296750Y15200D03*
D96*
X273100Y15300D03*
D43*
X278950Y15300D03*
X284850Y15300D03*
D70*
X290850Y15300D03*
D96*
X296800Y15300D03*
D77*
X273050Y15400D03*
D79*
X278800Y15400D03*
D53*
X284850Y15400D03*
D43*
X290950Y15400D03*
D77*
X296850Y15400D03*
X273050Y15500D03*
D29*
X278900Y15500D03*
X284800Y15500D03*
D60*
X290900Y15500D03*
D77*
X296850Y15500D03*
X272950Y15600D03*
D40*
X278950Y15600D03*
D63*
X284800Y15600D03*
D42*
X290850Y15600D03*
D77*
X296950Y15600D03*
D101*
X272900Y15700D03*
D42*
X279050Y15700D03*
D30*
X284850Y15700D03*
X290750Y15700D03*
D101*
X297000Y15700D03*
X272900Y15800D03*
D30*
X279050Y15800D03*
D45*
X284800Y15800D03*
X290700Y15800D03*
D101*
X297000Y15800D03*
D52*
X267550Y15900D03*
D101*
X272800Y15900D03*
D41*
X279100Y15900D03*
D47*
X284800Y15900D03*
D102*
X290650Y15900D03*
D101*
X297100Y15900D03*
D36*
X267650Y16000D03*
D101*
X272800Y16000D03*
D45*
X279100Y16000D03*
D49*
X284850Y16000D03*
D31*
X290650Y16000D03*
D101*
X297100Y16000D03*
D37*
X267800Y16100D03*
D56*
X272750Y16100D03*
D102*
X279150Y16100D03*
D32*
X284850Y16100D03*
D48*
X290600Y16100D03*
D56*
X297150Y16100D03*
D53*
X267850Y16200D03*
D56*
X272750Y16200D03*
D31*
X279150Y16200D03*
D100*
X284850Y16200D03*
D39*
X290600Y16200D03*
D56*
X297150Y16200D03*
D53*
X267850Y16300D03*
D56*
X272650Y16300D03*
D49*
X279150Y16300D03*
D99*
X284800Y16300D03*
D33*
X290600Y16300D03*
D56*
X297250Y16300D03*
D79*
X267800Y16400D03*
D56*
X272650Y16400D03*
D39*
X279200Y16400D03*
D98*
X284800Y16400D03*
D100*
X290550Y16400D03*
D56*
X297250Y16400D03*
D79*
X267800Y16500D03*
D97*
X272600Y16500D03*
D33*
X279200Y16500D03*
D97*
X284800Y16500D03*
D99*
X290600Y16500D03*
D97*
X297300Y16500D03*
D53*
X267750Y16600D03*
D97*
X272600Y16600D03*
D100*
X279250Y16600D03*
D56*
X284850Y16600D03*
D75*
X290550Y16600D03*
D97*
X297300Y16600D03*
D53*
X267750Y16700D03*
D97*
X272500Y16700D03*
D99*
X279200Y16700D03*
D77*
X284850Y16700D03*
D76*
X290550Y16700D03*
D97*
X297400Y16700D03*
D53*
X267750Y16800D03*
D97*
X272500Y16800D03*
D75*
X279250Y16800D03*
D96*
X284800Y16800D03*
D97*
X290500Y16800D03*
X297400Y16800D03*
D79*
X267700Y16900D03*
D97*
X272500Y16900D03*
D76*
X279250Y16900D03*
D95*
X284850Y16900D03*
D56*
X290550Y16900D03*
D97*
X297400Y16900D03*
D79*
X267700Y17000D03*
D76*
X272450Y17000D03*
X279250Y17000D03*
D66*
X284800Y17000D03*
D101*
X290500Y17000D03*
D76*
X297450Y17000D03*
D79*
X267700Y17100D03*
D76*
X272450Y17100D03*
D56*
X279250Y17100D03*
D68*
X284800Y17100D03*
D77*
X290550Y17100D03*
D76*
X297450Y17100D03*
D53*
X267650Y17200D03*
D76*
X272350Y17200D03*
D56*
X279250Y17200D03*
D69*
X284850Y17200D03*
D96*
X290500Y17200D03*
D76*
X297550Y17200D03*
D53*
X267650Y17300D03*
D76*
X272350Y17300D03*
D77*
X279250Y17300D03*
D71*
X284800Y17300D03*
D95*
X290550Y17300D03*
D76*
X297550Y17300D03*
D53*
X267650Y17400D03*
D98*
X272300Y17400D03*
D77*
X279250Y17400D03*
D74*
X284850Y17400D03*
D66*
X290500Y17400D03*
D98*
X297600Y17400D03*
D53*
X267650Y17500D03*
D98*
X272300Y17500D03*
D95*
X279250Y17500D03*
D74*
X284850Y17500D03*
D67*
X290550Y17500D03*
D98*
X297600Y17500D03*
D79*
X267600Y17600D03*
D75*
X272250Y17600D03*
D95*
X279250Y17600D03*
D94*
X284800Y17600D03*
D68*
X290500Y17600D03*
D75*
X297650Y17600D03*
D79*
X267600Y17700D03*
D75*
X272250Y17700D03*
D66*
X279200Y17700D03*
D58*
X284850Y17700D03*
D69*
X290550Y17700D03*
D75*
X297650Y17700D03*
D53*
X267550Y17800D03*
D98*
X272200Y17800D03*
D67*
X279250Y17800D03*
D58*
X284850Y17800D03*
D69*
X290550Y17800D03*
D98*
X297700Y17800D03*
D53*
X267550Y17900D03*
D75*
X272150Y17900D03*
D68*
X279200Y17900D03*
D93*
X284800Y17900D03*
D74*
X290550Y17900D03*
D75*
X297750Y17900D03*
D53*
X267550Y18000D03*
D75*
X272150Y18000D03*
D68*
X279200Y18000D03*
D93*
X284800Y18000D03*
D74*
X290550Y18000D03*
D75*
X297750Y18000D03*
D53*
X267550Y18100D03*
D99*
X272100Y18100D03*
D69*
X279150Y18100D03*
D78*
X284850Y18100D03*
D94*
X290600Y18100D03*
D99*
X297800Y18100D03*
D53*
X267550Y18200D03*
D99*
X272100Y18200D03*
D71*
X279200Y18200D03*
D78*
X284850Y18200D03*
D94*
X290600Y18200D03*
D99*
X297800Y18200D03*
D53*
X267550Y18300D03*
D99*
X272100Y18300D03*
D74*
X279150Y18300D03*
D78*
X284850Y18300D03*
D58*
X290650Y18300D03*
D99*
X297800Y18300D03*
D53*
X267550Y18400D03*
D100*
X272050Y18400D03*
D103*
X282100Y18400D03*
D58*
X290650Y18400D03*
D100*
X297850Y18400D03*
D53*
X267550Y18500D03*
D100*
X272050Y18500D03*
D104*
X284950Y18500D03*
D100*
X297850Y18500D03*
D53*
X267550Y18600D03*
D100*
X271950Y18600D03*
D104*
X284950Y18600D03*
D100*
X297950Y18600D03*
D53*
X267450Y18700D03*
D100*
X271950Y18700D03*
D104*
X284950Y18700D03*
D100*
X297950Y18700D03*
D53*
X267450Y18800D03*
D100*
X271950Y18800D03*
D105*
X284950Y18800D03*
D100*
X297950Y18800D03*
D53*
X267450Y18900D03*
D33*
X271900Y18900D03*
D105*
X284950Y18900D03*
D33*
X298000Y18900D03*
D53*
X267450Y19000D03*
D33*
X271900Y19000D03*
D106*
X284950Y19000D03*
D33*
X298000Y19000D03*
D53*
X267450Y19100D03*
D33*
X271900Y19100D03*
D106*
X284950Y19100D03*
D33*
X298000Y19100D03*
D53*
X267450Y19200D03*
D32*
X271850Y19200D03*
D106*
X284950Y19200D03*
D32*
X298050Y19200D03*
D53*
X267450Y19300D03*
D32*
X271850Y19300D03*
D107*
X284950Y19300D03*
D32*
X298050Y19300D03*
D53*
X267450Y19400D03*
D32*
X271850Y19400D03*
D107*
X284950Y19400D03*
D32*
X298050Y19400D03*
D37*
X267500Y19500D03*
D39*
X271800Y19500D03*
D108*
X284950Y19500D03*
D39*
X298100Y19500D03*
D55*
X267600Y19600D03*
D39*
X271800Y19600D03*
D108*
X284950Y19600D03*
D39*
X298100Y19600D03*
X271800Y19700D03*
D108*
X284950Y19700D03*
D39*
X298100Y19700D03*
D49*
X271750Y19800D03*
D109*
X284950Y19800D03*
D49*
X298150Y19800D03*
X271750Y19900D03*
D109*
X284950Y19900D03*
D49*
X298150Y19900D03*
X271750Y20000D03*
D54*
X276400Y20000D03*
D110*
X282150Y20000D03*
D30*
X284950Y20000D03*
D41*
X288700Y20000D03*
D102*
X292550Y20000D03*
D49*
X298150Y20000D03*
D48*
X271700Y20100D03*
D44*
X276350Y20100D03*
D110*
X282150Y20100D03*
D30*
X284950Y20100D03*
D41*
X288700Y20100D03*
D47*
X292600Y20100D03*
D48*
X298200Y20100D03*
X271700Y20200D03*
D44*
X276350Y20200D03*
D110*
X282150Y20200D03*
D30*
X284950Y20200D03*
D41*
X288700Y20200D03*
D47*
X292600Y20200D03*
D48*
X298200Y20200D03*
X271700Y20300D03*
D44*
X276350Y20300D03*
D110*
X282150Y20300D03*
D30*
X284950Y20300D03*
D41*
X288700Y20300D03*
D47*
X292600Y20300D03*
D48*
X298200Y20300D03*
D31*
X271650Y20400D03*
D37*
X276300Y20400D03*
D110*
X282150Y20400D03*
D30*
X284950Y20400D03*
D41*
X288700Y20400D03*
D31*
X292650Y20400D03*
X298250Y20400D03*
X271650Y20500D03*
D37*
X276300Y20500D03*
D110*
X282150Y20500D03*
D30*
X284950Y20500D03*
D41*
X288700Y20500D03*
D31*
X292650Y20500D03*
X298250Y20500D03*
D44*
X302450Y20500D03*
D31*
X271650Y20600D03*
D37*
X276300Y20600D03*
D110*
X282150Y20600D03*
D30*
X284950Y20600D03*
D41*
X288700Y20600D03*
D31*
X292650Y20600D03*
X298250Y20600D03*
D53*
X302450Y20600D03*
D31*
X271650Y20700D03*
D53*
X276250Y20700D03*
D110*
X282150Y20700D03*
D30*
X284950Y20700D03*
D41*
X288700Y20700D03*
D48*
X292700Y20700D03*
D31*
X298250Y20700D03*
D53*
X302450Y20700D03*
D47*
X271600Y20800D03*
D53*
X276250Y20800D03*
D110*
X282150Y20800D03*
D30*
X284950Y20800D03*
D41*
X288700Y20800D03*
D48*
X292700Y20800D03*
D47*
X298300Y20800D03*
D53*
X302450Y20800D03*
D47*
X271600Y20900D03*
D53*
X276250Y20900D03*
D110*
X282150Y20900D03*
D30*
X284950Y20900D03*
D41*
X288700Y20900D03*
D48*
X292700Y20900D03*
D47*
X298300Y20900D03*
D53*
X302450Y20900D03*
D47*
X271600Y21000D03*
D68*
X278100Y21000D03*
D110*
X282150Y21000D03*
D30*
X284950Y21000D03*
D41*
X288700Y21000D03*
D48*
X292700Y21000D03*
D47*
X298300Y21000D03*
D53*
X302450Y21000D03*
D47*
X271600Y21100D03*
D69*
X278050Y21100D03*
D110*
X282150Y21100D03*
D30*
X284950Y21100D03*
D41*
X288700Y21100D03*
D49*
X292750Y21100D03*
D47*
X298300Y21100D03*
D53*
X302450Y21100D03*
D102*
X271550Y21200D03*
D69*
X278050Y21200D03*
D110*
X282150Y21200D03*
D30*
X284950Y21200D03*
D41*
X288700Y21200D03*
D49*
X292750Y21200D03*
D102*
X298350Y21200D03*
D53*
X302450Y21200D03*
D102*
X271550Y21300D03*
D69*
X278050Y21300D03*
D110*
X282150Y21300D03*
D30*
X284950Y21300D03*
D41*
X288700Y21300D03*
D49*
X292750Y21300D03*
D102*
X298350Y21300D03*
D53*
X302350Y21300D03*
D45*
X271600Y21400D03*
D71*
X278000Y21400D03*
D110*
X282150Y21400D03*
D30*
X284950Y21400D03*
D41*
X288700Y21400D03*
D39*
X292800Y21400D03*
D45*
X298300Y21400D03*
D53*
X302350Y21400D03*
D45*
X271600Y21500D03*
D71*
X278000Y21500D03*
D110*
X282150Y21500D03*
D30*
X284950Y21500D03*
D41*
X288700Y21500D03*
D39*
X292800Y21500D03*
D45*
X298300Y21500D03*
D53*
X302350Y21500D03*
D50*
X271550Y21600D03*
D71*
X278000Y21600D03*
D110*
X282150Y21600D03*
D30*
X284950Y21600D03*
D41*
X288700Y21600D03*
D39*
X292800Y21600D03*
D50*
X298350Y21600D03*
D53*
X302350Y21600D03*
D50*
X271550Y21700D03*
D71*
X278000Y21700D03*
D110*
X282150Y21700D03*
D30*
X284950Y21700D03*
D41*
X288700Y21700D03*
D39*
X292800Y21700D03*
D50*
X298350Y21700D03*
D53*
X302350Y21700D03*
D50*
X271550Y21800D03*
D38*
X276150Y21800D03*
D110*
X282150Y21800D03*
D41*
X288700Y21800D03*
D39*
X292800Y21800D03*
D50*
X298350Y21800D03*
D53*
X302350Y21800D03*
D50*
X271550Y21900D03*
D57*
X276100Y21900D03*
D110*
X282150Y21900D03*
D41*
X288700Y21900D03*
D32*
X292850Y21900D03*
D50*
X298350Y21900D03*
D53*
X302350Y21900D03*
D50*
X271550Y22000D03*
D57*
X276100Y22000D03*
D110*
X282150Y22000D03*
D41*
X288700Y22000D03*
D32*
X292850Y22000D03*
D50*
X298350Y22000D03*
D53*
X302350Y22000D03*
D41*
X271500Y22100D03*
D57*
X276100Y22100D03*
D110*
X282150Y22100D03*
D41*
X288700Y22100D03*
D32*
X292850Y22100D03*
D41*
X298400Y22100D03*
D53*
X302350Y22100D03*
D30*
X271550Y22200D03*
D57*
X276100Y22200D03*
D110*
X282150Y22200D03*
D41*
X288700Y22200D03*
D32*
X292850Y22200D03*
D30*
X298350Y22200D03*
D79*
X302300Y22200D03*
D30*
X271550Y22300D03*
D43*
X276050Y22300D03*
D110*
X282150Y22300D03*
D41*
X288700Y22300D03*
D33*
X292900Y22300D03*
D30*
X298350Y22300D03*
D79*
X302300Y22300D03*
D30*
X271550Y22400D03*
D43*
X276050Y22400D03*
D110*
X282150Y22400D03*
D41*
X288700Y22400D03*
D33*
X292900Y22400D03*
D30*
X298350Y22400D03*
D53*
X302250Y22400D03*
D30*
X271550Y22500D03*
D43*
X276050Y22500D03*
D110*
X282150Y22500D03*
D41*
X288700Y22500D03*
D33*
X292900Y22500D03*
D30*
X298350Y22500D03*
D53*
X302250Y22500D03*
D30*
X271550Y22600D03*
D43*
X276050Y22600D03*
D110*
X282150Y22600D03*
D41*
X288700Y22600D03*
D33*
X292900Y22600D03*
D30*
X298350Y22600D03*
D53*
X302250Y22600D03*
D51*
X271500Y22700D03*
D43*
X276050Y22700D03*
D110*
X282150Y22700D03*
D41*
X288700Y22700D03*
D33*
X292900Y22700D03*
D51*
X298400Y22700D03*
D53*
X302250Y22700D03*
D42*
X271550Y22800D03*
D29*
X276000Y22800D03*
D110*
X282150Y22800D03*
D41*
X288700Y22800D03*
D100*
X292950Y22800D03*
D42*
X298350Y22800D03*
D79*
X302200Y22800D03*
D42*
X271550Y22900D03*
D29*
X276000Y22900D03*
D101*
X280300Y22900D03*
D30*
X284950Y22900D03*
D41*
X288700Y22900D03*
D100*
X292950Y22900D03*
D42*
X298350Y22900D03*
D79*
X302200Y22900D03*
D42*
X271550Y23000D03*
D29*
X276000Y23000D03*
D101*
X280300Y23000D03*
D30*
X284950Y23000D03*
D41*
X288700Y23000D03*
D100*
X292950Y23000D03*
D42*
X298350Y23000D03*
D79*
X302200Y23000D03*
D42*
X271550Y23100D03*
D29*
X276000Y23100D03*
D101*
X280300Y23100D03*
D30*
X284950Y23100D03*
D41*
X288700Y23100D03*
D100*
X292950Y23100D03*
D42*
X298350Y23100D03*
D53*
X302150Y23100D03*
D42*
X271550Y23200D03*
D29*
X276000Y23200D03*
D101*
X280300Y23200D03*
D30*
X284950Y23200D03*
D41*
X288700Y23200D03*
D100*
X292950Y23200D03*
D42*
X298350Y23200D03*
D53*
X302150Y23200D03*
D63*
X271600Y23300D03*
D29*
X276000Y23300D03*
D101*
X280300Y23300D03*
D30*
X284950Y23300D03*
D41*
X288700Y23300D03*
D100*
X292950Y23300D03*
D63*
X298300Y23300D03*
D53*
X302150Y23300D03*
D40*
X271550Y23400D03*
D29*
X276000Y23400D03*
D101*
X280300Y23400D03*
D30*
X284950Y23400D03*
D41*
X288700Y23400D03*
D100*
X292950Y23400D03*
D40*
X298350Y23400D03*
D79*
X302100Y23400D03*
D40*
X271550Y23500D03*
D70*
X275950Y23500D03*
D101*
X280300Y23500D03*
D30*
X284950Y23500D03*
D41*
X288700Y23500D03*
D99*
X293000Y23500D03*
D40*
X298350Y23500D03*
D79*
X302100Y23500D03*
D40*
X271550Y23600D03*
D70*
X275950Y23600D03*
D55*
X282100Y23600D03*
X287800Y23600D03*
D60*
X293900Y23600D03*
D40*
X298350Y23600D03*
D53*
X302050Y23600D03*
D60*
X271600Y23700D03*
D70*
X275950Y23700D03*
D110*
X282150Y23700D03*
X287750Y23700D03*
D70*
X293950Y23700D03*
D60*
X298300Y23700D03*
D53*
X302050Y23700D03*
D60*
X271600Y23800D03*
D70*
X275950Y23800D03*
D110*
X282150Y23800D03*
X287750Y23800D03*
D70*
X293950Y23800D03*
D60*
X298300Y23800D03*
D53*
X302050Y23800D03*
D60*
X271600Y23900D03*
D70*
X275950Y23900D03*
D110*
X282150Y23900D03*
X287750Y23900D03*
D70*
X293950Y23900D03*
D60*
X298300Y23900D03*
D37*
X302100Y23900D03*
D60*
X271600Y24000D03*
D70*
X275950Y24000D03*
D110*
X282150Y24000D03*
X287750Y24000D03*
D70*
X293950Y24000D03*
D60*
X298300Y24000D03*
D54*
X302100Y24000D03*
D70*
X271650Y24100D03*
X275950Y24100D03*
D110*
X282150Y24100D03*
X287750Y24100D03*
D70*
X293950Y24100D03*
X298250Y24100D03*
D35*
X302350Y24100D03*
D70*
X271650Y24200D03*
X275950Y24200D03*
D110*
X282150Y24200D03*
X287750Y24200D03*
D70*
X293950Y24200D03*
X298250Y24200D03*
X271650Y24300D03*
X275950Y24300D03*
D110*
X282150Y24300D03*
X287750Y24300D03*
D70*
X293950Y24300D03*
X298250Y24300D03*
D29*
X271700Y24400D03*
D70*
X275950Y24400D03*
D110*
X282150Y24400D03*
X287750Y24400D03*
D70*
X293950Y24400D03*
D29*
X298200Y24400D03*
X271700Y24500D03*
D70*
X275950Y24500D03*
D110*
X282150Y24500D03*
X287750Y24500D03*
D70*
X293950Y24500D03*
D29*
X298200Y24500D03*
X271700Y24600D03*
D70*
X275950Y24600D03*
D110*
X282150Y24600D03*
X287750Y24600D03*
D70*
X293950Y24600D03*
D29*
X298200Y24600D03*
D43*
X271750Y24700D03*
D111*
X284950Y24700D03*
D43*
X298150Y24700D03*
X271750Y24800D03*
D111*
X284950Y24800D03*
D43*
X298150Y24800D03*
X271750Y24900D03*
D111*
X284950Y24900D03*
D43*
X298150Y24900D03*
D35*
X268550Y25000D03*
D57*
X271800Y25000D03*
D111*
X284950Y25000D03*
D57*
X298100Y25000D03*
D36*
X268450Y25100D03*
D57*
X271800Y25100D03*
D111*
X284950Y25100D03*
D57*
X298100Y25100D03*
D37*
X268400Y25200D03*
D57*
X271800Y25200D03*
D111*
X284950Y25200D03*
D57*
X298100Y25200D03*
D53*
X268350Y25300D03*
D38*
X271850Y25300D03*
D111*
X284950Y25300D03*
D38*
X298050Y25300D03*
D53*
X268350Y25400D03*
D38*
X271850Y25400D03*
D111*
X284950Y25400D03*
D38*
X298050Y25400D03*
D79*
X268400Y25500D03*
X271900Y25500D03*
D111*
X284950Y25500D03*
D79*
X298000Y25500D03*
X268400Y25600D03*
X271900Y25600D03*
D112*
X284950Y25600D03*
D79*
X298000Y25600D03*
X268400Y25700D03*
X271900Y25700D03*
D112*
X284950Y25700D03*
D79*
X298000Y25700D03*
D38*
X268450Y25800D03*
D53*
X271950Y25800D03*
D113*
X284950Y25800D03*
D53*
X297950Y25800D03*
D79*
X268500Y25900D03*
D53*
X271950Y25900D03*
D114*
X284950Y25900D03*
D53*
X297950Y25900D03*
D79*
X268500Y26000D03*
D37*
X272000Y26000D03*
D115*
X284950Y26000D03*
D37*
X297900Y26000D03*
D79*
X268600Y26100D03*
D37*
X272000Y26100D03*
D116*
X284950Y26100D03*
D37*
X297900Y26100D03*
D79*
X268600Y26200D03*
D44*
X272050Y26200D03*
D117*
X284950Y26200D03*
D44*
X297850Y26200D03*
D38*
X268650Y26300D03*
D44*
X272050Y26300D03*
D109*
X284950Y26300D03*
D44*
X297850Y26300D03*
D79*
X268700Y26400D03*
D44*
X272050Y26400D03*
D107*
X284950Y26400D03*
D44*
X297850Y26400D03*
D79*
X268700Y26500D03*
D54*
X272100Y26500D03*
D105*
X284950Y26500D03*
D54*
X297800Y26500D03*
D38*
X268750Y26600D03*
D54*
X272100Y26600D03*
D118*
X284950Y26600D03*
D54*
X297800Y26600D03*
D79*
X268800Y26700D03*
D36*
X272150Y26700D03*
D119*
X284950Y26700D03*
D36*
X297750Y26700D03*
D38*
X268850Y26800D03*
D54*
X272200Y26800D03*
D120*
X284950Y26800D03*
D54*
X297700Y26800D03*
D79*
X268900Y26900D03*
D36*
X272250Y26900D03*
D121*
X284950Y26900D03*
D36*
X297650Y26900D03*
D38*
X268950Y27000D03*
D36*
X272250Y27000D03*
D122*
X284950Y27000D03*
D36*
X297650Y27000D03*
D38*
X268950Y27100D03*
D36*
X272350Y27100D03*
D123*
X284950Y27100D03*
D36*
X297550Y27100D03*
D38*
X269050Y27200D03*
D54*
X272500Y27200D03*
D124*
X284950Y27200D03*
D54*
X297400Y27200D03*
D38*
X269050Y27300D03*
D44*
X272550Y27300D03*
D125*
X284950Y27300D03*
D44*
X297350Y27300D03*
D79*
X269100Y27400D03*
D44*
X272650Y27400D03*
D126*
X284950Y27400D03*
D44*
X297250Y27400D03*
D38*
X269150Y27500D03*
D53*
X272750Y27500D03*
D127*
X284950Y27500D03*
D53*
X297150Y27500D03*
D38*
X269250Y27600D03*
D53*
X272850Y27600D03*
D128*
X284950Y27600D03*
D53*
X297050Y27600D03*
D38*
X269250Y27700D03*
D79*
X273000Y27700D03*
D129*
X284950Y27700D03*
D79*
X296900Y27700D03*
D38*
X269350Y27800D03*
X273050Y27800D03*
D65*
X284950Y27800D03*
D38*
X296850Y27800D03*
X269350Y27900D03*
D57*
X273200Y27900D03*
D62*
X284950Y27900D03*
D57*
X296700Y27900D03*
D79*
X269400Y28000D03*
D29*
X273300Y28000D03*
D83*
X284950Y28000D03*
D29*
X296600Y28000D03*
D79*
X269400Y28100D03*
D29*
X273400Y28100D03*
D74*
X284950Y28100D03*
D29*
X296500Y28100D03*
D37*
X269400Y28200D03*
D70*
X273550Y28200D03*
D40*
X284950Y28200D03*
D70*
X296350Y28200D03*
D44*
X269350Y28300D03*
D40*
X273650Y28300D03*
X296250Y28300D03*
D55*
X269300Y28400D03*
D63*
X273800Y28400D03*
X296100Y28400D03*
D28*
X269200Y28500D03*
D42*
X273950Y28500D03*
X295950Y28500D03*
D52*
X269150Y28600D03*
D30*
X274050Y28600D03*
X295850Y28600D03*
D41*
X274200Y28700D03*
X295700Y28700D03*
D50*
X274350Y28800D03*
X295550Y28800D03*
D45*
X274500Y28900D03*
X295400Y28900D03*
D72*
X299400Y28900D03*
D31*
X274650Y29000D03*
X295250Y29000D03*
D35*
X299350Y29000D03*
D48*
X274800Y29100D03*
X295100Y29100D03*
D110*
X299450Y29100D03*
D39*
X275000Y29200D03*
X294900Y29200D03*
D36*
X299450Y29200D03*
D33*
X275200Y29300D03*
X294700Y29300D03*
D37*
X299500Y29300D03*
D99*
X275400Y29400D03*
X294500Y29400D03*
D53*
X299550Y29400D03*
D76*
X275550Y29500D03*
X294350Y29500D03*
D38*
X299550Y29500D03*
D56*
X275750Y29600D03*
X294150Y29600D03*
D57*
X299500Y29600D03*
D96*
X276000Y29700D03*
X293900Y29700D03*
D57*
X299500Y29700D03*
D66*
X276200Y29800D03*
X293700Y29800D03*
D57*
X299400Y29800D03*
D69*
X276450Y29900D03*
X293450Y29900D03*
D43*
X299350Y29900D03*
D58*
X276750Y30000D03*
X293150Y30000D03*
D43*
X299250Y30000D03*
D80*
X277050Y30100D03*
X292850Y30100D03*
D57*
X299200Y30100D03*
D81*
X277350Y30200D03*
X292550Y30200D03*
D43*
X299150Y30200D03*
D83*
X277750Y30300D03*
X292150Y30300D03*
D43*
X299050Y30300D03*
D130*
X278200Y30400D03*
X291700Y30400D03*
D43*
X298950Y30400D03*
D131*
X278900Y30500D03*
X291000Y30500D03*
D43*
X298950Y30500D03*
D132*
X284950Y30600D03*
D43*
X298850Y30600D03*
D133*
X284950Y30700D03*
D43*
X298750Y30700D03*
D134*
X284950Y30800D03*
D43*
X298650Y30800D03*
D111*
X284950Y30900D03*
D29*
X298600Y30900D03*
D112*
X284950Y31000D03*
D29*
X298500Y31000D03*
D113*
X284950Y31100D03*
D43*
X298450Y31100D03*
D114*
X284950Y31200D03*
D43*
X298350Y31200D03*
D135*
X284950Y31300D03*
D43*
X298250Y31300D03*
D115*
X284950Y31400D03*
D29*
X298200Y31400D03*
D116*
X284950Y31500D03*
D43*
X298150Y31500D03*
D136*
X284950Y31600D03*
D57*
X298100Y31600D03*
D117*
X284950Y31700D03*
D38*
X298050Y31700D03*
D109*
X284950Y31800D03*
D53*
X298050Y31800D03*
D107*
X284950Y31900D03*
D44*
X298050Y31900D03*
D106*
X284950Y32000D03*
D54*
X298100Y32000D03*
D105*
X284950Y32100D03*
D55*
X298100Y32100D03*
D118*
X284950Y32200D03*
D28*
X298100Y32200D03*
D137*
X284950Y32300D03*
D46*
X298100Y32300D03*
D52*
X273450Y32400D03*
D119*
X284950Y32400D03*
D35*
X273450Y32500D03*
D138*
X284950Y32500D03*
D110*
X273550Y32600D03*
D139*
X284950Y32600D03*
D36*
X273550Y32700D03*
D140*
X284950Y32700D03*
D44*
X273550Y32800D03*
D141*
X284950Y32800D03*
D53*
X273550Y32900D03*
D142*
X284950Y32900D03*
D38*
X273550Y33000D03*
D123*
X284950Y33000D03*
D29*
X273600Y33100D03*
D143*
X284950Y33100D03*
D70*
X273650Y33200D03*
D124*
X284950Y33200D03*
D60*
X273700Y33300D03*
D144*
X284950Y33300D03*
D40*
X273850Y33400D03*
D145*
X284950Y33400D03*
D63*
X273900Y33500D03*
D146*
X284950Y33500D03*
D63*
X274000Y33600D03*
D147*
X284950Y33600D03*
D42*
X274150Y33700D03*
D148*
X284950Y33700D03*
D63*
X274300Y33800D03*
D149*
X284950Y33800D03*
D42*
X274450Y33900D03*
D150*
X284950Y33900D03*
D42*
X274550Y34000D03*
D151*
X284950Y34000D03*
D51*
X274700Y34100D03*
D65*
X284950Y34100D03*
D42*
X274850Y34200D03*
D64*
X284950Y34200D03*
D42*
X274950Y34300D03*
D62*
X284950Y34300D03*
D63*
X275000Y34400D03*
D61*
X284950Y34400D03*
D40*
X275050Y34500D03*
D59*
X284950Y34500D03*
D70*
X275150Y34600D03*
D58*
X284950Y34600D03*
D29*
X275200Y34700D03*
D56*
X284950Y34700D03*
D57*
X275200Y34800D03*
D50*
X284950Y34800D03*
D79*
X275300Y34900D03*
D52*
X292750Y34900D03*
D37*
X275300Y35000D03*
D28*
X292700Y35000D03*
D36*
X275350Y35100D03*
X292650Y35100D03*
D55*
X275400Y35200D03*
D44*
X292550Y35200D03*
D35*
X275450Y35300D03*
D79*
X292500Y35300D03*
D72*
X275500Y35400D03*
D57*
X292400Y35400D03*
D60*
X292300Y35500D03*
D63*
X292200Y35600D03*
D41*
X292100Y35700D03*
D102*
X291950Y35800D03*
D48*
X291800Y35900D03*
D39*
X291700Y36000D03*
D32*
X291550Y36100D03*
D49*
X291450Y36200D03*
D31*
X291350Y36300D03*
D72*
X281400Y36400D03*
D102*
X291250Y36400D03*
D55*
X281600Y36500D03*
D50*
X291150Y36500D03*
D57*
X281900Y36600D03*
D30*
X291050Y36600D03*
X282350Y36700D03*
D63*
X291000Y36700D03*
D32*
X282850Y36800D03*
D70*
X290850Y36800D03*
D33*
X282900Y36900D03*
D43*
X290750Y36900D03*
D33*
X282900Y37000D03*
D79*
X290600Y37000D03*
D100*
X282850Y37100D03*
D54*
X290500Y37100D03*
D100*
X282850Y37200D03*
D55*
X290400Y37200D03*
D100*
X282850Y37300D03*
D46*
X290300Y37300D03*
D100*
X282850Y37400D03*
D33*
X282800Y37500D03*
X282800Y37600D03*
D32*
X282850Y37700D03*
D48*
X283000Y37800D03*
D50*
X283250Y37900D03*
D70*
X283550Y38000D03*
D36*
X284050Y38100D03*
M02*
