G04 EAGLE Gerber RS-274X export*
G75*
%MOMM*%
%FSLAX34Y34*%
%LPD*%
%INSilkscreen Top*%
%IPPOS*%
%AMOC8*
5,1,8,0,0,1.08239X$1,22.5*%
G01*
%ADD10C,0.152400*%
%ADD11C,0.101600*%
%ADD12R,0.500100X0.950000*%
%ADD13C,0.177800*%
%ADD14R,0.950000X0.500100*%
%ADD15R,0.863600X0.406400*%
%ADD16C,0.120000*%
%ADD17C,0.762000*%
%ADD18C,0.127000*%
%ADD19C,0.100000*%
%ADD20C,0.500000*%
%ADD21C,0.000000*%
%ADD22C,0.050000*%
%ADD23R,0.406400X0.863600*%
%ADD24C,0.200000*%
%ADD25R,0.070000X0.010000*%
%ADD26R,0.190000X0.010000*%
%ADD27R,0.260000X0.010000*%
%ADD28R,0.320000X0.010000*%
%ADD29R,0.360000X0.010000*%
%ADD30R,0.370000X0.010000*%
%ADD31R,0.010000X0.010000*%
%ADD32R,0.060000X0.010000*%
%ADD33R,0.100000X0.010000*%
%ADD34R,0.130000X0.010000*%
%ADD35R,0.160000X0.010000*%
%ADD36R,0.350000X0.010000*%
%ADD37R,0.220000X0.010000*%
%ADD38R,0.270000X0.010000*%
%ADD39R,0.240000X0.010000*%
%ADD40R,0.180000X0.010000*%
%ADD41R,0.120000X0.010000*%
%ADD42R,0.290000X0.010000*%
%ADD43R,0.050000X0.010000*%
%ADD44R,0.310000X0.010000*%
%ADD45R,0.330000X0.010000*%
%ADD46R,0.340000X0.010000*%
%ADD47R,0.280000X0.010000*%
%ADD48R,0.250000X0.010000*%
%ADD49R,0.040000X0.010000*%
%ADD50R,0.140000X0.010000*%
%ADD51R,0.110000X0.010000*%
%ADD52R,0.090000X0.010000*%
%ADD53R,0.440000X0.010000*%
%ADD54R,0.170000X0.010000*%
%ADD55R,0.560000X0.010000*%
%ADD56R,0.660000X0.010000*%
%ADD57R,0.210000X0.010000*%
%ADD58R,0.740000X0.010000*%
%ADD59R,0.820000X0.010000*%
%ADD60R,0.230000X0.010000*%
%ADD61R,0.880000X0.010000*%
%ADD62R,0.940000X0.010000*%
%ADD63R,0.490000X0.010000*%
%ADD64R,0.500000X0.010000*%
%ADD65R,0.510000X0.010000*%
%ADD66R,0.520000X0.010000*%
%ADD67R,0.200000X0.010000*%
%ADD68R,0.530000X0.010000*%
%ADD69R,0.030000X0.010000*%
%ADD70R,0.020000X0.010000*%
%ADD71R,0.540000X0.010000*%
%ADD72R,0.400000X0.010000*%
%ADD73R,0.420000X0.010000*%
%ADD74R,0.460000X0.010000*%
%ADD75R,0.580000X0.010000*%
%ADD76R,0.150000X0.010000*%
%ADD77R,0.600000X0.010000*%
%ADD78R,0.640000X0.010000*%
%ADD79R,0.680000X0.010000*%
%ADD80R,0.700000X0.010000*%
%ADD81R,0.720000X0.010000*%
%ADD82R,0.760000X0.010000*%
%ADD83R,0.780000X0.010000*%
%ADD84R,0.800000X0.010000*%
%ADD85R,0.840000X0.010000*%
%ADD86R,0.860000X0.010000*%
%ADD87R,0.900000X0.010000*%
%ADD88R,0.920000X0.010000*%
%ADD89R,0.960000X0.010000*%
%ADD90R,0.570000X0.010000*%
%ADD91R,0.550000X0.010000*%
%ADD92R,0.480000X0.010000*%
%ADD93R,0.470000X0.010000*%
%ADD94R,0.430000X0.010000*%
%ADD95R,0.410000X0.010000*%
%ADD96R,0.390000X0.010000*%
%ADD97R,0.380000X0.010000*%
%ADD98R,0.450000X0.010000*%
%ADD99R,0.300000X0.010000*%
%ADD100R,1.130000X0.010000*%
%ADD101R,1.720000X0.010000*%
%ADD102R,1.740000X0.010000*%
%ADD103R,1.760000X0.010000*%
%ADD104R,1.780000X0.010000*%
%ADD105R,1.800000X0.010000*%
%ADD106R,1.820000X0.010000*%
%ADD107R,0.080000X0.010000*%
%ADD108R,2.020000X0.010000*%
%ADD109R,2.000000X0.010000*%
%ADD110R,1.980000X0.010000*%
%ADD111R,1.960000X0.010000*%
%ADD112R,1.920000X0.010000*%
%ADD113R,1.880000X0.010000*%
%ADD114R,1.840000X0.010000*%
%ADD115R,1.700000X0.010000*%
%ADD116R,1.640000X0.010000*%
%ADD117R,1.600000X0.010000*%
%ADD118R,1.560000X0.010000*%
%ADD119R,1.500000X0.010000*%
%ADD120R,1.440000X0.010000*%
%ADD121R,1.380000X0.010000*%
%ADD122R,1.320000X0.010000*%
%ADD123R,1.260000X0.010000*%
%ADD124R,1.180000X0.010000*%
%ADD125R,1.120000X0.010000*%
%ADD126R,1.020000X0.010000*%
%ADD127R,0.770000X0.010000*%
%ADD128R,0.890000X0.010000*%
%ADD129R,2.080000X0.010000*%
%ADD130R,2.060000X0.010000*%
%ADD131R,2.040000X0.010000*%
%ADD132R,1.940000X0.010000*%
%ADD133R,1.860000X0.010000*%
%ADD134R,1.680000X0.010000*%
%ADD135R,1.620000X0.010000*%
%ADD136R,1.580000X0.010000*%
%ADD137R,1.540000X0.010000*%
%ADD138R,1.520000X0.010000*%
%ADD139R,1.480000X0.010000*%
%ADD140R,1.420000X0.010000*%
%ADD141R,1.340000X0.010000*%
%ADD142R,1.300000X0.010000*%
%ADD143R,1.240000X0.010000*%
%ADD144R,1.200000X0.010000*%
%ADD145R,1.160000X0.010000*%
%ADD146R,1.100000X0.010000*%
%ADD147R,1.060000X0.010000*%
%ADD148R,1.000000X0.010000*%
%ADD149R,4.000000X0.020000*%
%ADD150R,0.240000X0.020000*%
%ADD151R,0.140000X0.020000*%
%ADD152R,0.420000X0.020000*%
%ADD153R,0.260000X0.020000*%
%ADD154R,0.700000X0.020000*%
%ADD155R,0.280000X0.020000*%
%ADD156R,0.540000X0.020000*%
%ADD157R,0.400000X0.020000*%
%ADD158R,0.840000X0.020000*%
%ADD159R,1.360000X0.020000*%
%ADD160R,0.660000X0.020000*%
%ADD161R,0.380000X0.020000*%
%ADD162R,0.800000X0.020000*%
%ADD163R,0.520000X0.020000*%
%ADD164R,0.560000X0.020000*%
%ADD165R,0.820000X0.020000*%
%ADD166R,1.500000X0.020000*%
%ADD167R,1.380000X0.020000*%
%ADD168R,1.260000X0.020000*%
%ADD169C,0.203200*%

G36*
X45115Y8001D02*
X45115Y8001D01*
X45215Y8008D01*
X45255Y8023D01*
X45298Y8029D01*
X45388Y8072D01*
X45481Y8106D01*
X45516Y8132D01*
X45555Y8150D01*
X45630Y8216D01*
X45710Y8275D01*
X45733Y8306D01*
X45769Y8337D01*
X45866Y8489D01*
X45908Y8546D01*
X47908Y12546D01*
X47911Y12554D01*
X47916Y12561D01*
X47956Y12689D01*
X47998Y12816D01*
X47999Y12824D01*
X48001Y12832D01*
X48005Y12967D01*
X48010Y13100D01*
X48008Y13108D01*
X48009Y13116D01*
X47975Y13246D01*
X47943Y13376D01*
X47939Y13383D01*
X47937Y13391D01*
X47869Y13506D01*
X47802Y13623D01*
X47796Y13629D01*
X47792Y13636D01*
X47694Y13728D01*
X47598Y13821D01*
X47590Y13824D01*
X47584Y13830D01*
X47465Y13891D01*
X47347Y13954D01*
X47339Y13956D01*
X47331Y13960D01*
X47279Y13968D01*
X47069Y14013D01*
X47031Y14010D01*
X47000Y14015D01*
X43000Y14015D01*
X42992Y14014D01*
X42983Y14015D01*
X42851Y13994D01*
X42719Y13975D01*
X42711Y13972D01*
X42702Y13971D01*
X42581Y13914D01*
X42459Y13859D01*
X42453Y13854D01*
X42445Y13850D01*
X42344Y13762D01*
X42242Y13676D01*
X42237Y13668D01*
X42231Y13663D01*
X42159Y13550D01*
X42085Y13439D01*
X42082Y13431D01*
X42077Y13424D01*
X42039Y13295D01*
X41999Y13168D01*
X41999Y13159D01*
X41996Y13151D01*
X41995Y13017D01*
X41991Y12884D01*
X41994Y12875D01*
X41994Y12867D01*
X42009Y12816D01*
X42063Y12609D01*
X42083Y12576D01*
X42092Y12546D01*
X44092Y8546D01*
X44149Y8464D01*
X44198Y8377D01*
X44229Y8347D01*
X44253Y8312D01*
X44331Y8249D01*
X44402Y8180D01*
X44440Y8159D01*
X44473Y8132D01*
X44565Y8093D01*
X44653Y8046D01*
X44695Y8037D01*
X44735Y8020D01*
X44834Y8008D01*
X44931Y7987D01*
X44974Y7990D01*
X45017Y7985D01*
X45115Y8001D01*
G37*
D10*
X613262Y311280D02*
X617579Y311280D01*
X621422Y311280D02*
X625739Y311280D01*
X629582Y311280D02*
X633899Y311280D01*
X637742Y311280D02*
X642059Y311280D01*
X645902Y311280D02*
X650219Y311280D01*
X654062Y311280D02*
X658379Y311280D01*
X662222Y311280D02*
X666539Y311280D01*
X670382Y311280D02*
X674699Y311280D01*
X616860Y298201D02*
X616858Y298126D01*
X616852Y298051D01*
X616842Y297976D01*
X616829Y297902D01*
X616811Y297829D01*
X616790Y297756D01*
X616764Y297685D01*
X616736Y297616D01*
X616703Y297548D01*
X616667Y297482D01*
X616628Y297417D01*
X616585Y297355D01*
X616539Y297295D01*
X616490Y297238D01*
X616439Y297183D01*
X616384Y297132D01*
X616327Y297083D01*
X616267Y297037D01*
X616205Y296994D01*
X616141Y296955D01*
X616074Y296919D01*
X616006Y296886D01*
X615937Y296858D01*
X615866Y296832D01*
X615793Y296811D01*
X615720Y296793D01*
X615646Y296780D01*
X615571Y296770D01*
X615496Y296764D01*
X615421Y296762D01*
X615312Y296764D01*
X615203Y296770D01*
X615094Y296780D01*
X614986Y296793D01*
X614878Y296811D01*
X614771Y296832D01*
X614665Y296857D01*
X614560Y296886D01*
X614456Y296919D01*
X614353Y296956D01*
X614252Y296996D01*
X614152Y297040D01*
X614054Y297087D01*
X613957Y297138D01*
X613862Y297192D01*
X613770Y297250D01*
X613679Y297311D01*
X613591Y297375D01*
X613505Y297442D01*
X613421Y297512D01*
X613341Y297585D01*
X613262Y297661D01*
X613442Y301799D02*
X613444Y301874D01*
X613450Y301949D01*
X613460Y302024D01*
X613473Y302098D01*
X613491Y302171D01*
X613512Y302244D01*
X613538Y302315D01*
X613566Y302384D01*
X613599Y302452D01*
X613635Y302519D01*
X613674Y302583D01*
X613717Y302645D01*
X613763Y302705D01*
X613812Y302762D01*
X613863Y302817D01*
X613918Y302868D01*
X613975Y302917D01*
X614035Y302963D01*
X614097Y303006D01*
X614162Y303045D01*
X614228Y303081D01*
X614296Y303114D01*
X614365Y303142D01*
X614436Y303168D01*
X614509Y303189D01*
X614582Y303207D01*
X614656Y303220D01*
X614731Y303230D01*
X614806Y303236D01*
X614881Y303238D01*
X614983Y303236D01*
X615085Y303230D01*
X615187Y303221D01*
X615288Y303207D01*
X615389Y303190D01*
X615489Y303169D01*
X615588Y303144D01*
X615686Y303115D01*
X615783Y303083D01*
X615878Y303047D01*
X615972Y303007D01*
X616065Y302964D01*
X616156Y302918D01*
X616245Y302868D01*
X616332Y302815D01*
X616417Y302758D01*
X616500Y302698D01*
X614162Y300539D02*
X614097Y300580D01*
X614035Y300623D01*
X613975Y300670D01*
X613918Y300720D01*
X613863Y300772D01*
X613811Y300828D01*
X613762Y300886D01*
X613717Y300946D01*
X613674Y301009D01*
X613635Y301074D01*
X613599Y301140D01*
X613566Y301209D01*
X613537Y301279D01*
X613512Y301351D01*
X613491Y301424D01*
X613473Y301498D01*
X613460Y301572D01*
X613450Y301647D01*
X613444Y301723D01*
X613442Y301799D01*
X616140Y299461D02*
X616205Y299420D01*
X616267Y299377D01*
X616327Y299330D01*
X616384Y299280D01*
X616439Y299228D01*
X616491Y299172D01*
X616540Y299114D01*
X616585Y299054D01*
X616628Y298991D01*
X616667Y298926D01*
X616703Y298860D01*
X616736Y298791D01*
X616765Y298721D01*
X616790Y298649D01*
X616811Y298576D01*
X616829Y298502D01*
X616842Y298428D01*
X616852Y298353D01*
X616858Y298277D01*
X616860Y298201D01*
X616140Y299460D02*
X614161Y300540D01*
X620102Y299640D02*
X620102Y298201D01*
X620102Y299640D02*
X620104Y299715D01*
X620110Y299790D01*
X620120Y299865D01*
X620133Y299939D01*
X620151Y300012D01*
X620172Y300085D01*
X620198Y300156D01*
X620226Y300225D01*
X620259Y300293D01*
X620295Y300360D01*
X620334Y300424D01*
X620377Y300486D01*
X620423Y300546D01*
X620472Y300603D01*
X620523Y300658D01*
X620578Y300709D01*
X620635Y300758D01*
X620695Y300804D01*
X620757Y300847D01*
X620822Y300886D01*
X620888Y300922D01*
X620956Y300955D01*
X621025Y300983D01*
X621096Y301009D01*
X621169Y301030D01*
X621242Y301048D01*
X621316Y301061D01*
X621391Y301071D01*
X621466Y301077D01*
X621541Y301079D01*
X621616Y301077D01*
X621691Y301071D01*
X621766Y301061D01*
X621840Y301048D01*
X621913Y301030D01*
X621986Y301009D01*
X622057Y300983D01*
X622126Y300955D01*
X622194Y300922D01*
X622261Y300886D01*
X622325Y300847D01*
X622387Y300804D01*
X622447Y300758D01*
X622504Y300709D01*
X622559Y300658D01*
X622610Y300603D01*
X622659Y300546D01*
X622705Y300486D01*
X622748Y300424D01*
X622787Y300360D01*
X622823Y300293D01*
X622856Y300225D01*
X622884Y300156D01*
X622910Y300085D01*
X622931Y300012D01*
X622949Y299939D01*
X622962Y299865D01*
X622972Y299790D01*
X622978Y299715D01*
X622980Y299640D01*
X622980Y298201D01*
X622978Y298126D01*
X622972Y298051D01*
X622962Y297976D01*
X622949Y297902D01*
X622931Y297829D01*
X622910Y297756D01*
X622884Y297685D01*
X622856Y297616D01*
X622823Y297548D01*
X622787Y297482D01*
X622748Y297417D01*
X622705Y297355D01*
X622659Y297295D01*
X622610Y297238D01*
X622559Y297183D01*
X622504Y297132D01*
X622447Y297083D01*
X622387Y297037D01*
X622325Y296994D01*
X622261Y296955D01*
X622194Y296919D01*
X622126Y296886D01*
X622057Y296858D01*
X621986Y296832D01*
X621913Y296811D01*
X621840Y296793D01*
X621766Y296780D01*
X621691Y296770D01*
X621616Y296764D01*
X621541Y296762D01*
X621466Y296764D01*
X621391Y296770D01*
X621316Y296780D01*
X621242Y296793D01*
X621169Y296811D01*
X621096Y296832D01*
X621025Y296858D01*
X620956Y296886D01*
X620888Y296919D01*
X620822Y296955D01*
X620757Y296994D01*
X620695Y297037D01*
X620635Y297083D01*
X620578Y297132D01*
X620523Y297183D01*
X620472Y297238D01*
X620423Y297295D01*
X620377Y297355D01*
X620334Y297417D01*
X620295Y297482D01*
X620259Y297548D01*
X620226Y297616D01*
X620198Y297685D01*
X620172Y297756D01*
X620151Y297829D01*
X620133Y297902D01*
X620120Y297976D01*
X620110Y298051D01*
X620104Y298126D01*
X620102Y298201D01*
X626644Y296762D02*
X626644Y303238D01*
X626644Y296762D02*
X628443Y296762D01*
X628508Y296764D01*
X628573Y296770D01*
X628637Y296780D01*
X628701Y296793D01*
X628764Y296811D01*
X628826Y296832D01*
X628886Y296857D01*
X628944Y296886D01*
X629001Y296918D01*
X629056Y296953D01*
X629108Y296992D01*
X629158Y297033D01*
X629206Y297078D01*
X629251Y297125D01*
X629292Y297176D01*
X629331Y297228D01*
X629366Y297283D01*
X629398Y297340D01*
X629427Y297398D01*
X629452Y297458D01*
X629473Y297520D01*
X629491Y297583D01*
X629504Y297646D01*
X629514Y297711D01*
X629520Y297776D01*
X629522Y297841D01*
X629523Y297841D02*
X629523Y300000D01*
X629522Y300000D02*
X629520Y300063D01*
X629515Y300125D01*
X629506Y300187D01*
X629493Y300249D01*
X629477Y300309D01*
X629457Y300369D01*
X629434Y300427D01*
X629407Y300484D01*
X629377Y300540D01*
X629344Y300593D01*
X629308Y300644D01*
X629270Y300694D01*
X629228Y300740D01*
X629183Y300785D01*
X629137Y300827D01*
X629087Y300865D01*
X629036Y300901D01*
X628983Y300934D01*
X628927Y300964D01*
X628870Y300991D01*
X628812Y301014D01*
X628752Y301034D01*
X628692Y301050D01*
X628630Y301063D01*
X628568Y301072D01*
X628506Y301077D01*
X628443Y301079D01*
X626644Y301079D01*
X632581Y301079D02*
X632581Y296762D01*
X632401Y302878D02*
X632401Y303238D01*
X632761Y303238D01*
X632761Y302878D01*
X632401Y302878D01*
X636781Y296762D02*
X638580Y296762D01*
X636781Y296762D02*
X636718Y296764D01*
X636656Y296769D01*
X636594Y296778D01*
X636532Y296791D01*
X636472Y296807D01*
X636412Y296827D01*
X636354Y296850D01*
X636297Y296877D01*
X636242Y296907D01*
X636188Y296940D01*
X636137Y296976D01*
X636087Y297014D01*
X636041Y297056D01*
X635996Y297101D01*
X635954Y297147D01*
X635916Y297197D01*
X635880Y297248D01*
X635847Y297302D01*
X635817Y297357D01*
X635790Y297414D01*
X635767Y297472D01*
X635747Y297532D01*
X635731Y297592D01*
X635718Y297654D01*
X635709Y297716D01*
X635704Y297778D01*
X635702Y297841D01*
X635702Y299640D01*
X635704Y299715D01*
X635710Y299790D01*
X635720Y299865D01*
X635733Y299939D01*
X635751Y300012D01*
X635772Y300085D01*
X635798Y300156D01*
X635826Y300225D01*
X635859Y300293D01*
X635895Y300360D01*
X635934Y300424D01*
X635977Y300486D01*
X636023Y300546D01*
X636072Y300603D01*
X636123Y300658D01*
X636178Y300709D01*
X636235Y300758D01*
X636295Y300804D01*
X636357Y300847D01*
X636422Y300886D01*
X636488Y300922D01*
X636556Y300955D01*
X636625Y300983D01*
X636696Y301009D01*
X636769Y301030D01*
X636842Y301048D01*
X636916Y301061D01*
X636991Y301071D01*
X637066Y301077D01*
X637141Y301079D01*
X637216Y301077D01*
X637291Y301071D01*
X637366Y301061D01*
X637440Y301048D01*
X637513Y301030D01*
X637586Y301009D01*
X637657Y300983D01*
X637726Y300955D01*
X637794Y300922D01*
X637861Y300886D01*
X637925Y300847D01*
X637987Y300804D01*
X638047Y300758D01*
X638104Y300709D01*
X638159Y300658D01*
X638210Y300603D01*
X638259Y300546D01*
X638305Y300486D01*
X638348Y300424D01*
X638387Y300360D01*
X638423Y300293D01*
X638456Y300225D01*
X638484Y300156D01*
X638510Y300085D01*
X638531Y300012D01*
X638549Y299939D01*
X638562Y299865D01*
X638572Y299790D01*
X638578Y299715D01*
X638580Y299640D01*
X638580Y298921D01*
X635702Y298921D01*
X642481Y299280D02*
X644280Y298561D01*
X642482Y299281D02*
X642426Y299305D01*
X642373Y299333D01*
X642321Y299364D01*
X642272Y299398D01*
X642225Y299435D01*
X642180Y299476D01*
X642138Y299519D01*
X642099Y299565D01*
X642063Y299613D01*
X642030Y299663D01*
X642001Y299716D01*
X641974Y299770D01*
X641952Y299826D01*
X641933Y299883D01*
X641918Y299941D01*
X641907Y300001D01*
X641899Y300060D01*
X641895Y300120D01*
X641896Y300181D01*
X641900Y300241D01*
X641908Y300300D01*
X641919Y300359D01*
X641935Y300418D01*
X641954Y300475D01*
X641977Y300530D01*
X642004Y300584D01*
X642034Y300637D01*
X642067Y300687D01*
X642103Y300735D01*
X642143Y300780D01*
X642185Y300823D01*
X642230Y300863D01*
X642277Y300900D01*
X642327Y300934D01*
X642379Y300965D01*
X642433Y300992D01*
X642488Y301016D01*
X642545Y301036D01*
X642603Y301052D01*
X642662Y301065D01*
X642721Y301074D01*
X642781Y301079D01*
X642841Y301080D01*
X642961Y301076D01*
X643080Y301069D01*
X643199Y301059D01*
X643317Y301045D01*
X643435Y301028D01*
X643553Y301007D01*
X643669Y300983D01*
X643785Y300955D01*
X643901Y300924D01*
X644015Y300890D01*
X644128Y300852D01*
X644240Y300811D01*
X644351Y300767D01*
X644460Y300720D01*
X644280Y298561D02*
X644336Y298537D01*
X644389Y298509D01*
X644441Y298478D01*
X644490Y298444D01*
X644537Y298407D01*
X644582Y298366D01*
X644624Y298323D01*
X644663Y298277D01*
X644699Y298229D01*
X644732Y298179D01*
X644761Y298126D01*
X644788Y298072D01*
X644810Y298016D01*
X644829Y297959D01*
X644844Y297901D01*
X644855Y297841D01*
X644863Y297782D01*
X644867Y297722D01*
X644866Y297661D01*
X644862Y297601D01*
X644854Y297542D01*
X644843Y297483D01*
X644827Y297424D01*
X644808Y297367D01*
X644785Y297312D01*
X644758Y297258D01*
X644728Y297205D01*
X644695Y297155D01*
X644659Y297107D01*
X644619Y297062D01*
X644577Y297019D01*
X644532Y296979D01*
X644485Y296942D01*
X644435Y296908D01*
X644383Y296877D01*
X644329Y296850D01*
X644274Y296826D01*
X644217Y296806D01*
X644159Y296790D01*
X644100Y296777D01*
X644041Y296768D01*
X643981Y296763D01*
X643921Y296762D01*
X643765Y296766D01*
X643610Y296774D01*
X643455Y296786D01*
X643301Y296802D01*
X643146Y296822D01*
X642993Y296846D01*
X642840Y296874D01*
X642688Y296905D01*
X642537Y296941D01*
X642386Y296980D01*
X642237Y297024D01*
X642089Y297071D01*
X641942Y297121D01*
X648566Y296762D02*
X648566Y303238D01*
X651444Y301079D02*
X648566Y298921D01*
X649825Y299820D02*
X651444Y296762D01*
X654181Y296762D02*
X654181Y301079D01*
X654001Y302878D02*
X654001Y303238D01*
X654361Y303238D01*
X654361Y302878D01*
X654001Y302878D01*
X659341Y296762D02*
X659416Y296764D01*
X659491Y296770D01*
X659566Y296780D01*
X659640Y296793D01*
X659713Y296811D01*
X659786Y296832D01*
X659857Y296858D01*
X659926Y296886D01*
X659994Y296919D01*
X660061Y296955D01*
X660125Y296994D01*
X660187Y297037D01*
X660247Y297083D01*
X660304Y297132D01*
X660359Y297183D01*
X660410Y297238D01*
X660459Y297295D01*
X660505Y297355D01*
X660548Y297417D01*
X660587Y297482D01*
X660623Y297548D01*
X660656Y297616D01*
X660684Y297685D01*
X660710Y297756D01*
X660731Y297829D01*
X660749Y297902D01*
X660762Y297976D01*
X660772Y298051D01*
X660778Y298126D01*
X660780Y298201D01*
X659340Y296762D02*
X659231Y296764D01*
X659122Y296770D01*
X659013Y296780D01*
X658905Y296793D01*
X658797Y296811D01*
X658690Y296832D01*
X658584Y296857D01*
X658479Y296886D01*
X658375Y296919D01*
X658272Y296956D01*
X658171Y296996D01*
X658071Y297040D01*
X657973Y297087D01*
X657876Y297138D01*
X657781Y297192D01*
X657689Y297250D01*
X657598Y297311D01*
X657510Y297375D01*
X657424Y297442D01*
X657340Y297512D01*
X657260Y297585D01*
X657181Y297661D01*
X657362Y301799D02*
X657364Y301874D01*
X657370Y301949D01*
X657380Y302024D01*
X657393Y302098D01*
X657411Y302171D01*
X657432Y302244D01*
X657458Y302315D01*
X657486Y302384D01*
X657519Y302452D01*
X657555Y302519D01*
X657594Y302583D01*
X657637Y302645D01*
X657683Y302705D01*
X657732Y302762D01*
X657783Y302817D01*
X657838Y302868D01*
X657895Y302917D01*
X657955Y302963D01*
X658017Y303006D01*
X658082Y303045D01*
X658148Y303081D01*
X658216Y303114D01*
X658285Y303142D01*
X658356Y303168D01*
X658429Y303189D01*
X658502Y303207D01*
X658576Y303220D01*
X658651Y303230D01*
X658726Y303236D01*
X658801Y303238D01*
X658903Y303236D01*
X659005Y303230D01*
X659107Y303221D01*
X659208Y303207D01*
X659309Y303190D01*
X659409Y303169D01*
X659508Y303144D01*
X659606Y303115D01*
X659703Y303083D01*
X659798Y303047D01*
X659892Y303007D01*
X659985Y302964D01*
X660076Y302918D01*
X660165Y302868D01*
X660252Y302815D01*
X660337Y302758D01*
X660420Y302698D01*
X658081Y300539D02*
X658016Y300580D01*
X657954Y300623D01*
X657894Y300670D01*
X657837Y300720D01*
X657782Y300772D01*
X657730Y300828D01*
X657681Y300886D01*
X657636Y300946D01*
X657593Y301009D01*
X657554Y301074D01*
X657518Y301140D01*
X657485Y301209D01*
X657456Y301279D01*
X657431Y301351D01*
X657410Y301424D01*
X657392Y301498D01*
X657379Y301572D01*
X657369Y301647D01*
X657363Y301723D01*
X657361Y301799D01*
X660060Y299461D02*
X660125Y299420D01*
X660187Y299377D01*
X660247Y299330D01*
X660304Y299280D01*
X660359Y299228D01*
X660411Y299172D01*
X660460Y299114D01*
X660505Y299054D01*
X660548Y298991D01*
X660587Y298926D01*
X660623Y298860D01*
X660656Y298791D01*
X660685Y298721D01*
X660710Y298649D01*
X660731Y298576D01*
X660749Y298502D01*
X660762Y298428D01*
X660772Y298353D01*
X660778Y298277D01*
X660780Y298201D01*
X660060Y299460D02*
X658081Y300540D01*
X665218Y299280D02*
X666837Y299280D01*
X665218Y299280D02*
X665149Y299278D01*
X665079Y299272D01*
X665011Y299263D01*
X664943Y299250D01*
X664875Y299232D01*
X664809Y299212D01*
X664744Y299187D01*
X664681Y299160D01*
X664619Y299128D01*
X664559Y299094D01*
X664501Y299056D01*
X664445Y299015D01*
X664391Y298970D01*
X664340Y298923D01*
X664292Y298874D01*
X664246Y298821D01*
X664204Y298767D01*
X664164Y298710D01*
X664128Y298651D01*
X664095Y298589D01*
X664065Y298527D01*
X664039Y298462D01*
X664016Y298397D01*
X663998Y298330D01*
X663982Y298262D01*
X663971Y298194D01*
X663963Y298125D01*
X663959Y298056D01*
X663959Y297986D01*
X663963Y297917D01*
X663971Y297848D01*
X663982Y297780D01*
X663998Y297712D01*
X664016Y297645D01*
X664039Y297580D01*
X664065Y297515D01*
X664095Y297453D01*
X664128Y297392D01*
X664164Y297332D01*
X664204Y297275D01*
X664246Y297221D01*
X664292Y297168D01*
X664340Y297119D01*
X664391Y297072D01*
X664445Y297027D01*
X664501Y296986D01*
X664559Y296948D01*
X664619Y296914D01*
X664681Y296882D01*
X664744Y296855D01*
X664809Y296830D01*
X664875Y296810D01*
X664943Y296792D01*
X665011Y296779D01*
X665079Y296770D01*
X665149Y296764D01*
X665218Y296762D01*
X666837Y296762D01*
X666837Y300000D01*
X666835Y300063D01*
X666830Y300125D01*
X666821Y300187D01*
X666808Y300249D01*
X666792Y300309D01*
X666772Y300369D01*
X666749Y300427D01*
X666722Y300484D01*
X666692Y300540D01*
X666659Y300593D01*
X666623Y300644D01*
X666585Y300694D01*
X666543Y300740D01*
X666498Y300785D01*
X666452Y300827D01*
X666402Y300865D01*
X666351Y300901D01*
X666298Y300934D01*
X666242Y300964D01*
X666185Y300991D01*
X666127Y301014D01*
X666067Y301034D01*
X666007Y301050D01*
X665945Y301063D01*
X665883Y301072D01*
X665821Y301077D01*
X665758Y301079D01*
X664319Y301079D01*
X669803Y301079D02*
X671962Y301079D01*
X670523Y303238D02*
X670523Y297841D01*
X670525Y297778D01*
X670530Y297716D01*
X670539Y297654D01*
X670552Y297592D01*
X670568Y297532D01*
X670588Y297472D01*
X670611Y297414D01*
X670638Y297357D01*
X670668Y297301D01*
X670701Y297248D01*
X670737Y297197D01*
X670775Y297147D01*
X670817Y297101D01*
X670862Y297056D01*
X670908Y297014D01*
X670958Y296975D01*
X671009Y296939D01*
X671063Y296907D01*
X671118Y296877D01*
X671175Y296850D01*
X671233Y296827D01*
X671293Y296807D01*
X671353Y296791D01*
X671415Y296778D01*
X671477Y296769D01*
X671539Y296764D01*
X671602Y296762D01*
X671962Y296762D01*
X613262Y291238D02*
X613262Y284762D01*
X613262Y291238D02*
X615061Y291238D01*
X615144Y291236D01*
X615227Y291230D01*
X615310Y291221D01*
X615392Y291207D01*
X615473Y291190D01*
X615553Y291169D01*
X615633Y291145D01*
X615711Y291117D01*
X615788Y291085D01*
X615863Y291049D01*
X615936Y291011D01*
X616008Y290969D01*
X616078Y290923D01*
X616145Y290875D01*
X616210Y290823D01*
X616273Y290768D01*
X616333Y290711D01*
X616390Y290651D01*
X616445Y290588D01*
X616497Y290523D01*
X616545Y290456D01*
X616591Y290386D01*
X616633Y290314D01*
X616671Y290241D01*
X616707Y290166D01*
X616739Y290089D01*
X616767Y290011D01*
X616791Y289931D01*
X616812Y289851D01*
X616829Y289770D01*
X616843Y289688D01*
X616852Y289605D01*
X616858Y289522D01*
X616860Y289439D01*
X616858Y289356D01*
X616852Y289273D01*
X616843Y289190D01*
X616829Y289108D01*
X616812Y289027D01*
X616791Y288947D01*
X616767Y288867D01*
X616739Y288789D01*
X616707Y288712D01*
X616671Y288637D01*
X616633Y288564D01*
X616591Y288492D01*
X616545Y288422D01*
X616497Y288355D01*
X616445Y288290D01*
X616390Y288227D01*
X616333Y288167D01*
X616273Y288110D01*
X616210Y288055D01*
X616145Y288003D01*
X616078Y287955D01*
X616008Y287909D01*
X615936Y287867D01*
X615863Y287829D01*
X615788Y287793D01*
X615711Y287761D01*
X615633Y287733D01*
X615553Y287709D01*
X615473Y287688D01*
X615392Y287671D01*
X615310Y287657D01*
X615227Y287648D01*
X615144Y287642D01*
X615061Y287640D01*
X613262Y287640D01*
X620232Y289079D02*
X620232Y284762D01*
X620232Y289079D02*
X622391Y289079D01*
X622391Y288360D01*
X624961Y287640D02*
X624961Y286201D01*
X624961Y287640D02*
X624963Y287715D01*
X624969Y287790D01*
X624979Y287865D01*
X624992Y287939D01*
X625010Y288012D01*
X625031Y288085D01*
X625057Y288156D01*
X625085Y288225D01*
X625118Y288293D01*
X625154Y288360D01*
X625193Y288424D01*
X625236Y288486D01*
X625282Y288546D01*
X625331Y288603D01*
X625382Y288658D01*
X625437Y288709D01*
X625494Y288758D01*
X625554Y288804D01*
X625616Y288847D01*
X625681Y288886D01*
X625747Y288922D01*
X625815Y288955D01*
X625884Y288983D01*
X625955Y289009D01*
X626028Y289030D01*
X626101Y289048D01*
X626175Y289061D01*
X626250Y289071D01*
X626325Y289077D01*
X626400Y289079D01*
X626475Y289077D01*
X626550Y289071D01*
X626625Y289061D01*
X626699Y289048D01*
X626772Y289030D01*
X626845Y289009D01*
X626916Y288983D01*
X626985Y288955D01*
X627053Y288922D01*
X627120Y288886D01*
X627184Y288847D01*
X627246Y288804D01*
X627306Y288758D01*
X627363Y288709D01*
X627418Y288658D01*
X627469Y288603D01*
X627518Y288546D01*
X627564Y288486D01*
X627607Y288424D01*
X627646Y288360D01*
X627682Y288293D01*
X627715Y288225D01*
X627743Y288156D01*
X627769Y288085D01*
X627790Y288012D01*
X627808Y287939D01*
X627821Y287865D01*
X627831Y287790D01*
X627837Y287715D01*
X627839Y287640D01*
X627840Y287640D02*
X627840Y286201D01*
X627839Y286201D02*
X627837Y286126D01*
X627831Y286051D01*
X627821Y285976D01*
X627808Y285902D01*
X627790Y285829D01*
X627769Y285756D01*
X627743Y285685D01*
X627715Y285616D01*
X627682Y285548D01*
X627646Y285482D01*
X627607Y285417D01*
X627564Y285355D01*
X627518Y285295D01*
X627469Y285238D01*
X627418Y285183D01*
X627363Y285132D01*
X627306Y285083D01*
X627246Y285037D01*
X627184Y284994D01*
X627120Y284955D01*
X627053Y284919D01*
X626985Y284886D01*
X626916Y284858D01*
X626845Y284832D01*
X626772Y284811D01*
X626699Y284793D01*
X626625Y284780D01*
X626550Y284770D01*
X626475Y284764D01*
X626400Y284762D01*
X626325Y284764D01*
X626250Y284770D01*
X626175Y284780D01*
X626101Y284793D01*
X626028Y284811D01*
X625955Y284832D01*
X625884Y284858D01*
X625815Y284886D01*
X625747Y284919D01*
X625681Y284955D01*
X625616Y284994D01*
X625554Y285037D01*
X625494Y285083D01*
X625437Y285132D01*
X625382Y285183D01*
X625331Y285238D01*
X625282Y285295D01*
X625236Y285355D01*
X625193Y285417D01*
X625154Y285482D01*
X625118Y285548D01*
X625085Y285616D01*
X625057Y285685D01*
X625031Y285756D01*
X625010Y285829D01*
X624992Y285902D01*
X624979Y285976D01*
X624969Y286051D01*
X624963Y286126D01*
X624961Y286201D01*
X630503Y289079D02*
X632661Y289079D01*
X631222Y291238D02*
X631222Y285841D01*
X631223Y285841D02*
X631225Y285778D01*
X631230Y285716D01*
X631239Y285654D01*
X631252Y285592D01*
X631268Y285532D01*
X631288Y285472D01*
X631311Y285414D01*
X631338Y285357D01*
X631368Y285301D01*
X631401Y285248D01*
X631437Y285197D01*
X631475Y285147D01*
X631517Y285101D01*
X631562Y285056D01*
X631608Y285014D01*
X631658Y284975D01*
X631709Y284939D01*
X631763Y284907D01*
X631818Y284877D01*
X631875Y284850D01*
X631933Y284827D01*
X631993Y284807D01*
X632053Y284791D01*
X632115Y284778D01*
X632177Y284769D01*
X632239Y284764D01*
X632302Y284762D01*
X632661Y284762D01*
X635761Y286201D02*
X635761Y287640D01*
X635763Y287715D01*
X635769Y287790D01*
X635779Y287865D01*
X635792Y287939D01*
X635810Y288012D01*
X635831Y288085D01*
X635857Y288156D01*
X635885Y288225D01*
X635918Y288293D01*
X635954Y288360D01*
X635993Y288424D01*
X636036Y288486D01*
X636082Y288546D01*
X636131Y288603D01*
X636182Y288658D01*
X636237Y288709D01*
X636294Y288758D01*
X636354Y288804D01*
X636416Y288847D01*
X636481Y288886D01*
X636547Y288922D01*
X636615Y288955D01*
X636684Y288983D01*
X636755Y289009D01*
X636828Y289030D01*
X636901Y289048D01*
X636975Y289061D01*
X637050Y289071D01*
X637125Y289077D01*
X637200Y289079D01*
X637275Y289077D01*
X637350Y289071D01*
X637425Y289061D01*
X637499Y289048D01*
X637572Y289030D01*
X637645Y289009D01*
X637716Y288983D01*
X637785Y288955D01*
X637853Y288922D01*
X637920Y288886D01*
X637984Y288847D01*
X638046Y288804D01*
X638106Y288758D01*
X638163Y288709D01*
X638218Y288658D01*
X638269Y288603D01*
X638318Y288546D01*
X638364Y288486D01*
X638407Y288424D01*
X638446Y288360D01*
X638482Y288293D01*
X638515Y288225D01*
X638543Y288156D01*
X638569Y288085D01*
X638590Y288012D01*
X638608Y287939D01*
X638621Y287865D01*
X638631Y287790D01*
X638637Y287715D01*
X638639Y287640D01*
X638640Y287640D02*
X638640Y286201D01*
X638639Y286201D02*
X638637Y286126D01*
X638631Y286051D01*
X638621Y285976D01*
X638608Y285902D01*
X638590Y285829D01*
X638569Y285756D01*
X638543Y285685D01*
X638515Y285616D01*
X638482Y285548D01*
X638446Y285482D01*
X638407Y285417D01*
X638364Y285355D01*
X638318Y285295D01*
X638269Y285238D01*
X638218Y285183D01*
X638163Y285132D01*
X638106Y285083D01*
X638046Y285037D01*
X637984Y284994D01*
X637920Y284955D01*
X637853Y284919D01*
X637785Y284886D01*
X637716Y284858D01*
X637645Y284832D01*
X637572Y284811D01*
X637499Y284793D01*
X637425Y284780D01*
X637350Y284770D01*
X637275Y284764D01*
X637200Y284762D01*
X637125Y284764D01*
X637050Y284770D01*
X636975Y284780D01*
X636901Y284793D01*
X636828Y284811D01*
X636755Y284832D01*
X636684Y284858D01*
X636615Y284886D01*
X636547Y284919D01*
X636481Y284955D01*
X636416Y284994D01*
X636354Y285037D01*
X636294Y285083D01*
X636237Y285132D01*
X636182Y285183D01*
X636131Y285238D01*
X636082Y285295D01*
X636036Y285355D01*
X635993Y285417D01*
X635954Y285482D01*
X635918Y285548D01*
X635885Y285616D01*
X635857Y285685D01*
X635831Y285756D01*
X635810Y285829D01*
X635792Y285902D01*
X635779Y285976D01*
X635769Y286051D01*
X635763Y286126D01*
X635761Y286201D01*
X641303Y289079D02*
X643461Y289079D01*
X642022Y291238D02*
X642022Y285841D01*
X642023Y285841D02*
X642025Y285778D01*
X642030Y285716D01*
X642039Y285654D01*
X642052Y285592D01*
X642068Y285532D01*
X642088Y285472D01*
X642111Y285414D01*
X642138Y285357D01*
X642168Y285301D01*
X642201Y285248D01*
X642237Y285197D01*
X642275Y285147D01*
X642317Y285101D01*
X642362Y285056D01*
X642408Y285014D01*
X642458Y284975D01*
X642509Y284939D01*
X642563Y284907D01*
X642618Y284877D01*
X642675Y284850D01*
X642733Y284827D01*
X642793Y284807D01*
X642853Y284791D01*
X642915Y284778D01*
X642977Y284769D01*
X643039Y284764D01*
X643102Y284762D01*
X643461Y284762D01*
X646321Y282603D02*
X647041Y282603D01*
X649199Y289079D01*
X646321Y289079D02*
X647760Y284762D01*
X652624Y282603D02*
X652624Y289079D01*
X654423Y289079D01*
X654488Y289077D01*
X654553Y289071D01*
X654617Y289061D01*
X654681Y289048D01*
X654744Y289030D01*
X654806Y289009D01*
X654866Y288984D01*
X654924Y288955D01*
X654981Y288923D01*
X655036Y288888D01*
X655088Y288849D01*
X655138Y288808D01*
X655186Y288763D01*
X655231Y288716D01*
X655272Y288665D01*
X655311Y288613D01*
X655346Y288558D01*
X655378Y288501D01*
X655407Y288443D01*
X655432Y288383D01*
X655453Y288321D01*
X655471Y288258D01*
X655484Y288195D01*
X655494Y288130D01*
X655500Y288065D01*
X655502Y288000D01*
X655502Y285841D01*
X655500Y285778D01*
X655495Y285716D01*
X655486Y285654D01*
X655473Y285592D01*
X655457Y285532D01*
X655437Y285472D01*
X655414Y285414D01*
X655387Y285357D01*
X655357Y285302D01*
X655324Y285248D01*
X655288Y285197D01*
X655250Y285147D01*
X655208Y285101D01*
X655163Y285056D01*
X655117Y285014D01*
X655067Y284976D01*
X655016Y284940D01*
X654963Y284907D01*
X654907Y284877D01*
X654850Y284850D01*
X654792Y284827D01*
X654732Y284807D01*
X654672Y284791D01*
X654610Y284778D01*
X654548Y284769D01*
X654486Y284764D01*
X654423Y284762D01*
X652624Y284762D01*
X659881Y284762D02*
X661679Y284762D01*
X659881Y284762D02*
X659818Y284764D01*
X659756Y284769D01*
X659694Y284778D01*
X659632Y284791D01*
X659572Y284807D01*
X659512Y284827D01*
X659454Y284850D01*
X659397Y284877D01*
X659342Y284907D01*
X659288Y284940D01*
X659237Y284976D01*
X659187Y285014D01*
X659141Y285056D01*
X659096Y285101D01*
X659054Y285147D01*
X659016Y285197D01*
X658980Y285248D01*
X658947Y285302D01*
X658917Y285357D01*
X658890Y285414D01*
X658867Y285472D01*
X658847Y285532D01*
X658831Y285592D01*
X658818Y285654D01*
X658809Y285716D01*
X658804Y285778D01*
X658802Y285841D01*
X658801Y285841D02*
X658801Y287640D01*
X658803Y287715D01*
X658809Y287790D01*
X658819Y287865D01*
X658832Y287939D01*
X658850Y288012D01*
X658871Y288085D01*
X658897Y288156D01*
X658925Y288225D01*
X658958Y288293D01*
X658994Y288360D01*
X659033Y288424D01*
X659076Y288486D01*
X659122Y288546D01*
X659171Y288603D01*
X659222Y288658D01*
X659277Y288709D01*
X659334Y288758D01*
X659394Y288804D01*
X659456Y288847D01*
X659521Y288886D01*
X659587Y288922D01*
X659655Y288955D01*
X659724Y288983D01*
X659795Y289009D01*
X659868Y289030D01*
X659941Y289048D01*
X660015Y289061D01*
X660090Y289071D01*
X660165Y289077D01*
X660240Y289079D01*
X660315Y289077D01*
X660390Y289071D01*
X660465Y289061D01*
X660539Y289048D01*
X660612Y289030D01*
X660685Y289009D01*
X660756Y288983D01*
X660825Y288955D01*
X660893Y288922D01*
X660960Y288886D01*
X661024Y288847D01*
X661086Y288804D01*
X661146Y288758D01*
X661203Y288709D01*
X661258Y288658D01*
X661309Y288603D01*
X661358Y288546D01*
X661404Y288486D01*
X661447Y288424D01*
X661486Y288360D01*
X661522Y288293D01*
X661555Y288225D01*
X661583Y288156D01*
X661609Y288085D01*
X661630Y288012D01*
X661648Y287939D01*
X661661Y287865D01*
X661671Y287790D01*
X661677Y287715D01*
X661679Y287640D01*
X661679Y286921D01*
X658801Y286921D01*
X667140Y291238D02*
X667219Y291236D01*
X667299Y291230D01*
X667378Y291220D01*
X667456Y291207D01*
X667533Y291189D01*
X667610Y291168D01*
X667685Y291143D01*
X667760Y291115D01*
X667832Y291083D01*
X667903Y291047D01*
X667972Y291008D01*
X668039Y290965D01*
X668104Y290919D01*
X668167Y290871D01*
X668227Y290819D01*
X668285Y290764D01*
X668340Y290706D01*
X668392Y290646D01*
X668440Y290583D01*
X668486Y290518D01*
X668529Y290451D01*
X668568Y290382D01*
X668604Y290311D01*
X668636Y290239D01*
X668664Y290164D01*
X668689Y290089D01*
X668710Y290012D01*
X668728Y289935D01*
X668741Y289857D01*
X668751Y289778D01*
X668757Y289698D01*
X668759Y289619D01*
X667140Y291238D02*
X667050Y291236D01*
X666960Y291230D01*
X666870Y291220D01*
X666781Y291207D01*
X666693Y291189D01*
X666605Y291168D01*
X666518Y291143D01*
X666433Y291114D01*
X666349Y291082D01*
X666266Y291045D01*
X666185Y291006D01*
X666106Y290963D01*
X666029Y290916D01*
X665953Y290866D01*
X665880Y290813D01*
X665810Y290757D01*
X665742Y290698D01*
X665676Y290636D01*
X665614Y290571D01*
X665554Y290503D01*
X665497Y290433D01*
X665443Y290361D01*
X665393Y290286D01*
X665345Y290210D01*
X665301Y290131D01*
X665261Y290050D01*
X665224Y289968D01*
X665191Y289884D01*
X665161Y289799D01*
X668219Y288360D02*
X668275Y288415D01*
X668328Y288473D01*
X668378Y288533D01*
X668425Y288595D01*
X668470Y288659D01*
X668512Y288725D01*
X668550Y288793D01*
X668586Y288863D01*
X668618Y288934D01*
X668648Y289007D01*
X668673Y289080D01*
X668696Y289155D01*
X668715Y289231D01*
X668731Y289308D01*
X668743Y289385D01*
X668752Y289463D01*
X668757Y289541D01*
X668759Y289619D01*
X668220Y288360D02*
X665161Y284762D01*
X668759Y284762D01*
X617579Y275280D02*
X613262Y275280D01*
X621422Y275280D02*
X625739Y275280D01*
X629582Y275280D02*
X633899Y275280D01*
X637742Y275280D02*
X642059Y275280D01*
X645902Y275280D02*
X650219Y275280D01*
X654062Y275280D02*
X658379Y275280D01*
X662222Y275280D02*
X666539Y275280D01*
X670382Y275280D02*
X674699Y275280D01*
X616140Y260762D02*
X613262Y260762D01*
X613262Y267238D01*
X616140Y267238D01*
X615421Y264360D02*
X613262Y264360D01*
X619358Y265079D02*
X619358Y261841D01*
X619360Y261778D01*
X619365Y261716D01*
X619374Y261654D01*
X619387Y261592D01*
X619403Y261532D01*
X619423Y261472D01*
X619446Y261414D01*
X619473Y261357D01*
X619503Y261302D01*
X619536Y261248D01*
X619572Y261197D01*
X619610Y261147D01*
X619652Y261101D01*
X619697Y261056D01*
X619743Y261014D01*
X619793Y260976D01*
X619844Y260940D01*
X619898Y260907D01*
X619953Y260877D01*
X620010Y260850D01*
X620068Y260827D01*
X620128Y260807D01*
X620188Y260791D01*
X620250Y260778D01*
X620312Y260769D01*
X620374Y260764D01*
X620437Y260762D01*
X622236Y260762D01*
X622236Y265079D01*
X626148Y265079D02*
X626148Y260762D01*
X626148Y265079D02*
X628307Y265079D01*
X628307Y264360D01*
X630878Y263640D02*
X630878Y262201D01*
X630878Y263640D02*
X630880Y263715D01*
X630886Y263790D01*
X630896Y263865D01*
X630909Y263939D01*
X630927Y264012D01*
X630948Y264085D01*
X630974Y264156D01*
X631002Y264225D01*
X631035Y264293D01*
X631071Y264360D01*
X631110Y264424D01*
X631153Y264486D01*
X631199Y264546D01*
X631248Y264603D01*
X631299Y264658D01*
X631354Y264709D01*
X631411Y264758D01*
X631471Y264804D01*
X631533Y264847D01*
X631598Y264886D01*
X631664Y264922D01*
X631732Y264955D01*
X631801Y264983D01*
X631872Y265009D01*
X631945Y265030D01*
X632018Y265048D01*
X632092Y265061D01*
X632167Y265071D01*
X632242Y265077D01*
X632317Y265079D01*
X632392Y265077D01*
X632467Y265071D01*
X632542Y265061D01*
X632616Y265048D01*
X632689Y265030D01*
X632762Y265009D01*
X632833Y264983D01*
X632902Y264955D01*
X632970Y264922D01*
X633037Y264886D01*
X633101Y264847D01*
X633163Y264804D01*
X633223Y264758D01*
X633280Y264709D01*
X633335Y264658D01*
X633386Y264603D01*
X633435Y264546D01*
X633481Y264486D01*
X633524Y264424D01*
X633563Y264360D01*
X633599Y264293D01*
X633632Y264225D01*
X633660Y264156D01*
X633686Y264085D01*
X633707Y264012D01*
X633725Y263939D01*
X633738Y263865D01*
X633748Y263790D01*
X633754Y263715D01*
X633756Y263640D01*
X633756Y262201D01*
X633754Y262126D01*
X633748Y262051D01*
X633738Y261976D01*
X633725Y261902D01*
X633707Y261829D01*
X633686Y261756D01*
X633660Y261685D01*
X633632Y261616D01*
X633599Y261548D01*
X633563Y261482D01*
X633524Y261417D01*
X633481Y261355D01*
X633435Y261295D01*
X633386Y261238D01*
X633335Y261183D01*
X633280Y261132D01*
X633223Y261083D01*
X633163Y261037D01*
X633101Y260994D01*
X633037Y260955D01*
X632970Y260919D01*
X632902Y260886D01*
X632833Y260858D01*
X632762Y260832D01*
X632689Y260811D01*
X632616Y260793D01*
X632542Y260780D01*
X632467Y260770D01*
X632392Y260764D01*
X632317Y260762D01*
X632242Y260764D01*
X632167Y260770D01*
X632092Y260780D01*
X632018Y260793D01*
X631945Y260811D01*
X631872Y260832D01*
X631801Y260858D01*
X631732Y260886D01*
X631664Y260919D01*
X631598Y260955D01*
X631533Y260994D01*
X631471Y261037D01*
X631411Y261083D01*
X631354Y261132D01*
X631299Y261183D01*
X631248Y261238D01*
X631199Y261295D01*
X631153Y261355D01*
X631110Y261417D01*
X631071Y261482D01*
X631035Y261548D01*
X631002Y261616D01*
X630974Y261685D01*
X630948Y261756D01*
X630927Y261829D01*
X630909Y261902D01*
X630896Y261976D01*
X630886Y262051D01*
X630880Y262126D01*
X630878Y262201D01*
X637420Y265079D02*
X637420Y258603D01*
X637420Y265079D02*
X639219Y265079D01*
X639284Y265077D01*
X639349Y265071D01*
X639413Y265061D01*
X639477Y265048D01*
X639540Y265030D01*
X639602Y265009D01*
X639662Y264984D01*
X639720Y264955D01*
X639777Y264923D01*
X639832Y264888D01*
X639884Y264849D01*
X639934Y264808D01*
X639982Y264763D01*
X640027Y264716D01*
X640068Y264665D01*
X640107Y264613D01*
X640142Y264558D01*
X640174Y264501D01*
X640203Y264443D01*
X640228Y264383D01*
X640249Y264321D01*
X640267Y264258D01*
X640280Y264195D01*
X640290Y264130D01*
X640296Y264065D01*
X640298Y264000D01*
X640299Y264000D02*
X640299Y261841D01*
X640298Y261841D02*
X640296Y261778D01*
X640291Y261716D01*
X640282Y261654D01*
X640269Y261592D01*
X640253Y261532D01*
X640233Y261472D01*
X640210Y261414D01*
X640183Y261357D01*
X640153Y261302D01*
X640120Y261248D01*
X640084Y261197D01*
X640046Y261147D01*
X640004Y261101D01*
X639959Y261056D01*
X639913Y261014D01*
X639863Y260976D01*
X639812Y260940D01*
X639759Y260907D01*
X639703Y260877D01*
X639646Y260850D01*
X639588Y260827D01*
X639528Y260807D01*
X639468Y260791D01*
X639406Y260778D01*
X639344Y260769D01*
X639282Y260764D01*
X639219Y260762D01*
X637420Y260762D01*
X644677Y260762D02*
X646476Y260762D01*
X644677Y260762D02*
X644614Y260764D01*
X644552Y260769D01*
X644490Y260778D01*
X644428Y260791D01*
X644368Y260807D01*
X644308Y260827D01*
X644250Y260850D01*
X644193Y260877D01*
X644138Y260907D01*
X644084Y260940D01*
X644033Y260976D01*
X643983Y261014D01*
X643937Y261056D01*
X643892Y261101D01*
X643850Y261147D01*
X643812Y261197D01*
X643776Y261248D01*
X643743Y261302D01*
X643713Y261357D01*
X643686Y261414D01*
X643663Y261472D01*
X643643Y261532D01*
X643627Y261592D01*
X643614Y261654D01*
X643605Y261716D01*
X643600Y261778D01*
X643598Y261841D01*
X643598Y263640D01*
X643600Y263715D01*
X643606Y263790D01*
X643616Y263865D01*
X643629Y263939D01*
X643647Y264012D01*
X643668Y264085D01*
X643694Y264156D01*
X643722Y264225D01*
X643755Y264293D01*
X643791Y264360D01*
X643830Y264424D01*
X643873Y264486D01*
X643919Y264546D01*
X643968Y264603D01*
X644019Y264658D01*
X644074Y264709D01*
X644131Y264758D01*
X644191Y264804D01*
X644253Y264847D01*
X644318Y264886D01*
X644384Y264922D01*
X644452Y264955D01*
X644521Y264983D01*
X644592Y265009D01*
X644665Y265030D01*
X644738Y265048D01*
X644812Y265061D01*
X644887Y265071D01*
X644962Y265077D01*
X645037Y265079D01*
X645112Y265077D01*
X645187Y265071D01*
X645262Y265061D01*
X645336Y265048D01*
X645409Y265030D01*
X645482Y265009D01*
X645553Y264983D01*
X645622Y264955D01*
X645690Y264922D01*
X645757Y264886D01*
X645821Y264847D01*
X645883Y264804D01*
X645943Y264758D01*
X646000Y264709D01*
X646055Y264658D01*
X646106Y264603D01*
X646155Y264546D01*
X646201Y264486D01*
X646244Y264424D01*
X646283Y264360D01*
X646319Y264293D01*
X646352Y264225D01*
X646380Y264156D01*
X646406Y264085D01*
X646427Y264012D01*
X646445Y263939D01*
X646458Y263865D01*
X646468Y263790D01*
X646474Y263715D01*
X646476Y263640D01*
X646476Y262921D01*
X643598Y262921D01*
X651034Y263280D02*
X652653Y263280D01*
X651034Y263280D02*
X650965Y263278D01*
X650895Y263272D01*
X650827Y263263D01*
X650759Y263250D01*
X650691Y263232D01*
X650625Y263212D01*
X650560Y263187D01*
X650497Y263160D01*
X650435Y263128D01*
X650375Y263094D01*
X650317Y263056D01*
X650261Y263015D01*
X650207Y262970D01*
X650156Y262923D01*
X650108Y262874D01*
X650062Y262821D01*
X650020Y262767D01*
X649980Y262710D01*
X649944Y262651D01*
X649911Y262589D01*
X649881Y262527D01*
X649855Y262462D01*
X649832Y262397D01*
X649814Y262330D01*
X649798Y262262D01*
X649787Y262194D01*
X649779Y262125D01*
X649775Y262056D01*
X649775Y261986D01*
X649779Y261917D01*
X649787Y261848D01*
X649798Y261780D01*
X649814Y261712D01*
X649832Y261645D01*
X649855Y261580D01*
X649881Y261515D01*
X649911Y261453D01*
X649944Y261392D01*
X649980Y261332D01*
X650020Y261275D01*
X650062Y261221D01*
X650108Y261168D01*
X650156Y261119D01*
X650207Y261072D01*
X650261Y261027D01*
X650317Y260986D01*
X650375Y260948D01*
X650435Y260914D01*
X650497Y260882D01*
X650560Y260855D01*
X650625Y260830D01*
X650691Y260810D01*
X650759Y260792D01*
X650827Y260779D01*
X650895Y260770D01*
X650965Y260764D01*
X651034Y260762D01*
X652653Y260762D01*
X652653Y264000D01*
X652651Y264063D01*
X652646Y264125D01*
X652637Y264187D01*
X652624Y264249D01*
X652608Y264309D01*
X652588Y264369D01*
X652565Y264427D01*
X652538Y264484D01*
X652508Y264540D01*
X652475Y264593D01*
X652439Y264644D01*
X652401Y264694D01*
X652359Y264740D01*
X652314Y264785D01*
X652268Y264827D01*
X652218Y264865D01*
X652167Y264901D01*
X652114Y264934D01*
X652058Y264964D01*
X652001Y264991D01*
X651943Y265014D01*
X651883Y265034D01*
X651823Y265050D01*
X651761Y265063D01*
X651699Y265072D01*
X651637Y265077D01*
X651574Y265079D01*
X650135Y265079D01*
X656558Y265079D02*
X656558Y260762D01*
X656558Y265079D02*
X658356Y265079D01*
X658421Y265077D01*
X658486Y265071D01*
X658550Y265061D01*
X658614Y265048D01*
X658677Y265030D01*
X658739Y265009D01*
X658799Y264984D01*
X658857Y264955D01*
X658914Y264923D01*
X658969Y264888D01*
X659021Y264849D01*
X659071Y264808D01*
X659119Y264763D01*
X659164Y264716D01*
X659205Y264665D01*
X659244Y264613D01*
X659279Y264558D01*
X659311Y264501D01*
X659340Y264443D01*
X659365Y264383D01*
X659386Y264321D01*
X659404Y264258D01*
X659417Y264195D01*
X659427Y264130D01*
X659433Y264065D01*
X659435Y264000D01*
X659436Y264000D02*
X659436Y260762D01*
X616140Y248762D02*
X614701Y248762D01*
X614626Y248764D01*
X614551Y248770D01*
X614476Y248780D01*
X614402Y248793D01*
X614329Y248811D01*
X614256Y248832D01*
X614185Y248858D01*
X614116Y248886D01*
X614048Y248919D01*
X613982Y248955D01*
X613917Y248994D01*
X613855Y249037D01*
X613795Y249083D01*
X613738Y249132D01*
X613683Y249183D01*
X613632Y249238D01*
X613583Y249295D01*
X613537Y249355D01*
X613494Y249417D01*
X613455Y249482D01*
X613419Y249548D01*
X613386Y249616D01*
X613358Y249685D01*
X613332Y249756D01*
X613311Y249829D01*
X613293Y249902D01*
X613280Y249976D01*
X613270Y250051D01*
X613264Y250126D01*
X613262Y250201D01*
X613262Y253799D01*
X613264Y253874D01*
X613270Y253949D01*
X613280Y254024D01*
X613293Y254098D01*
X613311Y254171D01*
X613332Y254244D01*
X613358Y254315D01*
X613386Y254384D01*
X613419Y254452D01*
X613455Y254518D01*
X613494Y254583D01*
X613537Y254645D01*
X613583Y254705D01*
X613632Y254762D01*
X613683Y254817D01*
X613738Y254868D01*
X613795Y254917D01*
X613855Y254963D01*
X613917Y255006D01*
X613981Y255045D01*
X614048Y255081D01*
X614116Y255114D01*
X614185Y255142D01*
X614256Y255168D01*
X614329Y255189D01*
X614402Y255207D01*
X614476Y255220D01*
X614551Y255230D01*
X614626Y255236D01*
X614701Y255238D01*
X616140Y255238D01*
X620374Y251280D02*
X621993Y251280D01*
X620374Y251280D02*
X620305Y251278D01*
X620235Y251272D01*
X620167Y251263D01*
X620099Y251250D01*
X620031Y251232D01*
X619965Y251212D01*
X619900Y251187D01*
X619837Y251160D01*
X619775Y251128D01*
X619715Y251094D01*
X619657Y251056D01*
X619601Y251015D01*
X619547Y250970D01*
X619496Y250923D01*
X619448Y250874D01*
X619402Y250821D01*
X619360Y250767D01*
X619320Y250710D01*
X619284Y250651D01*
X619251Y250589D01*
X619221Y250527D01*
X619195Y250462D01*
X619172Y250397D01*
X619154Y250330D01*
X619138Y250262D01*
X619127Y250194D01*
X619119Y250125D01*
X619115Y250056D01*
X619115Y249986D01*
X619119Y249917D01*
X619127Y249848D01*
X619138Y249780D01*
X619154Y249712D01*
X619172Y249645D01*
X619195Y249580D01*
X619221Y249515D01*
X619251Y249453D01*
X619284Y249392D01*
X619320Y249332D01*
X619360Y249275D01*
X619402Y249221D01*
X619448Y249168D01*
X619496Y249119D01*
X619547Y249072D01*
X619601Y249027D01*
X619657Y248986D01*
X619715Y248948D01*
X619775Y248914D01*
X619837Y248882D01*
X619900Y248855D01*
X619965Y248830D01*
X620031Y248810D01*
X620099Y248792D01*
X620167Y248779D01*
X620235Y248770D01*
X620305Y248764D01*
X620374Y248762D01*
X621993Y248762D01*
X621993Y252000D01*
X621992Y252000D02*
X621990Y252063D01*
X621985Y252125D01*
X621976Y252187D01*
X621963Y252249D01*
X621947Y252309D01*
X621927Y252369D01*
X621904Y252427D01*
X621877Y252484D01*
X621847Y252540D01*
X621814Y252593D01*
X621778Y252644D01*
X621740Y252694D01*
X621698Y252740D01*
X621653Y252785D01*
X621607Y252827D01*
X621557Y252865D01*
X621506Y252901D01*
X621453Y252934D01*
X621397Y252964D01*
X621340Y252991D01*
X621282Y253014D01*
X621222Y253034D01*
X621162Y253050D01*
X621100Y253063D01*
X621038Y253072D01*
X620976Y253077D01*
X620913Y253079D01*
X619474Y253079D01*
X625897Y253079D02*
X625897Y248762D01*
X625897Y253079D02*
X627696Y253079D01*
X627761Y253077D01*
X627826Y253071D01*
X627890Y253061D01*
X627954Y253048D01*
X628017Y253030D01*
X628079Y253009D01*
X628139Y252984D01*
X628197Y252955D01*
X628254Y252923D01*
X628309Y252888D01*
X628361Y252849D01*
X628411Y252808D01*
X628459Y252763D01*
X628504Y252716D01*
X628545Y252665D01*
X628584Y252613D01*
X628619Y252558D01*
X628651Y252501D01*
X628680Y252443D01*
X628705Y252383D01*
X628726Y252321D01*
X628744Y252258D01*
X628757Y252195D01*
X628767Y252130D01*
X628773Y252065D01*
X628775Y252000D01*
X628775Y248762D01*
X634416Y248762D02*
X634491Y248764D01*
X634566Y248770D01*
X634641Y248780D01*
X634715Y248793D01*
X634788Y248811D01*
X634861Y248832D01*
X634932Y248858D01*
X635001Y248886D01*
X635069Y248919D01*
X635136Y248955D01*
X635200Y248994D01*
X635262Y249037D01*
X635322Y249083D01*
X635379Y249132D01*
X635434Y249183D01*
X635485Y249238D01*
X635534Y249295D01*
X635580Y249355D01*
X635623Y249417D01*
X635662Y249482D01*
X635698Y249548D01*
X635731Y249616D01*
X635759Y249685D01*
X635785Y249756D01*
X635806Y249829D01*
X635824Y249902D01*
X635837Y249976D01*
X635847Y250051D01*
X635853Y250126D01*
X635855Y250201D01*
X634416Y248762D02*
X634307Y248764D01*
X634198Y248770D01*
X634089Y248780D01*
X633981Y248793D01*
X633873Y248811D01*
X633766Y248832D01*
X633660Y248857D01*
X633555Y248886D01*
X633451Y248919D01*
X633348Y248956D01*
X633247Y248996D01*
X633147Y249040D01*
X633049Y249087D01*
X632952Y249138D01*
X632857Y249192D01*
X632765Y249250D01*
X632674Y249311D01*
X632586Y249375D01*
X632500Y249442D01*
X632416Y249512D01*
X632336Y249585D01*
X632257Y249661D01*
X632437Y253799D02*
X632439Y253874D01*
X632445Y253949D01*
X632455Y254024D01*
X632468Y254098D01*
X632486Y254171D01*
X632507Y254244D01*
X632533Y254315D01*
X632561Y254384D01*
X632594Y254452D01*
X632630Y254519D01*
X632669Y254583D01*
X632712Y254645D01*
X632758Y254705D01*
X632807Y254762D01*
X632858Y254817D01*
X632913Y254868D01*
X632970Y254917D01*
X633030Y254963D01*
X633092Y255006D01*
X633157Y255045D01*
X633223Y255081D01*
X633291Y255114D01*
X633360Y255142D01*
X633431Y255168D01*
X633504Y255189D01*
X633577Y255207D01*
X633651Y255220D01*
X633726Y255230D01*
X633801Y255236D01*
X633876Y255238D01*
X633978Y255236D01*
X634080Y255230D01*
X634182Y255221D01*
X634283Y255207D01*
X634384Y255190D01*
X634484Y255169D01*
X634583Y255144D01*
X634681Y255115D01*
X634778Y255083D01*
X634873Y255047D01*
X634967Y255007D01*
X635060Y254964D01*
X635151Y254918D01*
X635240Y254868D01*
X635327Y254815D01*
X635412Y254758D01*
X635495Y254698D01*
X633157Y252539D02*
X633092Y252580D01*
X633030Y252623D01*
X632970Y252670D01*
X632913Y252720D01*
X632858Y252772D01*
X632806Y252828D01*
X632757Y252886D01*
X632712Y252946D01*
X632669Y253009D01*
X632630Y253074D01*
X632594Y253140D01*
X632561Y253209D01*
X632532Y253279D01*
X632507Y253351D01*
X632486Y253424D01*
X632468Y253498D01*
X632455Y253572D01*
X632445Y253647D01*
X632439Y253723D01*
X632437Y253799D01*
X635135Y251461D02*
X635200Y251420D01*
X635262Y251377D01*
X635322Y251330D01*
X635379Y251280D01*
X635434Y251228D01*
X635486Y251172D01*
X635535Y251114D01*
X635580Y251054D01*
X635623Y250991D01*
X635662Y250926D01*
X635698Y250860D01*
X635731Y250791D01*
X635760Y250721D01*
X635785Y250649D01*
X635806Y250576D01*
X635824Y250502D01*
X635837Y250428D01*
X635847Y250353D01*
X635853Y250277D01*
X635855Y250201D01*
X635136Y251460D02*
X633157Y252540D01*
X640294Y251280D02*
X641913Y251280D01*
X640294Y251280D02*
X640225Y251278D01*
X640155Y251272D01*
X640087Y251263D01*
X640019Y251250D01*
X639951Y251232D01*
X639885Y251212D01*
X639820Y251187D01*
X639757Y251160D01*
X639695Y251128D01*
X639635Y251094D01*
X639577Y251056D01*
X639521Y251015D01*
X639467Y250970D01*
X639416Y250923D01*
X639368Y250874D01*
X639322Y250821D01*
X639280Y250767D01*
X639240Y250710D01*
X639204Y250651D01*
X639171Y250589D01*
X639141Y250527D01*
X639115Y250462D01*
X639092Y250397D01*
X639074Y250330D01*
X639058Y250262D01*
X639047Y250194D01*
X639039Y250125D01*
X639035Y250056D01*
X639035Y249986D01*
X639039Y249917D01*
X639047Y249848D01*
X639058Y249780D01*
X639074Y249712D01*
X639092Y249645D01*
X639115Y249580D01*
X639141Y249515D01*
X639171Y249453D01*
X639204Y249392D01*
X639240Y249332D01*
X639280Y249275D01*
X639322Y249221D01*
X639368Y249168D01*
X639416Y249119D01*
X639467Y249072D01*
X639521Y249027D01*
X639577Y248986D01*
X639635Y248948D01*
X639695Y248914D01*
X639757Y248882D01*
X639820Y248855D01*
X639885Y248830D01*
X639951Y248810D01*
X640019Y248792D01*
X640087Y248779D01*
X640155Y248770D01*
X640225Y248764D01*
X640294Y248762D01*
X641913Y248762D01*
X641913Y252000D01*
X641912Y252000D02*
X641910Y252063D01*
X641905Y252125D01*
X641896Y252187D01*
X641883Y252249D01*
X641867Y252309D01*
X641847Y252369D01*
X641824Y252427D01*
X641797Y252484D01*
X641767Y252540D01*
X641734Y252593D01*
X641698Y252644D01*
X641660Y252694D01*
X641618Y252740D01*
X641573Y252785D01*
X641527Y252827D01*
X641477Y252865D01*
X641426Y252901D01*
X641373Y252934D01*
X641317Y252964D01*
X641260Y252991D01*
X641202Y253014D01*
X641142Y253034D01*
X641082Y253050D01*
X641020Y253063D01*
X640958Y253072D01*
X640896Y253077D01*
X640833Y253079D01*
X639394Y253079D01*
X644878Y253079D02*
X647037Y253079D01*
X645598Y255238D02*
X645598Y249841D01*
X645600Y249778D01*
X645605Y249716D01*
X645614Y249654D01*
X645627Y249592D01*
X645643Y249532D01*
X645663Y249472D01*
X645686Y249414D01*
X645713Y249357D01*
X645743Y249301D01*
X645776Y249248D01*
X645812Y249197D01*
X645850Y249147D01*
X645892Y249101D01*
X645937Y249056D01*
X645983Y249014D01*
X646033Y248975D01*
X646084Y248939D01*
X646138Y248907D01*
X646193Y248877D01*
X646250Y248850D01*
X646308Y248827D01*
X646368Y248807D01*
X646428Y248791D01*
X646490Y248778D01*
X646552Y248769D01*
X646614Y248764D01*
X646677Y248762D01*
X647037Y248762D01*
X616140Y236762D02*
X614701Y236762D01*
X614626Y236764D01*
X614551Y236770D01*
X614476Y236780D01*
X614402Y236793D01*
X614329Y236811D01*
X614256Y236832D01*
X614185Y236858D01*
X614116Y236886D01*
X614048Y236919D01*
X613982Y236955D01*
X613917Y236994D01*
X613855Y237037D01*
X613795Y237083D01*
X613738Y237132D01*
X613683Y237183D01*
X613632Y237238D01*
X613583Y237295D01*
X613537Y237355D01*
X613494Y237417D01*
X613455Y237482D01*
X613419Y237548D01*
X613386Y237616D01*
X613358Y237685D01*
X613332Y237756D01*
X613311Y237829D01*
X613293Y237902D01*
X613280Y237976D01*
X613270Y238051D01*
X613264Y238126D01*
X613262Y238201D01*
X613262Y241799D01*
X613264Y241874D01*
X613270Y241949D01*
X613280Y242024D01*
X613293Y242098D01*
X613311Y242171D01*
X613332Y242244D01*
X613358Y242315D01*
X613386Y242384D01*
X613419Y242452D01*
X613455Y242518D01*
X613494Y242583D01*
X613537Y242645D01*
X613583Y242705D01*
X613632Y242762D01*
X613683Y242817D01*
X613738Y242868D01*
X613795Y242917D01*
X613855Y242963D01*
X613917Y243006D01*
X613981Y243045D01*
X614048Y243081D01*
X614116Y243114D01*
X614185Y243142D01*
X614256Y243168D01*
X614329Y243189D01*
X614402Y243207D01*
X614476Y243220D01*
X614551Y243230D01*
X614626Y243236D01*
X614701Y243238D01*
X616140Y243238D01*
X619177Y239640D02*
X619177Y238201D01*
X619177Y239640D02*
X619179Y239715D01*
X619185Y239790D01*
X619195Y239865D01*
X619208Y239939D01*
X619226Y240012D01*
X619247Y240085D01*
X619273Y240156D01*
X619301Y240225D01*
X619334Y240293D01*
X619370Y240360D01*
X619409Y240424D01*
X619452Y240486D01*
X619498Y240546D01*
X619547Y240603D01*
X619598Y240658D01*
X619653Y240709D01*
X619710Y240758D01*
X619770Y240804D01*
X619832Y240847D01*
X619897Y240886D01*
X619963Y240922D01*
X620031Y240955D01*
X620100Y240983D01*
X620171Y241009D01*
X620244Y241030D01*
X620317Y241048D01*
X620391Y241061D01*
X620466Y241071D01*
X620541Y241077D01*
X620616Y241079D01*
X620691Y241077D01*
X620766Y241071D01*
X620841Y241061D01*
X620915Y241048D01*
X620988Y241030D01*
X621061Y241009D01*
X621132Y240983D01*
X621201Y240955D01*
X621269Y240922D01*
X621336Y240886D01*
X621400Y240847D01*
X621462Y240804D01*
X621522Y240758D01*
X621579Y240709D01*
X621634Y240658D01*
X621685Y240603D01*
X621734Y240546D01*
X621780Y240486D01*
X621823Y240424D01*
X621862Y240360D01*
X621898Y240293D01*
X621931Y240225D01*
X621959Y240156D01*
X621985Y240085D01*
X622006Y240012D01*
X622024Y239939D01*
X622037Y239865D01*
X622047Y239790D01*
X622053Y239715D01*
X622055Y239640D01*
X622055Y238201D01*
X622053Y238126D01*
X622047Y238051D01*
X622037Y237976D01*
X622024Y237902D01*
X622006Y237829D01*
X621985Y237756D01*
X621959Y237685D01*
X621931Y237616D01*
X621898Y237548D01*
X621862Y237482D01*
X621823Y237417D01*
X621780Y237355D01*
X621734Y237295D01*
X621685Y237238D01*
X621634Y237183D01*
X621579Y237132D01*
X621522Y237083D01*
X621462Y237037D01*
X621400Y236994D01*
X621336Y236955D01*
X621269Y236919D01*
X621201Y236886D01*
X621132Y236858D01*
X621061Y236832D01*
X620988Y236811D01*
X620915Y236793D01*
X620841Y236780D01*
X620766Y236770D01*
X620691Y236764D01*
X620616Y236762D01*
X620541Y236764D01*
X620466Y236770D01*
X620391Y236780D01*
X620317Y236793D01*
X620244Y236811D01*
X620171Y236832D01*
X620100Y236858D01*
X620031Y236886D01*
X619963Y236919D01*
X619897Y236955D01*
X619832Y236994D01*
X619770Y237037D01*
X619710Y237083D01*
X619653Y237132D01*
X619598Y237183D01*
X619547Y237238D01*
X619498Y237295D01*
X619452Y237355D01*
X619409Y237417D01*
X619370Y237482D01*
X619334Y237548D01*
X619301Y237616D01*
X619273Y237685D01*
X619247Y237756D01*
X619226Y237829D01*
X619208Y237902D01*
X619195Y237976D01*
X619185Y238051D01*
X619179Y238126D01*
X619177Y238201D01*
X625898Y236762D02*
X625898Y241079D01*
X629136Y241079D01*
X629199Y241077D01*
X629261Y241072D01*
X629323Y241063D01*
X629385Y241050D01*
X629445Y241034D01*
X629505Y241014D01*
X629563Y240991D01*
X629620Y240964D01*
X629676Y240934D01*
X629729Y240901D01*
X629780Y240865D01*
X629830Y240827D01*
X629876Y240785D01*
X629921Y240740D01*
X629963Y240694D01*
X630001Y240644D01*
X630037Y240593D01*
X630070Y240540D01*
X630100Y240484D01*
X630127Y240427D01*
X630150Y240369D01*
X630170Y240309D01*
X630186Y240249D01*
X630199Y240187D01*
X630208Y240125D01*
X630213Y240063D01*
X630215Y240000D01*
X630215Y236762D01*
X628056Y236762D02*
X628056Y241079D01*
X634360Y241079D02*
X634360Y234603D01*
X634360Y241079D02*
X636159Y241079D01*
X636224Y241077D01*
X636289Y241071D01*
X636353Y241061D01*
X636417Y241048D01*
X636480Y241030D01*
X636542Y241009D01*
X636602Y240984D01*
X636660Y240955D01*
X636717Y240923D01*
X636772Y240888D01*
X636824Y240849D01*
X636874Y240808D01*
X636922Y240763D01*
X636967Y240716D01*
X637008Y240665D01*
X637047Y240613D01*
X637082Y240558D01*
X637114Y240501D01*
X637143Y240443D01*
X637168Y240383D01*
X637189Y240321D01*
X637207Y240258D01*
X637220Y240195D01*
X637230Y240130D01*
X637236Y240065D01*
X637238Y240000D01*
X637238Y237841D01*
X637236Y237778D01*
X637231Y237716D01*
X637222Y237654D01*
X637209Y237592D01*
X637193Y237532D01*
X637173Y237472D01*
X637150Y237414D01*
X637123Y237357D01*
X637093Y237302D01*
X637060Y237248D01*
X637024Y237197D01*
X636986Y237147D01*
X636944Y237101D01*
X636899Y237056D01*
X636853Y237014D01*
X636803Y236976D01*
X636752Y236940D01*
X636699Y236907D01*
X636643Y236877D01*
X636586Y236850D01*
X636528Y236827D01*
X636468Y236807D01*
X636408Y236791D01*
X636346Y236778D01*
X636284Y236769D01*
X636222Y236764D01*
X636159Y236762D01*
X634360Y236762D01*
X641616Y236762D02*
X643415Y236762D01*
X641616Y236762D02*
X641553Y236764D01*
X641491Y236769D01*
X641429Y236778D01*
X641367Y236791D01*
X641307Y236807D01*
X641247Y236827D01*
X641189Y236850D01*
X641132Y236877D01*
X641077Y236907D01*
X641023Y236940D01*
X640972Y236976D01*
X640922Y237014D01*
X640876Y237056D01*
X640831Y237101D01*
X640789Y237147D01*
X640751Y237197D01*
X640715Y237248D01*
X640682Y237302D01*
X640652Y237357D01*
X640625Y237414D01*
X640602Y237472D01*
X640582Y237532D01*
X640566Y237592D01*
X640553Y237654D01*
X640544Y237716D01*
X640539Y237778D01*
X640537Y237841D01*
X640537Y239640D01*
X640539Y239715D01*
X640545Y239790D01*
X640555Y239865D01*
X640568Y239939D01*
X640586Y240012D01*
X640607Y240085D01*
X640633Y240156D01*
X640661Y240225D01*
X640694Y240293D01*
X640730Y240360D01*
X640769Y240424D01*
X640812Y240486D01*
X640858Y240546D01*
X640907Y240603D01*
X640958Y240658D01*
X641013Y240709D01*
X641070Y240758D01*
X641130Y240804D01*
X641192Y240847D01*
X641257Y240886D01*
X641323Y240922D01*
X641391Y240955D01*
X641460Y240983D01*
X641531Y241009D01*
X641604Y241030D01*
X641677Y241048D01*
X641751Y241061D01*
X641826Y241071D01*
X641901Y241077D01*
X641976Y241079D01*
X642051Y241077D01*
X642126Y241071D01*
X642201Y241061D01*
X642275Y241048D01*
X642348Y241030D01*
X642421Y241009D01*
X642492Y240983D01*
X642561Y240955D01*
X642629Y240922D01*
X642696Y240886D01*
X642760Y240847D01*
X642822Y240804D01*
X642882Y240758D01*
X642939Y240709D01*
X642994Y240658D01*
X643045Y240603D01*
X643094Y240546D01*
X643140Y240486D01*
X643183Y240424D01*
X643222Y240360D01*
X643258Y240293D01*
X643291Y240225D01*
X643319Y240156D01*
X643345Y240085D01*
X643366Y240012D01*
X643384Y239939D01*
X643397Y239865D01*
X643407Y239790D01*
X643413Y239715D01*
X643415Y239640D01*
X643415Y238921D01*
X640537Y238921D01*
X646078Y241079D02*
X648237Y241079D01*
X646798Y243238D02*
X646798Y237841D01*
X646800Y237778D01*
X646805Y237716D01*
X646814Y237654D01*
X646827Y237592D01*
X646843Y237532D01*
X646863Y237472D01*
X646886Y237414D01*
X646913Y237357D01*
X646943Y237301D01*
X646976Y237248D01*
X647012Y237197D01*
X647050Y237147D01*
X647092Y237101D01*
X647137Y237056D01*
X647183Y237014D01*
X647233Y236975D01*
X647284Y236939D01*
X647338Y236907D01*
X647393Y236877D01*
X647450Y236850D01*
X647508Y236827D01*
X647568Y236807D01*
X647628Y236791D01*
X647690Y236778D01*
X647752Y236769D01*
X647814Y236764D01*
X647877Y236762D01*
X648237Y236762D01*
X651096Y236762D02*
X651096Y241079D01*
X650916Y242878D02*
X650916Y243238D01*
X651276Y243238D01*
X651276Y242878D01*
X650916Y242878D01*
X653518Y241079D02*
X655677Y241079D01*
X654238Y243238D02*
X654238Y237841D01*
X654240Y237778D01*
X654245Y237716D01*
X654254Y237654D01*
X654267Y237592D01*
X654283Y237532D01*
X654303Y237472D01*
X654326Y237414D01*
X654353Y237357D01*
X654383Y237301D01*
X654416Y237248D01*
X654452Y237197D01*
X654490Y237147D01*
X654532Y237101D01*
X654577Y237056D01*
X654623Y237014D01*
X654673Y236975D01*
X654724Y236939D01*
X654778Y236907D01*
X654833Y236877D01*
X654890Y236850D01*
X654948Y236827D01*
X655008Y236807D01*
X655068Y236791D01*
X655130Y236778D01*
X655192Y236769D01*
X655254Y236764D01*
X655317Y236762D01*
X655677Y236762D01*
X658777Y238201D02*
X658777Y239640D01*
X658779Y239715D01*
X658785Y239790D01*
X658795Y239865D01*
X658808Y239939D01*
X658826Y240012D01*
X658847Y240085D01*
X658873Y240156D01*
X658901Y240225D01*
X658934Y240293D01*
X658970Y240360D01*
X659009Y240424D01*
X659052Y240486D01*
X659098Y240546D01*
X659147Y240603D01*
X659198Y240658D01*
X659253Y240709D01*
X659310Y240758D01*
X659370Y240804D01*
X659432Y240847D01*
X659497Y240886D01*
X659563Y240922D01*
X659631Y240955D01*
X659700Y240983D01*
X659771Y241009D01*
X659844Y241030D01*
X659917Y241048D01*
X659991Y241061D01*
X660066Y241071D01*
X660141Y241077D01*
X660216Y241079D01*
X660291Y241077D01*
X660366Y241071D01*
X660441Y241061D01*
X660515Y241048D01*
X660588Y241030D01*
X660661Y241009D01*
X660732Y240983D01*
X660801Y240955D01*
X660869Y240922D01*
X660936Y240886D01*
X661000Y240847D01*
X661062Y240804D01*
X661122Y240758D01*
X661179Y240709D01*
X661234Y240658D01*
X661285Y240603D01*
X661334Y240546D01*
X661380Y240486D01*
X661423Y240424D01*
X661462Y240360D01*
X661498Y240293D01*
X661531Y240225D01*
X661559Y240156D01*
X661585Y240085D01*
X661606Y240012D01*
X661624Y239939D01*
X661637Y239865D01*
X661647Y239790D01*
X661653Y239715D01*
X661655Y239640D01*
X661655Y238201D01*
X661653Y238126D01*
X661647Y238051D01*
X661637Y237976D01*
X661624Y237902D01*
X661606Y237829D01*
X661585Y237756D01*
X661559Y237685D01*
X661531Y237616D01*
X661498Y237548D01*
X661462Y237482D01*
X661423Y237417D01*
X661380Y237355D01*
X661334Y237295D01*
X661285Y237238D01*
X661234Y237183D01*
X661179Y237132D01*
X661122Y237083D01*
X661062Y237037D01*
X661000Y236994D01*
X660936Y236955D01*
X660869Y236919D01*
X660801Y236886D01*
X660732Y236858D01*
X660661Y236832D01*
X660588Y236811D01*
X660515Y236793D01*
X660441Y236780D01*
X660366Y236770D01*
X660291Y236764D01*
X660216Y236762D01*
X660141Y236764D01*
X660066Y236770D01*
X659991Y236780D01*
X659917Y236793D01*
X659844Y236811D01*
X659771Y236832D01*
X659700Y236858D01*
X659631Y236886D01*
X659563Y236919D01*
X659497Y236955D01*
X659432Y236994D01*
X659370Y237037D01*
X659310Y237083D01*
X659253Y237132D01*
X659198Y237183D01*
X659147Y237238D01*
X659098Y237295D01*
X659052Y237355D01*
X659009Y237417D01*
X658970Y237482D01*
X658934Y237548D01*
X658901Y237616D01*
X658873Y237685D01*
X658847Y237756D01*
X658826Y237829D01*
X658808Y237902D01*
X658795Y237976D01*
X658785Y238051D01*
X658779Y238126D01*
X658777Y238201D01*
X665257Y236762D02*
X665257Y241079D01*
X667056Y241079D01*
X667121Y241077D01*
X667186Y241071D01*
X667250Y241061D01*
X667314Y241048D01*
X667377Y241030D01*
X667439Y241009D01*
X667499Y240984D01*
X667557Y240955D01*
X667614Y240923D01*
X667669Y240888D01*
X667721Y240849D01*
X667771Y240808D01*
X667819Y240763D01*
X667864Y240716D01*
X667905Y240665D01*
X667944Y240613D01*
X667979Y240558D01*
X668011Y240501D01*
X668040Y240443D01*
X668065Y240383D01*
X668086Y240321D01*
X668104Y240258D01*
X668117Y240195D01*
X668127Y240130D01*
X668133Y240065D01*
X668135Y240000D01*
X668135Y236762D01*
X617579Y227280D02*
X613262Y227280D01*
X621422Y227280D02*
X625739Y227280D01*
X629582Y227280D02*
X633899Y227280D01*
X637742Y227280D02*
X642059Y227280D01*
X645902Y227280D02*
X650219Y227280D01*
X654062Y227280D02*
X658379Y227280D01*
X662222Y227280D02*
X666539Y227280D01*
X670382Y227280D02*
X674699Y227280D01*
X613262Y219238D02*
X613262Y212762D01*
X613262Y219238D02*
X615061Y219238D01*
X615144Y219236D01*
X615227Y219230D01*
X615310Y219221D01*
X615392Y219207D01*
X615473Y219190D01*
X615553Y219169D01*
X615633Y219145D01*
X615711Y219117D01*
X615788Y219085D01*
X615863Y219049D01*
X615936Y219011D01*
X616008Y218969D01*
X616078Y218923D01*
X616145Y218875D01*
X616210Y218823D01*
X616273Y218768D01*
X616333Y218711D01*
X616390Y218651D01*
X616445Y218588D01*
X616497Y218523D01*
X616545Y218456D01*
X616591Y218386D01*
X616633Y218314D01*
X616671Y218241D01*
X616707Y218166D01*
X616739Y218089D01*
X616767Y218011D01*
X616791Y217931D01*
X616812Y217851D01*
X616829Y217770D01*
X616843Y217688D01*
X616852Y217605D01*
X616858Y217522D01*
X616860Y217439D01*
X616858Y217356D01*
X616852Y217273D01*
X616843Y217190D01*
X616829Y217108D01*
X616812Y217027D01*
X616791Y216947D01*
X616767Y216867D01*
X616739Y216789D01*
X616707Y216712D01*
X616671Y216637D01*
X616633Y216564D01*
X616591Y216492D01*
X616545Y216422D01*
X616497Y216355D01*
X616445Y216290D01*
X616390Y216227D01*
X616333Y216167D01*
X616273Y216110D01*
X616210Y216055D01*
X616145Y216003D01*
X616078Y215955D01*
X616008Y215909D01*
X615936Y215867D01*
X615863Y215829D01*
X615788Y215793D01*
X615711Y215761D01*
X615633Y215733D01*
X615553Y215709D01*
X615473Y215688D01*
X615392Y215671D01*
X615310Y215657D01*
X615227Y215648D01*
X615144Y215642D01*
X615061Y215640D01*
X613262Y215640D01*
X619921Y215640D02*
X619921Y214201D01*
X619922Y215640D02*
X619924Y215715D01*
X619930Y215790D01*
X619940Y215865D01*
X619953Y215939D01*
X619971Y216012D01*
X619992Y216085D01*
X620018Y216156D01*
X620046Y216225D01*
X620079Y216293D01*
X620115Y216360D01*
X620154Y216424D01*
X620197Y216486D01*
X620243Y216546D01*
X620292Y216603D01*
X620343Y216658D01*
X620398Y216709D01*
X620455Y216758D01*
X620515Y216804D01*
X620577Y216847D01*
X620642Y216886D01*
X620708Y216922D01*
X620776Y216955D01*
X620845Y216983D01*
X620916Y217009D01*
X620989Y217030D01*
X621062Y217048D01*
X621136Y217061D01*
X621211Y217071D01*
X621286Y217077D01*
X621361Y217079D01*
X621436Y217077D01*
X621511Y217071D01*
X621586Y217061D01*
X621660Y217048D01*
X621733Y217030D01*
X621806Y217009D01*
X621877Y216983D01*
X621946Y216955D01*
X622014Y216922D01*
X622081Y216886D01*
X622145Y216847D01*
X622207Y216804D01*
X622267Y216758D01*
X622324Y216709D01*
X622379Y216658D01*
X622430Y216603D01*
X622479Y216546D01*
X622525Y216486D01*
X622568Y216424D01*
X622607Y216360D01*
X622643Y216293D01*
X622676Y216225D01*
X622704Y216156D01*
X622730Y216085D01*
X622751Y216012D01*
X622769Y215939D01*
X622782Y215865D01*
X622792Y215790D01*
X622798Y215715D01*
X622800Y215640D01*
X622800Y214201D01*
X622798Y214126D01*
X622792Y214051D01*
X622782Y213976D01*
X622769Y213902D01*
X622751Y213829D01*
X622730Y213756D01*
X622704Y213685D01*
X622676Y213616D01*
X622643Y213548D01*
X622607Y213482D01*
X622568Y213417D01*
X622525Y213355D01*
X622479Y213295D01*
X622430Y213238D01*
X622379Y213183D01*
X622324Y213132D01*
X622267Y213083D01*
X622207Y213037D01*
X622145Y212994D01*
X622081Y212955D01*
X622014Y212919D01*
X621946Y212886D01*
X621877Y212858D01*
X621806Y212832D01*
X621733Y212811D01*
X621660Y212793D01*
X621586Y212780D01*
X621511Y212770D01*
X621436Y212764D01*
X621361Y212762D01*
X621286Y212764D01*
X621211Y212770D01*
X621136Y212780D01*
X621062Y212793D01*
X620989Y212811D01*
X620916Y212832D01*
X620845Y212858D01*
X620776Y212886D01*
X620708Y212919D01*
X620642Y212955D01*
X620577Y212994D01*
X620515Y213037D01*
X620455Y213083D01*
X620398Y213132D01*
X620343Y213183D01*
X620292Y213238D01*
X620243Y213295D01*
X620197Y213355D01*
X620154Y213417D01*
X620115Y213482D01*
X620079Y213548D01*
X620046Y213616D01*
X620018Y213685D01*
X619992Y213756D01*
X619971Y213829D01*
X619953Y213902D01*
X619940Y213976D01*
X619930Y214051D01*
X619924Y214126D01*
X619922Y214201D01*
X626155Y213841D02*
X626155Y219238D01*
X626155Y213841D02*
X626157Y213778D01*
X626162Y213716D01*
X626171Y213654D01*
X626184Y213592D01*
X626200Y213532D01*
X626220Y213472D01*
X626243Y213414D01*
X626270Y213357D01*
X626300Y213302D01*
X626333Y213248D01*
X626369Y213197D01*
X626407Y213147D01*
X626449Y213101D01*
X626494Y213056D01*
X626540Y213014D01*
X626590Y212976D01*
X626641Y212940D01*
X626695Y212907D01*
X626750Y212877D01*
X626807Y212850D01*
X626865Y212827D01*
X626925Y212807D01*
X626985Y212791D01*
X627047Y212778D01*
X627109Y212769D01*
X627171Y212764D01*
X627234Y212762D01*
X631198Y215280D02*
X632817Y215280D01*
X631198Y215280D02*
X631129Y215278D01*
X631059Y215272D01*
X630991Y215263D01*
X630923Y215250D01*
X630855Y215232D01*
X630789Y215212D01*
X630724Y215187D01*
X630661Y215160D01*
X630599Y215128D01*
X630539Y215094D01*
X630481Y215056D01*
X630425Y215015D01*
X630371Y214970D01*
X630320Y214923D01*
X630272Y214874D01*
X630226Y214821D01*
X630184Y214767D01*
X630144Y214710D01*
X630108Y214651D01*
X630075Y214589D01*
X630045Y214527D01*
X630019Y214462D01*
X629996Y214397D01*
X629978Y214330D01*
X629962Y214262D01*
X629951Y214194D01*
X629943Y214125D01*
X629939Y214056D01*
X629939Y213986D01*
X629943Y213917D01*
X629951Y213848D01*
X629962Y213780D01*
X629978Y213712D01*
X629996Y213645D01*
X630019Y213580D01*
X630045Y213515D01*
X630075Y213453D01*
X630108Y213392D01*
X630144Y213332D01*
X630184Y213275D01*
X630226Y213221D01*
X630272Y213168D01*
X630320Y213119D01*
X630371Y213072D01*
X630425Y213027D01*
X630481Y212986D01*
X630539Y212948D01*
X630599Y212914D01*
X630661Y212882D01*
X630724Y212855D01*
X630789Y212830D01*
X630855Y212810D01*
X630923Y212792D01*
X630991Y212779D01*
X631059Y212770D01*
X631129Y212764D01*
X631198Y212762D01*
X632817Y212762D01*
X632817Y216000D01*
X632815Y216063D01*
X632810Y216125D01*
X632801Y216187D01*
X632788Y216249D01*
X632772Y216309D01*
X632752Y216369D01*
X632729Y216427D01*
X632702Y216484D01*
X632672Y216540D01*
X632639Y216593D01*
X632603Y216644D01*
X632565Y216694D01*
X632523Y216740D01*
X632478Y216785D01*
X632432Y216827D01*
X632382Y216865D01*
X632331Y216901D01*
X632278Y216934D01*
X632222Y216964D01*
X632165Y216991D01*
X632107Y217014D01*
X632047Y217034D01*
X631987Y217050D01*
X631925Y217063D01*
X631863Y217072D01*
X631801Y217077D01*
X631738Y217079D01*
X630298Y217079D01*
X636721Y217079D02*
X636721Y212762D01*
X636721Y217079D02*
X638520Y217079D01*
X638585Y217077D01*
X638650Y217071D01*
X638714Y217061D01*
X638778Y217048D01*
X638841Y217030D01*
X638903Y217009D01*
X638963Y216984D01*
X639021Y216955D01*
X639078Y216923D01*
X639133Y216888D01*
X639185Y216849D01*
X639235Y216808D01*
X639283Y216763D01*
X639328Y216716D01*
X639369Y216665D01*
X639408Y216613D01*
X639443Y216558D01*
X639475Y216501D01*
X639504Y216443D01*
X639529Y216383D01*
X639550Y216321D01*
X639568Y216258D01*
X639581Y216195D01*
X639591Y216130D01*
X639597Y216065D01*
X639599Y216000D01*
X639600Y216000D02*
X639600Y212762D01*
X646017Y212762D02*
X646017Y219238D01*
X646017Y212762D02*
X644218Y212762D01*
X644155Y212764D01*
X644093Y212769D01*
X644031Y212778D01*
X643969Y212791D01*
X643909Y212807D01*
X643849Y212827D01*
X643791Y212850D01*
X643734Y212877D01*
X643679Y212907D01*
X643625Y212940D01*
X643574Y212976D01*
X643524Y213014D01*
X643478Y213056D01*
X643433Y213101D01*
X643391Y213147D01*
X643353Y213197D01*
X643317Y213248D01*
X643284Y213302D01*
X643254Y213357D01*
X643227Y213414D01*
X643204Y213472D01*
X643184Y213532D01*
X643168Y213592D01*
X643155Y213654D01*
X643146Y213716D01*
X643141Y213778D01*
X643139Y213841D01*
X643139Y216000D01*
X643141Y216063D01*
X643146Y216125D01*
X643155Y216187D01*
X643168Y216249D01*
X643184Y216309D01*
X643204Y216369D01*
X643227Y216427D01*
X643254Y216484D01*
X643284Y216540D01*
X643317Y216593D01*
X643353Y216644D01*
X643391Y216694D01*
X643433Y216740D01*
X643478Y216785D01*
X643524Y216827D01*
X643574Y216865D01*
X643625Y216901D01*
X643679Y216934D01*
X643734Y216964D01*
X643791Y216991D01*
X643849Y217014D01*
X643909Y217034D01*
X643969Y217050D01*
X644031Y217063D01*
X644093Y217072D01*
X644155Y217077D01*
X644218Y217079D01*
X646017Y217079D01*
X655620Y219238D02*
X655699Y219236D01*
X655779Y219230D01*
X655858Y219220D01*
X655936Y219207D01*
X656013Y219189D01*
X656090Y219168D01*
X656165Y219143D01*
X656240Y219115D01*
X656312Y219083D01*
X656383Y219047D01*
X656452Y219008D01*
X656519Y218965D01*
X656584Y218919D01*
X656647Y218871D01*
X656707Y218819D01*
X656765Y218764D01*
X656820Y218706D01*
X656872Y218646D01*
X656920Y218583D01*
X656966Y218518D01*
X657009Y218451D01*
X657048Y218382D01*
X657084Y218311D01*
X657116Y218239D01*
X657144Y218164D01*
X657169Y218089D01*
X657190Y218012D01*
X657208Y217935D01*
X657221Y217857D01*
X657231Y217778D01*
X657237Y217698D01*
X657239Y217619D01*
X655620Y219238D02*
X655530Y219236D01*
X655440Y219230D01*
X655350Y219220D01*
X655261Y219207D01*
X655173Y219189D01*
X655085Y219168D01*
X654998Y219143D01*
X654913Y219114D01*
X654829Y219082D01*
X654746Y219045D01*
X654665Y219006D01*
X654586Y218963D01*
X654509Y218916D01*
X654433Y218866D01*
X654360Y218813D01*
X654290Y218757D01*
X654222Y218698D01*
X654156Y218636D01*
X654094Y218571D01*
X654034Y218503D01*
X653977Y218433D01*
X653923Y218361D01*
X653873Y218286D01*
X653825Y218210D01*
X653781Y218131D01*
X653741Y218050D01*
X653704Y217968D01*
X653671Y217884D01*
X653641Y217799D01*
X656699Y216360D02*
X656755Y216415D01*
X656808Y216473D01*
X656858Y216533D01*
X656905Y216595D01*
X656950Y216659D01*
X656992Y216725D01*
X657030Y216793D01*
X657066Y216863D01*
X657098Y216934D01*
X657128Y217007D01*
X657153Y217080D01*
X657176Y217155D01*
X657195Y217231D01*
X657211Y217308D01*
X657223Y217385D01*
X657232Y217463D01*
X657237Y217541D01*
X657239Y217619D01*
X656700Y216360D02*
X653641Y212762D01*
X657239Y212762D01*
X660841Y216000D02*
X660843Y216142D01*
X660849Y216285D01*
X660858Y216427D01*
X660871Y216569D01*
X660888Y216710D01*
X660909Y216851D01*
X660934Y216991D01*
X660962Y217131D01*
X660994Y217269D01*
X661030Y217407D01*
X661069Y217544D01*
X661112Y217680D01*
X661159Y217814D01*
X661209Y217948D01*
X661263Y218079D01*
X661320Y218210D01*
X661381Y218339D01*
X661406Y218406D01*
X661435Y218472D01*
X661467Y218536D01*
X661503Y218598D01*
X661541Y218658D01*
X661584Y218717D01*
X661629Y218772D01*
X661677Y218826D01*
X661728Y218876D01*
X661781Y218924D01*
X661837Y218969D01*
X661896Y219011D01*
X661956Y219049D01*
X662019Y219084D01*
X662083Y219116D01*
X662149Y219144D01*
X662217Y219169D01*
X662285Y219190D01*
X662355Y219207D01*
X662426Y219221D01*
X662497Y219230D01*
X662568Y219236D01*
X662640Y219238D01*
X662712Y219236D01*
X662783Y219230D01*
X662854Y219221D01*
X662925Y219207D01*
X662995Y219190D01*
X663063Y219169D01*
X663131Y219144D01*
X663197Y219116D01*
X663261Y219084D01*
X663324Y219049D01*
X663384Y219011D01*
X663443Y218969D01*
X663499Y218924D01*
X663552Y218876D01*
X663603Y218826D01*
X663651Y218772D01*
X663696Y218717D01*
X663739Y218658D01*
X663777Y218598D01*
X663813Y218536D01*
X663845Y218472D01*
X663874Y218406D01*
X663899Y218339D01*
X663900Y218339D02*
X663961Y218210D01*
X664018Y218079D01*
X664072Y217948D01*
X664122Y217814D01*
X664169Y217680D01*
X664212Y217544D01*
X664251Y217407D01*
X664287Y217269D01*
X664319Y217131D01*
X664347Y216991D01*
X664372Y216851D01*
X664393Y216710D01*
X664410Y216569D01*
X664423Y216427D01*
X664432Y216285D01*
X664438Y216142D01*
X664440Y216000D01*
X660841Y216000D02*
X660843Y215858D01*
X660849Y215715D01*
X660858Y215573D01*
X660871Y215431D01*
X660888Y215290D01*
X660909Y215149D01*
X660934Y215009D01*
X660962Y214869D01*
X660994Y214731D01*
X661030Y214593D01*
X661069Y214456D01*
X661112Y214320D01*
X661159Y214186D01*
X661209Y214052D01*
X661263Y213921D01*
X661320Y213790D01*
X661381Y213661D01*
X661406Y213594D01*
X661435Y213528D01*
X661467Y213464D01*
X661503Y213402D01*
X661541Y213341D01*
X661584Y213283D01*
X661629Y213228D01*
X661677Y213174D01*
X661728Y213124D01*
X661781Y213076D01*
X661837Y213031D01*
X661896Y212989D01*
X661956Y212951D01*
X662019Y212916D01*
X662083Y212884D01*
X662149Y212856D01*
X662217Y212831D01*
X662285Y212810D01*
X662355Y212793D01*
X662426Y212779D01*
X662497Y212770D01*
X662568Y212764D01*
X662640Y212762D01*
X663899Y213661D02*
X663960Y213790D01*
X664017Y213921D01*
X664071Y214052D01*
X664121Y214186D01*
X664168Y214320D01*
X664211Y214456D01*
X664250Y214593D01*
X664286Y214731D01*
X664318Y214869D01*
X664346Y215009D01*
X664371Y215149D01*
X664392Y215290D01*
X664409Y215431D01*
X664422Y215573D01*
X664431Y215715D01*
X664437Y215858D01*
X664439Y216000D01*
X663899Y213661D02*
X663874Y213594D01*
X663845Y213528D01*
X663813Y213464D01*
X663777Y213402D01*
X663739Y213342D01*
X663696Y213283D01*
X663651Y213228D01*
X663603Y213174D01*
X663552Y213124D01*
X663499Y213076D01*
X663443Y213031D01*
X663384Y212989D01*
X663324Y212951D01*
X663261Y212916D01*
X663197Y212884D01*
X663131Y212856D01*
X663063Y212831D01*
X662995Y212810D01*
X662925Y212793D01*
X662854Y212779D01*
X662783Y212770D01*
X662712Y212764D01*
X662640Y212762D01*
X661201Y214201D02*
X664079Y217799D01*
X670020Y219238D02*
X670099Y219236D01*
X670179Y219230D01*
X670258Y219220D01*
X670336Y219207D01*
X670413Y219189D01*
X670490Y219168D01*
X670565Y219143D01*
X670640Y219115D01*
X670712Y219083D01*
X670783Y219047D01*
X670852Y219008D01*
X670919Y218965D01*
X670984Y218919D01*
X671047Y218871D01*
X671107Y218819D01*
X671165Y218764D01*
X671220Y218706D01*
X671272Y218646D01*
X671320Y218583D01*
X671366Y218518D01*
X671409Y218451D01*
X671448Y218382D01*
X671484Y218311D01*
X671516Y218239D01*
X671544Y218164D01*
X671569Y218089D01*
X671590Y218012D01*
X671608Y217935D01*
X671621Y217857D01*
X671631Y217778D01*
X671637Y217698D01*
X671639Y217619D01*
X670020Y219238D02*
X669930Y219236D01*
X669840Y219230D01*
X669750Y219220D01*
X669661Y219207D01*
X669573Y219189D01*
X669485Y219168D01*
X669398Y219143D01*
X669313Y219114D01*
X669229Y219082D01*
X669146Y219045D01*
X669065Y219006D01*
X668986Y218963D01*
X668909Y218916D01*
X668833Y218866D01*
X668760Y218813D01*
X668690Y218757D01*
X668622Y218698D01*
X668556Y218636D01*
X668494Y218571D01*
X668434Y218503D01*
X668377Y218433D01*
X668323Y218361D01*
X668273Y218286D01*
X668225Y218210D01*
X668181Y218131D01*
X668141Y218050D01*
X668104Y217968D01*
X668071Y217884D01*
X668041Y217799D01*
X671099Y216360D02*
X671155Y216415D01*
X671208Y216473D01*
X671258Y216533D01*
X671305Y216595D01*
X671350Y216659D01*
X671392Y216725D01*
X671430Y216793D01*
X671466Y216863D01*
X671498Y216934D01*
X671528Y217007D01*
X671553Y217080D01*
X671576Y217155D01*
X671595Y217231D01*
X671611Y217308D01*
X671623Y217385D01*
X671632Y217463D01*
X671637Y217541D01*
X671639Y217619D01*
X671100Y216360D02*
X668041Y212762D01*
X671639Y212762D01*
X675241Y216000D02*
X675243Y216142D01*
X675249Y216285D01*
X675258Y216427D01*
X675271Y216569D01*
X675288Y216710D01*
X675309Y216851D01*
X675334Y216991D01*
X675362Y217131D01*
X675394Y217269D01*
X675430Y217407D01*
X675469Y217544D01*
X675512Y217680D01*
X675559Y217814D01*
X675609Y217948D01*
X675663Y218079D01*
X675720Y218210D01*
X675781Y218339D01*
X675806Y218406D01*
X675835Y218472D01*
X675867Y218536D01*
X675903Y218598D01*
X675941Y218658D01*
X675984Y218717D01*
X676029Y218772D01*
X676077Y218826D01*
X676128Y218876D01*
X676181Y218924D01*
X676237Y218969D01*
X676296Y219011D01*
X676356Y219049D01*
X676419Y219084D01*
X676483Y219116D01*
X676549Y219144D01*
X676617Y219169D01*
X676685Y219190D01*
X676755Y219207D01*
X676826Y219221D01*
X676897Y219230D01*
X676968Y219236D01*
X677040Y219238D01*
X677112Y219236D01*
X677183Y219230D01*
X677254Y219221D01*
X677325Y219207D01*
X677395Y219190D01*
X677463Y219169D01*
X677531Y219144D01*
X677597Y219116D01*
X677661Y219084D01*
X677724Y219049D01*
X677784Y219011D01*
X677843Y218969D01*
X677899Y218924D01*
X677952Y218876D01*
X678003Y218826D01*
X678051Y218772D01*
X678096Y218717D01*
X678139Y218658D01*
X678177Y218598D01*
X678213Y218536D01*
X678245Y218472D01*
X678274Y218406D01*
X678299Y218339D01*
X678300Y218339D02*
X678361Y218210D01*
X678418Y218079D01*
X678472Y217948D01*
X678522Y217814D01*
X678569Y217680D01*
X678612Y217544D01*
X678651Y217407D01*
X678687Y217269D01*
X678719Y217131D01*
X678747Y216991D01*
X678772Y216851D01*
X678793Y216710D01*
X678810Y216569D01*
X678823Y216427D01*
X678832Y216285D01*
X678838Y216142D01*
X678840Y216000D01*
X675241Y216000D02*
X675243Y215858D01*
X675249Y215715D01*
X675258Y215573D01*
X675271Y215431D01*
X675288Y215290D01*
X675309Y215149D01*
X675334Y215009D01*
X675362Y214869D01*
X675394Y214731D01*
X675430Y214593D01*
X675469Y214456D01*
X675512Y214320D01*
X675559Y214186D01*
X675609Y214052D01*
X675663Y213921D01*
X675720Y213790D01*
X675781Y213661D01*
X675806Y213594D01*
X675835Y213528D01*
X675867Y213464D01*
X675903Y213402D01*
X675941Y213341D01*
X675984Y213283D01*
X676029Y213228D01*
X676077Y213174D01*
X676128Y213124D01*
X676181Y213076D01*
X676237Y213031D01*
X676296Y212989D01*
X676356Y212951D01*
X676419Y212916D01*
X676483Y212884D01*
X676549Y212856D01*
X676617Y212831D01*
X676685Y212810D01*
X676755Y212793D01*
X676826Y212779D01*
X676897Y212770D01*
X676968Y212764D01*
X677040Y212762D01*
X678299Y213661D02*
X678360Y213790D01*
X678417Y213921D01*
X678471Y214052D01*
X678521Y214186D01*
X678568Y214320D01*
X678611Y214456D01*
X678650Y214593D01*
X678686Y214731D01*
X678718Y214869D01*
X678746Y215009D01*
X678771Y215149D01*
X678792Y215290D01*
X678809Y215431D01*
X678822Y215573D01*
X678831Y215715D01*
X678837Y215858D01*
X678839Y216000D01*
X678299Y213661D02*
X678274Y213594D01*
X678245Y213528D01*
X678213Y213464D01*
X678177Y213402D01*
X678139Y213342D01*
X678096Y213283D01*
X678051Y213228D01*
X678003Y213174D01*
X677952Y213124D01*
X677899Y213076D01*
X677843Y213031D01*
X677784Y212989D01*
X677724Y212951D01*
X677661Y212916D01*
X677597Y212884D01*
X677531Y212856D01*
X677463Y212831D01*
X677395Y212810D01*
X677325Y212793D01*
X677254Y212779D01*
X677183Y212770D01*
X677112Y212764D01*
X677040Y212762D01*
X675601Y214201D02*
X678479Y217799D01*
X617579Y203280D02*
X613262Y203280D01*
X621422Y203280D02*
X625739Y203280D01*
X629582Y203280D02*
X633899Y203280D01*
X637742Y203280D02*
X642059Y203280D01*
X645902Y203280D02*
X650219Y203280D01*
X654062Y203280D02*
X658379Y203280D01*
X662222Y203280D02*
X666539Y203280D01*
X670382Y203280D02*
X674699Y203280D01*
D11*
X90572Y94463D02*
X85537Y89428D01*
X79520Y95445D02*
X84555Y100480D01*
D12*
G36*
X84069Y100713D02*
X87605Y104249D01*
X94321Y97533D01*
X90785Y93997D01*
X84069Y100713D01*
G37*
G36*
X75807Y92451D02*
X79343Y95987D01*
X86059Y89271D01*
X82523Y85735D01*
X75807Y92451D01*
G37*
D13*
X82306Y97694D02*
X87694Y92306D01*
D11*
X238940Y204320D02*
X246060Y204320D01*
X246060Y195810D02*
X238940Y195810D01*
D12*
X236619Y200051D03*
X248303Y200051D03*
D13*
X242500Y203810D02*
X242500Y196190D01*
D11*
X238940Y226820D02*
X246060Y226820D01*
X246060Y218310D02*
X238940Y218310D01*
D12*
X236619Y222551D03*
X248303Y222551D03*
D13*
X242500Y226310D02*
X242500Y218690D01*
D11*
X121060Y271820D02*
X113940Y271820D01*
X113940Y263310D02*
X121060Y263310D01*
D12*
X111619Y267551D03*
X123303Y267551D03*
D13*
X117500Y271310D02*
X117500Y263690D01*
D11*
X44320Y143560D02*
X44320Y136440D01*
X35810Y136440D02*
X35810Y143560D01*
D14*
X40051Y145882D03*
X40051Y134198D03*
D13*
X43810Y140000D02*
X36190Y140000D01*
D11*
X21820Y143560D02*
X21820Y136440D01*
X13310Y136440D02*
X13310Y143560D01*
D14*
X17551Y145882D03*
X17551Y134198D03*
D13*
X21310Y140000D02*
X13690Y140000D01*
D11*
X53940Y240680D02*
X61060Y240680D01*
X61060Y249190D02*
X53940Y249190D01*
D12*
X63382Y244949D03*
X51698Y244949D03*
D13*
X57500Y241190D02*
X57500Y248810D01*
D11*
X175572Y94463D02*
X170537Y89428D01*
X164520Y95445D02*
X169555Y100480D01*
D12*
G36*
X169069Y100713D02*
X172605Y104249D01*
X179321Y97533D01*
X175785Y93997D01*
X169069Y100713D01*
G37*
G36*
X160807Y92451D02*
X164343Y95987D01*
X171059Y89271D01*
X167523Y85735D01*
X160807Y92451D01*
G37*
D13*
X167306Y97694D02*
X172694Y92306D01*
D10*
X66060Y135680D02*
X66060Y144320D01*
X58940Y144320D02*
X58940Y135680D01*
D15*
X62500Y146350D03*
X62500Y133650D03*
D13*
X62500Y134920D02*
X62500Y145080D01*
D16*
X95000Y218940D02*
X95000Y227500D01*
X103560Y227500D01*
X195000Y227500D02*
X195000Y218940D01*
X195000Y227500D02*
X186440Y227500D01*
X195000Y136060D02*
X195000Y127500D01*
X186440Y127500D01*
X95000Y127500D02*
X95000Y136060D01*
X95000Y127500D02*
X103560Y127500D01*
D17*
X106900Y215600D03*
D18*
X276100Y307200D02*
X407100Y307200D01*
X407100Y166700D01*
X276100Y166700D02*
X276100Y307200D01*
X276100Y166700D02*
X407100Y166700D01*
D11*
X121060Y316820D02*
X113940Y316820D01*
X113940Y308310D02*
X121060Y308310D01*
D12*
X111619Y312551D03*
X123303Y312551D03*
D13*
X117500Y316310D02*
X117500Y308690D01*
D11*
X66820Y181060D02*
X66820Y173940D01*
X58310Y173940D02*
X58310Y181060D01*
D14*
X62551Y183382D03*
X62551Y171698D03*
D13*
X66310Y177500D02*
X58690Y177500D01*
D11*
X13180Y211440D02*
X13180Y218560D01*
X21690Y218560D02*
X21690Y211440D01*
D14*
X17449Y209119D03*
X17449Y220803D03*
D13*
X13690Y215000D02*
X21310Y215000D01*
D11*
X18940Y240680D02*
X26060Y240680D01*
X26060Y249190D02*
X18940Y249190D01*
D12*
X28382Y244949D03*
X16698Y244949D03*
D13*
X22500Y241190D02*
X22500Y248810D01*
D11*
X58180Y218560D02*
X58180Y211440D01*
X66690Y211440D02*
X66690Y218560D01*
D14*
X62449Y209119D03*
X62449Y220803D03*
D13*
X58690Y215000D02*
X66310Y215000D01*
D11*
X644320Y173560D02*
X644320Y166440D01*
X635810Y166440D02*
X635810Y173560D01*
D14*
X640051Y175882D03*
X640051Y164198D03*
D13*
X643810Y170000D02*
X636190Y170000D01*
D11*
X85680Y301440D02*
X85680Y308560D01*
X94190Y308560D02*
X94190Y301440D01*
D14*
X89949Y299119D03*
X89949Y310803D03*
D13*
X86190Y305000D02*
X93810Y305000D01*
D18*
X142500Y290000D02*
X162500Y290000D01*
X162500Y265000D01*
X142500Y265000D01*
X142500Y290000D01*
D19*
X164000Y292500D02*
X164002Y292563D01*
X164008Y292625D01*
X164018Y292687D01*
X164031Y292749D01*
X164049Y292809D01*
X164070Y292868D01*
X164095Y292926D01*
X164124Y292982D01*
X164156Y293036D01*
X164191Y293088D01*
X164229Y293137D01*
X164271Y293185D01*
X164315Y293229D01*
X164363Y293271D01*
X164412Y293309D01*
X164464Y293344D01*
X164518Y293376D01*
X164574Y293405D01*
X164632Y293430D01*
X164691Y293451D01*
X164751Y293469D01*
X164813Y293482D01*
X164875Y293492D01*
X164937Y293498D01*
X165000Y293500D01*
X165063Y293498D01*
X165125Y293492D01*
X165187Y293482D01*
X165249Y293469D01*
X165309Y293451D01*
X165368Y293430D01*
X165426Y293405D01*
X165482Y293376D01*
X165536Y293344D01*
X165588Y293309D01*
X165637Y293271D01*
X165685Y293229D01*
X165729Y293185D01*
X165771Y293137D01*
X165809Y293088D01*
X165844Y293036D01*
X165876Y292982D01*
X165905Y292926D01*
X165930Y292868D01*
X165951Y292809D01*
X165969Y292749D01*
X165982Y292687D01*
X165992Y292625D01*
X165998Y292563D01*
X166000Y292500D01*
X165998Y292437D01*
X165992Y292375D01*
X165982Y292313D01*
X165969Y292251D01*
X165951Y292191D01*
X165930Y292132D01*
X165905Y292074D01*
X165876Y292018D01*
X165844Y291964D01*
X165809Y291912D01*
X165771Y291863D01*
X165729Y291815D01*
X165685Y291771D01*
X165637Y291729D01*
X165588Y291691D01*
X165536Y291656D01*
X165482Y291624D01*
X165426Y291595D01*
X165368Y291570D01*
X165309Y291549D01*
X165249Y291531D01*
X165187Y291518D01*
X165125Y291508D01*
X165063Y291502D01*
X165000Y291500D01*
X164937Y291502D01*
X164875Y291508D01*
X164813Y291518D01*
X164751Y291531D01*
X164691Y291549D01*
X164632Y291570D01*
X164574Y291595D01*
X164518Y291624D01*
X164464Y291656D01*
X164412Y291691D01*
X164363Y291729D01*
X164315Y291771D01*
X164271Y291815D01*
X164229Y291863D01*
X164191Y291912D01*
X164156Y291964D01*
X164124Y292018D01*
X164095Y292074D01*
X164070Y292132D01*
X164049Y292191D01*
X164031Y292251D01*
X164018Y292313D01*
X164008Y292375D01*
X164002Y292437D01*
X164000Y292500D01*
D11*
X121060Y291820D02*
X113940Y291820D01*
X113940Y283310D02*
X121060Y283310D01*
D12*
X111619Y287551D03*
X123303Y287551D03*
D13*
X117500Y291310D02*
X117500Y283690D01*
D20*
X176960Y293640D03*
D16*
X182000Y293000D02*
X182000Y291140D01*
X182000Y293000D02*
X183860Y293000D01*
X213000Y293000D02*
X213000Y291140D01*
X213000Y293000D02*
X211140Y293000D01*
X213000Y263860D02*
X213000Y262000D01*
X211140Y262000D01*
X182000Y262000D02*
X182000Y263860D01*
X182000Y262000D02*
X183860Y262000D01*
D11*
X238940Y283180D02*
X246060Y283180D01*
X246060Y291690D02*
X238940Y291690D01*
D12*
X248382Y287449D03*
X236698Y287449D03*
D13*
X242500Y283690D02*
X242500Y291310D01*
D11*
X238940Y271820D02*
X246060Y271820D01*
X246060Y263310D02*
X238940Y263310D01*
D12*
X236619Y267551D03*
X248303Y267551D03*
D13*
X242500Y271310D02*
X242500Y263690D01*
D18*
X48000Y220000D02*
X48000Y210000D01*
X32000Y210000D02*
X32000Y220000D01*
D20*
X6401Y168500D03*
D16*
X10841Y177099D02*
X10841Y177901D01*
X49159Y177901D02*
X49159Y177099D01*
X31401Y193159D02*
X28599Y193159D01*
X28599Y161841D02*
X31401Y161841D01*
D21*
X460250Y270300D02*
X544750Y270300D01*
X455750Y274800D02*
X455750Y327500D01*
X549250Y327500D02*
X549250Y274800D01*
X554000Y277000D02*
X554002Y277098D01*
X554008Y277196D01*
X554017Y277294D01*
X554031Y277391D01*
X554048Y277488D01*
X554069Y277584D01*
X554094Y277679D01*
X554122Y277773D01*
X554155Y277865D01*
X554190Y277957D01*
X554230Y278047D01*
X554272Y278135D01*
X554319Y278222D01*
X554368Y278306D01*
X554421Y278389D01*
X554477Y278469D01*
X554537Y278548D01*
X554599Y278624D01*
X554664Y278697D01*
X554732Y278768D01*
X554803Y278836D01*
X554876Y278901D01*
X554952Y278963D01*
X555031Y279023D01*
X555111Y279079D01*
X555194Y279132D01*
X555278Y279181D01*
X555365Y279228D01*
X555453Y279270D01*
X555543Y279310D01*
X555635Y279345D01*
X555727Y279378D01*
X555821Y279406D01*
X555916Y279431D01*
X556012Y279452D01*
X556109Y279469D01*
X556206Y279483D01*
X556304Y279492D01*
X556402Y279498D01*
X556500Y279500D01*
X556598Y279498D01*
X556696Y279492D01*
X556794Y279483D01*
X556891Y279469D01*
X556988Y279452D01*
X557084Y279431D01*
X557179Y279406D01*
X557273Y279378D01*
X557365Y279345D01*
X557457Y279310D01*
X557547Y279270D01*
X557635Y279228D01*
X557722Y279181D01*
X557806Y279132D01*
X557889Y279079D01*
X557969Y279023D01*
X558048Y278963D01*
X558124Y278901D01*
X558197Y278836D01*
X558268Y278768D01*
X558336Y278697D01*
X558401Y278624D01*
X558463Y278548D01*
X558523Y278469D01*
X558579Y278389D01*
X558632Y278306D01*
X558681Y278222D01*
X558728Y278135D01*
X558770Y278047D01*
X558810Y277957D01*
X558845Y277865D01*
X558878Y277773D01*
X558906Y277679D01*
X558931Y277584D01*
X558952Y277488D01*
X558969Y277391D01*
X558983Y277294D01*
X558992Y277196D01*
X558998Y277098D01*
X559000Y277000D01*
X559000Y261000D02*
X558998Y260902D01*
X558992Y260804D01*
X558983Y260706D01*
X558969Y260609D01*
X558952Y260512D01*
X558931Y260416D01*
X558906Y260321D01*
X558878Y260227D01*
X558845Y260135D01*
X558810Y260043D01*
X558770Y259953D01*
X558728Y259865D01*
X558681Y259778D01*
X558632Y259694D01*
X558579Y259611D01*
X558523Y259531D01*
X558463Y259452D01*
X558401Y259376D01*
X558336Y259303D01*
X558268Y259232D01*
X558197Y259164D01*
X558124Y259099D01*
X558048Y259037D01*
X557969Y258977D01*
X557889Y258921D01*
X557806Y258868D01*
X557722Y258819D01*
X557635Y258772D01*
X557547Y258730D01*
X557457Y258690D01*
X557365Y258655D01*
X557273Y258622D01*
X557179Y258594D01*
X557084Y258569D01*
X556988Y258548D01*
X556891Y258531D01*
X556794Y258517D01*
X556696Y258508D01*
X556598Y258502D01*
X556500Y258500D01*
X556402Y258502D01*
X556304Y258508D01*
X556206Y258517D01*
X556109Y258531D01*
X556012Y258548D01*
X555916Y258569D01*
X555821Y258594D01*
X555727Y258622D01*
X555635Y258655D01*
X555543Y258690D01*
X555453Y258730D01*
X555365Y258772D01*
X555278Y258819D01*
X555194Y258868D01*
X555111Y258921D01*
X555031Y258977D01*
X554952Y259037D01*
X554876Y259099D01*
X554803Y259164D01*
X554732Y259232D01*
X554664Y259303D01*
X554599Y259376D01*
X554537Y259452D01*
X554477Y259531D01*
X554421Y259611D01*
X554368Y259694D01*
X554319Y259778D01*
X554272Y259865D01*
X554230Y259953D01*
X554190Y260043D01*
X554155Y260135D01*
X554122Y260227D01*
X554094Y260321D01*
X554069Y260416D01*
X554048Y260512D01*
X554031Y260609D01*
X554017Y260706D01*
X554008Y260804D01*
X554002Y260902D01*
X554000Y261000D01*
X559000Y261000D02*
X559000Y277000D01*
X554000Y277000D02*
X554000Y261000D01*
X552000Y261000D02*
X552002Y260867D01*
X552008Y260733D01*
X552018Y260600D01*
X552032Y260468D01*
X552049Y260336D01*
X552071Y260204D01*
X552096Y260073D01*
X552126Y259943D01*
X552159Y259814D01*
X552196Y259686D01*
X552237Y259559D01*
X552282Y259433D01*
X552330Y259309D01*
X552382Y259186D01*
X552437Y259065D01*
X552497Y258945D01*
X552559Y258827D01*
X552625Y258712D01*
X552695Y258598D01*
X552768Y258486D01*
X552844Y258377D01*
X552923Y258269D01*
X553006Y258165D01*
X553091Y258062D01*
X553180Y257963D01*
X553271Y257866D01*
X553366Y257771D01*
X553463Y257680D01*
X553562Y257591D01*
X553665Y257506D01*
X553769Y257423D01*
X553877Y257344D01*
X553986Y257268D01*
X554098Y257195D01*
X554212Y257125D01*
X554327Y257059D01*
X554445Y256997D01*
X554565Y256937D01*
X554686Y256882D01*
X554809Y256830D01*
X554933Y256782D01*
X555059Y256737D01*
X555186Y256696D01*
X555314Y256659D01*
X555443Y256626D01*
X555573Y256596D01*
X555704Y256571D01*
X555836Y256549D01*
X555968Y256532D01*
X556100Y256518D01*
X556233Y256508D01*
X556367Y256502D01*
X556500Y256500D01*
X556633Y256502D01*
X556767Y256508D01*
X556900Y256518D01*
X557032Y256532D01*
X557164Y256549D01*
X557296Y256571D01*
X557427Y256596D01*
X557557Y256626D01*
X557686Y256659D01*
X557814Y256696D01*
X557941Y256737D01*
X558067Y256782D01*
X558191Y256830D01*
X558314Y256882D01*
X558435Y256937D01*
X558555Y256997D01*
X558673Y257059D01*
X558788Y257125D01*
X558902Y257195D01*
X559014Y257268D01*
X559123Y257344D01*
X559231Y257423D01*
X559335Y257506D01*
X559438Y257591D01*
X559537Y257680D01*
X559634Y257771D01*
X559729Y257866D01*
X559820Y257963D01*
X559909Y258062D01*
X559994Y258165D01*
X560077Y258269D01*
X560156Y258377D01*
X560232Y258486D01*
X560305Y258598D01*
X560375Y258712D01*
X560441Y258827D01*
X560503Y258945D01*
X560563Y259065D01*
X560618Y259186D01*
X560670Y259309D01*
X560718Y259433D01*
X560763Y259559D01*
X560804Y259686D01*
X560841Y259814D01*
X560874Y259943D01*
X560904Y260073D01*
X560929Y260204D01*
X560951Y260336D01*
X560968Y260468D01*
X560982Y260600D01*
X560992Y260733D01*
X560998Y260867D01*
X561000Y261000D01*
X561000Y277000D02*
X560998Y277133D01*
X560992Y277267D01*
X560982Y277400D01*
X560968Y277532D01*
X560951Y277664D01*
X560929Y277796D01*
X560904Y277927D01*
X560874Y278057D01*
X560841Y278186D01*
X560804Y278314D01*
X560763Y278441D01*
X560718Y278567D01*
X560670Y278691D01*
X560618Y278814D01*
X560563Y278935D01*
X560503Y279055D01*
X560441Y279173D01*
X560375Y279288D01*
X560305Y279402D01*
X560232Y279514D01*
X560156Y279623D01*
X560077Y279731D01*
X559994Y279835D01*
X559909Y279938D01*
X559820Y280037D01*
X559729Y280134D01*
X559634Y280229D01*
X559537Y280320D01*
X559438Y280409D01*
X559335Y280494D01*
X559231Y280577D01*
X559123Y280656D01*
X559014Y280732D01*
X558902Y280805D01*
X558788Y280875D01*
X558673Y280941D01*
X558555Y281003D01*
X558435Y281063D01*
X558314Y281118D01*
X558191Y281170D01*
X558067Y281218D01*
X557941Y281263D01*
X557814Y281304D01*
X557686Y281341D01*
X557557Y281374D01*
X557427Y281404D01*
X557296Y281429D01*
X557164Y281451D01*
X557032Y281468D01*
X556900Y281482D01*
X556767Y281492D01*
X556633Y281498D01*
X556500Y281500D01*
X556367Y281498D01*
X556233Y281492D01*
X556100Y281482D01*
X555968Y281468D01*
X555836Y281451D01*
X555704Y281429D01*
X555573Y281404D01*
X555443Y281374D01*
X555314Y281341D01*
X555186Y281304D01*
X555059Y281263D01*
X554933Y281218D01*
X554809Y281170D01*
X554686Y281118D01*
X554565Y281063D01*
X554445Y281003D01*
X554327Y280941D01*
X554212Y280875D01*
X554098Y280805D01*
X553986Y280732D01*
X553877Y280656D01*
X553769Y280577D01*
X553665Y280494D01*
X553562Y280409D01*
X553463Y280320D01*
X553366Y280229D01*
X553271Y280134D01*
X553180Y280037D01*
X553091Y279938D01*
X553006Y279835D01*
X552923Y279731D01*
X552844Y279623D01*
X552768Y279514D01*
X552695Y279402D01*
X552625Y279288D01*
X552559Y279173D01*
X552497Y279055D01*
X552437Y278935D01*
X552382Y278814D01*
X552330Y278691D01*
X552282Y278567D01*
X552237Y278441D01*
X552196Y278314D01*
X552159Y278186D01*
X552126Y278057D01*
X552096Y277927D01*
X552071Y277796D01*
X552049Y277664D01*
X552032Y277532D01*
X552018Y277400D01*
X552008Y277267D01*
X552002Y277133D01*
X552000Y277000D01*
X561000Y277000D02*
X561000Y261000D01*
X552000Y261000D02*
X552000Y277000D01*
X451000Y307800D02*
X450998Y307898D01*
X450992Y307996D01*
X450983Y308094D01*
X450969Y308191D01*
X450952Y308288D01*
X450931Y308384D01*
X450906Y308479D01*
X450878Y308573D01*
X450845Y308665D01*
X450810Y308757D01*
X450770Y308847D01*
X450728Y308935D01*
X450681Y309022D01*
X450632Y309106D01*
X450579Y309189D01*
X450523Y309269D01*
X450463Y309348D01*
X450401Y309424D01*
X450336Y309497D01*
X450268Y309568D01*
X450197Y309636D01*
X450124Y309701D01*
X450048Y309763D01*
X449969Y309823D01*
X449889Y309879D01*
X449806Y309932D01*
X449722Y309981D01*
X449635Y310028D01*
X449547Y310070D01*
X449457Y310110D01*
X449365Y310145D01*
X449273Y310178D01*
X449179Y310206D01*
X449084Y310231D01*
X448988Y310252D01*
X448891Y310269D01*
X448794Y310283D01*
X448696Y310292D01*
X448598Y310298D01*
X448500Y310300D01*
X448402Y310298D01*
X448304Y310292D01*
X448206Y310283D01*
X448109Y310269D01*
X448012Y310252D01*
X447916Y310231D01*
X447821Y310206D01*
X447727Y310178D01*
X447635Y310145D01*
X447543Y310110D01*
X447453Y310070D01*
X447365Y310028D01*
X447278Y309981D01*
X447194Y309932D01*
X447111Y309879D01*
X447031Y309823D01*
X446952Y309763D01*
X446876Y309701D01*
X446803Y309636D01*
X446732Y309568D01*
X446664Y309497D01*
X446599Y309424D01*
X446537Y309348D01*
X446477Y309269D01*
X446421Y309189D01*
X446368Y309106D01*
X446319Y309022D01*
X446272Y308935D01*
X446230Y308847D01*
X446190Y308757D01*
X446155Y308665D01*
X446122Y308573D01*
X446094Y308479D01*
X446069Y308384D01*
X446048Y308288D01*
X446031Y308191D01*
X446017Y308094D01*
X446008Y307996D01*
X446002Y307898D01*
X446000Y307800D01*
X446000Y294800D02*
X446002Y294702D01*
X446008Y294604D01*
X446017Y294506D01*
X446031Y294409D01*
X446048Y294312D01*
X446069Y294216D01*
X446094Y294121D01*
X446122Y294027D01*
X446155Y293935D01*
X446190Y293843D01*
X446230Y293753D01*
X446272Y293665D01*
X446319Y293578D01*
X446368Y293494D01*
X446421Y293411D01*
X446477Y293331D01*
X446537Y293252D01*
X446599Y293176D01*
X446664Y293103D01*
X446732Y293032D01*
X446803Y292964D01*
X446876Y292899D01*
X446952Y292837D01*
X447031Y292777D01*
X447111Y292721D01*
X447194Y292668D01*
X447278Y292619D01*
X447365Y292572D01*
X447453Y292530D01*
X447543Y292490D01*
X447635Y292455D01*
X447727Y292422D01*
X447821Y292394D01*
X447916Y292369D01*
X448012Y292348D01*
X448109Y292331D01*
X448206Y292317D01*
X448304Y292308D01*
X448402Y292302D01*
X448500Y292300D01*
X448598Y292302D01*
X448696Y292308D01*
X448794Y292317D01*
X448891Y292331D01*
X448988Y292348D01*
X449084Y292369D01*
X449179Y292394D01*
X449273Y292422D01*
X449365Y292455D01*
X449457Y292490D01*
X449547Y292530D01*
X449635Y292572D01*
X449722Y292619D01*
X449806Y292668D01*
X449889Y292721D01*
X449969Y292777D01*
X450048Y292837D01*
X450124Y292899D01*
X450197Y292964D01*
X450268Y293032D01*
X450336Y293103D01*
X450401Y293176D01*
X450463Y293252D01*
X450523Y293331D01*
X450579Y293411D01*
X450632Y293494D01*
X450681Y293578D01*
X450728Y293665D01*
X450770Y293753D01*
X450810Y293843D01*
X450845Y293935D01*
X450878Y294027D01*
X450906Y294121D01*
X450931Y294216D01*
X450952Y294312D01*
X450969Y294409D01*
X450983Y294506D01*
X450992Y294604D01*
X450998Y294702D01*
X451000Y294800D01*
X451000Y307800D01*
X446000Y307800D02*
X446000Y294800D01*
X444000Y294800D02*
X444002Y294667D01*
X444008Y294533D01*
X444018Y294400D01*
X444032Y294268D01*
X444049Y294136D01*
X444071Y294004D01*
X444096Y293873D01*
X444126Y293743D01*
X444159Y293614D01*
X444196Y293486D01*
X444237Y293359D01*
X444282Y293233D01*
X444330Y293109D01*
X444382Y292986D01*
X444437Y292865D01*
X444497Y292745D01*
X444559Y292627D01*
X444625Y292512D01*
X444695Y292398D01*
X444768Y292286D01*
X444844Y292177D01*
X444923Y292069D01*
X445006Y291965D01*
X445091Y291862D01*
X445180Y291763D01*
X445271Y291666D01*
X445366Y291571D01*
X445463Y291480D01*
X445562Y291391D01*
X445665Y291306D01*
X445769Y291223D01*
X445877Y291144D01*
X445986Y291068D01*
X446098Y290995D01*
X446212Y290925D01*
X446327Y290859D01*
X446445Y290797D01*
X446565Y290737D01*
X446686Y290682D01*
X446809Y290630D01*
X446933Y290582D01*
X447059Y290537D01*
X447186Y290496D01*
X447314Y290459D01*
X447443Y290426D01*
X447573Y290396D01*
X447704Y290371D01*
X447836Y290349D01*
X447968Y290332D01*
X448100Y290318D01*
X448233Y290308D01*
X448367Y290302D01*
X448500Y290300D01*
X448633Y290302D01*
X448767Y290308D01*
X448900Y290318D01*
X449032Y290332D01*
X449164Y290349D01*
X449296Y290371D01*
X449427Y290396D01*
X449557Y290426D01*
X449686Y290459D01*
X449814Y290496D01*
X449941Y290537D01*
X450067Y290582D01*
X450191Y290630D01*
X450314Y290682D01*
X450435Y290737D01*
X450555Y290797D01*
X450673Y290859D01*
X450788Y290925D01*
X450902Y290995D01*
X451014Y291068D01*
X451123Y291144D01*
X451231Y291223D01*
X451335Y291306D01*
X451438Y291391D01*
X451537Y291480D01*
X451634Y291571D01*
X451729Y291666D01*
X451820Y291763D01*
X451909Y291862D01*
X451994Y291965D01*
X452077Y292069D01*
X452156Y292177D01*
X452232Y292286D01*
X452305Y292398D01*
X452375Y292512D01*
X452441Y292627D01*
X452503Y292745D01*
X452563Y292865D01*
X452618Y292986D01*
X452670Y293109D01*
X452718Y293233D01*
X452763Y293359D01*
X452804Y293486D01*
X452841Y293614D01*
X452874Y293743D01*
X452904Y293873D01*
X452929Y294004D01*
X452951Y294136D01*
X452968Y294268D01*
X452982Y294400D01*
X452992Y294533D01*
X452998Y294667D01*
X453000Y294800D01*
X453000Y307800D02*
X452998Y307933D01*
X452992Y308067D01*
X452982Y308200D01*
X452968Y308332D01*
X452951Y308464D01*
X452929Y308596D01*
X452904Y308727D01*
X452874Y308857D01*
X452841Y308986D01*
X452804Y309114D01*
X452763Y309241D01*
X452718Y309367D01*
X452670Y309491D01*
X452618Y309614D01*
X452563Y309735D01*
X452503Y309855D01*
X452441Y309973D01*
X452375Y310088D01*
X452305Y310202D01*
X452232Y310314D01*
X452156Y310423D01*
X452077Y310531D01*
X451994Y310635D01*
X451909Y310738D01*
X451820Y310837D01*
X451729Y310934D01*
X451634Y311029D01*
X451537Y311120D01*
X451438Y311209D01*
X451335Y311294D01*
X451231Y311377D01*
X451123Y311456D01*
X451014Y311532D01*
X450902Y311605D01*
X450788Y311675D01*
X450673Y311741D01*
X450555Y311803D01*
X450435Y311863D01*
X450314Y311918D01*
X450191Y311970D01*
X450067Y312018D01*
X449941Y312063D01*
X449814Y312104D01*
X449686Y312141D01*
X449557Y312174D01*
X449427Y312204D01*
X449296Y312229D01*
X449164Y312251D01*
X449032Y312268D01*
X448900Y312282D01*
X448767Y312292D01*
X448633Y312298D01*
X448500Y312300D01*
X448367Y312298D01*
X448233Y312292D01*
X448100Y312282D01*
X447968Y312268D01*
X447836Y312251D01*
X447704Y312229D01*
X447573Y312204D01*
X447443Y312174D01*
X447314Y312141D01*
X447186Y312104D01*
X447059Y312063D01*
X446933Y312018D01*
X446809Y311970D01*
X446686Y311918D01*
X446565Y311863D01*
X446445Y311803D01*
X446327Y311741D01*
X446212Y311675D01*
X446098Y311605D01*
X445986Y311532D01*
X445877Y311456D01*
X445769Y311377D01*
X445665Y311294D01*
X445562Y311209D01*
X445463Y311120D01*
X445366Y311029D01*
X445271Y310934D01*
X445180Y310837D01*
X445091Y310738D01*
X445006Y310635D01*
X444923Y310531D01*
X444844Y310423D01*
X444768Y310314D01*
X444695Y310202D01*
X444625Y310088D01*
X444559Y309973D01*
X444497Y309855D01*
X444437Y309735D01*
X444382Y309614D01*
X444330Y309491D01*
X444282Y309367D01*
X444237Y309241D01*
X444196Y309114D01*
X444159Y308986D01*
X444126Y308857D01*
X444096Y308727D01*
X444071Y308596D01*
X444049Y308464D01*
X444032Y308332D01*
X444018Y308200D01*
X444008Y308067D01*
X444002Y307933D01*
X444000Y307800D01*
X453000Y307800D02*
X453000Y294800D01*
X444000Y294800D02*
X444000Y307800D01*
X554000Y307800D02*
X554002Y307898D01*
X554008Y307996D01*
X554017Y308094D01*
X554031Y308191D01*
X554048Y308288D01*
X554069Y308384D01*
X554094Y308479D01*
X554122Y308573D01*
X554155Y308665D01*
X554190Y308757D01*
X554230Y308847D01*
X554272Y308935D01*
X554319Y309022D01*
X554368Y309106D01*
X554421Y309189D01*
X554477Y309269D01*
X554537Y309348D01*
X554599Y309424D01*
X554664Y309497D01*
X554732Y309568D01*
X554803Y309636D01*
X554876Y309701D01*
X554952Y309763D01*
X555031Y309823D01*
X555111Y309879D01*
X555194Y309932D01*
X555278Y309981D01*
X555365Y310028D01*
X555453Y310070D01*
X555543Y310110D01*
X555635Y310145D01*
X555727Y310178D01*
X555821Y310206D01*
X555916Y310231D01*
X556012Y310252D01*
X556109Y310269D01*
X556206Y310283D01*
X556304Y310292D01*
X556402Y310298D01*
X556500Y310300D01*
X556598Y310298D01*
X556696Y310292D01*
X556794Y310283D01*
X556891Y310269D01*
X556988Y310252D01*
X557084Y310231D01*
X557179Y310206D01*
X557273Y310178D01*
X557365Y310145D01*
X557457Y310110D01*
X557547Y310070D01*
X557635Y310028D01*
X557722Y309981D01*
X557806Y309932D01*
X557889Y309879D01*
X557969Y309823D01*
X558048Y309763D01*
X558124Y309701D01*
X558197Y309636D01*
X558268Y309568D01*
X558336Y309497D01*
X558401Y309424D01*
X558463Y309348D01*
X558523Y309269D01*
X558579Y309189D01*
X558632Y309106D01*
X558681Y309022D01*
X558728Y308935D01*
X558770Y308847D01*
X558810Y308757D01*
X558845Y308665D01*
X558878Y308573D01*
X558906Y308479D01*
X558931Y308384D01*
X558952Y308288D01*
X558969Y308191D01*
X558983Y308094D01*
X558992Y307996D01*
X558998Y307898D01*
X559000Y307800D01*
X559000Y294800D02*
X558998Y294702D01*
X558992Y294604D01*
X558983Y294506D01*
X558969Y294409D01*
X558952Y294312D01*
X558931Y294216D01*
X558906Y294121D01*
X558878Y294027D01*
X558845Y293935D01*
X558810Y293843D01*
X558770Y293753D01*
X558728Y293665D01*
X558681Y293578D01*
X558632Y293494D01*
X558579Y293411D01*
X558523Y293331D01*
X558463Y293252D01*
X558401Y293176D01*
X558336Y293103D01*
X558268Y293032D01*
X558197Y292964D01*
X558124Y292899D01*
X558048Y292837D01*
X557969Y292777D01*
X557889Y292721D01*
X557806Y292668D01*
X557722Y292619D01*
X557635Y292572D01*
X557547Y292530D01*
X557457Y292490D01*
X557365Y292455D01*
X557273Y292422D01*
X557179Y292394D01*
X557084Y292369D01*
X556988Y292348D01*
X556891Y292331D01*
X556794Y292317D01*
X556696Y292308D01*
X556598Y292302D01*
X556500Y292300D01*
X556402Y292302D01*
X556304Y292308D01*
X556206Y292317D01*
X556109Y292331D01*
X556012Y292348D01*
X555916Y292369D01*
X555821Y292394D01*
X555727Y292422D01*
X555635Y292455D01*
X555543Y292490D01*
X555453Y292530D01*
X555365Y292572D01*
X555278Y292619D01*
X555194Y292668D01*
X555111Y292721D01*
X555031Y292777D01*
X554952Y292837D01*
X554876Y292899D01*
X554803Y292964D01*
X554732Y293032D01*
X554664Y293103D01*
X554599Y293176D01*
X554537Y293252D01*
X554477Y293331D01*
X554421Y293411D01*
X554368Y293494D01*
X554319Y293578D01*
X554272Y293665D01*
X554230Y293753D01*
X554190Y293843D01*
X554155Y293935D01*
X554122Y294027D01*
X554094Y294121D01*
X554069Y294216D01*
X554048Y294312D01*
X554031Y294409D01*
X554017Y294506D01*
X554008Y294604D01*
X554002Y294702D01*
X554000Y294800D01*
X559000Y294800D02*
X559000Y307800D01*
X554000Y307800D02*
X554000Y294800D01*
X552000Y294800D02*
X552002Y294667D01*
X552008Y294533D01*
X552018Y294400D01*
X552032Y294268D01*
X552049Y294136D01*
X552071Y294004D01*
X552096Y293873D01*
X552126Y293743D01*
X552159Y293614D01*
X552196Y293486D01*
X552237Y293359D01*
X552282Y293233D01*
X552330Y293109D01*
X552382Y292986D01*
X552437Y292865D01*
X552497Y292745D01*
X552559Y292627D01*
X552625Y292512D01*
X552695Y292398D01*
X552768Y292286D01*
X552844Y292177D01*
X552923Y292069D01*
X553006Y291965D01*
X553091Y291862D01*
X553180Y291763D01*
X553271Y291666D01*
X553366Y291571D01*
X553463Y291480D01*
X553562Y291391D01*
X553665Y291306D01*
X553769Y291223D01*
X553877Y291144D01*
X553986Y291068D01*
X554098Y290995D01*
X554212Y290925D01*
X554327Y290859D01*
X554445Y290797D01*
X554565Y290737D01*
X554686Y290682D01*
X554809Y290630D01*
X554933Y290582D01*
X555059Y290537D01*
X555186Y290496D01*
X555314Y290459D01*
X555443Y290426D01*
X555573Y290396D01*
X555704Y290371D01*
X555836Y290349D01*
X555968Y290332D01*
X556100Y290318D01*
X556233Y290308D01*
X556367Y290302D01*
X556500Y290300D01*
X556633Y290302D01*
X556767Y290308D01*
X556900Y290318D01*
X557032Y290332D01*
X557164Y290349D01*
X557296Y290371D01*
X557427Y290396D01*
X557557Y290426D01*
X557686Y290459D01*
X557814Y290496D01*
X557941Y290537D01*
X558067Y290582D01*
X558191Y290630D01*
X558314Y290682D01*
X558435Y290737D01*
X558555Y290797D01*
X558673Y290859D01*
X558788Y290925D01*
X558902Y290995D01*
X559014Y291068D01*
X559123Y291144D01*
X559231Y291223D01*
X559335Y291306D01*
X559438Y291391D01*
X559537Y291480D01*
X559634Y291571D01*
X559729Y291666D01*
X559820Y291763D01*
X559909Y291862D01*
X559994Y291965D01*
X560077Y292069D01*
X560156Y292177D01*
X560232Y292286D01*
X560305Y292398D01*
X560375Y292512D01*
X560441Y292627D01*
X560503Y292745D01*
X560563Y292865D01*
X560618Y292986D01*
X560670Y293109D01*
X560718Y293233D01*
X560763Y293359D01*
X560804Y293486D01*
X560841Y293614D01*
X560874Y293743D01*
X560904Y293873D01*
X560929Y294004D01*
X560951Y294136D01*
X560968Y294268D01*
X560982Y294400D01*
X560992Y294533D01*
X560998Y294667D01*
X561000Y294800D01*
X561000Y307800D02*
X560998Y307933D01*
X560992Y308067D01*
X560982Y308200D01*
X560968Y308332D01*
X560951Y308464D01*
X560929Y308596D01*
X560904Y308727D01*
X560874Y308857D01*
X560841Y308986D01*
X560804Y309114D01*
X560763Y309241D01*
X560718Y309367D01*
X560670Y309491D01*
X560618Y309614D01*
X560563Y309735D01*
X560503Y309855D01*
X560441Y309973D01*
X560375Y310088D01*
X560305Y310202D01*
X560232Y310314D01*
X560156Y310423D01*
X560077Y310531D01*
X559994Y310635D01*
X559909Y310738D01*
X559820Y310837D01*
X559729Y310934D01*
X559634Y311029D01*
X559537Y311120D01*
X559438Y311209D01*
X559335Y311294D01*
X559231Y311377D01*
X559123Y311456D01*
X559014Y311532D01*
X558902Y311605D01*
X558788Y311675D01*
X558673Y311741D01*
X558555Y311803D01*
X558435Y311863D01*
X558314Y311918D01*
X558191Y311970D01*
X558067Y312018D01*
X557941Y312063D01*
X557814Y312104D01*
X557686Y312141D01*
X557557Y312174D01*
X557427Y312204D01*
X557296Y312229D01*
X557164Y312251D01*
X557032Y312268D01*
X556900Y312282D01*
X556767Y312292D01*
X556633Y312298D01*
X556500Y312300D01*
X556367Y312298D01*
X556233Y312292D01*
X556100Y312282D01*
X555968Y312268D01*
X555836Y312251D01*
X555704Y312229D01*
X555573Y312204D01*
X555443Y312174D01*
X555314Y312141D01*
X555186Y312104D01*
X555059Y312063D01*
X554933Y312018D01*
X554809Y311970D01*
X554686Y311918D01*
X554565Y311863D01*
X554445Y311803D01*
X554327Y311741D01*
X554212Y311675D01*
X554098Y311605D01*
X553986Y311532D01*
X553877Y311456D01*
X553769Y311377D01*
X553665Y311294D01*
X553562Y311209D01*
X553463Y311120D01*
X553366Y311029D01*
X553271Y310934D01*
X553180Y310837D01*
X553091Y310738D01*
X553006Y310635D01*
X552923Y310531D01*
X552844Y310423D01*
X552768Y310314D01*
X552695Y310202D01*
X552625Y310088D01*
X552559Y309973D01*
X552497Y309855D01*
X552437Y309735D01*
X552382Y309614D01*
X552330Y309491D01*
X552282Y309367D01*
X552237Y309241D01*
X552196Y309114D01*
X552159Y308986D01*
X552126Y308857D01*
X552096Y308727D01*
X552071Y308596D01*
X552049Y308464D01*
X552032Y308332D01*
X552018Y308200D01*
X552008Y308067D01*
X552002Y307933D01*
X552000Y307800D01*
X561000Y307800D02*
X561000Y294800D01*
X552000Y294800D02*
X552000Y307800D01*
X451000Y277000D02*
X450998Y277098D01*
X450992Y277196D01*
X450983Y277294D01*
X450969Y277391D01*
X450952Y277488D01*
X450931Y277584D01*
X450906Y277679D01*
X450878Y277773D01*
X450845Y277865D01*
X450810Y277957D01*
X450770Y278047D01*
X450728Y278135D01*
X450681Y278222D01*
X450632Y278306D01*
X450579Y278389D01*
X450523Y278469D01*
X450463Y278548D01*
X450401Y278624D01*
X450336Y278697D01*
X450268Y278768D01*
X450197Y278836D01*
X450124Y278901D01*
X450048Y278963D01*
X449969Y279023D01*
X449889Y279079D01*
X449806Y279132D01*
X449722Y279181D01*
X449635Y279228D01*
X449547Y279270D01*
X449457Y279310D01*
X449365Y279345D01*
X449273Y279378D01*
X449179Y279406D01*
X449084Y279431D01*
X448988Y279452D01*
X448891Y279469D01*
X448794Y279483D01*
X448696Y279492D01*
X448598Y279498D01*
X448500Y279500D01*
X448402Y279498D01*
X448304Y279492D01*
X448206Y279483D01*
X448109Y279469D01*
X448012Y279452D01*
X447916Y279431D01*
X447821Y279406D01*
X447727Y279378D01*
X447635Y279345D01*
X447543Y279310D01*
X447453Y279270D01*
X447365Y279228D01*
X447278Y279181D01*
X447194Y279132D01*
X447111Y279079D01*
X447031Y279023D01*
X446952Y278963D01*
X446876Y278901D01*
X446803Y278836D01*
X446732Y278768D01*
X446664Y278697D01*
X446599Y278624D01*
X446537Y278548D01*
X446477Y278469D01*
X446421Y278389D01*
X446368Y278306D01*
X446319Y278222D01*
X446272Y278135D01*
X446230Y278047D01*
X446190Y277957D01*
X446155Y277865D01*
X446122Y277773D01*
X446094Y277679D01*
X446069Y277584D01*
X446048Y277488D01*
X446031Y277391D01*
X446017Y277294D01*
X446008Y277196D01*
X446002Y277098D01*
X446000Y277000D01*
X446000Y261000D02*
X446002Y260902D01*
X446008Y260804D01*
X446017Y260706D01*
X446031Y260609D01*
X446048Y260512D01*
X446069Y260416D01*
X446094Y260321D01*
X446122Y260227D01*
X446155Y260135D01*
X446190Y260043D01*
X446230Y259953D01*
X446272Y259865D01*
X446319Y259778D01*
X446368Y259694D01*
X446421Y259611D01*
X446477Y259531D01*
X446537Y259452D01*
X446599Y259376D01*
X446664Y259303D01*
X446732Y259232D01*
X446803Y259164D01*
X446876Y259099D01*
X446952Y259037D01*
X447031Y258977D01*
X447111Y258921D01*
X447194Y258868D01*
X447278Y258819D01*
X447365Y258772D01*
X447453Y258730D01*
X447543Y258690D01*
X447635Y258655D01*
X447727Y258622D01*
X447821Y258594D01*
X447916Y258569D01*
X448012Y258548D01*
X448109Y258531D01*
X448206Y258517D01*
X448304Y258508D01*
X448402Y258502D01*
X448500Y258500D01*
X448598Y258502D01*
X448696Y258508D01*
X448794Y258517D01*
X448891Y258531D01*
X448988Y258548D01*
X449084Y258569D01*
X449179Y258594D01*
X449273Y258622D01*
X449365Y258655D01*
X449457Y258690D01*
X449547Y258730D01*
X449635Y258772D01*
X449722Y258819D01*
X449806Y258868D01*
X449889Y258921D01*
X449969Y258977D01*
X450048Y259037D01*
X450124Y259099D01*
X450197Y259164D01*
X450268Y259232D01*
X450336Y259303D01*
X450401Y259376D01*
X450463Y259452D01*
X450523Y259531D01*
X450579Y259611D01*
X450632Y259694D01*
X450681Y259778D01*
X450728Y259865D01*
X450770Y259953D01*
X450810Y260043D01*
X450845Y260135D01*
X450878Y260227D01*
X450906Y260321D01*
X450931Y260416D01*
X450952Y260512D01*
X450969Y260609D01*
X450983Y260706D01*
X450992Y260804D01*
X450998Y260902D01*
X451000Y261000D01*
X451000Y277000D01*
X446000Y277000D02*
X446000Y261000D01*
X444000Y261000D02*
X444002Y260867D01*
X444008Y260733D01*
X444018Y260600D01*
X444032Y260468D01*
X444049Y260336D01*
X444071Y260204D01*
X444096Y260073D01*
X444126Y259943D01*
X444159Y259814D01*
X444196Y259686D01*
X444237Y259559D01*
X444282Y259433D01*
X444330Y259309D01*
X444382Y259186D01*
X444437Y259065D01*
X444497Y258945D01*
X444559Y258827D01*
X444625Y258712D01*
X444695Y258598D01*
X444768Y258486D01*
X444844Y258377D01*
X444923Y258269D01*
X445006Y258165D01*
X445091Y258062D01*
X445180Y257963D01*
X445271Y257866D01*
X445366Y257771D01*
X445463Y257680D01*
X445562Y257591D01*
X445665Y257506D01*
X445769Y257423D01*
X445877Y257344D01*
X445986Y257268D01*
X446098Y257195D01*
X446212Y257125D01*
X446327Y257059D01*
X446445Y256997D01*
X446565Y256937D01*
X446686Y256882D01*
X446809Y256830D01*
X446933Y256782D01*
X447059Y256737D01*
X447186Y256696D01*
X447314Y256659D01*
X447443Y256626D01*
X447573Y256596D01*
X447704Y256571D01*
X447836Y256549D01*
X447968Y256532D01*
X448100Y256518D01*
X448233Y256508D01*
X448367Y256502D01*
X448500Y256500D01*
X448633Y256502D01*
X448767Y256508D01*
X448900Y256518D01*
X449032Y256532D01*
X449164Y256549D01*
X449296Y256571D01*
X449427Y256596D01*
X449557Y256626D01*
X449686Y256659D01*
X449814Y256696D01*
X449941Y256737D01*
X450067Y256782D01*
X450191Y256830D01*
X450314Y256882D01*
X450435Y256937D01*
X450555Y256997D01*
X450673Y257059D01*
X450788Y257125D01*
X450902Y257195D01*
X451014Y257268D01*
X451123Y257344D01*
X451231Y257423D01*
X451335Y257506D01*
X451438Y257591D01*
X451537Y257680D01*
X451634Y257771D01*
X451729Y257866D01*
X451820Y257963D01*
X451909Y258062D01*
X451994Y258165D01*
X452077Y258269D01*
X452156Y258377D01*
X452232Y258486D01*
X452305Y258598D01*
X452375Y258712D01*
X452441Y258827D01*
X452503Y258945D01*
X452563Y259065D01*
X452618Y259186D01*
X452670Y259309D01*
X452718Y259433D01*
X452763Y259559D01*
X452804Y259686D01*
X452841Y259814D01*
X452874Y259943D01*
X452904Y260073D01*
X452929Y260204D01*
X452951Y260336D01*
X452968Y260468D01*
X452982Y260600D01*
X452992Y260733D01*
X452998Y260867D01*
X453000Y261000D01*
X453000Y277000D02*
X452998Y277133D01*
X452992Y277267D01*
X452982Y277400D01*
X452968Y277532D01*
X452951Y277664D01*
X452929Y277796D01*
X452904Y277927D01*
X452874Y278057D01*
X452841Y278186D01*
X452804Y278314D01*
X452763Y278441D01*
X452718Y278567D01*
X452670Y278691D01*
X452618Y278814D01*
X452563Y278935D01*
X452503Y279055D01*
X452441Y279173D01*
X452375Y279288D01*
X452305Y279402D01*
X452232Y279514D01*
X452156Y279623D01*
X452077Y279731D01*
X451994Y279835D01*
X451909Y279938D01*
X451820Y280037D01*
X451729Y280134D01*
X451634Y280229D01*
X451537Y280320D01*
X451438Y280409D01*
X451335Y280494D01*
X451231Y280577D01*
X451123Y280656D01*
X451014Y280732D01*
X450902Y280805D01*
X450788Y280875D01*
X450673Y280941D01*
X450555Y281003D01*
X450435Y281063D01*
X450314Y281118D01*
X450191Y281170D01*
X450067Y281218D01*
X449941Y281263D01*
X449814Y281304D01*
X449686Y281341D01*
X449557Y281374D01*
X449427Y281404D01*
X449296Y281429D01*
X449164Y281451D01*
X449032Y281468D01*
X448900Y281482D01*
X448767Y281492D01*
X448633Y281498D01*
X448500Y281500D01*
X448367Y281498D01*
X448233Y281492D01*
X448100Y281482D01*
X447968Y281468D01*
X447836Y281451D01*
X447704Y281429D01*
X447573Y281404D01*
X447443Y281374D01*
X447314Y281341D01*
X447186Y281304D01*
X447059Y281263D01*
X446933Y281218D01*
X446809Y281170D01*
X446686Y281118D01*
X446565Y281063D01*
X446445Y281003D01*
X446327Y280941D01*
X446212Y280875D01*
X446098Y280805D01*
X445986Y280732D01*
X445877Y280656D01*
X445769Y280577D01*
X445665Y280494D01*
X445562Y280409D01*
X445463Y280320D01*
X445366Y280229D01*
X445271Y280134D01*
X445180Y280037D01*
X445091Y279938D01*
X445006Y279835D01*
X444923Y279731D01*
X444844Y279623D01*
X444768Y279514D01*
X444695Y279402D01*
X444625Y279288D01*
X444559Y279173D01*
X444497Y279055D01*
X444437Y278935D01*
X444382Y278814D01*
X444330Y278691D01*
X444282Y278567D01*
X444237Y278441D01*
X444196Y278314D01*
X444159Y278186D01*
X444126Y278057D01*
X444096Y277927D01*
X444071Y277796D01*
X444049Y277664D01*
X444032Y277532D01*
X444018Y277400D01*
X444008Y277267D01*
X444002Y277133D01*
X444000Y277000D01*
X453000Y277000D02*
X453000Y261000D01*
X444000Y261000D02*
X444000Y277000D01*
X544750Y270300D02*
X544883Y270302D01*
X545017Y270308D01*
X545150Y270318D01*
X545282Y270332D01*
X545414Y270349D01*
X545546Y270371D01*
X545677Y270396D01*
X545807Y270426D01*
X545936Y270459D01*
X546064Y270496D01*
X546191Y270537D01*
X546317Y270582D01*
X546441Y270630D01*
X546564Y270682D01*
X546685Y270737D01*
X546805Y270797D01*
X546923Y270859D01*
X547038Y270925D01*
X547152Y270995D01*
X547264Y271068D01*
X547373Y271144D01*
X547481Y271223D01*
X547585Y271306D01*
X547688Y271391D01*
X547787Y271480D01*
X547884Y271571D01*
X547979Y271666D01*
X548070Y271763D01*
X548159Y271862D01*
X548244Y271965D01*
X548327Y272069D01*
X548406Y272177D01*
X548482Y272286D01*
X548555Y272398D01*
X548625Y272512D01*
X548691Y272627D01*
X548753Y272745D01*
X548813Y272865D01*
X548868Y272986D01*
X548920Y273109D01*
X548968Y273233D01*
X549013Y273359D01*
X549054Y273486D01*
X549091Y273614D01*
X549124Y273743D01*
X549154Y273873D01*
X549179Y274004D01*
X549201Y274136D01*
X549218Y274268D01*
X549232Y274400D01*
X549242Y274533D01*
X549248Y274667D01*
X549250Y274800D01*
X460250Y270300D02*
X460117Y270302D01*
X459983Y270308D01*
X459850Y270318D01*
X459718Y270332D01*
X459586Y270349D01*
X459454Y270371D01*
X459323Y270396D01*
X459193Y270426D01*
X459064Y270459D01*
X458936Y270496D01*
X458809Y270537D01*
X458683Y270582D01*
X458559Y270630D01*
X458436Y270682D01*
X458315Y270737D01*
X458195Y270797D01*
X458077Y270859D01*
X457962Y270925D01*
X457848Y270995D01*
X457736Y271068D01*
X457627Y271144D01*
X457519Y271223D01*
X457415Y271306D01*
X457312Y271391D01*
X457213Y271480D01*
X457116Y271571D01*
X457021Y271666D01*
X456930Y271763D01*
X456841Y271862D01*
X456756Y271965D01*
X456673Y272069D01*
X456594Y272177D01*
X456518Y272286D01*
X456445Y272398D01*
X456375Y272512D01*
X456309Y272627D01*
X456247Y272745D01*
X456187Y272865D01*
X456132Y272986D01*
X456080Y273109D01*
X456032Y273233D01*
X455987Y273359D01*
X455946Y273486D01*
X455909Y273614D01*
X455876Y273743D01*
X455846Y273873D01*
X455821Y274004D01*
X455799Y274136D01*
X455782Y274268D01*
X455768Y274400D01*
X455758Y274533D01*
X455752Y274667D01*
X455750Y274800D01*
X549250Y327500D02*
X555000Y327500D01*
X455750Y327500D02*
X450000Y327500D01*
D22*
X555500Y301300D02*
X557500Y301300D01*
X556500Y300300D02*
X556500Y302300D01*
D20*
X471104Y180277D03*
D16*
X473509Y185000D02*
X476436Y182073D01*
X473509Y185000D02*
X476436Y187927D01*
X502500Y213991D02*
X505427Y211064D01*
X502500Y213991D02*
X499573Y211064D01*
X528564Y187927D02*
X531491Y185000D01*
X528564Y182073D01*
X502500Y156009D02*
X499573Y158936D01*
X502500Y156009D02*
X505427Y158936D01*
D10*
X451440Y180680D02*
X451440Y189320D01*
X458560Y189320D02*
X458560Y180680D01*
D15*
X455000Y178650D03*
X455000Y191350D03*
D13*
X455000Y190080D02*
X455000Y179920D01*
D10*
X533560Y144320D02*
X533560Y135680D01*
X526440Y135680D02*
X526440Y144320D01*
D15*
X530000Y146350D03*
X530000Y133650D03*
D13*
X530000Y134920D02*
X530000Y145080D01*
D10*
X458560Y144320D02*
X458560Y135680D01*
X451440Y135680D02*
X451440Y144320D01*
D15*
X455000Y146350D03*
X455000Y133650D03*
D13*
X455000Y134920D02*
X455000Y145080D01*
D10*
X471440Y144320D02*
X471440Y135680D01*
X478560Y135680D02*
X478560Y144320D01*
D15*
X475000Y133650D03*
X475000Y146350D03*
D13*
X475000Y145080D02*
X475000Y134920D01*
D11*
X498940Y228180D02*
X506060Y228180D01*
X506060Y236690D02*
X498940Y236690D01*
D12*
X508382Y232449D03*
X496698Y232449D03*
D13*
X502500Y228690D02*
X502500Y236310D01*
D11*
X554320Y188560D02*
X554320Y181440D01*
X545810Y181440D02*
X545810Y188560D01*
D14*
X550051Y190882D03*
X550051Y179198D03*
D13*
X553810Y185000D02*
X546190Y185000D01*
D11*
X470680Y221440D02*
X470680Y228560D01*
X479190Y228560D02*
X479190Y221440D01*
D14*
X474949Y219119D03*
X474949Y230803D03*
D13*
X471190Y225000D02*
X478810Y225000D01*
D11*
X459320Y228560D02*
X459320Y221440D01*
X450810Y221440D02*
X450810Y228560D01*
D14*
X455051Y230882D03*
X455051Y219198D03*
D13*
X458810Y225000D02*
X451190Y225000D01*
D11*
X554320Y143560D02*
X554320Y136440D01*
X545810Y136440D02*
X545810Y143560D01*
D14*
X550051Y145882D03*
X550051Y134198D03*
D13*
X553810Y140000D02*
X546190Y140000D01*
D10*
X246820Y181060D02*
X238180Y181060D01*
X238180Y173940D02*
X246820Y173940D01*
D23*
X236150Y177500D03*
X248850Y177500D03*
D13*
X247580Y177500D02*
X237420Y177500D01*
D10*
X308560Y84320D02*
X308560Y75680D01*
X301440Y75680D02*
X301440Y84320D01*
D15*
X305000Y86350D03*
X305000Y73650D03*
D13*
X305000Y74920D02*
X305000Y85080D01*
D18*
X51000Y260000D02*
X19000Y260000D01*
X19000Y285000D02*
X51000Y285000D01*
X19000Y285000D02*
X19000Y260000D01*
X51000Y260000D02*
X51000Y285000D01*
D10*
X53560Y300680D02*
X53560Y309320D01*
X46440Y309320D02*
X46440Y300680D01*
D15*
X50000Y311350D03*
X50000Y298650D03*
D13*
X50000Y299920D02*
X50000Y310080D01*
D10*
X73560Y309320D02*
X73560Y300680D01*
X66440Y300680D02*
X66440Y309320D01*
D15*
X70000Y311350D03*
X70000Y298650D03*
D13*
X70000Y299920D02*
X70000Y310080D01*
D24*
X545000Y239142D02*
X559142Y225000D01*
X545000Y210858D02*
X530858Y225000D01*
D25*
X703400Y279300D03*
D26*
X703900Y279400D03*
D27*
X704150Y279500D03*
D28*
X704450Y279600D03*
D29*
X704650Y279700D03*
D30*
X704700Y279800D03*
X704700Y279900D03*
X704700Y280000D03*
D31*
X697000Y280100D03*
D30*
X704700Y280100D03*
D32*
X696950Y280200D03*
D30*
X704700Y280200D03*
D33*
X696850Y280300D03*
D30*
X704700Y280300D03*
D34*
X696700Y280400D03*
D30*
X704700Y280400D03*
D35*
X696550Y280500D03*
D30*
X704700Y280500D03*
D26*
X696500Y280600D03*
D36*
X704700Y280600D03*
D37*
X696350Y280700D03*
D38*
X705100Y280700D03*
D39*
X696250Y280800D03*
D40*
X705550Y280800D03*
D38*
X696200Y280900D03*
D41*
X705850Y280900D03*
D42*
X696100Y281000D03*
D43*
X706100Y281000D03*
D44*
X696000Y281100D03*
D45*
X695900Y281200D03*
D36*
X695800Y281300D03*
D29*
X695650Y281400D03*
D46*
X695550Y281500D03*
D44*
X695400Y281600D03*
D47*
X695250Y281700D03*
D48*
X695100Y281800D03*
D37*
X695050Y281900D03*
D26*
X694900Y282000D03*
D35*
X694850Y282100D03*
D49*
X712050Y282100D03*
D50*
X694750Y282200D03*
D25*
X712100Y282200D03*
D51*
X694700Y282300D03*
D52*
X712100Y282300D03*
X694600Y282400D03*
D51*
X712200Y282400D03*
D32*
X694550Y282500D03*
D34*
X712200Y282500D03*
D47*
X702450Y282600D03*
D35*
X712250Y282600D03*
D53*
X702450Y282700D03*
D54*
X712300Y282700D03*
D55*
X702450Y282800D03*
D26*
X712300Y282800D03*
D56*
X702450Y282900D03*
D57*
X712400Y282900D03*
D58*
X702450Y283000D03*
D37*
X712450Y283000D03*
D59*
X702450Y283100D03*
D60*
X712500Y283100D03*
D61*
X702450Y283200D03*
D48*
X712600Y283200D03*
D62*
X702450Y283300D03*
D48*
X712700Y283300D03*
D63*
X699900Y283400D03*
X705000Y283400D03*
D39*
X712850Y283400D03*
D63*
X699600Y283500D03*
X705300Y283500D03*
D39*
X712950Y283500D03*
D63*
X699400Y283600D03*
X705500Y283600D03*
D60*
X713100Y283600D03*
D64*
X699150Y283700D03*
X705750Y283700D03*
D39*
X713250Y283700D03*
D64*
X698950Y283800D03*
X705950Y283800D03*
D60*
X713400Y283800D03*
D64*
X698750Y283900D03*
X706150Y283900D03*
D60*
X713500Y283900D03*
D65*
X698500Y284000D03*
X706400Y284000D03*
D60*
X713600Y284000D03*
D65*
X698300Y284100D03*
X706600Y284100D03*
D37*
X713750Y284100D03*
D66*
X698150Y284200D03*
X706750Y284200D03*
D57*
X713800Y284200D03*
D66*
X697950Y284300D03*
X706950Y284300D03*
D67*
X713850Y284300D03*
D65*
X697800Y284400D03*
X707100Y284400D03*
D40*
X713950Y284400D03*
D66*
X697650Y284500D03*
X707250Y284500D03*
D35*
X713950Y284500D03*
D66*
X697450Y284600D03*
X707450Y284600D03*
D50*
X713950Y284600D03*
D66*
X697350Y284700D03*
X707550Y284700D03*
D41*
X713950Y284700D03*
D66*
X697150Y284800D03*
X707750Y284800D03*
D33*
X713950Y284800D03*
D68*
X697000Y284900D03*
X707900Y284900D03*
D25*
X714000Y284900D03*
D66*
X696850Y285000D03*
X708050Y285000D03*
D43*
X714000Y285000D03*
D68*
X696700Y285100D03*
X708200Y285100D03*
D69*
X714000Y285100D03*
D43*
X689200Y285200D03*
D66*
X696550Y285200D03*
X708350Y285200D03*
D25*
X689200Y285300D03*
D68*
X696400Y285300D03*
X708500Y285300D03*
D52*
X689200Y285400D03*
D68*
X696300Y285400D03*
X708600Y285400D03*
D51*
X689200Y285500D03*
D68*
X696200Y285500D03*
X708700Y285500D03*
D41*
X689250Y285600D03*
D68*
X696000Y285600D03*
X708900Y285600D03*
D50*
X689250Y285700D03*
D68*
X695900Y285700D03*
X709000Y285700D03*
D35*
X689250Y285800D03*
D68*
X695800Y285800D03*
X709100Y285800D03*
D54*
X689200Y285900D03*
D68*
X695700Y285900D03*
D70*
X702450Y285900D03*
D68*
X709200Y285900D03*
D40*
X689150Y286000D03*
D71*
X695550Y286000D03*
D32*
X702450Y286000D03*
D71*
X709350Y286000D03*
D26*
X689100Y286100D03*
D68*
X695400Y286100D03*
D33*
X702450Y286100D03*
D68*
X709500Y286100D03*
D40*
X689050Y286200D03*
D68*
X695300Y286200D03*
D41*
X702450Y286200D03*
D68*
X709600Y286200D03*
D40*
X688950Y286300D03*
D68*
X695200Y286300D03*
D35*
X702450Y286300D03*
D68*
X709700Y286300D03*
D40*
X688850Y286400D03*
D68*
X695100Y286400D03*
D67*
X702450Y286400D03*
D68*
X709800Y286400D03*
D26*
X688800Y286500D03*
D68*
X695000Y286500D03*
D37*
X702450Y286500D03*
D68*
X709900Y286500D03*
D40*
X688750Y286600D03*
D68*
X694900Y286600D03*
D27*
X702450Y286600D03*
D68*
X710000Y286600D03*
D40*
X688650Y286700D03*
D68*
X694800Y286700D03*
D47*
X702450Y286700D03*
D68*
X710100Y286700D03*
D40*
X688550Y286800D03*
D68*
X694700Y286800D03*
D28*
X702450Y286800D03*
D68*
X710200Y286800D03*
D40*
X688450Y286900D03*
D68*
X694600Y286900D03*
D46*
X702450Y286900D03*
D68*
X710300Y286900D03*
D40*
X688450Y287000D03*
D68*
X694500Y287000D03*
D29*
X702450Y287000D03*
D68*
X710400Y287000D03*
D40*
X688350Y287100D03*
D68*
X694400Y287100D03*
D72*
X702450Y287100D03*
D68*
X710500Y287100D03*
D40*
X688250Y287200D03*
D68*
X694300Y287200D03*
D73*
X702450Y287200D03*
D68*
X710600Y287200D03*
D54*
X688200Y287300D03*
D68*
X694200Y287300D03*
D53*
X702450Y287300D03*
D68*
X710700Y287300D03*
D54*
X688100Y287400D03*
D68*
X694100Y287400D03*
D74*
X702450Y287400D03*
D68*
X710800Y287400D03*
D40*
X688050Y287500D03*
D68*
X694000Y287500D03*
D64*
X702450Y287500D03*
D68*
X710900Y287500D03*
D54*
X688000Y287600D03*
D68*
X693900Y287600D03*
D66*
X702450Y287600D03*
D68*
X711000Y287600D03*
D54*
X687900Y287700D03*
D68*
X693800Y287700D03*
D71*
X702450Y287700D03*
D68*
X711100Y287700D03*
D54*
X687900Y287800D03*
D68*
X693700Y287800D03*
D55*
X702450Y287800D03*
D68*
X711200Y287800D03*
D35*
X687850Y287900D03*
D68*
X693600Y287900D03*
D75*
X702450Y287900D03*
D68*
X711300Y287900D03*
D76*
X687800Y288000D03*
D68*
X693600Y288000D03*
D77*
X702450Y288000D03*
D68*
X711300Y288000D03*
D76*
X687800Y288100D03*
D68*
X693500Y288100D03*
D78*
X702450Y288100D03*
D68*
X711400Y288100D03*
D34*
X687800Y288200D03*
D68*
X693400Y288200D03*
D56*
X702450Y288200D03*
D68*
X711500Y288200D03*
D33*
X687850Y288300D03*
D68*
X693300Y288300D03*
D79*
X702450Y288300D03*
D68*
X711600Y288300D03*
D52*
X687900Y288400D03*
D68*
X693200Y288400D03*
D80*
X702450Y288400D03*
D68*
X711700Y288400D03*
D32*
X687950Y288500D03*
D66*
X693150Y288500D03*
D81*
X702450Y288500D03*
D66*
X711750Y288500D03*
D49*
X687950Y288600D03*
D68*
X693100Y288600D03*
D58*
X702450Y288600D03*
D68*
X711800Y288600D03*
X693000Y288700D03*
D82*
X702450Y288700D03*
D68*
X711900Y288700D03*
X692900Y288800D03*
D83*
X702450Y288800D03*
D68*
X712000Y288800D03*
D66*
X692850Y288900D03*
D84*
X702450Y288900D03*
D66*
X712050Y288900D03*
D69*
X718300Y288900D03*
D66*
X692750Y289000D03*
D59*
X702450Y289000D03*
D66*
X712150Y289000D03*
D32*
X718250Y289000D03*
D68*
X692700Y289100D03*
D85*
X702450Y289100D03*
D68*
X712200Y289100D03*
D52*
X718200Y289100D03*
D66*
X692650Y289200D03*
D85*
X702450Y289200D03*
D66*
X712250Y289200D03*
D51*
X718100Y289200D03*
D66*
X692550Y289300D03*
D86*
X702450Y289300D03*
D66*
X712350Y289300D03*
D34*
X718100Y289300D03*
D66*
X692450Y289400D03*
D61*
X702450Y289400D03*
D66*
X712450Y289400D03*
D50*
X718050Y289400D03*
D66*
X692450Y289500D03*
D87*
X702450Y289500D03*
D66*
X712450Y289500D03*
D76*
X718100Y289500D03*
D66*
X692350Y289600D03*
D88*
X702450Y289600D03*
D66*
X712550Y289600D03*
D76*
X718100Y289600D03*
D65*
X692300Y289700D03*
D62*
X702450Y289700D03*
D65*
X712600Y289700D03*
D35*
X718150Y289700D03*
D65*
X692200Y289800D03*
D89*
X702450Y289800D03*
D65*
X712700Y289800D03*
D35*
X718150Y289800D03*
D66*
X692150Y289900D03*
D82*
X701450Y289900D03*
D26*
X706300Y289900D03*
D66*
X712750Y289900D03*
D35*
X718250Y289900D03*
D65*
X692100Y290000D03*
D40*
X698450Y290000D03*
D75*
X702350Y290000D03*
D67*
X706350Y290000D03*
D65*
X712800Y290000D03*
D35*
X718250Y290000D03*
D65*
X692000Y290100D03*
D26*
X698400Y290100D03*
D75*
X702350Y290100D03*
D57*
X706400Y290100D03*
D65*
X712900Y290100D03*
D35*
X718350Y290100D03*
D65*
X692000Y290200D03*
D26*
X698300Y290200D03*
D75*
X702350Y290200D03*
D37*
X706450Y290200D03*
D65*
X712900Y290200D03*
D35*
X718350Y290200D03*
D65*
X691900Y290300D03*
D67*
X698250Y290300D03*
D90*
X702300Y290300D03*
D60*
X706500Y290300D03*
D65*
X713000Y290300D03*
D35*
X718450Y290300D03*
D65*
X691800Y290400D03*
D67*
X698250Y290400D03*
D90*
X702300Y290400D03*
D60*
X706500Y290400D03*
D65*
X713100Y290400D03*
D35*
X718450Y290400D03*
D65*
X691800Y290500D03*
D57*
X698200Y290500D03*
D55*
X702350Y290500D03*
D60*
X706600Y290500D03*
D65*
X713100Y290500D03*
D76*
X718500Y290500D03*
D65*
X691700Y290600D03*
D57*
X698100Y290600D03*
D55*
X702350Y290600D03*
D39*
X706650Y290600D03*
D65*
X713200Y290600D03*
D35*
X718550Y290600D03*
D64*
X691650Y290700D03*
D37*
X698050Y290700D03*
D91*
X702300Y290700D03*
D48*
X706700Y290700D03*
D64*
X713250Y290700D03*
D76*
X718600Y290700D03*
D65*
X691600Y290800D03*
D37*
X698050Y290800D03*
D71*
X702350Y290800D03*
D39*
X706750Y290800D03*
D65*
X713300Y290800D03*
D35*
X718650Y290800D03*
D64*
X691550Y290900D03*
D37*
X697950Y290900D03*
D68*
X702300Y290900D03*
D48*
X706800Y290900D03*
D64*
X713350Y290900D03*
D76*
X718700Y290900D03*
D64*
X691450Y291000D03*
D60*
X697900Y291000D03*
D68*
X702300Y291000D03*
D48*
X706900Y291000D03*
D64*
X713450Y291000D03*
D76*
X718700Y291000D03*
D64*
X691450Y291100D03*
D60*
X697800Y291100D03*
D66*
X702350Y291100D03*
D27*
X706950Y291100D03*
D64*
X713450Y291100D03*
D35*
X718750Y291100D03*
D63*
X691400Y291200D03*
D60*
X697800Y291200D03*
D65*
X702300Y291200D03*
D48*
X707000Y291200D03*
D63*
X713500Y291200D03*
D76*
X718800Y291200D03*
D63*
X691300Y291300D03*
D60*
X697700Y291300D03*
D63*
X702300Y291300D03*
D27*
X707050Y291300D03*
D63*
X713600Y291300D03*
D76*
X718800Y291300D03*
D63*
X691300Y291400D03*
D39*
X697650Y291400D03*
D92*
X702350Y291400D03*
D27*
X707150Y291400D03*
D63*
X713600Y291400D03*
D76*
X718900Y291400D03*
D63*
X691200Y291500D03*
D39*
X697550Y291500D03*
D93*
X702300Y291500D03*
D38*
X707200Y291500D03*
D63*
X713700Y291500D03*
D76*
X718900Y291500D03*
D63*
X691200Y291600D03*
D60*
X697500Y291600D03*
D74*
X702350Y291600D03*
D27*
X707250Y291600D03*
D63*
X713700Y291600D03*
D35*
X718950Y291600D03*
D63*
X691100Y291700D03*
D39*
X697450Y291700D03*
D53*
X702350Y291700D03*
D27*
X707350Y291700D03*
D63*
X713800Y291700D03*
D76*
X719000Y291700D03*
D92*
X691050Y291800D03*
D39*
X697350Y291800D03*
D94*
X702300Y291800D03*
D27*
X707450Y291800D03*
D92*
X713850Y291800D03*
D76*
X719000Y291800D03*
D92*
X691050Y291900D03*
D60*
X697300Y291900D03*
D95*
X702300Y291900D03*
D27*
X707450Y291900D03*
D92*
X713850Y291900D03*
D35*
X719050Y291900D03*
D92*
X690950Y292000D03*
D60*
X697200Y292000D03*
D96*
X702300Y292000D03*
D27*
X707550Y292000D03*
D92*
X713950Y292000D03*
D76*
X719100Y292000D03*
D92*
X690950Y292100D03*
D60*
X697100Y292100D03*
D97*
X702350Y292100D03*
D27*
X707650Y292100D03*
D92*
X713950Y292100D03*
D76*
X719100Y292100D03*
D92*
X690850Y292200D03*
D37*
X697050Y292200D03*
D29*
X702350Y292200D03*
D48*
X707700Y292200D03*
D92*
X714050Y292200D03*
D76*
X719100Y292200D03*
D92*
X690850Y292300D03*
D37*
X696950Y292300D03*
D46*
X702350Y292300D03*
D48*
X707800Y292300D03*
D92*
X714050Y292300D03*
D34*
X719100Y292300D03*
D93*
X690800Y292400D03*
D37*
X696850Y292400D03*
D44*
X702300Y292400D03*
D48*
X707900Y292400D03*
D93*
X714100Y292400D03*
D51*
X719000Y292400D03*
D93*
X690700Y292500D03*
D57*
X696800Y292500D03*
D42*
X702300Y292500D03*
D60*
X708000Y292500D03*
D93*
X714200Y292500D03*
D25*
X718900Y292500D03*
D93*
X690700Y292600D03*
D57*
X696700Y292600D03*
D27*
X702350Y292600D03*
D60*
X708100Y292600D03*
D93*
X714200Y292600D03*
D69*
X718800Y292600D03*
D74*
X690650Y292700D03*
D26*
X696600Y292700D03*
D60*
X702300Y292700D03*
D57*
X708200Y292700D03*
D74*
X714250Y292700D03*
D93*
X690600Y292800D03*
D40*
X696450Y292800D03*
X702350Y292800D03*
D67*
X708350Y292800D03*
D93*
X714300Y292800D03*
D74*
X690550Y292900D03*
D76*
X696300Y292900D03*
D50*
X702350Y292900D03*
D40*
X708450Y292900D03*
D74*
X714350Y292900D03*
X690550Y293000D03*
D26*
X696400Y293000D03*
X702300Y293000D03*
D57*
X708400Y293000D03*
D74*
X714350Y293000D03*
X690450Y293100D03*
D37*
X696450Y293100D03*
D60*
X702300Y293100D03*
D39*
X708350Y293100D03*
D74*
X714450Y293100D03*
D98*
X690400Y293200D03*
D39*
X696550Y293200D03*
D27*
X702350Y293200D03*
X708250Y293200D03*
D98*
X714500Y293200D03*
X690400Y293300D03*
D27*
X696550Y293300D03*
D42*
X702300Y293300D03*
X708200Y293300D03*
D98*
X714500Y293300D03*
D49*
X685050Y293400D03*
D98*
X690300Y293400D03*
D38*
X696600Y293400D03*
D44*
X702300Y293400D03*
D99*
X708150Y293400D03*
D98*
X714600Y293400D03*
D33*
X685150Y293500D03*
D98*
X690300Y293500D03*
D42*
X696600Y293500D03*
D46*
X702350Y293500D03*
D28*
X708150Y293500D03*
D98*
X714600Y293500D03*
D34*
X685300Y293600D03*
D53*
X690250Y293600D03*
D99*
X696650Y293600D03*
D29*
X702350Y293600D03*
D45*
X708100Y293600D03*
D53*
X714650Y293600D03*
D50*
X685350Y293700D03*
D53*
X690250Y293700D03*
D28*
X696650Y293700D03*
D97*
X702350Y293700D03*
D36*
X708100Y293700D03*
D53*
X714650Y293700D03*
D50*
X685350Y293800D03*
D53*
X690150Y293800D03*
D46*
X696650Y293800D03*
D96*
X702300Y293800D03*
D30*
X708100Y293800D03*
D53*
X714750Y293800D03*
D76*
X685300Y293900D03*
D53*
X690150Y293900D03*
D36*
X696700Y293900D03*
D95*
X702300Y293900D03*
D97*
X708050Y293900D03*
D53*
X714750Y293900D03*
D76*
X685300Y294000D03*
D94*
X690100Y294000D03*
D30*
X696700Y294000D03*
D94*
X702300Y294000D03*
D96*
X708100Y294000D03*
D94*
X714800Y294000D03*
D50*
X685250Y294100D03*
D94*
X690100Y294100D03*
D97*
X696750Y294100D03*
D53*
X702350Y294100D03*
D72*
X708050Y294100D03*
D94*
X714800Y294100D03*
D50*
X685250Y294200D03*
D94*
X690000Y294200D03*
D96*
X696700Y294200D03*
D74*
X702350Y294200D03*
D73*
X708050Y294200D03*
D94*
X714900Y294200D03*
D50*
X685250Y294300D03*
D94*
X690000Y294300D03*
D72*
X696750Y294300D03*
D93*
X702300Y294300D03*
D94*
X708000Y294300D03*
X714900Y294300D03*
D76*
X685200Y294400D03*
D94*
X690000Y294400D03*
D73*
X696750Y294400D03*
D92*
X702350Y294400D03*
D53*
X708050Y294400D03*
D94*
X714900Y294400D03*
D76*
X685200Y294500D03*
D73*
X689950Y294500D03*
X696750Y294500D03*
D63*
X702300Y294500D03*
D98*
X708000Y294500D03*
D73*
X714950Y294500D03*
D76*
X685200Y294600D03*
D73*
X689950Y294600D03*
D53*
X696750Y294600D03*
D65*
X702300Y294600D03*
D74*
X708050Y294600D03*
D73*
X714950Y294600D03*
D50*
X685150Y294700D03*
D73*
X689850Y294700D03*
D53*
X696750Y294700D03*
D66*
X702350Y294700D03*
D93*
X708000Y294700D03*
D73*
X715050Y294700D03*
D50*
X685150Y294800D03*
D73*
X689850Y294800D03*
D74*
X696750Y294800D03*
D68*
X702300Y294800D03*
D92*
X708050Y294800D03*
D73*
X715050Y294800D03*
D50*
X685150Y294900D03*
D95*
X689800Y294900D03*
D74*
X696750Y294900D03*
D71*
X702350Y294900D03*
D63*
X708000Y294900D03*
D95*
X715100Y294900D03*
D50*
X685150Y295000D03*
D95*
X689800Y295000D03*
D92*
X696750Y295000D03*
D71*
X702350Y295000D03*
D64*
X708050Y295000D03*
D95*
X715100Y295000D03*
D76*
X685100Y295100D03*
D72*
X689750Y295100D03*
D92*
X696750Y295100D03*
D91*
X702300Y295100D03*
D65*
X708000Y295100D03*
D72*
X715150Y295100D03*
D76*
X685100Y295200D03*
D72*
X689750Y295200D03*
D63*
X696700Y295200D03*
D55*
X702350Y295200D03*
D66*
X708050Y295200D03*
D72*
X715150Y295200D03*
D50*
X685050Y295300D03*
D95*
X689700Y295300D03*
D64*
X696750Y295300D03*
D55*
X702350Y295300D03*
D66*
X708050Y295300D03*
D95*
X715200Y295300D03*
D50*
X685050Y295400D03*
D72*
X689650Y295400D03*
D65*
X696700Y295400D03*
D90*
X702300Y295400D03*
D71*
X708050Y295400D03*
D72*
X715250Y295400D03*
D50*
X685050Y295500D03*
D72*
X689650Y295500D03*
D65*
X696700Y295500D03*
D90*
X702300Y295500D03*
D71*
X708050Y295500D03*
D72*
X715250Y295500D03*
D50*
X685050Y295600D03*
D96*
X689600Y295600D03*
D66*
X696650Y295600D03*
D75*
X702350Y295600D03*
D91*
X708100Y295600D03*
D96*
X715300Y295600D03*
D50*
X685050Y295700D03*
D96*
X689600Y295700D03*
D68*
X696700Y295700D03*
D75*
X702350Y295700D03*
D91*
X708100Y295700D03*
D96*
X715300Y295700D03*
D50*
X685050Y295800D03*
D96*
X689600Y295800D03*
D71*
X696650Y295800D03*
D75*
X702350Y295800D03*
D55*
X708150Y295800D03*
D96*
X715300Y295800D03*
D50*
X685050Y295900D03*
D97*
X689550Y295900D03*
D100*
X699600Y295900D03*
D55*
X708150Y295900D03*
D97*
X715350Y295900D03*
D50*
X685050Y296000D03*
D97*
X689550Y296000D03*
D101*
X702450Y296000D03*
D97*
X715350Y296000D03*
D50*
X685050Y296100D03*
D97*
X689450Y296100D03*
D101*
X702450Y296100D03*
D97*
X715450Y296100D03*
D50*
X684950Y296200D03*
D97*
X689450Y296200D03*
D101*
X702450Y296200D03*
D97*
X715450Y296200D03*
D50*
X684950Y296300D03*
D97*
X689450Y296300D03*
D102*
X702450Y296300D03*
D97*
X715450Y296300D03*
D50*
X684950Y296400D03*
D30*
X689400Y296400D03*
D102*
X702450Y296400D03*
D30*
X715500Y296400D03*
D50*
X684950Y296500D03*
D30*
X689400Y296500D03*
D103*
X702450Y296500D03*
D30*
X715500Y296500D03*
D50*
X684950Y296600D03*
D30*
X689400Y296600D03*
D103*
X702450Y296600D03*
D30*
X715500Y296600D03*
D50*
X684950Y296700D03*
D29*
X689350Y296700D03*
D103*
X702450Y296700D03*
D29*
X715550Y296700D03*
D50*
X684950Y296800D03*
D29*
X689350Y296800D03*
D104*
X702450Y296800D03*
D29*
X715550Y296800D03*
D50*
X684950Y296900D03*
D29*
X689350Y296900D03*
D104*
X702450Y296900D03*
D29*
X715550Y296900D03*
D34*
X685000Y297000D03*
D36*
X689300Y297000D03*
D105*
X702450Y297000D03*
D36*
X715600Y297000D03*
D52*
X685100Y297100D03*
D36*
X689300Y297100D03*
D105*
X702450Y297100D03*
D36*
X715600Y297100D03*
X689300Y297200D03*
D105*
X702450Y297200D03*
D36*
X715600Y297200D03*
D46*
X689250Y297300D03*
D106*
X702450Y297300D03*
D46*
X715650Y297300D03*
X689250Y297400D03*
D106*
X702450Y297400D03*
D46*
X715650Y297400D03*
X689250Y297500D03*
D51*
X693900Y297500D03*
D107*
X699650Y297500D03*
D27*
X702450Y297500D03*
D38*
X706200Y297500D03*
D99*
X710050Y297500D03*
D46*
X715650Y297500D03*
D45*
X689200Y297600D03*
D41*
X693850Y297600D03*
D107*
X699650Y297600D03*
D27*
X702450Y297600D03*
D38*
X706200Y297600D03*
D44*
X710100Y297600D03*
D45*
X715700Y297600D03*
X689200Y297700D03*
D41*
X693850Y297700D03*
D107*
X699650Y297700D03*
D27*
X702450Y297700D03*
D38*
X706200Y297700D03*
D44*
X710100Y297700D03*
D45*
X715700Y297700D03*
X689200Y297800D03*
D41*
X693850Y297800D03*
D107*
X699650Y297800D03*
D27*
X702450Y297800D03*
D38*
X706200Y297800D03*
D44*
X710100Y297800D03*
D45*
X715700Y297800D03*
D28*
X689150Y297900D03*
D34*
X693800Y297900D03*
D107*
X699650Y297900D03*
D27*
X702450Y297900D03*
D38*
X706200Y297900D03*
D28*
X710150Y297900D03*
X715750Y297900D03*
X689150Y298000D03*
D34*
X693800Y298000D03*
D107*
X699650Y298000D03*
D27*
X702450Y298000D03*
D38*
X706200Y298000D03*
D28*
X710150Y298000D03*
X715750Y298000D03*
D41*
X719950Y298000D03*
D28*
X689150Y298100D03*
D34*
X693800Y298100D03*
D107*
X699650Y298100D03*
D27*
X702450Y298100D03*
D38*
X706200Y298100D03*
D28*
X710150Y298100D03*
X715750Y298100D03*
D50*
X719950Y298100D03*
D28*
X689150Y298200D03*
D50*
X693750Y298200D03*
D107*
X699650Y298200D03*
D27*
X702450Y298200D03*
D38*
X706200Y298200D03*
D45*
X710200Y298200D03*
D28*
X715750Y298200D03*
D50*
X719950Y298200D03*
D44*
X689100Y298300D03*
D50*
X693750Y298300D03*
D107*
X699650Y298300D03*
D27*
X702450Y298300D03*
D38*
X706200Y298300D03*
D45*
X710200Y298300D03*
D44*
X715800Y298300D03*
D50*
X719950Y298300D03*
D44*
X689100Y298400D03*
D50*
X693750Y298400D03*
D107*
X699650Y298400D03*
D27*
X702450Y298400D03*
D38*
X706200Y298400D03*
D45*
X710200Y298400D03*
D44*
X715800Y298400D03*
D50*
X719950Y298400D03*
D44*
X689100Y298500D03*
D65*
X695600Y298500D03*
D107*
X699650Y298500D03*
D27*
X702450Y298500D03*
D38*
X706200Y298500D03*
D45*
X710200Y298500D03*
D44*
X715800Y298500D03*
D50*
X719950Y298500D03*
D44*
X689100Y298600D03*
D66*
X695550Y298600D03*
D107*
X699650Y298600D03*
D27*
X702450Y298600D03*
D38*
X706200Y298600D03*
D46*
X710250Y298600D03*
D44*
X715800Y298600D03*
D50*
X719950Y298600D03*
D99*
X689050Y298700D03*
D66*
X695550Y298700D03*
D107*
X699650Y298700D03*
D27*
X702450Y298700D03*
D38*
X706200Y298700D03*
D46*
X710250Y298700D03*
D99*
X715850Y298700D03*
D50*
X719950Y298700D03*
D99*
X689050Y298800D03*
D66*
X695550Y298800D03*
D107*
X699650Y298800D03*
D27*
X702450Y298800D03*
D38*
X706200Y298800D03*
D46*
X710250Y298800D03*
D99*
X715850Y298800D03*
D50*
X719850Y298800D03*
D42*
X689100Y298900D03*
D68*
X695500Y298900D03*
D107*
X699650Y298900D03*
D27*
X702450Y298900D03*
D38*
X706200Y298900D03*
D36*
X710300Y298900D03*
D42*
X715800Y298900D03*
D50*
X719850Y298900D03*
D42*
X689100Y299000D03*
D68*
X695500Y299000D03*
D107*
X699650Y299000D03*
D27*
X702450Y299000D03*
D38*
X706200Y299000D03*
D36*
X710300Y299000D03*
D42*
X715800Y299000D03*
D50*
X719850Y299000D03*
D47*
X689050Y299100D03*
D68*
X695500Y299100D03*
D107*
X699650Y299100D03*
D27*
X702450Y299100D03*
D38*
X706200Y299100D03*
D36*
X710300Y299100D03*
D47*
X715850Y299100D03*
D50*
X719850Y299100D03*
D47*
X689050Y299200D03*
D68*
X695500Y299200D03*
D107*
X699650Y299200D03*
D27*
X702450Y299200D03*
D38*
X706200Y299200D03*
D36*
X710300Y299200D03*
D47*
X715850Y299200D03*
D50*
X719850Y299200D03*
D47*
X689050Y299300D03*
D35*
X693650Y299300D03*
D107*
X699650Y299300D03*
D38*
X706200Y299300D03*
D36*
X710300Y299300D03*
D47*
X715850Y299300D03*
D50*
X719850Y299300D03*
D47*
X689050Y299400D03*
D54*
X693600Y299400D03*
D107*
X699650Y299400D03*
D38*
X706200Y299400D03*
D29*
X710350Y299400D03*
D47*
X715850Y299400D03*
D50*
X719850Y299400D03*
D47*
X689050Y299500D03*
D54*
X693600Y299500D03*
D107*
X699650Y299500D03*
D38*
X706200Y299500D03*
D29*
X710350Y299500D03*
D47*
X715850Y299500D03*
D50*
X719850Y299500D03*
D38*
X689000Y299600D03*
D54*
X693600Y299600D03*
D107*
X699650Y299600D03*
D38*
X706200Y299600D03*
D29*
X710350Y299600D03*
D38*
X715900Y299600D03*
D50*
X719850Y299600D03*
D27*
X689050Y299700D03*
D54*
X693600Y299700D03*
D107*
X699650Y299700D03*
D38*
X706200Y299700D03*
D29*
X710350Y299700D03*
D27*
X715850Y299700D03*
D76*
X719800Y299700D03*
D27*
X689050Y299800D03*
D40*
X693550Y299800D03*
D107*
X699650Y299800D03*
D38*
X706200Y299800D03*
D30*
X710400Y299800D03*
D27*
X715850Y299800D03*
D76*
X719800Y299800D03*
D27*
X689050Y299900D03*
D40*
X693550Y299900D03*
D107*
X699650Y299900D03*
D38*
X706200Y299900D03*
D30*
X710400Y299900D03*
D27*
X715850Y299900D03*
D50*
X719750Y299900D03*
D27*
X689050Y300000D03*
D40*
X693550Y300000D03*
D107*
X699650Y300000D03*
D38*
X706200Y300000D03*
D30*
X710400Y300000D03*
D27*
X715850Y300000D03*
D50*
X719750Y300000D03*
D27*
X689050Y300100D03*
D40*
X693550Y300100D03*
D107*
X699650Y300100D03*
D38*
X706200Y300100D03*
D30*
X710400Y300100D03*
D27*
X715850Y300100D03*
D50*
X719750Y300100D03*
D48*
X689000Y300200D03*
D40*
X693550Y300200D03*
D107*
X699650Y300200D03*
D38*
X706200Y300200D03*
D30*
X710400Y300200D03*
D48*
X715900Y300200D03*
D50*
X719750Y300200D03*
D39*
X689050Y300300D03*
D26*
X693500Y300300D03*
D107*
X699650Y300300D03*
D38*
X706200Y300300D03*
D97*
X710450Y300300D03*
D39*
X715850Y300300D03*
D76*
X719700Y300300D03*
D39*
X689050Y300400D03*
D26*
X693500Y300400D03*
D98*
X697800Y300400D03*
D27*
X702450Y300400D03*
D38*
X706200Y300400D03*
D97*
X710450Y300400D03*
D39*
X715850Y300400D03*
D76*
X719700Y300400D03*
D39*
X689050Y300500D03*
D26*
X693500Y300500D03*
D98*
X697800Y300500D03*
D27*
X702450Y300500D03*
D38*
X706200Y300500D03*
D97*
X710450Y300500D03*
D39*
X715850Y300500D03*
D76*
X719700Y300500D03*
D39*
X689050Y300600D03*
D26*
X693500Y300600D03*
D98*
X697800Y300600D03*
D27*
X702450Y300600D03*
D38*
X706200Y300600D03*
D97*
X710450Y300600D03*
D39*
X715850Y300600D03*
D50*
X719650Y300600D03*
D39*
X689050Y300700D03*
D26*
X693500Y300700D03*
D98*
X697800Y300700D03*
D27*
X702450Y300700D03*
D38*
X706200Y300700D03*
D97*
X710450Y300700D03*
D39*
X715850Y300700D03*
D50*
X719650Y300700D03*
D60*
X689100Y300800D03*
D26*
X693500Y300800D03*
D98*
X697800Y300800D03*
D27*
X702450Y300800D03*
D38*
X706200Y300800D03*
D97*
X710450Y300800D03*
D60*
X715800Y300800D03*
D50*
X719650Y300800D03*
D37*
X689050Y300900D03*
D26*
X693500Y300900D03*
D98*
X697800Y300900D03*
D27*
X702450Y300900D03*
D38*
X706200Y300900D03*
D97*
X710450Y300900D03*
D37*
X715850Y300900D03*
D76*
X719600Y300900D03*
D37*
X689050Y301000D03*
D67*
X693450Y301000D03*
D98*
X697800Y301000D03*
D27*
X702450Y301000D03*
D38*
X706200Y301000D03*
D96*
X710500Y301000D03*
D37*
X715850Y301000D03*
D76*
X719600Y301000D03*
D37*
X689050Y301100D03*
D67*
X693450Y301100D03*
D52*
X699600Y301100D03*
X705300Y301100D03*
D57*
X711400Y301100D03*
D37*
X715850Y301100D03*
D50*
X719550Y301100D03*
D57*
X689100Y301200D03*
D67*
X693450Y301200D03*
D107*
X699650Y301200D03*
X705250Y301200D03*
D67*
X711450Y301200D03*
D57*
X715800Y301200D03*
D50*
X719550Y301200D03*
D57*
X689100Y301300D03*
D67*
X693450Y301300D03*
D107*
X699650Y301300D03*
X705250Y301300D03*
D67*
X711450Y301300D03*
D57*
X715800Y301300D03*
D50*
X719550Y301300D03*
D57*
X689100Y301400D03*
D67*
X693450Y301400D03*
D107*
X699650Y301400D03*
X705250Y301400D03*
D67*
X711450Y301400D03*
D57*
X715800Y301400D03*
D34*
X719600Y301400D03*
D57*
X689100Y301500D03*
D67*
X693450Y301500D03*
D107*
X699650Y301500D03*
X705250Y301500D03*
D67*
X711450Y301500D03*
D57*
X715800Y301500D03*
D51*
X719600Y301500D03*
D67*
X689150Y301600D03*
X693450Y301600D03*
D107*
X699650Y301600D03*
X705250Y301600D03*
D67*
X711450Y301600D03*
X715750Y301600D03*
D32*
X719850Y301600D03*
D67*
X689150Y301700D03*
X693450Y301700D03*
D107*
X699650Y301700D03*
X705250Y301700D03*
D67*
X711450Y301700D03*
X715750Y301700D03*
X689150Y301800D03*
X693450Y301800D03*
D107*
X699650Y301800D03*
X705250Y301800D03*
D67*
X711450Y301800D03*
X715750Y301800D03*
D26*
X689200Y301900D03*
D67*
X693450Y301900D03*
D107*
X699650Y301900D03*
X705250Y301900D03*
D67*
X711450Y301900D03*
D26*
X715700Y301900D03*
X689200Y302000D03*
D67*
X693450Y302000D03*
D107*
X699650Y302000D03*
X705250Y302000D03*
D67*
X711450Y302000D03*
D26*
X715700Y302000D03*
X689200Y302100D03*
D67*
X693450Y302100D03*
D107*
X699650Y302100D03*
X705250Y302100D03*
D67*
X711450Y302100D03*
D26*
X715700Y302100D03*
D40*
X689250Y302200D03*
D108*
X702450Y302200D03*
D40*
X715650Y302200D03*
X689250Y302300D03*
D108*
X702450Y302300D03*
D40*
X715650Y302300D03*
X689250Y302400D03*
D108*
X702450Y302400D03*
D40*
X715650Y302400D03*
D32*
X686050Y302500D03*
D54*
X689300Y302500D03*
D108*
X702450Y302500D03*
D54*
X715600Y302500D03*
D33*
X685950Y302600D03*
D54*
X689300Y302600D03*
D108*
X702450Y302600D03*
D54*
X715600Y302600D03*
D34*
X685900Y302700D03*
D54*
X689300Y302700D03*
D108*
X702450Y302700D03*
D54*
X715600Y302700D03*
D50*
X685850Y302800D03*
D35*
X689350Y302800D03*
D108*
X702450Y302800D03*
D35*
X715550Y302800D03*
D50*
X685850Y302900D03*
D35*
X689350Y302900D03*
D108*
X702450Y302900D03*
D35*
X715550Y302900D03*
D76*
X685900Y303000D03*
X689400Y303000D03*
D108*
X702450Y303000D03*
D76*
X715500Y303000D03*
X685900Y303100D03*
X689400Y303100D03*
D109*
X702450Y303100D03*
D76*
X715500Y303100D03*
X685900Y303200D03*
X689400Y303200D03*
D109*
X702450Y303200D03*
D76*
X715500Y303200D03*
D35*
X685950Y303300D03*
D50*
X689450Y303300D03*
D110*
X702450Y303300D03*
D50*
X715450Y303300D03*
D76*
X686000Y303400D03*
D50*
X689450Y303400D03*
D111*
X702450Y303400D03*
D50*
X715450Y303400D03*
D76*
X686000Y303500D03*
D34*
X689500Y303500D03*
D112*
X702450Y303500D03*
D34*
X715400Y303500D03*
D76*
X686100Y303600D03*
D34*
X689500Y303600D03*
D113*
X702450Y303600D03*
D34*
X715400Y303600D03*
D76*
X686100Y303700D03*
D41*
X689550Y303700D03*
D114*
X702450Y303700D03*
D41*
X715350Y303700D03*
D35*
X686150Y303800D03*
D41*
X689550Y303800D03*
D106*
X702450Y303800D03*
D41*
X715350Y303800D03*
D76*
X686200Y303900D03*
D41*
X689550Y303900D03*
D104*
X702450Y303900D03*
D41*
X715350Y303900D03*
D76*
X686200Y304000D03*
D51*
X689600Y304000D03*
D102*
X702450Y304000D03*
D51*
X715300Y304000D03*
D35*
X686250Y304100D03*
D51*
X689600Y304100D03*
D115*
X702450Y304100D03*
D51*
X715300Y304100D03*
D76*
X686300Y304200D03*
D33*
X689650Y304200D03*
D116*
X702450Y304200D03*
D33*
X715250Y304200D03*
D35*
X686350Y304300D03*
D51*
X689700Y304300D03*
D117*
X702450Y304300D03*
D51*
X715200Y304300D03*
D76*
X686400Y304400D03*
D33*
X689750Y304400D03*
D118*
X702450Y304400D03*
D33*
X715150Y304400D03*
D35*
X686450Y304500D03*
D33*
X689750Y304500D03*
D119*
X702450Y304500D03*
D33*
X715150Y304500D03*
D35*
X686450Y304600D03*
D33*
X689850Y304600D03*
D120*
X702450Y304600D03*
D33*
X715050Y304600D03*
D35*
X686550Y304700D03*
D51*
X690000Y304700D03*
D121*
X702450Y304700D03*
D51*
X714900Y304700D03*
D35*
X686550Y304800D03*
D41*
X690050Y304800D03*
D122*
X702450Y304800D03*
D41*
X714850Y304800D03*
D76*
X686600Y304900D03*
D41*
X690150Y304900D03*
D123*
X702450Y304900D03*
D41*
X714750Y304900D03*
D35*
X686650Y305000D03*
D50*
X690250Y305000D03*
D124*
X702450Y305000D03*
D50*
X714650Y305000D03*
D35*
X686750Y305100D03*
D50*
X690350Y305100D03*
D125*
X702450Y305100D03*
D50*
X714550Y305100D03*
D35*
X686750Y305200D03*
D76*
X690500Y305200D03*
D126*
X702450Y305200D03*
D76*
X714400Y305200D03*
D35*
X686850Y305300D03*
X690550Y305300D03*
D62*
X702450Y305300D03*
D35*
X714350Y305300D03*
X686850Y305400D03*
D54*
X690700Y305400D03*
D59*
X702450Y305400D03*
D54*
X714200Y305400D03*
D76*
X686900Y305500D03*
D26*
X690800Y305500D03*
D80*
X702450Y305500D03*
D26*
X714100Y305500D03*
D76*
X686900Y305600D03*
D26*
X690900Y305600D03*
D71*
X702450Y305600D03*
D26*
X714000Y305600D03*
D34*
X686900Y305700D03*
D67*
X691050Y305700D03*
D37*
X702450Y305700D03*
D67*
X713850Y305700D03*
D41*
X686850Y305800D03*
D37*
X691150Y305800D03*
X713750Y305800D03*
D52*
X686800Y305900D03*
D60*
X691300Y305900D03*
X713600Y305900D03*
D25*
X686700Y306000D03*
D39*
X691450Y306000D03*
X713450Y306000D03*
D49*
X686650Y306100D03*
D27*
X691550Y306100D03*
X713350Y306100D03*
D38*
X691700Y306200D03*
X713200Y306200D03*
D47*
X691850Y306300D03*
X713050Y306300D03*
D42*
X692000Y306400D03*
X712900Y306400D03*
D69*
X716900Y306400D03*
D28*
X692150Y306500D03*
X712750Y306500D03*
D32*
X716850Y306500D03*
D45*
X692300Y306600D03*
X712600Y306600D03*
D107*
X716950Y306600D03*
D36*
X692500Y306700D03*
X712400Y306700D03*
D33*
X716950Y306700D03*
D30*
X692700Y306800D03*
X712200Y306800D03*
D34*
X717000Y306800D03*
D96*
X692900Y306900D03*
X712000Y306900D03*
D50*
X717050Y306900D03*
D73*
X693050Y307000D03*
X711850Y307000D03*
D35*
X717050Y307000D03*
D53*
X693250Y307100D03*
X711650Y307100D03*
D54*
X717000Y307100D03*
D93*
X693500Y307200D03*
X711400Y307200D03*
D54*
X717000Y307200D03*
D63*
X693700Y307300D03*
X711200Y307300D03*
D54*
X716900Y307300D03*
D66*
X693950Y307400D03*
X710950Y307400D03*
D40*
X716850Y307400D03*
D55*
X694250Y307500D03*
X710650Y307500D03*
D40*
X716750Y307500D03*
D77*
X694550Y307600D03*
X710350Y307600D03*
D54*
X716700Y307600D03*
D78*
X694850Y307700D03*
X710050Y307700D03*
D40*
X716650Y307700D03*
D80*
X695250Y307800D03*
X709650Y307800D03*
D40*
X716550Y307800D03*
D127*
X695700Y307900D03*
X709200Y307900D03*
D40*
X716450Y307900D03*
D128*
X696400Y308000D03*
X708500Y308000D03*
D40*
X716450Y308000D03*
D129*
X702450Y308100D03*
D40*
X716350Y308100D03*
D130*
X702450Y308200D03*
D40*
X716250Y308200D03*
D131*
X702450Y308300D03*
D40*
X716150Y308300D03*
D108*
X702450Y308400D03*
D26*
X716100Y308400D03*
D109*
X702450Y308500D03*
D26*
X716000Y308500D03*
D110*
X702450Y308600D03*
D40*
X715950Y308600D03*
D111*
X702450Y308700D03*
D40*
X715850Y308700D03*
D132*
X702450Y308800D03*
D40*
X715750Y308800D03*
D112*
X702450Y308900D03*
D26*
X715700Y308900D03*
D113*
X702450Y309000D03*
D40*
X715650Y309000D03*
D133*
X702450Y309100D03*
D54*
X715600Y309100D03*
D114*
X702450Y309200D03*
D35*
X715550Y309200D03*
D106*
X702450Y309300D03*
D50*
X715550Y309300D03*
D104*
X702450Y309400D03*
D41*
X715550Y309400D03*
D103*
X702450Y309500D03*
D51*
X715600Y309500D03*
D102*
X702450Y309600D03*
D52*
X715600Y309600D03*
D115*
X702450Y309700D03*
D25*
X715600Y309700D03*
D134*
X702450Y309800D03*
D43*
X715600Y309800D03*
D49*
X690950Y309900D03*
D116*
X702450Y309900D03*
D32*
X690950Y310000D03*
D135*
X702450Y310000D03*
D107*
X691050Y310100D03*
D136*
X702450Y310100D03*
D33*
X691050Y310200D03*
D137*
X702450Y310200D03*
D41*
X691050Y310300D03*
D138*
X702450Y310300D03*
D50*
X691050Y310400D03*
D139*
X702450Y310400D03*
D35*
X691050Y310500D03*
D120*
X702450Y310500D03*
D26*
X691100Y310600D03*
D140*
X702450Y310600D03*
D67*
X691150Y310700D03*
D121*
X702450Y310700D03*
D57*
X691200Y310800D03*
D141*
X702450Y310800D03*
D37*
X691350Y310900D03*
D142*
X702450Y310900D03*
D60*
X691400Y311000D03*
D143*
X702450Y311000D03*
D60*
X691500Y311100D03*
D144*
X702450Y311100D03*
D39*
X691650Y311200D03*
D145*
X702450Y311200D03*
D60*
X691800Y311300D03*
D146*
X702450Y311300D03*
D39*
X691950Y311400D03*
D147*
X702450Y311400D03*
D39*
X692050Y311500D03*
D148*
X702450Y311500D03*
D48*
X692200Y311600D03*
D62*
X702450Y311600D03*
D39*
X692350Y311700D03*
D61*
X702450Y311700D03*
D39*
X692450Y311800D03*
D59*
X702450Y311800D03*
D60*
X692500Y311900D03*
D58*
X702450Y311900D03*
D37*
X692550Y312000D03*
D56*
X702450Y312000D03*
D67*
X692650Y312100D03*
D55*
X702450Y312100D03*
D26*
X692700Y312200D03*
D53*
X702450Y312200D03*
D54*
X692700Y312300D03*
D47*
X702450Y312300D03*
D76*
X692800Y312400D03*
D49*
X710250Y312400D03*
D34*
X692800Y312500D03*
D25*
X710200Y312500D03*
D33*
X692850Y312600D03*
X710150Y312600D03*
D52*
X692900Y312700D03*
D41*
X710050Y312700D03*
D32*
X692950Y312800D03*
D76*
X710000Y312800D03*
D69*
X693000Y312900D03*
D54*
X709900Y312900D03*
D57*
X709800Y313000D03*
D60*
X709700Y313100D03*
D38*
X709600Y313200D03*
D99*
X709450Y313300D03*
D45*
X709300Y313400D03*
D36*
X709200Y313500D03*
D29*
X709050Y313600D03*
D46*
X708950Y313700D03*
D28*
X708850Y313800D03*
D69*
X698900Y313900D03*
D99*
X708750Y313900D03*
D52*
X699100Y314000D03*
D47*
X708650Y314000D03*
D54*
X699400Y314100D03*
D27*
X708550Y314100D03*
X699850Y314200D03*
D60*
X708500Y314200D03*
D29*
X700350Y314300D03*
D67*
X708350Y314300D03*
D30*
X700400Y314400D03*
D40*
X708250Y314400D03*
D30*
X700400Y314500D03*
D76*
X708100Y314500D03*
D97*
X700350Y314600D03*
D51*
X708000Y314600D03*
D97*
X700350Y314700D03*
D52*
X707900Y314700D03*
D97*
X700350Y314800D03*
D43*
X707800Y314800D03*
D97*
X700350Y314900D03*
D30*
X700300Y315000D03*
X700300Y315100D03*
D29*
X700350Y315200D03*
D45*
X700500Y315300D03*
D47*
X700750Y315400D03*
D67*
X701050Y315500D03*
D33*
X701550Y315600D03*
D149*
X702400Y233750D03*
X702400Y233950D03*
X702400Y234150D03*
X702400Y234350D03*
X702400Y234550D03*
X702400Y234750D03*
X702400Y234950D03*
X702400Y235150D03*
X702400Y235350D03*
X702400Y235550D03*
X702400Y235750D03*
X702400Y235950D03*
X702400Y236150D03*
D150*
X683600Y236350D03*
D151*
X695300Y236350D03*
D152*
X702300Y236350D03*
X707900Y236350D03*
D153*
X721100Y236350D03*
D150*
X683600Y236550D03*
D151*
X695300Y236550D03*
D152*
X702300Y236550D03*
X707900Y236550D03*
D153*
X721100Y236550D03*
D150*
X683600Y236750D03*
D151*
X695300Y236750D03*
D152*
X702300Y236750D03*
X707900Y236750D03*
D153*
X721100Y236750D03*
D150*
X683600Y236950D03*
D151*
X695300Y236950D03*
D152*
X702300Y236950D03*
X707900Y236950D03*
D153*
X721100Y236950D03*
D150*
X683600Y237150D03*
D151*
X695300Y237150D03*
D152*
X702300Y237150D03*
X707900Y237150D03*
D153*
X721100Y237150D03*
D150*
X683600Y237350D03*
D151*
X695300Y237350D03*
D152*
X702300Y237350D03*
X707900Y237350D03*
D153*
X721100Y237350D03*
D150*
X683600Y237550D03*
D151*
X695300Y237550D03*
D152*
X702300Y237550D03*
X707900Y237550D03*
D153*
X721100Y237550D03*
D150*
X683600Y237750D03*
D154*
X689700Y237750D03*
D151*
X695300Y237750D03*
D155*
X698800Y237750D03*
D151*
X707900Y237750D03*
D155*
X711400Y237750D03*
D151*
X714900Y237750D03*
D156*
X719700Y237750D03*
D150*
X683600Y237950D03*
D154*
X689700Y237950D03*
D151*
X695300Y237950D03*
D155*
X698800Y237950D03*
D151*
X707900Y237950D03*
D155*
X711400Y237950D03*
D151*
X714900Y237950D03*
D156*
X719700Y237950D03*
D150*
X683600Y238150D03*
D154*
X689700Y238150D03*
D151*
X695300Y238150D03*
D155*
X698800Y238150D03*
D151*
X707900Y238150D03*
D155*
X711400Y238150D03*
D151*
X714900Y238150D03*
D156*
X719700Y238150D03*
D150*
X683600Y238350D03*
D154*
X689700Y238350D03*
D151*
X695300Y238350D03*
D155*
X698800Y238350D03*
D151*
X707900Y238350D03*
D155*
X711400Y238350D03*
D151*
X714900Y238350D03*
D156*
X719700Y238350D03*
D150*
X683600Y238550D03*
D154*
X689700Y238550D03*
D151*
X695300Y238550D03*
D155*
X698800Y238550D03*
D151*
X707900Y238550D03*
D155*
X711400Y238550D03*
D151*
X714900Y238550D03*
D156*
X719700Y238550D03*
D150*
X683600Y238750D03*
D154*
X689700Y238750D03*
D151*
X695300Y238750D03*
D155*
X698800Y238750D03*
D151*
X707900Y238750D03*
D155*
X711400Y238750D03*
D151*
X714900Y238750D03*
D156*
X719700Y238750D03*
D150*
X683600Y238950D03*
D154*
X689700Y238950D03*
D151*
X695300Y238950D03*
D155*
X698800Y238950D03*
D151*
X707900Y238950D03*
D155*
X711400Y238950D03*
D151*
X714900Y238950D03*
D156*
X719700Y238950D03*
D150*
X683600Y239150D03*
D151*
X686900Y239150D03*
X692500Y239150D03*
X695300Y239150D03*
D155*
X698800Y239150D03*
D151*
X703700Y239150D03*
D155*
X708600Y239150D03*
D151*
X712100Y239150D03*
X714900Y239150D03*
D157*
X720400Y239150D03*
D150*
X683600Y239350D03*
D151*
X686900Y239350D03*
X692500Y239350D03*
X695300Y239350D03*
D155*
X698800Y239350D03*
D151*
X703700Y239350D03*
D155*
X708600Y239350D03*
D151*
X712100Y239350D03*
X714900Y239350D03*
D157*
X720400Y239350D03*
D150*
X683600Y239550D03*
D151*
X686900Y239550D03*
X692500Y239550D03*
X695300Y239550D03*
D155*
X698800Y239550D03*
D151*
X703700Y239550D03*
D155*
X708600Y239550D03*
D151*
X712100Y239550D03*
X714900Y239550D03*
D157*
X720400Y239550D03*
D150*
X683600Y239750D03*
D151*
X686900Y239750D03*
X692500Y239750D03*
X695300Y239750D03*
D155*
X698800Y239750D03*
D151*
X703700Y239750D03*
D155*
X708600Y239750D03*
D151*
X712100Y239750D03*
X714900Y239750D03*
D157*
X720400Y239750D03*
D150*
X683600Y239950D03*
D151*
X686900Y239950D03*
X692500Y239950D03*
X695300Y239950D03*
D155*
X698800Y239950D03*
D151*
X703700Y239950D03*
D155*
X708600Y239950D03*
D151*
X712100Y239950D03*
X714900Y239950D03*
D157*
X720400Y239950D03*
D150*
X683600Y240150D03*
D151*
X686900Y240150D03*
X692500Y240150D03*
X695300Y240150D03*
D155*
X698800Y240150D03*
D151*
X703700Y240150D03*
D155*
X708600Y240150D03*
D151*
X712100Y240150D03*
X714900Y240150D03*
D157*
X720400Y240150D03*
D150*
X683600Y240350D03*
D151*
X686900Y240350D03*
X692500Y240350D03*
X695300Y240350D03*
D155*
X698800Y240350D03*
D151*
X703700Y240350D03*
D155*
X708600Y240350D03*
D151*
X712100Y240350D03*
X714900Y240350D03*
D157*
X720400Y240350D03*
D150*
X683600Y240550D03*
D151*
X686900Y240550D03*
X692500Y240550D03*
X695300Y240550D03*
X699500Y240550D03*
X702300Y240550D03*
D155*
X707200Y240550D03*
D151*
X712100Y240550D03*
D153*
X721100Y240550D03*
D150*
X683600Y240750D03*
D151*
X686900Y240750D03*
X692500Y240750D03*
X695300Y240750D03*
X699500Y240750D03*
X702300Y240750D03*
D155*
X707200Y240750D03*
D151*
X712100Y240750D03*
D153*
X721100Y240750D03*
D150*
X683600Y240950D03*
D151*
X686900Y240950D03*
X692500Y240950D03*
X695300Y240950D03*
X699500Y240950D03*
X702300Y240950D03*
D155*
X707200Y240950D03*
D151*
X712100Y240950D03*
D153*
X721100Y240950D03*
D150*
X683600Y241150D03*
D151*
X686900Y241150D03*
X692500Y241150D03*
X695300Y241150D03*
X699500Y241150D03*
X702300Y241150D03*
D155*
X707200Y241150D03*
D151*
X712100Y241150D03*
D153*
X721100Y241150D03*
D150*
X683600Y241350D03*
D151*
X686900Y241350D03*
X692500Y241350D03*
X695300Y241350D03*
X699500Y241350D03*
X702300Y241350D03*
D155*
X707200Y241350D03*
D151*
X712100Y241350D03*
D153*
X721100Y241350D03*
D150*
X683600Y241550D03*
D151*
X686900Y241550D03*
X692500Y241550D03*
X695300Y241550D03*
X699500Y241550D03*
X702300Y241550D03*
D155*
X707200Y241550D03*
D151*
X712100Y241550D03*
D153*
X721100Y241550D03*
D150*
X683600Y241750D03*
D151*
X686900Y241750D03*
X692500Y241750D03*
X695300Y241750D03*
X699500Y241750D03*
X702300Y241750D03*
D155*
X707200Y241750D03*
D151*
X712100Y241750D03*
D153*
X721100Y241750D03*
D150*
X683600Y241950D03*
D151*
X686900Y241950D03*
X692500Y241950D03*
D155*
X696000Y241950D03*
D154*
X703700Y241950D03*
D151*
X716300Y241950D03*
D153*
X721100Y241950D03*
D150*
X683600Y242150D03*
D151*
X686900Y242150D03*
X692500Y242150D03*
D155*
X696000Y242150D03*
D154*
X703700Y242150D03*
D151*
X716300Y242150D03*
D153*
X721100Y242150D03*
D150*
X683600Y242350D03*
D151*
X686900Y242350D03*
X692500Y242350D03*
D155*
X696000Y242350D03*
D154*
X703700Y242350D03*
D151*
X716300Y242350D03*
D153*
X721100Y242350D03*
D150*
X683600Y242550D03*
D151*
X686900Y242550D03*
X692500Y242550D03*
D155*
X696000Y242550D03*
D154*
X703700Y242550D03*
D151*
X716300Y242550D03*
D153*
X721100Y242550D03*
D150*
X683600Y242750D03*
D151*
X686900Y242750D03*
X692500Y242750D03*
D155*
X696000Y242750D03*
D154*
X703700Y242750D03*
D151*
X716300Y242750D03*
D153*
X721100Y242750D03*
D150*
X683600Y242950D03*
D151*
X686900Y242950D03*
X692500Y242950D03*
D155*
X696000Y242950D03*
D154*
X703700Y242950D03*
D151*
X716300Y242950D03*
D153*
X721100Y242950D03*
D150*
X683600Y243150D03*
D151*
X686900Y243150D03*
X692500Y243150D03*
D155*
X696000Y243150D03*
D154*
X703700Y243150D03*
D151*
X716300Y243150D03*
D153*
X721100Y243150D03*
D150*
X683600Y243350D03*
D154*
X689700Y243350D03*
D152*
X696700Y243350D03*
D151*
X700900Y243350D03*
D152*
X705100Y243350D03*
X710700Y243350D03*
D155*
X715600Y243350D03*
D157*
X720400Y243350D03*
D150*
X683600Y243550D03*
D154*
X689700Y243550D03*
D152*
X696700Y243550D03*
D151*
X700900Y243550D03*
D152*
X705100Y243550D03*
X710700Y243550D03*
D155*
X715600Y243550D03*
D157*
X720400Y243550D03*
D150*
X683600Y243750D03*
D154*
X689700Y243750D03*
D152*
X696700Y243750D03*
D151*
X700900Y243750D03*
D152*
X705100Y243750D03*
X710700Y243750D03*
D155*
X715600Y243750D03*
D157*
X720400Y243750D03*
D150*
X683600Y243950D03*
D154*
X689700Y243950D03*
D152*
X696700Y243950D03*
D151*
X700900Y243950D03*
D152*
X705100Y243950D03*
X710700Y243950D03*
D155*
X715600Y243950D03*
D157*
X720400Y243950D03*
D150*
X683600Y244150D03*
D154*
X689700Y244150D03*
D152*
X696700Y244150D03*
D151*
X700900Y244150D03*
D152*
X705100Y244150D03*
X710700Y244150D03*
D155*
X715600Y244150D03*
D157*
X720400Y244150D03*
D150*
X683600Y244350D03*
D154*
X689700Y244350D03*
D152*
X696700Y244350D03*
D151*
X700900Y244350D03*
D152*
X705100Y244350D03*
X710700Y244350D03*
D155*
X715600Y244350D03*
D157*
X720400Y244350D03*
D150*
X683600Y244550D03*
D154*
X689700Y244550D03*
D152*
X696700Y244550D03*
D151*
X700900Y244550D03*
D152*
X705100Y244550D03*
X710700Y244550D03*
D155*
X715600Y244550D03*
D157*
X720400Y244550D03*
D150*
X683600Y244750D03*
D158*
X698800Y244750D03*
D151*
X706500Y244750D03*
X709300Y244750D03*
X712100Y244750D03*
X714900Y244750D03*
D153*
X721100Y244750D03*
D150*
X683600Y244950D03*
D158*
X698800Y244950D03*
D151*
X706500Y244950D03*
X709300Y244950D03*
X712100Y244950D03*
X714900Y244950D03*
D153*
X721100Y244950D03*
D150*
X683600Y245150D03*
D158*
X698800Y245150D03*
D151*
X706500Y245150D03*
X709300Y245150D03*
X712100Y245150D03*
X714900Y245150D03*
D153*
X721100Y245150D03*
D150*
X683600Y245350D03*
D158*
X698800Y245350D03*
D151*
X706500Y245350D03*
X709300Y245350D03*
X712100Y245350D03*
X714900Y245350D03*
D153*
X721100Y245350D03*
D150*
X683600Y245550D03*
D158*
X698800Y245550D03*
D151*
X706500Y245550D03*
X709300Y245550D03*
X712100Y245550D03*
X714900Y245550D03*
D153*
X721100Y245550D03*
D150*
X683600Y245750D03*
D158*
X698800Y245750D03*
D151*
X706500Y245750D03*
X709300Y245750D03*
X712100Y245750D03*
X714900Y245750D03*
D153*
X721100Y245750D03*
D150*
X683600Y245950D03*
D158*
X698800Y245950D03*
D151*
X706500Y245950D03*
X709300Y245950D03*
X712100Y245950D03*
X714900Y245950D03*
D153*
X721100Y245950D03*
D159*
X689200Y246150D03*
D155*
X700200Y246150D03*
D151*
X706500Y246150D03*
D152*
X710700Y246150D03*
D151*
X714900Y246150D03*
X717700Y246150D03*
D153*
X721100Y246150D03*
D159*
X689200Y246350D03*
D155*
X700200Y246350D03*
D151*
X706500Y246350D03*
D152*
X710700Y246350D03*
D151*
X714900Y246350D03*
X717700Y246350D03*
D153*
X721100Y246350D03*
D159*
X689200Y246550D03*
D155*
X700200Y246550D03*
D151*
X706500Y246550D03*
D152*
X710700Y246550D03*
D151*
X714900Y246550D03*
X717700Y246550D03*
D153*
X721100Y246550D03*
D159*
X689200Y246750D03*
D155*
X700200Y246750D03*
D151*
X706500Y246750D03*
D152*
X710700Y246750D03*
D151*
X714900Y246750D03*
X717700Y246750D03*
D153*
X721100Y246750D03*
D159*
X689200Y246950D03*
D155*
X700200Y246950D03*
D151*
X706500Y246950D03*
D152*
X710700Y246950D03*
D151*
X714900Y246950D03*
X717700Y246950D03*
D153*
X721100Y246950D03*
D159*
X689200Y247150D03*
D155*
X700200Y247150D03*
D151*
X706500Y247150D03*
D152*
X710700Y247150D03*
D151*
X714900Y247150D03*
X717700Y247150D03*
D153*
X721100Y247150D03*
D159*
X689200Y247350D03*
D155*
X700200Y247350D03*
D151*
X706500Y247350D03*
D152*
X710700Y247350D03*
D151*
X714900Y247350D03*
X717700Y247350D03*
D153*
X721100Y247350D03*
D160*
X685700Y247550D03*
D155*
X696000Y247550D03*
X700200Y247550D03*
D151*
X705100Y247550D03*
D153*
X721100Y247550D03*
D160*
X685700Y247750D03*
D155*
X696000Y247750D03*
X700200Y247750D03*
D151*
X705100Y247750D03*
D153*
X721100Y247750D03*
D160*
X685700Y247950D03*
D155*
X696000Y247950D03*
X700200Y247950D03*
D151*
X705100Y247950D03*
D153*
X721100Y247950D03*
D160*
X685700Y248150D03*
D155*
X696000Y248150D03*
X700200Y248150D03*
D151*
X705100Y248150D03*
D153*
X721100Y248150D03*
D160*
X685700Y248350D03*
D155*
X696000Y248350D03*
X700200Y248350D03*
D151*
X705100Y248350D03*
D153*
X721100Y248350D03*
D160*
X685700Y248550D03*
D155*
X696000Y248550D03*
X700200Y248550D03*
D151*
X705100Y248550D03*
D153*
X721100Y248550D03*
D160*
X685700Y248750D03*
D155*
X696000Y248750D03*
X700200Y248750D03*
D151*
X705100Y248750D03*
D153*
X721100Y248750D03*
D150*
X683600Y248950D03*
D151*
X686900Y248950D03*
D152*
X693900Y248950D03*
D155*
X700200Y248950D03*
D152*
X705100Y248950D03*
X716300Y248950D03*
D153*
X721100Y248950D03*
D150*
X683600Y249150D03*
D151*
X686900Y249150D03*
D152*
X693900Y249150D03*
D155*
X700200Y249150D03*
D152*
X705100Y249150D03*
X716300Y249150D03*
D153*
X721100Y249150D03*
D150*
X683600Y249350D03*
D151*
X686900Y249350D03*
D152*
X693900Y249350D03*
D155*
X700200Y249350D03*
D152*
X705100Y249350D03*
X716300Y249350D03*
D153*
X721100Y249350D03*
D150*
X683600Y249550D03*
D151*
X686900Y249550D03*
D152*
X693900Y249550D03*
D155*
X700200Y249550D03*
D152*
X705100Y249550D03*
X716300Y249550D03*
D153*
X721100Y249550D03*
D150*
X683600Y249750D03*
D151*
X686900Y249750D03*
D152*
X693900Y249750D03*
D155*
X700200Y249750D03*
D152*
X705100Y249750D03*
X716300Y249750D03*
D153*
X721100Y249750D03*
D150*
X683600Y249950D03*
D151*
X686900Y249950D03*
D152*
X693900Y249950D03*
D155*
X700200Y249950D03*
D152*
X705100Y249950D03*
X716300Y249950D03*
D153*
X721100Y249950D03*
D150*
X683600Y250150D03*
D151*
X686900Y250150D03*
D152*
X693900Y250150D03*
D155*
X700200Y250150D03*
D152*
X705100Y250150D03*
X716300Y250150D03*
D153*
X721100Y250150D03*
D161*
X684300Y250350D03*
D151*
X688300Y250350D03*
D155*
X691800Y250350D03*
D154*
X699500Y250350D03*
D151*
X706500Y250350D03*
D155*
X711400Y250350D03*
D151*
X714900Y250350D03*
D157*
X720400Y250350D03*
D161*
X684300Y250550D03*
D151*
X688300Y250550D03*
D155*
X691800Y250550D03*
D154*
X699500Y250550D03*
D151*
X706500Y250550D03*
D155*
X711400Y250550D03*
D151*
X714900Y250550D03*
D157*
X720400Y250550D03*
D161*
X684300Y250750D03*
D151*
X688300Y250750D03*
D155*
X691800Y250750D03*
D154*
X699500Y250750D03*
D151*
X706500Y250750D03*
D155*
X711400Y250750D03*
D151*
X714900Y250750D03*
D157*
X720400Y250750D03*
D161*
X684300Y250950D03*
D151*
X688300Y250950D03*
D155*
X691800Y250950D03*
D154*
X699500Y250950D03*
D151*
X706500Y250950D03*
D155*
X711400Y250950D03*
D151*
X714900Y250950D03*
D157*
X720400Y250950D03*
D161*
X684300Y251150D03*
D151*
X688300Y251150D03*
D155*
X691800Y251150D03*
D154*
X699500Y251150D03*
D151*
X706500Y251150D03*
D155*
X711400Y251150D03*
D151*
X714900Y251150D03*
D157*
X720400Y251150D03*
D161*
X684300Y251350D03*
D151*
X688300Y251350D03*
D155*
X691800Y251350D03*
D154*
X699500Y251350D03*
D151*
X706500Y251350D03*
D155*
X711400Y251350D03*
D151*
X714900Y251350D03*
D157*
X720400Y251350D03*
D161*
X684300Y251550D03*
D151*
X688300Y251550D03*
D155*
X691800Y251550D03*
D154*
X699500Y251550D03*
D151*
X706500Y251550D03*
D155*
X711400Y251550D03*
D151*
X714900Y251550D03*
D157*
X720400Y251550D03*
D162*
X686400Y251750D03*
D155*
X694600Y251750D03*
D151*
X700900Y251750D03*
D155*
X704400Y251750D03*
D151*
X709300Y251750D03*
D152*
X716300Y251750D03*
D153*
X721100Y251750D03*
D162*
X686400Y251950D03*
D155*
X694600Y251950D03*
D151*
X700900Y251950D03*
D155*
X704400Y251950D03*
D151*
X709300Y251950D03*
D152*
X716300Y251950D03*
D153*
X721100Y251950D03*
D162*
X686400Y252150D03*
D155*
X694600Y252150D03*
D151*
X700900Y252150D03*
D155*
X704400Y252150D03*
D151*
X709300Y252150D03*
D152*
X716300Y252150D03*
D153*
X721100Y252150D03*
D162*
X686400Y252350D03*
D155*
X694600Y252350D03*
D151*
X700900Y252350D03*
D155*
X704400Y252350D03*
D151*
X709300Y252350D03*
D152*
X716300Y252350D03*
D153*
X721100Y252350D03*
D162*
X686400Y252550D03*
D155*
X694600Y252550D03*
D151*
X700900Y252550D03*
D155*
X704400Y252550D03*
D151*
X709300Y252550D03*
D152*
X716300Y252550D03*
D153*
X721100Y252550D03*
D162*
X686400Y252750D03*
D155*
X694600Y252750D03*
D151*
X700900Y252750D03*
D155*
X704400Y252750D03*
D151*
X709300Y252750D03*
D152*
X716300Y252750D03*
D153*
X721100Y252750D03*
D162*
X686400Y252950D03*
D155*
X694600Y252950D03*
D151*
X700900Y252950D03*
D155*
X704400Y252950D03*
D151*
X709300Y252950D03*
D152*
X716300Y252950D03*
D153*
X721100Y252950D03*
D163*
X685000Y253150D03*
D155*
X690400Y253150D03*
X696000Y253150D03*
X700200Y253150D03*
D151*
X705100Y253150D03*
X707900Y253150D03*
X714900Y253150D03*
D153*
X721100Y253150D03*
D163*
X685000Y253350D03*
D155*
X690400Y253350D03*
X696000Y253350D03*
X700200Y253350D03*
D151*
X705100Y253350D03*
X707900Y253350D03*
X714900Y253350D03*
D153*
X721100Y253350D03*
D163*
X685000Y253550D03*
D155*
X690400Y253550D03*
X696000Y253550D03*
X700200Y253550D03*
D151*
X705100Y253550D03*
X707900Y253550D03*
X714900Y253550D03*
D153*
X721100Y253550D03*
D163*
X685000Y253750D03*
D155*
X690400Y253750D03*
X696000Y253750D03*
X700200Y253750D03*
D151*
X705100Y253750D03*
X707900Y253750D03*
X714900Y253750D03*
D153*
X721100Y253750D03*
D163*
X685000Y253950D03*
D155*
X690400Y253950D03*
X696000Y253950D03*
X700200Y253950D03*
D151*
X705100Y253950D03*
X707900Y253950D03*
X714900Y253950D03*
D153*
X721100Y253950D03*
D163*
X685000Y254150D03*
D155*
X690400Y254150D03*
X696000Y254150D03*
X700200Y254150D03*
D151*
X705100Y254150D03*
X707900Y254150D03*
X714900Y254150D03*
D153*
X721100Y254150D03*
D163*
X685000Y254350D03*
D155*
X690400Y254350D03*
X696000Y254350D03*
X700200Y254350D03*
D151*
X705100Y254350D03*
X707900Y254350D03*
X714900Y254350D03*
D153*
X721100Y254350D03*
D161*
X684300Y254550D03*
D155*
X693200Y254550D03*
D152*
X698100Y254550D03*
D151*
X702300Y254550D03*
D156*
X719700Y254550D03*
D161*
X684300Y254750D03*
D155*
X693200Y254750D03*
D152*
X698100Y254750D03*
D151*
X702300Y254750D03*
D156*
X719700Y254750D03*
D161*
X684300Y254950D03*
D155*
X693200Y254950D03*
D152*
X698100Y254950D03*
D151*
X702300Y254950D03*
D156*
X719700Y254950D03*
D161*
X684300Y255150D03*
D155*
X693200Y255150D03*
D152*
X698100Y255150D03*
D151*
X702300Y255150D03*
D156*
X719700Y255150D03*
D161*
X684300Y255350D03*
D155*
X693200Y255350D03*
D152*
X698100Y255350D03*
D151*
X702300Y255350D03*
D156*
X719700Y255350D03*
D161*
X684300Y255550D03*
D155*
X693200Y255550D03*
D152*
X698100Y255550D03*
D151*
X702300Y255550D03*
D156*
X719700Y255550D03*
D161*
X684300Y255750D03*
D155*
X693200Y255750D03*
D152*
X698100Y255750D03*
D151*
X702300Y255750D03*
D156*
X719700Y255750D03*
D161*
X684300Y255950D03*
D151*
X692500Y255950D03*
D152*
X698100Y255950D03*
D164*
X707200Y255950D03*
D165*
X718300Y255950D03*
D161*
X684300Y256150D03*
D151*
X692500Y256150D03*
D152*
X698100Y256150D03*
D164*
X707200Y256150D03*
D165*
X718300Y256150D03*
D161*
X684300Y256350D03*
D151*
X692500Y256350D03*
D152*
X698100Y256350D03*
D164*
X707200Y256350D03*
D165*
X718300Y256350D03*
D161*
X684300Y256550D03*
D151*
X692500Y256550D03*
D152*
X698100Y256550D03*
D164*
X707200Y256550D03*
D165*
X718300Y256550D03*
D161*
X684300Y256750D03*
D151*
X692500Y256750D03*
D152*
X698100Y256750D03*
D164*
X707200Y256750D03*
D165*
X718300Y256750D03*
D161*
X684300Y256950D03*
D151*
X692500Y256950D03*
D152*
X698100Y256950D03*
D164*
X707200Y256950D03*
D165*
X718300Y256950D03*
D161*
X684300Y257150D03*
D151*
X692500Y257150D03*
D152*
X698100Y257150D03*
D164*
X707200Y257150D03*
D165*
X718300Y257150D03*
D162*
X686400Y257350D03*
D155*
X693200Y257350D03*
D151*
X696700Y257350D03*
D164*
X701600Y257350D03*
D151*
X706500Y257350D03*
D155*
X710000Y257350D03*
D152*
X714900Y257350D03*
D157*
X720400Y257350D03*
D162*
X686400Y257550D03*
D155*
X693200Y257550D03*
D151*
X696700Y257550D03*
D164*
X701600Y257550D03*
D151*
X706500Y257550D03*
D155*
X710000Y257550D03*
D152*
X714900Y257550D03*
D157*
X720400Y257550D03*
D162*
X686400Y257750D03*
D155*
X693200Y257750D03*
D151*
X696700Y257750D03*
D164*
X701600Y257750D03*
D151*
X706500Y257750D03*
D155*
X710000Y257750D03*
D152*
X714900Y257750D03*
D157*
X720400Y257750D03*
D162*
X686400Y257950D03*
D155*
X693200Y257950D03*
D151*
X696700Y257950D03*
D164*
X701600Y257950D03*
D151*
X706500Y257950D03*
D155*
X710000Y257950D03*
D152*
X714900Y257950D03*
D157*
X720400Y257950D03*
D162*
X686400Y258150D03*
D155*
X693200Y258150D03*
D151*
X696700Y258150D03*
D164*
X701600Y258150D03*
D151*
X706500Y258150D03*
D155*
X710000Y258150D03*
D152*
X714900Y258150D03*
D157*
X720400Y258150D03*
D162*
X686400Y258350D03*
D155*
X693200Y258350D03*
D151*
X696700Y258350D03*
D164*
X701600Y258350D03*
D151*
X706500Y258350D03*
D155*
X710000Y258350D03*
D152*
X714900Y258350D03*
D157*
X720400Y258350D03*
D162*
X686400Y258550D03*
D155*
X693200Y258550D03*
D151*
X696700Y258550D03*
D164*
X701600Y258550D03*
D151*
X706500Y258550D03*
D155*
X710000Y258550D03*
D152*
X714900Y258550D03*
D157*
X720400Y258550D03*
D150*
X683600Y258750D03*
D155*
X691800Y258750D03*
D151*
X695300Y258750D03*
D152*
X699500Y258750D03*
D151*
X703700Y258750D03*
X706500Y258750D03*
D155*
X711400Y258750D03*
D151*
X717700Y258750D03*
D153*
X721100Y258750D03*
D150*
X683600Y258950D03*
D155*
X691800Y258950D03*
D151*
X695300Y258950D03*
D152*
X699500Y258950D03*
D151*
X703700Y258950D03*
X706500Y258950D03*
D155*
X711400Y258950D03*
D151*
X717700Y258950D03*
D153*
X721100Y258950D03*
D150*
X683600Y259150D03*
D155*
X691800Y259150D03*
D151*
X695300Y259150D03*
D152*
X699500Y259150D03*
D151*
X703700Y259150D03*
X706500Y259150D03*
D155*
X711400Y259150D03*
D151*
X717700Y259150D03*
D153*
X721100Y259150D03*
D150*
X683600Y259350D03*
D155*
X691800Y259350D03*
D151*
X695300Y259350D03*
D152*
X699500Y259350D03*
D151*
X703700Y259350D03*
X706500Y259350D03*
D155*
X711400Y259350D03*
D151*
X717700Y259350D03*
D153*
X721100Y259350D03*
D150*
X683600Y259550D03*
D155*
X691800Y259550D03*
D151*
X695300Y259550D03*
D152*
X699500Y259550D03*
D151*
X703700Y259550D03*
X706500Y259550D03*
D155*
X711400Y259550D03*
D151*
X717700Y259550D03*
D153*
X721100Y259550D03*
D150*
X683600Y259750D03*
D155*
X691800Y259750D03*
D151*
X695300Y259750D03*
D152*
X699500Y259750D03*
D151*
X703700Y259750D03*
X706500Y259750D03*
D155*
X711400Y259750D03*
D151*
X717700Y259750D03*
D153*
X721100Y259750D03*
D150*
X683600Y259950D03*
D155*
X691800Y259950D03*
D151*
X695300Y259950D03*
D152*
X699500Y259950D03*
D151*
X703700Y259950D03*
X706500Y259950D03*
D155*
X711400Y259950D03*
D151*
X717700Y259950D03*
D153*
X721100Y259950D03*
D166*
X689900Y260150D03*
D151*
X699500Y260150D03*
D164*
X704400Y260150D03*
D167*
X715500Y260150D03*
D166*
X689900Y260350D03*
D151*
X699500Y260350D03*
D164*
X704400Y260350D03*
D167*
X715500Y260350D03*
D166*
X689900Y260550D03*
D151*
X699500Y260550D03*
D164*
X704400Y260550D03*
D167*
X715500Y260550D03*
D166*
X689900Y260750D03*
D151*
X699500Y260750D03*
D164*
X704400Y260750D03*
D167*
X715500Y260750D03*
D166*
X689900Y260950D03*
D151*
X699500Y260950D03*
D164*
X704400Y260950D03*
D167*
X715500Y260950D03*
D166*
X689900Y261150D03*
D151*
X699500Y261150D03*
D164*
X704400Y261150D03*
D167*
X715500Y261150D03*
D166*
X689900Y261350D03*
D151*
X699500Y261350D03*
D164*
X704400Y261350D03*
D167*
X715500Y261350D03*
D150*
X683600Y261550D03*
D151*
X695300Y261550D03*
X698100Y261550D03*
X700900Y261550D03*
X703700Y261550D03*
X706500Y261550D03*
X709300Y261550D03*
D153*
X721100Y261550D03*
D150*
X683600Y261750D03*
D151*
X695300Y261750D03*
X698100Y261750D03*
X700900Y261750D03*
X703700Y261750D03*
X706500Y261750D03*
X709300Y261750D03*
D153*
X721100Y261750D03*
D150*
X683600Y261950D03*
D151*
X695300Y261950D03*
X698100Y261950D03*
X700900Y261950D03*
X703700Y261950D03*
X706500Y261950D03*
X709300Y261950D03*
D153*
X721100Y261950D03*
D150*
X683600Y262150D03*
D151*
X695300Y262150D03*
X698100Y262150D03*
X700900Y262150D03*
X703700Y262150D03*
X706500Y262150D03*
X709300Y262150D03*
D153*
X721100Y262150D03*
D150*
X683600Y262350D03*
D151*
X695300Y262350D03*
X698100Y262350D03*
X700900Y262350D03*
X703700Y262350D03*
X706500Y262350D03*
X709300Y262350D03*
D153*
X721100Y262350D03*
D150*
X683600Y262550D03*
D151*
X695300Y262550D03*
X698100Y262550D03*
X700900Y262550D03*
X703700Y262550D03*
X706500Y262550D03*
X709300Y262550D03*
D153*
X721100Y262550D03*
D150*
X683600Y262750D03*
D151*
X695300Y262750D03*
X698100Y262750D03*
X700900Y262750D03*
X703700Y262750D03*
X706500Y262750D03*
X709300Y262750D03*
D153*
X721100Y262750D03*
D150*
X683600Y262950D03*
D154*
X689700Y262950D03*
D155*
X696000Y262950D03*
X700200Y262950D03*
D164*
X707200Y262950D03*
D154*
X714900Y262950D03*
D153*
X721100Y262950D03*
D150*
X683600Y263150D03*
D154*
X689700Y263150D03*
D155*
X696000Y263150D03*
X700200Y263150D03*
D164*
X707200Y263150D03*
D154*
X714900Y263150D03*
D153*
X721100Y263150D03*
D150*
X683600Y263350D03*
D154*
X689700Y263350D03*
D155*
X696000Y263350D03*
X700200Y263350D03*
D164*
X707200Y263350D03*
D154*
X714900Y263350D03*
D153*
X721100Y263350D03*
D150*
X683600Y263550D03*
D154*
X689700Y263550D03*
D155*
X696000Y263550D03*
X700200Y263550D03*
D164*
X707200Y263550D03*
D154*
X714900Y263550D03*
D153*
X721100Y263550D03*
D150*
X683600Y263750D03*
D154*
X689700Y263750D03*
D155*
X696000Y263750D03*
X700200Y263750D03*
D164*
X707200Y263750D03*
D154*
X714900Y263750D03*
D153*
X721100Y263750D03*
D150*
X683600Y263950D03*
D154*
X689700Y263950D03*
D155*
X696000Y263950D03*
X700200Y263950D03*
D164*
X707200Y263950D03*
D154*
X714900Y263950D03*
D153*
X721100Y263950D03*
D150*
X683600Y264150D03*
D154*
X689700Y264150D03*
D155*
X696000Y264150D03*
X700200Y264150D03*
D164*
X707200Y264150D03*
D154*
X714900Y264150D03*
D153*
X721100Y264150D03*
D150*
X683600Y264350D03*
D151*
X686900Y264350D03*
X692500Y264350D03*
X695300Y264350D03*
D152*
X703700Y264350D03*
D155*
X708600Y264350D03*
D151*
X712100Y264350D03*
X717700Y264350D03*
D153*
X721100Y264350D03*
D150*
X683600Y264550D03*
D151*
X686900Y264550D03*
X692500Y264550D03*
X695300Y264550D03*
D152*
X703700Y264550D03*
D155*
X708600Y264550D03*
D151*
X712100Y264550D03*
X717700Y264550D03*
D153*
X721100Y264550D03*
D150*
X683600Y264750D03*
D151*
X686900Y264750D03*
X692500Y264750D03*
X695300Y264750D03*
D152*
X703700Y264750D03*
D155*
X708600Y264750D03*
D151*
X712100Y264750D03*
X717700Y264750D03*
D153*
X721100Y264750D03*
D150*
X683600Y264950D03*
D151*
X686900Y264950D03*
X692500Y264950D03*
X695300Y264950D03*
D152*
X703700Y264950D03*
D155*
X708600Y264950D03*
D151*
X712100Y264950D03*
X717700Y264950D03*
D153*
X721100Y264950D03*
D150*
X683600Y265150D03*
D151*
X686900Y265150D03*
X692500Y265150D03*
X695300Y265150D03*
D152*
X703700Y265150D03*
D155*
X708600Y265150D03*
D151*
X712100Y265150D03*
X717700Y265150D03*
D153*
X721100Y265150D03*
D150*
X683600Y265350D03*
D151*
X686900Y265350D03*
X692500Y265350D03*
X695300Y265350D03*
D152*
X703700Y265350D03*
D155*
X708600Y265350D03*
D151*
X712100Y265350D03*
X717700Y265350D03*
D153*
X721100Y265350D03*
D150*
X683600Y265550D03*
D151*
X686900Y265550D03*
X692500Y265550D03*
X695300Y265550D03*
D152*
X703700Y265550D03*
D155*
X708600Y265550D03*
D151*
X712100Y265550D03*
X717700Y265550D03*
D153*
X721100Y265550D03*
D150*
X683600Y265750D03*
D151*
X686900Y265750D03*
X692500Y265750D03*
X695300Y265750D03*
X699500Y265750D03*
X703700Y265750D03*
D152*
X707900Y265750D03*
D151*
X712100Y265750D03*
X717700Y265750D03*
D153*
X721100Y265750D03*
D150*
X683600Y265950D03*
D151*
X686900Y265950D03*
X692500Y265950D03*
X695300Y265950D03*
X699500Y265950D03*
X703700Y265950D03*
D152*
X707900Y265950D03*
D151*
X712100Y265950D03*
X717700Y265950D03*
D153*
X721100Y265950D03*
D150*
X683600Y266150D03*
D151*
X686900Y266150D03*
X692500Y266150D03*
X695300Y266150D03*
X699500Y266150D03*
X703700Y266150D03*
D152*
X707900Y266150D03*
D151*
X712100Y266150D03*
X717700Y266150D03*
D153*
X721100Y266150D03*
D150*
X683600Y266350D03*
D151*
X686900Y266350D03*
X692500Y266350D03*
X695300Y266350D03*
X699500Y266350D03*
X703700Y266350D03*
D152*
X707900Y266350D03*
D151*
X712100Y266350D03*
X717700Y266350D03*
D153*
X721100Y266350D03*
D150*
X683600Y266550D03*
D151*
X686900Y266550D03*
X692500Y266550D03*
X695300Y266550D03*
X699500Y266550D03*
X703700Y266550D03*
D152*
X707900Y266550D03*
D151*
X712100Y266550D03*
X717700Y266550D03*
D153*
X721100Y266550D03*
D150*
X683600Y266750D03*
D151*
X686900Y266750D03*
X692500Y266750D03*
X695300Y266750D03*
X699500Y266750D03*
X703700Y266750D03*
D152*
X707900Y266750D03*
D151*
X712100Y266750D03*
X717700Y266750D03*
D153*
X721100Y266750D03*
D150*
X683600Y266950D03*
D151*
X686900Y266950D03*
X692500Y266950D03*
X695300Y266950D03*
X699500Y266950D03*
X703700Y266950D03*
D152*
X707900Y266950D03*
D151*
X712100Y266950D03*
X717700Y266950D03*
D153*
X721100Y266950D03*
D150*
X683600Y267150D03*
D151*
X686900Y267150D03*
X692500Y267150D03*
X695300Y267150D03*
D155*
X698800Y267150D03*
D151*
X705100Y267150D03*
D155*
X708600Y267150D03*
D151*
X712100Y267150D03*
X717700Y267150D03*
D153*
X721100Y267150D03*
D150*
X683600Y267350D03*
D151*
X686900Y267350D03*
X692500Y267350D03*
X695300Y267350D03*
D155*
X698800Y267350D03*
D151*
X705100Y267350D03*
D155*
X708600Y267350D03*
D151*
X712100Y267350D03*
X717700Y267350D03*
D153*
X721100Y267350D03*
D150*
X683600Y267550D03*
D151*
X686900Y267550D03*
X692500Y267550D03*
X695300Y267550D03*
D155*
X698800Y267550D03*
D151*
X705100Y267550D03*
D155*
X708600Y267550D03*
D151*
X712100Y267550D03*
X717700Y267550D03*
D153*
X721100Y267550D03*
D150*
X683600Y267750D03*
D151*
X686900Y267750D03*
X692500Y267750D03*
X695300Y267750D03*
D155*
X698800Y267750D03*
D151*
X705100Y267750D03*
D155*
X708600Y267750D03*
D151*
X712100Y267750D03*
X717700Y267750D03*
D153*
X721100Y267750D03*
D150*
X683600Y267950D03*
D151*
X686900Y267950D03*
X692500Y267950D03*
X695300Y267950D03*
D155*
X698800Y267950D03*
D151*
X705100Y267950D03*
D155*
X708600Y267950D03*
D151*
X712100Y267950D03*
X717700Y267950D03*
D153*
X721100Y267950D03*
D150*
X683600Y268150D03*
D151*
X686900Y268150D03*
X692500Y268150D03*
X695300Y268150D03*
D155*
X698800Y268150D03*
D151*
X705100Y268150D03*
D155*
X708600Y268150D03*
D151*
X712100Y268150D03*
X717700Y268150D03*
D153*
X721100Y268150D03*
D150*
X683600Y268350D03*
D151*
X686900Y268350D03*
X692500Y268350D03*
X695300Y268350D03*
D155*
X698800Y268350D03*
D151*
X705100Y268350D03*
D155*
X708600Y268350D03*
D151*
X712100Y268350D03*
X717700Y268350D03*
D153*
X721100Y268350D03*
D150*
X683600Y268550D03*
D154*
X689700Y268550D03*
D168*
X700900Y268550D03*
D151*
X709300Y268550D03*
D154*
X714900Y268550D03*
D153*
X721100Y268550D03*
D150*
X683600Y268750D03*
D154*
X689700Y268750D03*
D168*
X700900Y268750D03*
D151*
X709300Y268750D03*
D154*
X714900Y268750D03*
D153*
X721100Y268750D03*
D150*
X683600Y268950D03*
D154*
X689700Y268950D03*
D168*
X700900Y268950D03*
D151*
X709300Y268950D03*
D154*
X714900Y268950D03*
D153*
X721100Y268950D03*
D150*
X683600Y269150D03*
D154*
X689700Y269150D03*
D168*
X700900Y269150D03*
D151*
X709300Y269150D03*
D154*
X714900Y269150D03*
D153*
X721100Y269150D03*
D150*
X683600Y269350D03*
D154*
X689700Y269350D03*
D168*
X700900Y269350D03*
D151*
X709300Y269350D03*
D154*
X714900Y269350D03*
D153*
X721100Y269350D03*
D150*
X683600Y269550D03*
D154*
X689700Y269550D03*
D168*
X700900Y269550D03*
D151*
X709300Y269550D03*
D154*
X714900Y269550D03*
D153*
X721100Y269550D03*
D150*
X683600Y269750D03*
D154*
X689700Y269750D03*
D168*
X700900Y269750D03*
D151*
X709300Y269750D03*
D154*
X714900Y269750D03*
D153*
X721100Y269750D03*
D150*
X683600Y269950D03*
D151*
X695300Y269950D03*
D158*
X703000Y269950D03*
D151*
X709300Y269950D03*
D153*
X721100Y269950D03*
D150*
X683600Y270150D03*
D151*
X695300Y270150D03*
D158*
X703000Y270150D03*
D151*
X709300Y270150D03*
D153*
X721100Y270150D03*
D150*
X683600Y270350D03*
D151*
X695300Y270350D03*
D158*
X703000Y270350D03*
D151*
X709300Y270350D03*
D153*
X721100Y270350D03*
D150*
X683600Y270550D03*
D151*
X695300Y270550D03*
D158*
X703000Y270550D03*
D151*
X709300Y270550D03*
D153*
X721100Y270550D03*
D150*
X683600Y270750D03*
D151*
X695300Y270750D03*
D158*
X703000Y270750D03*
D151*
X709300Y270750D03*
D153*
X721100Y270750D03*
D150*
X683600Y270950D03*
D151*
X695300Y270950D03*
D158*
X703000Y270950D03*
D151*
X709300Y270950D03*
D153*
X721100Y270950D03*
D150*
X683600Y271150D03*
D151*
X695300Y271150D03*
D158*
X703000Y271150D03*
D151*
X709300Y271150D03*
D153*
X721100Y271150D03*
D149*
X702400Y271350D03*
X702400Y271550D03*
X702400Y271750D03*
X702400Y271950D03*
X702400Y272150D03*
X702400Y272350D03*
X702400Y272550D03*
X702400Y272750D03*
X702400Y272950D03*
X702400Y273150D03*
X702400Y273350D03*
X702400Y273550D03*
D10*
X506820Y128940D02*
X498180Y128940D01*
X498180Y136060D02*
X506820Y136060D01*
D23*
X508850Y132500D03*
X496150Y132500D03*
D13*
X497420Y132500D02*
X507580Y132500D01*
D11*
X624320Y166440D02*
X624320Y173560D01*
X615810Y173560D02*
X615810Y166440D01*
D14*
X620051Y175882D03*
X620051Y164198D03*
D13*
X623810Y170000D02*
X616190Y170000D01*
D11*
X664320Y173560D02*
X664320Y166440D01*
X655810Y166440D02*
X655810Y173560D01*
D14*
X660051Y175882D03*
X660051Y164198D03*
D13*
X663810Y170000D02*
X656190Y170000D01*
D20*
X233890Y100540D03*
D16*
X235500Y95500D02*
X231390Y95500D01*
X235500Y95500D02*
X235500Y91390D01*
X235500Y64500D02*
X231390Y64500D01*
X235500Y64500D02*
X235500Y68610D01*
X208610Y64500D02*
X204500Y64500D01*
X204500Y68610D01*
X204500Y95500D02*
X208610Y95500D01*
X204500Y95500D02*
X204500Y91390D01*
D19*
X181500Y304500D02*
X181500Y320500D01*
X213500Y320500D02*
X213500Y304500D01*
X64000Y278000D02*
X64000Y262000D01*
X96000Y262000D02*
X96000Y278000D01*
D18*
X453000Y85500D02*
X453000Y9500D01*
X552000Y9500D01*
X461500Y85500D02*
X453000Y85500D01*
X543500Y85500D02*
X552000Y85500D01*
X552000Y9500D01*
X543500Y69500D02*
X461500Y69500D01*
X543500Y69500D02*
X543500Y85500D01*
X461500Y85500D02*
X461500Y69500D01*
X531500Y74500D02*
X531502Y74589D01*
X531508Y74678D01*
X531518Y74767D01*
X531532Y74855D01*
X531549Y74942D01*
X531571Y75028D01*
X531597Y75114D01*
X531626Y75198D01*
X531659Y75281D01*
X531695Y75362D01*
X531736Y75442D01*
X531779Y75519D01*
X531826Y75595D01*
X531877Y75668D01*
X531930Y75739D01*
X531987Y75808D01*
X532047Y75874D01*
X532110Y75938D01*
X532175Y75998D01*
X532243Y76056D01*
X532314Y76110D01*
X532387Y76161D01*
X532462Y76209D01*
X532539Y76254D01*
X532618Y76295D01*
X532699Y76332D01*
X532781Y76366D01*
X532865Y76397D01*
X532950Y76423D01*
X533036Y76446D01*
X533123Y76464D01*
X533211Y76479D01*
X533300Y76490D01*
X533389Y76497D01*
X533478Y76500D01*
X533567Y76499D01*
X533656Y76494D01*
X533744Y76485D01*
X533833Y76472D01*
X533920Y76455D01*
X534007Y76435D01*
X534093Y76410D01*
X534177Y76382D01*
X534260Y76350D01*
X534342Y76314D01*
X534422Y76275D01*
X534500Y76232D01*
X534576Y76186D01*
X534650Y76136D01*
X534722Y76083D01*
X534791Y76027D01*
X534858Y75968D01*
X534922Y75906D01*
X534983Y75842D01*
X535042Y75774D01*
X535097Y75704D01*
X535149Y75632D01*
X535198Y75557D01*
X535243Y75481D01*
X535285Y75402D01*
X535323Y75322D01*
X535358Y75240D01*
X535389Y75156D01*
X535417Y75071D01*
X535440Y74985D01*
X535460Y74898D01*
X535476Y74811D01*
X535488Y74722D01*
X535496Y74634D01*
X535500Y74545D01*
X535500Y74455D01*
X535496Y74366D01*
X535488Y74278D01*
X535476Y74189D01*
X535460Y74102D01*
X535440Y74015D01*
X535417Y73929D01*
X535389Y73844D01*
X535358Y73760D01*
X535323Y73678D01*
X535285Y73598D01*
X535243Y73519D01*
X535198Y73443D01*
X535149Y73368D01*
X535097Y73296D01*
X535042Y73226D01*
X534983Y73158D01*
X534922Y73094D01*
X534858Y73032D01*
X534791Y72973D01*
X534722Y72917D01*
X534650Y72864D01*
X534576Y72814D01*
X534500Y72768D01*
X534422Y72725D01*
X534342Y72686D01*
X534260Y72650D01*
X534177Y72618D01*
X534093Y72590D01*
X534007Y72565D01*
X533920Y72545D01*
X533833Y72528D01*
X533744Y72515D01*
X533656Y72506D01*
X533567Y72501D01*
X533478Y72500D01*
X533389Y72503D01*
X533300Y72510D01*
X533211Y72521D01*
X533123Y72536D01*
X533036Y72554D01*
X532950Y72577D01*
X532865Y72603D01*
X532781Y72634D01*
X532699Y72668D01*
X532618Y72705D01*
X532539Y72746D01*
X532462Y72791D01*
X532387Y72839D01*
X532314Y72890D01*
X532243Y72944D01*
X532175Y73002D01*
X532110Y73062D01*
X532047Y73126D01*
X531987Y73192D01*
X531930Y73261D01*
X531877Y73332D01*
X531826Y73405D01*
X531779Y73481D01*
X531736Y73558D01*
X531695Y73638D01*
X531659Y73719D01*
X531626Y73802D01*
X531597Y73886D01*
X531571Y73972D01*
X531549Y74058D01*
X531532Y74145D01*
X531518Y74233D01*
X531508Y74322D01*
X531502Y74411D01*
X531500Y74500D01*
D169*
X31000Y16000D02*
X28000Y16000D01*
X31000Y16000D02*
X31000Y13000D01*
X28000Y13000D01*
X28000Y6000D01*
X177000Y6000D02*
X177000Y13000D01*
X174000Y13000D01*
X174000Y16000D01*
X177000Y16000D01*
X174000Y16000D02*
X31000Y16000D01*
X28000Y6000D02*
X177000Y6000D01*
X28000Y50000D02*
X28000Y60000D01*
X40000Y60000D01*
X177000Y60000D02*
X177000Y50000D01*
X177000Y60000D02*
X165000Y60000D01*
X28000Y20000D02*
X28000Y16000D01*
X177000Y16000D02*
X177000Y20000D01*
D19*
X136500Y304500D02*
X136500Y320500D01*
X168500Y320500D02*
X168500Y304500D01*
X226500Y304500D02*
X226500Y320500D01*
X258500Y320500D02*
X258500Y304500D01*
D20*
X363890Y100540D03*
D16*
X365500Y95500D02*
X361390Y95500D01*
X365500Y95500D02*
X365500Y91390D01*
X365500Y64500D02*
X361390Y64500D01*
X365500Y64500D02*
X365500Y68610D01*
X338610Y64500D02*
X334500Y64500D01*
X334500Y68610D01*
X334500Y95500D02*
X338610Y95500D01*
X334500Y95500D02*
X334500Y91390D01*
D10*
X297820Y126440D02*
X289180Y126440D01*
X289180Y133560D02*
X297820Y133560D01*
D23*
X299850Y130000D03*
X287150Y130000D03*
D13*
X288420Y130000D02*
X298580Y130000D01*
D10*
X280820Y126440D02*
X272180Y126440D01*
X272180Y133560D02*
X280820Y133560D01*
D23*
X282850Y130000D03*
X270150Y130000D03*
D13*
X271420Y130000D02*
X281580Y130000D01*
D10*
X386680Y126440D02*
X395320Y126440D01*
X395320Y133560D02*
X386680Y133560D01*
D23*
X397350Y130000D03*
X384650Y130000D03*
D13*
X385920Y130000D02*
X396080Y130000D01*
D10*
X378320Y126440D02*
X369680Y126440D01*
X369680Y133560D02*
X378320Y133560D01*
D23*
X380350Y130000D03*
X367650Y130000D03*
D13*
X368920Y130000D02*
X379080Y130000D01*
D10*
X289320Y111060D02*
X280680Y111060D01*
X280680Y103940D02*
X289320Y103940D01*
D23*
X278650Y107500D03*
X291350Y107500D03*
D13*
X290080Y107500D02*
X279920Y107500D01*
D10*
X385680Y111060D02*
X394320Y111060D01*
X394320Y103940D02*
X385680Y103940D01*
D23*
X383650Y107500D03*
X396350Y107500D03*
D13*
X395080Y107500D02*
X384920Y107500D01*
D11*
X280680Y83560D02*
X280680Y76440D01*
X289190Y76440D02*
X289190Y83560D01*
D14*
X284949Y74119D03*
X284949Y85803D03*
D13*
X281190Y80000D02*
X288810Y80000D01*
D11*
X410680Y76440D02*
X410680Y83560D01*
X419190Y83560D02*
X419190Y76440D01*
D14*
X414949Y74119D03*
X414949Y85803D03*
D13*
X411190Y80000D02*
X418810Y80000D01*
D11*
X390680Y76440D02*
X390680Y83560D01*
X399190Y83560D02*
X399190Y76440D01*
D14*
X394949Y74119D03*
X394949Y85803D03*
D13*
X391190Y80000D02*
X398810Y80000D01*
D11*
X260680Y76440D02*
X260680Y83560D01*
X269190Y83560D02*
X269190Y76440D01*
D14*
X264949Y74119D03*
X264949Y85803D03*
D13*
X261190Y80000D02*
X268810Y80000D01*
M02*
