G04 EAGLE Gerber RS-274X export*
G75*
%MOMM*%
%FSLAX34Y34*%
%LPD*%
%INSilkscreen Bottom*%
%IPPOS*%
%AMOC8*
5,1,8,0,0,1.08239X$1,22.5*%
G01*
%ADD10C,0.152400*%
%ADD11C,3.100000*%
%ADD12C,0.127000*%
%ADD13C,0.203200*%
%ADD14C,0.101600*%
%ADD15R,0.950000X0.500100*%
%ADD16C,0.177800*%
%ADD17C,0.500000*%
%ADD18C,0.120000*%
%ADD19R,0.200000X0.200000*%
%ADD20R,0.406400X0.863600*%
%ADD21R,0.863600X0.406400*%
%ADD22C,0.200000*%


D10*
X-25762Y157121D02*
X-32354Y157121D01*
X-32354Y157122D02*
X-32439Y157120D01*
X-32523Y157114D01*
X-32607Y157105D01*
X-32690Y157092D01*
X-32773Y157075D01*
X-32855Y157054D01*
X-32936Y157030D01*
X-33016Y157002D01*
X-33094Y156970D01*
X-33171Y156935D01*
X-33247Y156897D01*
X-33320Y156855D01*
X-33392Y156810D01*
X-33461Y156762D01*
X-33529Y156711D01*
X-33594Y156657D01*
X-33656Y156600D01*
X-33716Y156540D01*
X-33773Y156478D01*
X-33827Y156413D01*
X-33878Y156345D01*
X-33926Y156276D01*
X-33971Y156204D01*
X-34013Y156131D01*
X-34051Y156055D01*
X-34086Y155978D01*
X-34118Y155900D01*
X-34146Y155820D01*
X-34170Y155739D01*
X-34191Y155657D01*
X-34208Y155574D01*
X-34221Y155491D01*
X-34230Y155407D01*
X-34236Y155322D01*
X-34238Y155238D01*
X-34238Y154296D01*
X-34238Y161985D02*
X-25762Y161985D01*
X-34238Y161985D02*
X-34238Y165752D01*
X-34238Y171305D02*
X-34238Y173188D01*
X-34238Y171305D02*
X-34236Y171220D01*
X-34230Y171136D01*
X-34221Y171052D01*
X-34208Y170969D01*
X-34191Y170886D01*
X-34170Y170804D01*
X-34146Y170723D01*
X-34118Y170643D01*
X-34086Y170565D01*
X-34051Y170488D01*
X-34013Y170412D01*
X-33971Y170339D01*
X-33926Y170267D01*
X-33878Y170198D01*
X-33827Y170130D01*
X-33773Y170065D01*
X-33716Y170003D01*
X-33656Y169943D01*
X-33594Y169886D01*
X-33529Y169832D01*
X-33461Y169781D01*
X-33392Y169733D01*
X-33320Y169688D01*
X-33247Y169646D01*
X-33171Y169608D01*
X-33094Y169573D01*
X-33016Y169541D01*
X-32936Y169513D01*
X-32855Y169489D01*
X-32773Y169468D01*
X-32690Y169451D01*
X-32607Y169438D01*
X-32523Y169429D01*
X-32439Y169423D01*
X-32354Y169421D01*
X-27646Y169421D01*
X-27561Y169423D01*
X-27477Y169429D01*
X-27393Y169438D01*
X-27310Y169451D01*
X-27227Y169468D01*
X-27145Y169489D01*
X-27064Y169513D01*
X-26984Y169541D01*
X-26906Y169573D01*
X-26829Y169608D01*
X-26753Y169646D01*
X-26680Y169688D01*
X-26608Y169733D01*
X-26539Y169781D01*
X-26471Y169832D01*
X-26406Y169886D01*
X-26344Y169943D01*
X-26284Y170003D01*
X-26227Y170065D01*
X-26173Y170130D01*
X-26122Y170198D01*
X-26074Y170267D01*
X-26029Y170339D01*
X-25987Y170412D01*
X-25949Y170488D01*
X-25914Y170565D01*
X-25882Y170643D01*
X-25854Y170723D01*
X-25830Y170804D01*
X-25809Y170886D01*
X-25792Y170969D01*
X-25779Y171052D01*
X-25770Y171136D01*
X-25764Y171220D01*
X-25762Y171305D01*
X-25762Y173188D01*
X-25762Y178721D02*
X-32354Y178721D01*
X-32354Y178722D02*
X-32439Y178720D01*
X-32523Y178714D01*
X-32607Y178705D01*
X-32690Y178692D01*
X-32773Y178675D01*
X-32855Y178654D01*
X-32936Y178630D01*
X-33016Y178602D01*
X-33094Y178570D01*
X-33171Y178535D01*
X-33247Y178497D01*
X-33320Y178455D01*
X-33392Y178410D01*
X-33461Y178362D01*
X-33529Y178311D01*
X-33594Y178257D01*
X-33656Y178200D01*
X-33716Y178140D01*
X-33773Y178078D01*
X-33827Y178013D01*
X-33878Y177945D01*
X-33926Y177876D01*
X-33971Y177804D01*
X-34013Y177731D01*
X-34051Y177655D01*
X-34086Y177578D01*
X-34118Y177500D01*
X-34146Y177420D01*
X-34170Y177339D01*
X-34191Y177257D01*
X-34208Y177174D01*
X-34221Y177091D01*
X-34230Y177007D01*
X-34236Y176922D01*
X-34238Y176838D01*
X-34238Y175896D01*
X-34238Y183585D02*
X-25762Y183585D01*
X-34238Y183585D02*
X-34238Y187352D01*
X-34238Y192905D02*
X-34238Y194788D01*
X-34238Y192905D02*
X-34236Y192820D01*
X-34230Y192736D01*
X-34221Y192652D01*
X-34208Y192569D01*
X-34191Y192486D01*
X-34170Y192404D01*
X-34146Y192323D01*
X-34118Y192243D01*
X-34086Y192165D01*
X-34051Y192088D01*
X-34013Y192012D01*
X-33971Y191939D01*
X-33926Y191867D01*
X-33878Y191798D01*
X-33827Y191730D01*
X-33773Y191665D01*
X-33716Y191603D01*
X-33656Y191543D01*
X-33594Y191486D01*
X-33529Y191432D01*
X-33461Y191381D01*
X-33392Y191333D01*
X-33320Y191288D01*
X-33247Y191246D01*
X-33171Y191208D01*
X-33094Y191173D01*
X-33016Y191141D01*
X-32936Y191113D01*
X-32855Y191089D01*
X-32773Y191068D01*
X-32690Y191051D01*
X-32607Y191038D01*
X-32523Y191029D01*
X-32439Y191023D01*
X-32354Y191021D01*
X-27646Y191021D01*
X-27561Y191023D01*
X-27477Y191029D01*
X-27393Y191038D01*
X-27310Y191051D01*
X-27227Y191068D01*
X-27145Y191089D01*
X-27064Y191113D01*
X-26984Y191141D01*
X-26906Y191173D01*
X-26829Y191208D01*
X-26753Y191246D01*
X-26680Y191288D01*
X-26608Y191333D01*
X-26539Y191381D01*
X-26471Y191432D01*
X-26406Y191486D01*
X-26344Y191543D01*
X-26284Y191603D01*
X-26227Y191665D01*
X-26173Y191730D01*
X-26122Y191798D01*
X-26074Y191867D01*
X-26029Y191939D01*
X-25987Y192012D01*
X-25949Y192088D01*
X-25914Y192165D01*
X-25882Y192243D01*
X-25854Y192323D01*
X-25830Y192404D01*
X-25809Y192486D01*
X-25792Y192569D01*
X-25779Y192652D01*
X-25770Y192736D01*
X-25764Y192820D01*
X-25762Y192905D01*
X-25762Y194788D01*
X-25762Y200321D02*
X-32354Y200321D01*
X-32354Y200322D02*
X-32439Y200320D01*
X-32523Y200314D01*
X-32607Y200305D01*
X-32690Y200292D01*
X-32773Y200275D01*
X-32855Y200254D01*
X-32936Y200230D01*
X-33016Y200202D01*
X-33094Y200170D01*
X-33171Y200135D01*
X-33247Y200097D01*
X-33320Y200055D01*
X-33392Y200010D01*
X-33461Y199962D01*
X-33529Y199911D01*
X-33594Y199857D01*
X-33656Y199800D01*
X-33716Y199740D01*
X-33773Y199678D01*
X-33827Y199613D01*
X-33878Y199545D01*
X-33926Y199476D01*
X-33971Y199404D01*
X-34013Y199331D01*
X-34051Y199255D01*
X-34086Y199178D01*
X-34118Y199100D01*
X-34146Y199020D01*
X-34170Y198939D01*
X-34191Y198857D01*
X-34208Y198774D01*
X-34221Y198691D01*
X-34230Y198607D01*
X-34236Y198522D01*
X-34238Y198438D01*
X-34238Y197496D01*
X-34238Y205185D02*
X-25762Y205185D01*
X-34238Y205185D02*
X-34238Y208952D01*
X-34238Y214505D02*
X-34238Y216388D01*
X-34238Y214505D02*
X-34236Y214420D01*
X-34230Y214336D01*
X-34221Y214252D01*
X-34208Y214169D01*
X-34191Y214086D01*
X-34170Y214004D01*
X-34146Y213923D01*
X-34118Y213843D01*
X-34086Y213765D01*
X-34051Y213688D01*
X-34013Y213612D01*
X-33971Y213539D01*
X-33926Y213467D01*
X-33878Y213398D01*
X-33827Y213330D01*
X-33773Y213265D01*
X-33716Y213203D01*
X-33656Y213143D01*
X-33594Y213086D01*
X-33529Y213032D01*
X-33461Y212981D01*
X-33392Y212933D01*
X-33320Y212888D01*
X-33247Y212846D01*
X-33171Y212808D01*
X-33094Y212773D01*
X-33016Y212741D01*
X-32936Y212713D01*
X-32855Y212689D01*
X-32773Y212668D01*
X-32690Y212651D01*
X-32607Y212638D01*
X-32523Y212629D01*
X-32439Y212623D01*
X-32354Y212621D01*
X-27646Y212621D01*
X-27561Y212623D01*
X-27477Y212629D01*
X-27393Y212638D01*
X-27310Y212651D01*
X-27227Y212668D01*
X-27145Y212689D01*
X-27064Y212713D01*
X-26984Y212741D01*
X-26906Y212773D01*
X-26829Y212808D01*
X-26753Y212846D01*
X-26680Y212888D01*
X-26608Y212933D01*
X-26539Y212981D01*
X-26471Y213032D01*
X-26406Y213086D01*
X-26344Y213143D01*
X-26284Y213203D01*
X-26227Y213265D01*
X-26173Y213330D01*
X-26122Y213398D01*
X-26074Y213467D01*
X-26029Y213539D01*
X-25987Y213612D01*
X-25949Y213688D01*
X-25914Y213765D01*
X-25882Y213843D01*
X-25854Y213923D01*
X-25830Y214004D01*
X-25809Y214086D01*
X-25792Y214169D01*
X-25779Y214252D01*
X-25770Y214336D01*
X-25764Y214420D01*
X-25762Y214505D01*
X-25762Y216388D01*
X-25762Y221921D02*
X-32354Y221921D01*
X-32439Y221919D01*
X-32523Y221913D01*
X-32607Y221904D01*
X-32690Y221891D01*
X-32773Y221874D01*
X-32855Y221853D01*
X-32936Y221829D01*
X-33016Y221801D01*
X-33094Y221769D01*
X-33171Y221734D01*
X-33247Y221696D01*
X-33320Y221654D01*
X-33392Y221609D01*
X-33461Y221561D01*
X-33529Y221510D01*
X-33594Y221456D01*
X-33656Y221399D01*
X-33716Y221339D01*
X-33773Y221277D01*
X-33827Y221212D01*
X-33878Y221144D01*
X-33926Y221075D01*
X-33971Y221003D01*
X-34013Y220930D01*
X-34051Y220854D01*
X-34086Y220777D01*
X-34118Y220699D01*
X-34146Y220619D01*
X-34170Y220538D01*
X-34191Y220456D01*
X-34208Y220373D01*
X-34221Y220290D01*
X-34230Y220206D01*
X-34236Y220121D01*
X-34238Y220037D01*
X-34238Y219096D01*
X-34238Y226785D02*
X-25762Y226785D01*
X-34238Y226785D02*
X-34238Y230552D01*
X-34238Y236104D02*
X-34238Y237988D01*
X-34238Y236104D02*
X-34236Y236019D01*
X-34230Y235935D01*
X-34221Y235851D01*
X-34208Y235768D01*
X-34191Y235685D01*
X-34170Y235603D01*
X-34146Y235522D01*
X-34118Y235442D01*
X-34086Y235364D01*
X-34051Y235287D01*
X-34013Y235211D01*
X-33971Y235138D01*
X-33926Y235066D01*
X-33878Y234997D01*
X-33827Y234929D01*
X-33773Y234864D01*
X-33716Y234802D01*
X-33656Y234742D01*
X-33594Y234685D01*
X-33529Y234631D01*
X-33461Y234580D01*
X-33392Y234532D01*
X-33320Y234487D01*
X-33247Y234445D01*
X-33171Y234407D01*
X-33094Y234372D01*
X-33016Y234340D01*
X-32936Y234312D01*
X-32855Y234288D01*
X-32773Y234267D01*
X-32690Y234250D01*
X-32607Y234237D01*
X-32523Y234228D01*
X-32439Y234222D01*
X-32354Y234220D01*
X-32354Y234221D02*
X-27646Y234221D01*
X-27646Y234220D02*
X-27561Y234222D01*
X-27477Y234228D01*
X-27393Y234237D01*
X-27310Y234250D01*
X-27227Y234267D01*
X-27145Y234288D01*
X-27064Y234312D01*
X-26984Y234340D01*
X-26906Y234372D01*
X-26829Y234407D01*
X-26753Y234445D01*
X-26680Y234487D01*
X-26608Y234532D01*
X-26539Y234580D01*
X-26471Y234631D01*
X-26406Y234685D01*
X-26344Y234742D01*
X-26284Y234802D01*
X-26227Y234864D01*
X-26173Y234929D01*
X-26122Y234997D01*
X-26074Y235066D01*
X-26029Y235138D01*
X-25987Y235211D01*
X-25949Y235287D01*
X-25914Y235364D01*
X-25882Y235442D01*
X-25854Y235522D01*
X-25830Y235603D01*
X-25809Y235685D01*
X-25792Y235768D01*
X-25779Y235851D01*
X-25770Y235935D01*
X-25764Y236019D01*
X-25762Y236104D01*
X-25762Y237988D01*
X49238Y340762D02*
X49238Y347238D01*
X47439Y347238D01*
X47356Y347236D01*
X47273Y347230D01*
X47190Y347221D01*
X47108Y347207D01*
X47027Y347190D01*
X46947Y347169D01*
X46867Y347145D01*
X46789Y347117D01*
X46712Y347085D01*
X46637Y347049D01*
X46564Y347011D01*
X46492Y346969D01*
X46422Y346923D01*
X46355Y346875D01*
X46290Y346823D01*
X46227Y346768D01*
X46167Y346711D01*
X46110Y346651D01*
X46055Y346588D01*
X46003Y346523D01*
X45955Y346456D01*
X45909Y346386D01*
X45867Y346314D01*
X45829Y346241D01*
X45793Y346166D01*
X45761Y346089D01*
X45733Y346011D01*
X45709Y345931D01*
X45688Y345851D01*
X45671Y345770D01*
X45657Y345688D01*
X45648Y345605D01*
X45642Y345522D01*
X45640Y345439D01*
X45642Y345356D01*
X45648Y345273D01*
X45657Y345190D01*
X45671Y345108D01*
X45688Y345027D01*
X45709Y344947D01*
X45733Y344867D01*
X45761Y344789D01*
X45793Y344712D01*
X45829Y344637D01*
X45867Y344564D01*
X45909Y344492D01*
X45955Y344422D01*
X46003Y344355D01*
X46055Y344290D01*
X46110Y344227D01*
X46167Y344167D01*
X46227Y344110D01*
X46290Y344055D01*
X46355Y344003D01*
X46422Y343955D01*
X46492Y343909D01*
X46564Y343867D01*
X46637Y343829D01*
X46712Y343793D01*
X46789Y343761D01*
X46867Y343733D01*
X46947Y343709D01*
X47027Y343688D01*
X47108Y343671D01*
X47190Y343657D01*
X47273Y343648D01*
X47356Y343642D01*
X47439Y343640D01*
X49238Y343640D01*
X47079Y343640D02*
X45640Y340762D01*
X40198Y340762D02*
X40123Y340764D01*
X40048Y340770D01*
X39973Y340780D01*
X39899Y340793D01*
X39826Y340811D01*
X39753Y340832D01*
X39682Y340858D01*
X39613Y340886D01*
X39545Y340919D01*
X39479Y340955D01*
X39414Y340994D01*
X39352Y341037D01*
X39292Y341083D01*
X39235Y341132D01*
X39180Y341183D01*
X39129Y341238D01*
X39080Y341295D01*
X39034Y341355D01*
X38991Y341417D01*
X38952Y341482D01*
X38916Y341548D01*
X38883Y341616D01*
X38855Y341685D01*
X38829Y341756D01*
X38808Y341829D01*
X38790Y341902D01*
X38777Y341976D01*
X38767Y342051D01*
X38761Y342126D01*
X38759Y342201D01*
X40198Y340762D02*
X40307Y340764D01*
X40416Y340770D01*
X40525Y340780D01*
X40633Y340793D01*
X40741Y340811D01*
X40848Y340832D01*
X40954Y340857D01*
X41059Y340886D01*
X41163Y340919D01*
X41266Y340956D01*
X41367Y340996D01*
X41467Y341040D01*
X41565Y341087D01*
X41662Y341138D01*
X41757Y341192D01*
X41849Y341250D01*
X41940Y341311D01*
X42028Y341375D01*
X42114Y341442D01*
X42198Y341512D01*
X42278Y341585D01*
X42357Y341661D01*
X42176Y345799D02*
X42174Y345874D01*
X42168Y345949D01*
X42158Y346024D01*
X42145Y346098D01*
X42127Y346171D01*
X42106Y346244D01*
X42080Y346315D01*
X42052Y346384D01*
X42019Y346452D01*
X41983Y346519D01*
X41944Y346583D01*
X41901Y346645D01*
X41855Y346705D01*
X41806Y346762D01*
X41755Y346817D01*
X41700Y346868D01*
X41643Y346917D01*
X41583Y346963D01*
X41521Y347006D01*
X41457Y347045D01*
X41390Y347081D01*
X41322Y347114D01*
X41253Y347142D01*
X41182Y347168D01*
X41109Y347189D01*
X41036Y347207D01*
X40962Y347220D01*
X40887Y347230D01*
X40812Y347236D01*
X40737Y347238D01*
X40635Y347236D01*
X40533Y347230D01*
X40431Y347221D01*
X40330Y347207D01*
X40229Y347190D01*
X40129Y347169D01*
X40030Y347144D01*
X39932Y347115D01*
X39835Y347083D01*
X39740Y347047D01*
X39646Y347007D01*
X39553Y346964D01*
X39462Y346918D01*
X39373Y346868D01*
X39286Y346815D01*
X39201Y346758D01*
X39118Y346698D01*
X41457Y344539D02*
X41522Y344580D01*
X41584Y344623D01*
X41644Y344670D01*
X41701Y344720D01*
X41756Y344772D01*
X41808Y344828D01*
X41857Y344886D01*
X41902Y344946D01*
X41945Y345009D01*
X41984Y345074D01*
X42020Y345140D01*
X42053Y345209D01*
X42082Y345279D01*
X42107Y345351D01*
X42128Y345424D01*
X42146Y345498D01*
X42159Y345572D01*
X42169Y345647D01*
X42175Y345723D01*
X42177Y345799D01*
X39478Y343461D02*
X39413Y343420D01*
X39351Y343377D01*
X39291Y343330D01*
X39234Y343280D01*
X39179Y343228D01*
X39127Y343172D01*
X39079Y343114D01*
X39033Y343054D01*
X38990Y342991D01*
X38951Y342926D01*
X38915Y342860D01*
X38882Y342791D01*
X38853Y342721D01*
X38828Y342649D01*
X38807Y342576D01*
X38789Y342502D01*
X38776Y342428D01*
X38766Y342353D01*
X38760Y342277D01*
X38758Y342201D01*
X39478Y343460D02*
X41457Y344540D01*
X34078Y347238D02*
X34078Y340762D01*
X35876Y347238D02*
X32279Y347238D01*
D11*
X22500Y305000D03*
X552500Y110000D03*
D12*
X442500Y7500D02*
X410000Y7500D01*
X160000Y82500D02*
X127500Y82500D01*
D13*
X161000Y322000D02*
X170000Y322000D01*
X161000Y322000D02*
X144000Y322000D01*
X135000Y322000D01*
X135000Y293000D02*
X170000Y293000D01*
X161000Y328500D02*
X144000Y328500D01*
X161000Y328500D02*
X161000Y322000D01*
X161055Y322015D01*
X144000Y322000D02*
X144000Y328500D01*
X143479Y322082D02*
X144000Y322000D01*
X221000Y327000D02*
X230000Y327000D01*
X221000Y327000D02*
X204000Y327000D01*
X195000Y327000D01*
X195000Y298000D02*
X230000Y298000D01*
X221000Y333500D02*
X204000Y333500D01*
X221000Y333500D02*
X221000Y327000D01*
X221055Y327015D01*
X204000Y327000D02*
X204000Y333500D01*
X203479Y327082D02*
X204000Y327000D01*
D14*
X316320Y312060D02*
X316320Y304940D01*
X307810Y304940D02*
X307810Y312060D01*
D15*
X312051Y302619D03*
X312051Y314303D03*
D16*
X315810Y308500D02*
X308190Y308500D01*
D14*
X221820Y248560D02*
X221820Y241440D01*
X213310Y241440D02*
X213310Y248560D01*
D15*
X217551Y239119D03*
X217551Y250803D03*
D16*
X221310Y245000D02*
X213690Y245000D01*
D17*
X534986Y175724D03*
D18*
X536000Y186500D02*
X532486Y186500D01*
X536000Y186500D02*
X536000Y223500D01*
X520986Y223500D01*
X472514Y186500D02*
X469000Y186500D01*
X469000Y223500D01*
X484014Y223500D01*
D14*
X556820Y173560D02*
X556820Y166440D01*
X548310Y166440D02*
X548310Y173560D01*
D15*
X552551Y164119D03*
X552551Y175803D03*
D16*
X556310Y170000D02*
X548690Y170000D01*
D14*
X165680Y106060D02*
X165680Y98940D01*
X174190Y98940D02*
X174190Y106060D01*
D15*
X169949Y108382D03*
X169949Y96698D03*
D16*
X166190Y102500D02*
X173810Y102500D01*
D19*
X452500Y208500D03*
D10*
X460680Y241060D02*
X469320Y241060D01*
X469320Y233940D02*
X460680Y233940D01*
D20*
X471350Y237500D03*
X458650Y237500D03*
D16*
X459920Y237500D02*
X470080Y237500D01*
D19*
X52500Y308500D03*
X72500Y308500D03*
X92500Y308500D03*
X112500Y308500D03*
X552500Y208500D03*
D10*
X147310Y66820D02*
X147310Y58180D01*
X140190Y58180D02*
X140190Y66820D01*
D21*
X143750Y56150D03*
X143750Y68850D03*
D16*
X143750Y67580D02*
X143750Y57420D01*
D12*
X187500Y282500D02*
X27500Y282500D01*
X27500Y122500D01*
X187500Y122500D01*
X187500Y282500D01*
X167500Y277500D02*
X167500Y127500D01*
X47500Y127500D01*
X47500Y277500D01*
X167500Y277500D01*
D22*
X146500Y262500D02*
X146502Y262654D01*
X146508Y262809D01*
X146518Y262963D01*
X146532Y263117D01*
X146550Y263270D01*
X146571Y263423D01*
X146597Y263576D01*
X146627Y263727D01*
X146660Y263878D01*
X146698Y264028D01*
X146739Y264177D01*
X146784Y264325D01*
X146833Y264471D01*
X146886Y264617D01*
X146942Y264760D01*
X147002Y264903D01*
X147066Y265043D01*
X147133Y265183D01*
X147204Y265320D01*
X147278Y265455D01*
X147356Y265589D01*
X147437Y265720D01*
X147522Y265849D01*
X147610Y265977D01*
X147701Y266101D01*
X147795Y266224D01*
X147893Y266344D01*
X147993Y266461D01*
X148097Y266576D01*
X148203Y266688D01*
X148312Y266797D01*
X148424Y266903D01*
X148539Y267007D01*
X148656Y267107D01*
X148776Y267205D01*
X148899Y267299D01*
X149023Y267390D01*
X149151Y267478D01*
X149280Y267563D01*
X149411Y267644D01*
X149545Y267722D01*
X149680Y267796D01*
X149817Y267867D01*
X149957Y267934D01*
X150097Y267998D01*
X150240Y268058D01*
X150383Y268114D01*
X150529Y268167D01*
X150675Y268216D01*
X150823Y268261D01*
X150972Y268302D01*
X151122Y268340D01*
X151273Y268373D01*
X151424Y268403D01*
X151577Y268429D01*
X151730Y268450D01*
X151883Y268468D01*
X152037Y268482D01*
X152191Y268492D01*
X152346Y268498D01*
X152500Y268500D01*
X152654Y268498D01*
X152809Y268492D01*
X152963Y268482D01*
X153117Y268468D01*
X153270Y268450D01*
X153423Y268429D01*
X153576Y268403D01*
X153727Y268373D01*
X153878Y268340D01*
X154028Y268302D01*
X154177Y268261D01*
X154325Y268216D01*
X154471Y268167D01*
X154617Y268114D01*
X154760Y268058D01*
X154903Y267998D01*
X155043Y267934D01*
X155183Y267867D01*
X155320Y267796D01*
X155455Y267722D01*
X155589Y267644D01*
X155720Y267563D01*
X155849Y267478D01*
X155977Y267390D01*
X156101Y267299D01*
X156224Y267205D01*
X156344Y267107D01*
X156461Y267007D01*
X156576Y266903D01*
X156688Y266797D01*
X156797Y266688D01*
X156903Y266576D01*
X157007Y266461D01*
X157107Y266344D01*
X157205Y266224D01*
X157299Y266101D01*
X157390Y265977D01*
X157478Y265849D01*
X157563Y265720D01*
X157644Y265589D01*
X157722Y265455D01*
X157796Y265320D01*
X157867Y265183D01*
X157934Y265043D01*
X157998Y264903D01*
X158058Y264760D01*
X158114Y264617D01*
X158167Y264471D01*
X158216Y264325D01*
X158261Y264177D01*
X158302Y264028D01*
X158340Y263878D01*
X158373Y263727D01*
X158403Y263576D01*
X158429Y263423D01*
X158450Y263270D01*
X158468Y263117D01*
X158482Y262963D01*
X158492Y262809D01*
X158498Y262654D01*
X158500Y262500D01*
X158498Y262346D01*
X158492Y262191D01*
X158482Y262037D01*
X158468Y261883D01*
X158450Y261730D01*
X158429Y261577D01*
X158403Y261424D01*
X158373Y261273D01*
X158340Y261122D01*
X158302Y260972D01*
X158261Y260823D01*
X158216Y260675D01*
X158167Y260529D01*
X158114Y260383D01*
X158058Y260240D01*
X157998Y260097D01*
X157934Y259957D01*
X157867Y259817D01*
X157796Y259680D01*
X157722Y259545D01*
X157644Y259411D01*
X157563Y259280D01*
X157478Y259151D01*
X157390Y259023D01*
X157299Y258899D01*
X157205Y258776D01*
X157107Y258656D01*
X157007Y258539D01*
X156903Y258424D01*
X156797Y258312D01*
X156688Y258203D01*
X156576Y258097D01*
X156461Y257993D01*
X156344Y257893D01*
X156224Y257795D01*
X156101Y257701D01*
X155977Y257610D01*
X155849Y257522D01*
X155720Y257437D01*
X155589Y257356D01*
X155455Y257278D01*
X155320Y257204D01*
X155183Y257133D01*
X155043Y257066D01*
X154903Y257002D01*
X154760Y256942D01*
X154617Y256886D01*
X154471Y256833D01*
X154325Y256784D01*
X154177Y256739D01*
X154028Y256698D01*
X153878Y256660D01*
X153727Y256627D01*
X153576Y256597D01*
X153423Y256571D01*
X153270Y256550D01*
X153117Y256532D01*
X152963Y256518D01*
X152809Y256508D01*
X152654Y256502D01*
X152500Y256500D01*
X152346Y256502D01*
X152191Y256508D01*
X152037Y256518D01*
X151883Y256532D01*
X151730Y256550D01*
X151577Y256571D01*
X151424Y256597D01*
X151273Y256627D01*
X151122Y256660D01*
X150972Y256698D01*
X150823Y256739D01*
X150675Y256784D01*
X150529Y256833D01*
X150383Y256886D01*
X150240Y256942D01*
X150097Y257002D01*
X149957Y257066D01*
X149817Y257133D01*
X149680Y257204D01*
X149545Y257278D01*
X149411Y257356D01*
X149280Y257437D01*
X149151Y257522D01*
X149023Y257610D01*
X148899Y257701D01*
X148776Y257795D01*
X148656Y257893D01*
X148539Y257993D01*
X148424Y258097D01*
X148312Y258203D01*
X148203Y258312D01*
X148097Y258424D01*
X147993Y258539D01*
X147893Y258656D01*
X147795Y258776D01*
X147701Y258899D01*
X147610Y259023D01*
X147522Y259151D01*
X147437Y259280D01*
X147356Y259411D01*
X147278Y259545D01*
X147204Y259680D01*
X147133Y259817D01*
X147066Y259957D01*
X147002Y260097D01*
X146942Y260240D01*
X146886Y260383D01*
X146833Y260529D01*
X146784Y260675D01*
X146739Y260823D01*
X146698Y260972D01*
X146660Y261122D01*
X146627Y261273D01*
X146597Y261424D01*
X146571Y261577D01*
X146550Y261730D01*
X146532Y261883D01*
X146518Y262037D01*
X146508Y262191D01*
X146502Y262346D01*
X146500Y262500D01*
D12*
X242500Y115000D02*
X402500Y115000D01*
X402500Y275000D01*
X242500Y275000D01*
X242500Y115000D01*
X230500Y105000D02*
X414500Y105000D01*
X414500Y289000D01*
X230500Y289000D01*
X230500Y105000D01*
D10*
X330000Y297500D02*
X385000Y297500D01*
X330000Y297500D02*
X330000Y322500D01*
X385000Y322500D02*
X385000Y297500D01*
X385000Y322500D02*
X355500Y322500D01*
X343500Y322500D01*
X330000Y322500D01*
X343500Y332500D02*
X355500Y332500D01*
X355500Y322500D01*
X343500Y322500D02*
X343500Y332500D01*
D14*
X221820Y213560D02*
X221820Y206440D01*
X213310Y206440D02*
X213310Y213560D01*
D15*
X217551Y204119D03*
X217551Y215803D03*
D16*
X221310Y210000D02*
X213690Y210000D01*
D13*
X281000Y327000D02*
X290000Y327000D01*
X281000Y327000D02*
X264000Y327000D01*
X255000Y327000D01*
X255000Y298000D02*
X290000Y298000D01*
X281000Y333500D02*
X264000Y333500D01*
X281000Y333500D02*
X281000Y327000D01*
X281055Y327015D01*
X264000Y327000D02*
X264000Y333500D01*
X263479Y327082D02*
X264000Y327000D01*
D12*
X127000Y83000D02*
X127000Y7000D01*
X28000Y7000D01*
X118500Y83000D02*
X127000Y83000D01*
X36500Y83000D02*
X28000Y83000D01*
X28000Y7000D01*
X36500Y67000D02*
X118500Y67000D01*
X36500Y67000D02*
X36500Y83000D01*
X118500Y83000D02*
X118500Y67000D01*
X44500Y72000D02*
X44502Y72089D01*
X44508Y72178D01*
X44518Y72267D01*
X44532Y72355D01*
X44549Y72442D01*
X44571Y72528D01*
X44597Y72614D01*
X44626Y72698D01*
X44659Y72781D01*
X44695Y72862D01*
X44736Y72942D01*
X44779Y73019D01*
X44826Y73095D01*
X44877Y73168D01*
X44930Y73239D01*
X44987Y73308D01*
X45047Y73374D01*
X45110Y73438D01*
X45175Y73498D01*
X45243Y73556D01*
X45314Y73610D01*
X45387Y73661D01*
X45462Y73709D01*
X45539Y73754D01*
X45618Y73795D01*
X45699Y73832D01*
X45781Y73866D01*
X45865Y73897D01*
X45950Y73923D01*
X46036Y73946D01*
X46123Y73964D01*
X46211Y73979D01*
X46300Y73990D01*
X46389Y73997D01*
X46478Y74000D01*
X46567Y73999D01*
X46656Y73994D01*
X46744Y73985D01*
X46833Y73972D01*
X46920Y73955D01*
X47007Y73935D01*
X47093Y73910D01*
X47177Y73882D01*
X47260Y73850D01*
X47342Y73814D01*
X47422Y73775D01*
X47500Y73732D01*
X47576Y73686D01*
X47650Y73636D01*
X47722Y73583D01*
X47791Y73527D01*
X47858Y73468D01*
X47922Y73406D01*
X47983Y73342D01*
X48042Y73274D01*
X48097Y73204D01*
X48149Y73132D01*
X48198Y73057D01*
X48243Y72981D01*
X48285Y72902D01*
X48323Y72822D01*
X48358Y72740D01*
X48389Y72656D01*
X48417Y72571D01*
X48440Y72485D01*
X48460Y72398D01*
X48476Y72311D01*
X48488Y72222D01*
X48496Y72134D01*
X48500Y72045D01*
X48500Y71955D01*
X48496Y71866D01*
X48488Y71778D01*
X48476Y71689D01*
X48460Y71602D01*
X48440Y71515D01*
X48417Y71429D01*
X48389Y71344D01*
X48358Y71260D01*
X48323Y71178D01*
X48285Y71098D01*
X48243Y71019D01*
X48198Y70943D01*
X48149Y70868D01*
X48097Y70796D01*
X48042Y70726D01*
X47983Y70658D01*
X47922Y70594D01*
X47858Y70532D01*
X47791Y70473D01*
X47722Y70417D01*
X47650Y70364D01*
X47576Y70314D01*
X47500Y70268D01*
X47422Y70225D01*
X47342Y70186D01*
X47260Y70150D01*
X47177Y70118D01*
X47093Y70090D01*
X47007Y70065D01*
X46920Y70045D01*
X46833Y70028D01*
X46744Y70015D01*
X46656Y70006D01*
X46567Y70001D01*
X46478Y70000D01*
X46389Y70003D01*
X46300Y70010D01*
X46211Y70021D01*
X46123Y70036D01*
X46036Y70054D01*
X45950Y70077D01*
X45865Y70103D01*
X45781Y70134D01*
X45699Y70168D01*
X45618Y70205D01*
X45539Y70246D01*
X45462Y70291D01*
X45387Y70339D01*
X45314Y70390D01*
X45243Y70444D01*
X45175Y70502D01*
X45110Y70562D01*
X45047Y70626D01*
X44987Y70692D01*
X44930Y70761D01*
X44877Y70832D01*
X44826Y70905D01*
X44779Y70981D01*
X44736Y71058D01*
X44695Y71138D01*
X44659Y71219D01*
X44626Y71302D01*
X44597Y71386D01*
X44571Y71472D01*
X44549Y71558D01*
X44532Y71645D01*
X44518Y71733D01*
X44508Y71822D01*
X44502Y71911D01*
X44500Y72000D01*
D10*
X535680Y241060D02*
X544320Y241060D01*
X544320Y233940D02*
X535680Y233940D01*
D20*
X546350Y237500D03*
X533650Y237500D03*
D16*
X534920Y237500D02*
X545080Y237500D01*
D12*
X440200Y311400D02*
X440200Y108200D01*
X414800Y108200D02*
X414800Y311400D01*
X414804Y311709D01*
X414815Y312018D01*
X414834Y312327D01*
X414860Y312635D01*
X414894Y312943D01*
X414935Y313249D01*
X414984Y313555D01*
X415040Y313859D01*
X415104Y314161D01*
X415175Y314462D01*
X415253Y314762D01*
X415338Y315059D01*
X415431Y315354D01*
X415531Y315647D01*
X415638Y315937D01*
X415752Y316224D01*
X415873Y316509D01*
X416001Y316791D01*
X416135Y317069D01*
X416277Y317344D01*
X416425Y317616D01*
X416580Y317883D01*
X416741Y318147D01*
X416908Y318407D01*
X417082Y318663D01*
X417262Y318915D01*
X417448Y319162D01*
X417640Y319404D01*
X417838Y319642D01*
X418041Y319875D01*
X418251Y320103D01*
X418465Y320325D01*
X418685Y320543D01*
X418911Y320755D01*
X419141Y320961D01*
X419376Y321162D01*
X419616Y321357D01*
X419861Y321546D01*
X420110Y321729D01*
X420364Y321906D01*
X420622Y322076D01*
X420884Y322241D01*
X421150Y322399D01*
X421420Y322550D01*
X421693Y322695D01*
X421970Y322833D01*
X422250Y322964D01*
X422533Y323088D01*
X422819Y323206D01*
X423108Y323316D01*
X423399Y323420D01*
X423693Y323516D01*
X423989Y323605D01*
X424288Y323687D01*
X424588Y323762D01*
X424890Y323829D01*
X425193Y323889D01*
X425498Y323941D01*
X425804Y323986D01*
X426111Y324024D01*
X426419Y324054D01*
X426727Y324076D01*
X427036Y324092D01*
X427345Y324099D01*
X427655Y324099D01*
X427964Y324092D01*
X428273Y324076D01*
X428581Y324054D01*
X428889Y324024D01*
X429196Y323986D01*
X429502Y323941D01*
X429807Y323889D01*
X430110Y323829D01*
X430412Y323762D01*
X430712Y323687D01*
X431011Y323605D01*
X431307Y323516D01*
X431601Y323420D01*
X431892Y323316D01*
X432181Y323206D01*
X432467Y323088D01*
X432750Y322964D01*
X433030Y322833D01*
X433307Y322695D01*
X433580Y322550D01*
X433850Y322399D01*
X434116Y322241D01*
X434378Y322076D01*
X434636Y321906D01*
X434890Y321729D01*
X435139Y321546D01*
X435384Y321357D01*
X435624Y321162D01*
X435859Y320961D01*
X436089Y320755D01*
X436315Y320543D01*
X436535Y320325D01*
X436749Y320103D01*
X436959Y319875D01*
X437162Y319642D01*
X437360Y319404D01*
X437552Y319162D01*
X437738Y318915D01*
X437918Y318663D01*
X438092Y318407D01*
X438259Y318147D01*
X438420Y317883D01*
X438575Y317616D01*
X438723Y317344D01*
X438865Y317069D01*
X438999Y316791D01*
X439127Y316509D01*
X439248Y316224D01*
X439362Y315937D01*
X439469Y315647D01*
X439569Y315354D01*
X439662Y315059D01*
X439747Y314762D01*
X439825Y314462D01*
X439896Y314161D01*
X439960Y313859D01*
X440016Y313555D01*
X440065Y313249D01*
X440106Y312943D01*
X440140Y312635D01*
X440166Y312327D01*
X440185Y312018D01*
X440196Y311709D01*
X440200Y311400D01*
X440200Y108200D02*
X440196Y107891D01*
X440185Y107582D01*
X440166Y107273D01*
X440140Y106965D01*
X440106Y106657D01*
X440065Y106351D01*
X440016Y106045D01*
X439960Y105741D01*
X439896Y105439D01*
X439825Y105138D01*
X439747Y104838D01*
X439662Y104541D01*
X439569Y104246D01*
X439469Y103953D01*
X439362Y103663D01*
X439248Y103376D01*
X439127Y103091D01*
X438999Y102809D01*
X438865Y102531D01*
X438723Y102256D01*
X438575Y101984D01*
X438420Y101717D01*
X438259Y101453D01*
X438092Y101193D01*
X437918Y100937D01*
X437738Y100685D01*
X437552Y100438D01*
X437360Y100196D01*
X437162Y99958D01*
X436959Y99725D01*
X436749Y99497D01*
X436535Y99275D01*
X436315Y99057D01*
X436089Y98845D01*
X435859Y98639D01*
X435624Y98438D01*
X435384Y98243D01*
X435139Y98054D01*
X434890Y97871D01*
X434636Y97694D01*
X434378Y97524D01*
X434116Y97359D01*
X433850Y97201D01*
X433580Y97050D01*
X433307Y96905D01*
X433030Y96767D01*
X432750Y96636D01*
X432467Y96512D01*
X432181Y96394D01*
X431892Y96284D01*
X431601Y96180D01*
X431307Y96084D01*
X431011Y95995D01*
X430712Y95913D01*
X430412Y95838D01*
X430110Y95771D01*
X429807Y95711D01*
X429502Y95659D01*
X429196Y95614D01*
X428889Y95576D01*
X428581Y95546D01*
X428273Y95524D01*
X427964Y95508D01*
X427655Y95501D01*
X427345Y95501D01*
X427036Y95508D01*
X426727Y95524D01*
X426419Y95546D01*
X426111Y95576D01*
X425804Y95614D01*
X425498Y95659D01*
X425193Y95711D01*
X424890Y95771D01*
X424588Y95838D01*
X424288Y95913D01*
X423989Y95995D01*
X423693Y96084D01*
X423399Y96180D01*
X423108Y96284D01*
X422819Y96394D01*
X422533Y96512D01*
X422250Y96636D01*
X421970Y96767D01*
X421693Y96905D01*
X421420Y97050D01*
X421150Y97201D01*
X420884Y97359D01*
X420622Y97524D01*
X420364Y97694D01*
X420110Y97871D01*
X419861Y98054D01*
X419616Y98243D01*
X419376Y98438D01*
X419141Y98639D01*
X418911Y98845D01*
X418685Y99057D01*
X418465Y99275D01*
X418251Y99497D01*
X418041Y99725D01*
X417838Y99958D01*
X417640Y100196D01*
X417448Y100438D01*
X417262Y100685D01*
X417082Y100937D01*
X416908Y101193D01*
X416741Y101453D01*
X416580Y101717D01*
X416425Y101984D01*
X416277Y102256D01*
X416135Y102531D01*
X416001Y102809D01*
X415873Y103091D01*
X415752Y103376D01*
X415638Y103663D01*
X415531Y103953D01*
X415431Y104246D01*
X415338Y104541D01*
X415253Y104838D01*
X415175Y105138D01*
X415104Y105439D01*
X415040Y105741D01*
X414984Y106045D01*
X414935Y106351D01*
X414894Y106657D01*
X414860Y106965D01*
X414834Y107273D01*
X414815Y107582D01*
X414804Y107891D01*
X414800Y108200D01*
X279500Y83000D02*
X279500Y7000D01*
X160500Y7000D01*
X259500Y83000D02*
X279500Y83000D01*
X180500Y83000D02*
X160500Y83000D01*
X160500Y7000D01*
X180500Y67000D02*
X259500Y67000D01*
X259500Y83000D01*
X180500Y83000D02*
X180500Y67000D01*
X180500Y48500D02*
X180500Y40000D01*
X180500Y58500D02*
X180500Y67000D01*
X259500Y48500D02*
X259500Y40000D01*
X259500Y58500D02*
X259500Y67000D01*
X409500Y83000D02*
X409500Y7000D01*
X290500Y7000D01*
X389500Y83000D02*
X409500Y83000D01*
X310500Y83000D02*
X290500Y83000D01*
X290500Y7000D01*
X310500Y67000D02*
X389500Y67000D01*
X389500Y83000D01*
X310500Y83000D02*
X310500Y67000D01*
X310500Y48500D02*
X310500Y40000D01*
X310500Y58500D02*
X310500Y67000D01*
X389500Y48500D02*
X389500Y40000D01*
X389500Y58500D02*
X389500Y67000D01*
D10*
X538180Y146060D02*
X546820Y146060D01*
X546820Y138940D02*
X538180Y138940D01*
D20*
X548850Y142500D03*
X536150Y142500D03*
D16*
X537420Y142500D02*
X547580Y142500D01*
D13*
X515000Y149000D02*
X481000Y149000D01*
X481000Y138500D01*
X481000Y116500D02*
X481000Y106000D01*
X515000Y106000D01*
X524000Y115000D02*
X524000Y116500D01*
X524000Y138000D02*
X524000Y140000D01*
X515000Y149000D01*
X524000Y115000D02*
X515000Y106000D01*
X519000Y137000D02*
X518763Y137399D01*
X518517Y137793D01*
X518261Y138180D01*
X517996Y138561D01*
X517722Y138936D01*
X517439Y139303D01*
X517146Y139664D01*
X516846Y140018D01*
X516536Y140364D01*
X516218Y140702D01*
X515892Y141032D01*
X515559Y141355D01*
X515217Y141669D01*
X514868Y141975D01*
X514511Y142272D01*
X514147Y142561D01*
X513777Y142840D01*
X513399Y143110D01*
X513016Y143371D01*
X512626Y143623D01*
X512230Y143865D01*
X511828Y144098D01*
X511420Y144320D01*
X511008Y144532D01*
X510590Y144735D01*
X510167Y144927D01*
X509740Y145109D01*
X509309Y145280D01*
X508873Y145441D01*
X508434Y145591D01*
X507991Y145730D01*
X507545Y145858D01*
X507096Y145976D01*
X506644Y146082D01*
X506190Y146178D01*
X505734Y146262D01*
X505275Y146336D01*
X504815Y146398D01*
X504354Y146449D01*
X503891Y146488D01*
X503428Y146516D01*
X502964Y146533D01*
X502500Y146539D01*
X502036Y146533D01*
X501572Y146516D01*
X501109Y146488D01*
X500646Y146449D01*
X500185Y146398D01*
X499725Y146336D01*
X499266Y146262D01*
X498810Y146178D01*
X498356Y146082D01*
X497904Y145976D01*
X497455Y145858D01*
X497009Y145730D01*
X496566Y145591D01*
X496127Y145441D01*
X495691Y145280D01*
X495260Y145109D01*
X494833Y144927D01*
X494410Y144735D01*
X493992Y144532D01*
X493580Y144320D01*
X493172Y144098D01*
X492770Y143865D01*
X492374Y143623D01*
X491984Y143371D01*
X491601Y143110D01*
X491223Y142840D01*
X490853Y142561D01*
X490489Y142272D01*
X490132Y141975D01*
X489783Y141669D01*
X489441Y141355D01*
X489108Y141032D01*
X488782Y140702D01*
X488464Y140364D01*
X488154Y140018D01*
X487854Y139664D01*
X487561Y139303D01*
X487278Y138936D01*
X487004Y138561D01*
X486739Y138180D01*
X486483Y137793D01*
X486237Y137399D01*
X486000Y137000D01*
X486000Y118000D02*
X486237Y117601D01*
X486483Y117207D01*
X486739Y116820D01*
X487004Y116439D01*
X487278Y116064D01*
X487561Y115697D01*
X487854Y115336D01*
X488154Y114982D01*
X488464Y114636D01*
X488782Y114298D01*
X489108Y113968D01*
X489441Y113645D01*
X489783Y113331D01*
X490132Y113025D01*
X490489Y112728D01*
X490853Y112439D01*
X491223Y112160D01*
X491601Y111890D01*
X491984Y111629D01*
X492374Y111377D01*
X492770Y111135D01*
X493172Y110902D01*
X493580Y110680D01*
X493992Y110468D01*
X494410Y110265D01*
X494833Y110073D01*
X495260Y109891D01*
X495691Y109720D01*
X496127Y109559D01*
X496566Y109409D01*
X497009Y109270D01*
X497455Y109142D01*
X497904Y109024D01*
X498356Y108918D01*
X498810Y108822D01*
X499266Y108738D01*
X499725Y108664D01*
X500185Y108602D01*
X500646Y108551D01*
X501109Y108512D01*
X501572Y108484D01*
X502036Y108467D01*
X502500Y108461D01*
X502964Y108467D01*
X503428Y108484D01*
X503891Y108512D01*
X504354Y108551D01*
X504815Y108602D01*
X505275Y108664D01*
X505734Y108738D01*
X506190Y108822D01*
X506644Y108918D01*
X507096Y109024D01*
X507545Y109142D01*
X507991Y109270D01*
X508434Y109409D01*
X508873Y109559D01*
X509309Y109720D01*
X509740Y109891D01*
X510167Y110073D01*
X510590Y110265D01*
X511008Y110468D01*
X511420Y110680D01*
X511828Y110902D01*
X512230Y111135D01*
X512626Y111377D01*
X513016Y111629D01*
X513399Y111890D01*
X513777Y112160D01*
X514147Y112439D01*
X514511Y112728D01*
X514868Y113025D01*
X515217Y113331D01*
X515559Y113645D01*
X515892Y113968D01*
X516218Y114298D01*
X516536Y114636D01*
X516846Y114982D01*
X517146Y115336D01*
X517439Y115697D01*
X517722Y116064D01*
X517996Y116439D01*
X518261Y116820D01*
X518517Y117207D01*
X518763Y117601D01*
X519000Y118000D01*
D12*
X562000Y83000D02*
X562000Y7000D01*
X443000Y7000D01*
X553500Y83000D02*
X562000Y83000D01*
X451500Y83000D02*
X443000Y83000D01*
X443000Y7000D01*
X451500Y67000D02*
X542000Y67000D01*
X553500Y67000D01*
X451500Y67000D02*
X451500Y83000D01*
X553500Y83000D02*
X553500Y67000D01*
X542000Y48250D02*
X542000Y39500D01*
X542000Y58250D02*
X542000Y67000D01*
D10*
X406060Y303180D02*
X406060Y311820D01*
X398940Y311820D02*
X398940Y303180D01*
D21*
X402500Y301150D03*
X402500Y313850D03*
D16*
X402500Y312580D02*
X402500Y302420D01*
M02*
