G04 EAGLE Gerber RS-274X export*
G75*
%MOMM*%
%FSLAX34Y34*%
%LPD*%
%INSoldermask Top*%
%IPPOS*%
%AMOC8*
5,1,8,0,0,1.08239X$1,22.5*%
G01*
%ADD10R,0.750000X0.875000*%
%ADD11R,0.875000X0.750000*%
%ADD12C,2.403200*%
%ADD13C,0.553472*%
%ADD14R,1.672400X0.483200*%
%ADD15R,0.483200X1.672400*%
%ADD16R,0.903200X1.473200*%
%ADD17R,1.253200X0.983200*%
%ADD18R,1.343200X2.033200*%
%ADD19R,0.903200X3.533200*%
%ADD20R,1.063200X3.003200*%
%ADD21R,1.103200X1.133200*%
%ADD22R,0.703200X0.553200*%
%ADD23C,0.423200*%
%ADD24R,2.103200X1.303200*%
%ADD25R,1.665000X1.415000*%
%ADD26R,0.503200X1.103200*%
%ADD27C,1.203200*%
%ADD28C,0.467200*%
%ADD29R,2.803200X2.803200*%
%ADD30R,1.603200X1.603200*%
%ADD31R,1.103200X2.303200*%
%ADD32C,0.473200*%
%ADD33R,1.903200X1.903200*%
%ADD34R,0.703200X0.853200*%
%ADD35R,1.703200X3.603200*%
%ADD36R,1.203200X3.703200*%
%ADD37R,0.400000X1.400000*%
%ADD38R,2.108200X2.362200*%
%ADD39R,1.625600X1.625600*%
%ADD40C,1.625600*%
%ADD41R,1.803200X2.003200*%
%ADD42C,0.803200*%


D10*
X240000Y50625D03*
X250000Y51875D03*
X260000Y50625D03*
D11*
X268125Y75000D03*
X230625Y60000D03*
D12*
X22500Y305000D03*
X552500Y110000D03*
D13*
X91363Y96062D02*
X86062Y101363D01*
X90657Y105958D01*
X95958Y100657D01*
X91363Y96062D01*
X95295Y101320D02*
X86105Y101320D01*
X74042Y89343D02*
X79343Y84042D01*
X74042Y89343D02*
X78637Y93938D01*
X83938Y88637D01*
X79343Y84042D01*
X83275Y89300D02*
X74085Y89300D01*
X237249Y196251D02*
X237249Y203749D01*
X237249Y196251D02*
X230751Y196251D01*
X230751Y203749D01*
X237249Y203749D01*
X237249Y201509D02*
X230751Y201509D01*
X254249Y203749D02*
X254249Y196251D01*
X247751Y196251D01*
X247751Y203749D01*
X254249Y203749D01*
X254249Y201509D02*
X247751Y201509D01*
X237249Y218751D02*
X237249Y226249D01*
X237249Y218751D02*
X230751Y218751D01*
X230751Y226249D01*
X237249Y226249D01*
X237249Y224009D02*
X230751Y224009D01*
X254249Y226249D02*
X254249Y218751D01*
X247751Y218751D01*
X247751Y226249D01*
X254249Y226249D01*
X254249Y224009D02*
X247751Y224009D01*
X112249Y263751D02*
X112249Y271249D01*
X112249Y263751D02*
X105751Y263751D01*
X105751Y271249D01*
X112249Y271249D01*
X112249Y269009D02*
X105751Y269009D01*
X129249Y271249D02*
X129249Y263751D01*
X122751Y263751D01*
X122751Y271249D01*
X129249Y271249D01*
X129249Y269009D02*
X122751Y269009D01*
X43749Y145251D02*
X36251Y145251D01*
X36251Y151749D01*
X43749Y151749D01*
X43749Y145251D01*
X43749Y150509D02*
X36251Y150509D01*
X36251Y128251D02*
X43749Y128251D01*
X36251Y128251D02*
X36251Y134749D01*
X43749Y134749D01*
X43749Y128251D01*
X43749Y133509D02*
X36251Y133509D01*
X21249Y145251D02*
X13751Y145251D01*
X13751Y151749D01*
X21249Y151749D01*
X21249Y145251D01*
X21249Y150509D02*
X13751Y150509D01*
X13751Y128251D02*
X21249Y128251D01*
X13751Y128251D02*
X13751Y134749D01*
X21249Y134749D01*
X21249Y128251D01*
X21249Y133509D02*
X13751Y133509D01*
X62751Y241251D02*
X62751Y248749D01*
X69249Y248749D01*
X69249Y241251D01*
X62751Y241251D01*
X62751Y246509D02*
X69249Y246509D01*
X45751Y248749D02*
X45751Y241251D01*
X45751Y248749D02*
X52249Y248749D01*
X52249Y241251D01*
X45751Y241251D01*
X45751Y246509D02*
X52249Y246509D01*
X171062Y101363D02*
X176363Y96062D01*
X171062Y101363D02*
X175657Y105958D01*
X180958Y100657D01*
X176363Y96062D01*
X180295Y101320D02*
X171105Y101320D01*
X159042Y89343D02*
X164343Y84042D01*
X159042Y89343D02*
X163637Y93938D01*
X168938Y88637D01*
X164343Y84042D01*
X168275Y89300D02*
X159085Y89300D01*
X66249Y128251D02*
X66249Y134749D01*
X66249Y128251D02*
X58751Y128251D01*
X58751Y134749D01*
X66249Y134749D01*
X66249Y133509D02*
X58751Y133509D01*
X66249Y145251D02*
X66249Y151749D01*
X66249Y145251D02*
X58751Y145251D01*
X58751Y151749D01*
X66249Y151749D01*
X66249Y150509D02*
X58751Y150509D01*
D14*
X88287Y215000D03*
X88287Y210000D03*
X88287Y205000D03*
X88287Y200000D03*
X88287Y195000D03*
X88287Y190000D03*
X88287Y185000D03*
X88287Y180000D03*
X88287Y175000D03*
X88287Y170000D03*
X88287Y165000D03*
X88287Y160000D03*
X88287Y155000D03*
X88287Y150000D03*
X88287Y145000D03*
X88287Y140000D03*
D15*
X107500Y120787D03*
X112500Y120787D03*
X117500Y120787D03*
X122500Y120787D03*
X127500Y120787D03*
X132500Y120787D03*
X137500Y120787D03*
X142500Y120787D03*
X147500Y120787D03*
X152500Y120787D03*
X157500Y120787D03*
X162500Y120787D03*
X167500Y120787D03*
X172500Y120787D03*
X177500Y120787D03*
X182500Y120787D03*
D14*
X201713Y140000D03*
X201713Y145000D03*
X201713Y150000D03*
X201713Y155000D03*
X201713Y160000D03*
X201713Y165000D03*
X201713Y170000D03*
X201713Y175000D03*
X201713Y180000D03*
X201713Y185000D03*
X201713Y190000D03*
X201713Y195000D03*
X201713Y200000D03*
X201713Y205000D03*
X201713Y210000D03*
X201713Y215000D03*
D15*
X182500Y234213D03*
X177500Y234213D03*
X172500Y234213D03*
X167500Y234213D03*
X162500Y234213D03*
X157500Y234213D03*
X152500Y234213D03*
X147500Y234213D03*
X142500Y234213D03*
X137500Y234213D03*
X132500Y234213D03*
X127500Y234213D03*
X122500Y234213D03*
X117500Y234213D03*
X112500Y234213D03*
X107500Y234213D03*
D16*
X317800Y293200D03*
X328800Y293200D03*
X339800Y293200D03*
X350800Y293200D03*
X361800Y293200D03*
X372800Y293200D03*
X383800Y293200D03*
X394800Y293200D03*
D17*
X342550Y167800D03*
D18*
X279000Y293350D03*
D19*
X406400Y180567D03*
D20*
X405600Y288200D03*
D19*
X276800Y180567D03*
D21*
X299900Y168550D03*
D13*
X112249Y308751D02*
X112249Y316249D01*
X112249Y308751D02*
X105751Y308751D01*
X105751Y316249D01*
X112249Y316249D01*
X112249Y314009D02*
X105751Y314009D01*
X129249Y316249D02*
X129249Y308751D01*
X122751Y308751D01*
X122751Y316249D01*
X129249Y316249D01*
X129249Y314009D02*
X122751Y314009D01*
X66249Y182751D02*
X58751Y182751D01*
X58751Y189249D01*
X66249Y189249D01*
X66249Y182751D01*
X66249Y188009D02*
X58751Y188009D01*
X58751Y165751D02*
X66249Y165751D01*
X58751Y165751D02*
X58751Y172249D01*
X66249Y172249D01*
X66249Y165751D01*
X66249Y171009D02*
X58751Y171009D01*
X21249Y209749D02*
X13751Y209749D01*
X21249Y209749D02*
X21249Y203251D01*
X13751Y203251D01*
X13751Y209749D01*
X13751Y208509D02*
X21249Y208509D01*
X21249Y226749D02*
X13751Y226749D01*
X21249Y226749D02*
X21249Y220251D01*
X13751Y220251D01*
X13751Y226749D01*
X13751Y225509D02*
X21249Y225509D01*
X27751Y241251D02*
X27751Y248749D01*
X34249Y248749D01*
X34249Y241251D01*
X27751Y241251D01*
X27751Y246509D02*
X34249Y246509D01*
X10751Y248749D02*
X10751Y241251D01*
X10751Y248749D02*
X17249Y248749D01*
X17249Y241251D01*
X10751Y241251D01*
X10751Y246509D02*
X17249Y246509D01*
X58751Y209749D02*
X66249Y209749D01*
X66249Y203251D01*
X58751Y203251D01*
X58751Y209749D01*
X58751Y208509D02*
X66249Y208509D01*
X66249Y226749D02*
X58751Y226749D01*
X66249Y226749D02*
X66249Y220251D01*
X58751Y220251D01*
X58751Y226749D01*
X58751Y225509D02*
X66249Y225509D01*
X636251Y175251D02*
X643749Y175251D01*
X636251Y175251D02*
X636251Y181749D01*
X643749Y181749D01*
X643749Y175251D01*
X643749Y180509D02*
X636251Y180509D01*
X636251Y158251D02*
X643749Y158251D01*
X636251Y158251D02*
X636251Y164749D01*
X643749Y164749D01*
X643749Y158251D01*
X643749Y163509D02*
X636251Y163509D01*
X93749Y299749D02*
X86251Y299749D01*
X93749Y299749D02*
X93749Y293251D01*
X86251Y293251D01*
X86251Y299749D01*
X86251Y298509D02*
X93749Y298509D01*
X93749Y316749D02*
X86251Y316749D01*
X93749Y316749D02*
X93749Y310251D01*
X86251Y310251D01*
X86251Y316749D01*
X86251Y315509D02*
X93749Y315509D01*
D22*
X160500Y287250D03*
X160500Y280750D03*
X160500Y274250D03*
X160500Y267750D03*
X144500Y267750D03*
X144500Y274250D03*
X144500Y280750D03*
X144500Y287250D03*
D13*
X112249Y283751D02*
X112249Y291249D01*
X112249Y283751D02*
X105751Y283751D01*
X105751Y291249D01*
X112249Y291249D01*
X112249Y289009D02*
X105751Y289009D01*
X129249Y291249D02*
X129249Y283751D01*
X122751Y283751D01*
X122751Y291249D01*
X129249Y291249D01*
X129249Y289009D02*
X122751Y289009D01*
D23*
X179954Y287500D02*
X184134Y287500D01*
X185134Y283500D02*
X179954Y283500D01*
X179954Y279500D02*
X185134Y279500D01*
X185134Y275500D02*
X179954Y275500D01*
X179954Y271500D02*
X185134Y271500D01*
X184134Y267500D02*
X179954Y267500D01*
X187500Y264134D02*
X187500Y259954D01*
X191500Y259954D02*
X191500Y265134D01*
X195500Y265134D02*
X195500Y259954D01*
X199500Y259954D02*
X199500Y265134D01*
X203500Y265134D02*
X203500Y259954D01*
X207500Y259954D02*
X207500Y264134D01*
X210866Y267500D02*
X215046Y267500D01*
X215046Y271500D02*
X209866Y271500D01*
X209866Y275500D02*
X215046Y275500D01*
X215046Y279500D02*
X209866Y279500D01*
X209866Y283500D02*
X215046Y283500D01*
X215046Y287500D02*
X210866Y287500D01*
X207500Y290866D02*
X207500Y295046D01*
X203500Y295046D02*
X203500Y289866D01*
X199500Y289866D02*
X199500Y295046D01*
X195500Y295046D02*
X195500Y289866D01*
X191500Y289866D02*
X191500Y295046D01*
X187500Y295046D02*
X187500Y290866D01*
D13*
X247751Y291249D02*
X247751Y283751D01*
X247751Y291249D02*
X254249Y291249D01*
X254249Y283751D01*
X247751Y283751D01*
X247751Y289009D02*
X254249Y289009D01*
X230751Y291249D02*
X230751Y283751D01*
X230751Y291249D02*
X237249Y291249D01*
X237249Y283751D01*
X230751Y283751D01*
X230751Y289009D02*
X237249Y289009D01*
X237249Y271249D02*
X237249Y263751D01*
X230751Y263751D01*
X230751Y271249D01*
X237249Y271249D01*
X237249Y269009D02*
X230751Y269009D01*
X254249Y271249D02*
X254249Y263751D01*
X247751Y263751D01*
X247751Y271249D01*
X254249Y271249D01*
X254249Y269009D02*
X247751Y269009D01*
D24*
X40000Y227500D03*
X40000Y202500D03*
D25*
X18750Y168500D03*
X41250Y168500D03*
X41250Y186500D03*
X18750Y186500D03*
D26*
X540000Y262800D03*
X530000Y262800D03*
X525000Y262800D03*
X520000Y262800D03*
X515000Y262800D03*
X510000Y262800D03*
X505000Y262800D03*
X500000Y262800D03*
X495000Y262800D03*
X490000Y262800D03*
X485000Y262800D03*
X480000Y262800D03*
X545000Y262800D03*
X535000Y262800D03*
X475000Y262800D03*
X470000Y262800D03*
X465000Y262800D03*
X460000Y262800D03*
D27*
X556500Y294800D02*
X556500Y307800D01*
D28*
X481947Y182124D02*
X477875Y178052D01*
X481410Y174517D02*
X485482Y178589D01*
X489018Y175053D02*
X484946Y170981D01*
X488481Y167446D02*
X492553Y171518D01*
X496089Y167982D02*
X492017Y163910D01*
X495552Y160375D02*
X499624Y164447D01*
X505376Y164447D02*
X509448Y160375D01*
X512983Y163910D02*
X508911Y167982D01*
X512447Y171518D02*
X516519Y167446D01*
X520054Y170981D02*
X515982Y175053D01*
X519518Y178589D02*
X523590Y174517D01*
X527125Y178052D02*
X523053Y182124D01*
X523053Y187876D02*
X527125Y191948D01*
X523590Y195483D02*
X519518Y191411D01*
X515982Y194947D02*
X520054Y199019D01*
X516519Y202554D02*
X512447Y198482D01*
X508911Y202018D02*
X512983Y206090D01*
X509448Y209625D02*
X505376Y205553D01*
X499624Y205553D02*
X495552Y209625D01*
X492017Y206090D02*
X496089Y202018D01*
X492553Y198482D02*
X488481Y202554D01*
X484946Y199019D02*
X489018Y194947D01*
X485482Y191411D02*
X481410Y195483D01*
X477875Y191948D02*
X481947Y187876D01*
D29*
G36*
X522321Y185000D02*
X502500Y165179D01*
X482679Y185000D01*
X502500Y204821D01*
X522321Y185000D01*
G37*
D13*
X451251Y190251D02*
X451251Y196749D01*
X458749Y196749D01*
X458749Y190251D01*
X451251Y190251D01*
X451251Y195509D02*
X458749Y195509D01*
X451251Y179749D02*
X451251Y173251D01*
X451251Y179749D02*
X458749Y179749D01*
X458749Y173251D01*
X451251Y173251D01*
X451251Y178509D02*
X458749Y178509D01*
X533749Y134749D02*
X533749Y128251D01*
X526251Y128251D01*
X526251Y134749D01*
X533749Y134749D01*
X533749Y133509D02*
X526251Y133509D01*
X533749Y145251D02*
X533749Y151749D01*
X533749Y145251D02*
X526251Y145251D01*
X526251Y151749D01*
X533749Y151749D01*
X533749Y150509D02*
X526251Y150509D01*
X458749Y134749D02*
X458749Y128251D01*
X451251Y128251D01*
X451251Y134749D01*
X458749Y134749D01*
X458749Y133509D02*
X451251Y133509D01*
X458749Y145251D02*
X458749Y151749D01*
X458749Y145251D02*
X451251Y145251D01*
X451251Y151749D01*
X458749Y151749D01*
X458749Y150509D02*
X451251Y150509D01*
X471251Y151749D02*
X471251Y145251D01*
X471251Y151749D02*
X478749Y151749D01*
X478749Y145251D01*
X471251Y145251D01*
X471251Y150509D02*
X478749Y150509D01*
X471251Y134749D02*
X471251Y128251D01*
X471251Y134749D02*
X478749Y134749D01*
X478749Y128251D01*
X471251Y128251D01*
X471251Y133509D02*
X478749Y133509D01*
X507751Y228751D02*
X507751Y236249D01*
X514249Y236249D01*
X514249Y228751D01*
X507751Y228751D01*
X507751Y234009D02*
X514249Y234009D01*
X490751Y236249D02*
X490751Y228751D01*
X490751Y236249D02*
X497249Y236249D01*
X497249Y228751D01*
X490751Y228751D01*
X490751Y234009D02*
X497249Y234009D01*
X546251Y190251D02*
X553749Y190251D01*
X546251Y190251D02*
X546251Y196749D01*
X553749Y196749D01*
X553749Y190251D01*
X553749Y195509D02*
X546251Y195509D01*
X546251Y173251D02*
X553749Y173251D01*
X546251Y173251D02*
X546251Y179749D01*
X553749Y179749D01*
X553749Y173251D01*
X553749Y178509D02*
X546251Y178509D01*
X478749Y219749D02*
X471251Y219749D01*
X478749Y219749D02*
X478749Y213251D01*
X471251Y213251D01*
X471251Y219749D01*
X471251Y218509D02*
X478749Y218509D01*
X478749Y236749D02*
X471251Y236749D01*
X478749Y236749D02*
X478749Y230251D01*
X471251Y230251D01*
X471251Y236749D01*
X471251Y235509D02*
X478749Y235509D01*
X458749Y230251D02*
X451251Y230251D01*
X451251Y236749D01*
X458749Y236749D01*
X458749Y230251D01*
X458749Y235509D02*
X451251Y235509D01*
X451251Y213251D02*
X458749Y213251D01*
X451251Y213251D02*
X451251Y219749D01*
X458749Y219749D01*
X458749Y213251D01*
X458749Y218509D02*
X451251Y218509D01*
X546251Y145251D02*
X553749Y145251D01*
X546251Y145251D02*
X546251Y151749D01*
X553749Y151749D01*
X553749Y145251D01*
X553749Y150509D02*
X546251Y150509D01*
X546251Y128251D02*
X553749Y128251D01*
X546251Y128251D02*
X546251Y134749D01*
X553749Y134749D01*
X553749Y128251D01*
X553749Y133509D02*
X546251Y133509D01*
X254249Y181249D02*
X247751Y181249D01*
X254249Y181249D02*
X254249Y173751D01*
X247751Y173751D01*
X247751Y181249D01*
X247751Y179009D02*
X254249Y179009D01*
X237249Y181249D02*
X230751Y181249D01*
X237249Y181249D02*
X237249Y173751D01*
X230751Y173751D01*
X230751Y181249D01*
X230751Y179009D02*
X237249Y179009D01*
X308749Y74749D02*
X308749Y68251D01*
X301251Y68251D01*
X301251Y74749D01*
X308749Y74749D01*
X308749Y73509D02*
X301251Y73509D01*
X308749Y85251D02*
X308749Y91749D01*
X308749Y85251D02*
X301251Y85251D01*
X301251Y91749D01*
X308749Y91749D01*
X308749Y90509D02*
X301251Y90509D01*
D30*
X46000Y272500D03*
X24000Y272500D03*
D13*
X53749Y293251D02*
X53749Y299749D01*
X53749Y293251D02*
X46251Y293251D01*
X46251Y299749D01*
X53749Y299749D01*
X53749Y298509D02*
X46251Y298509D01*
X53749Y310251D02*
X53749Y316749D01*
X53749Y310251D02*
X46251Y310251D01*
X46251Y316749D01*
X53749Y316749D01*
X53749Y315509D02*
X46251Y315509D01*
X73749Y299749D02*
X73749Y293251D01*
X66251Y293251D01*
X66251Y299749D01*
X73749Y299749D01*
X73749Y298509D02*
X66251Y298509D01*
X73749Y310251D02*
X73749Y316749D01*
X73749Y310251D02*
X66251Y310251D01*
X66251Y316749D01*
X73749Y316749D01*
X73749Y315509D02*
X66251Y315509D01*
D31*
G36*
X534748Y218967D02*
X526947Y226768D01*
X543232Y243053D01*
X551033Y235252D01*
X534748Y218967D01*
G37*
G36*
X546768Y206947D02*
X538967Y214748D01*
X555252Y231033D01*
X563053Y223232D01*
X546768Y206947D01*
G37*
D13*
X497249Y128751D02*
X490751Y128751D01*
X490751Y136249D01*
X497249Y136249D01*
X497249Y128751D01*
X497249Y134009D02*
X490751Y134009D01*
X507751Y128751D02*
X514249Y128751D01*
X507751Y128751D02*
X507751Y136249D01*
X514249Y136249D01*
X514249Y128751D01*
X514249Y134009D02*
X507751Y134009D01*
X616251Y175251D02*
X623749Y175251D01*
X616251Y175251D02*
X616251Y181749D01*
X623749Y181749D01*
X623749Y175251D01*
X623749Y180509D02*
X616251Y180509D01*
X616251Y158251D02*
X623749Y158251D01*
X616251Y158251D02*
X616251Y164749D01*
X623749Y164749D01*
X623749Y158251D01*
X623749Y163509D02*
X616251Y163509D01*
X656251Y175251D02*
X663749Y175251D01*
X656251Y175251D02*
X656251Y181749D01*
X663749Y181749D01*
X663749Y175251D01*
X663749Y180509D02*
X656251Y180509D01*
X656251Y158251D02*
X663749Y158251D01*
X656251Y158251D02*
X656251Y164749D01*
X663749Y164749D01*
X663749Y158251D01*
X663749Y163509D02*
X656251Y163509D01*
D32*
X227500Y97296D02*
X227500Y91616D01*
X222500Y91616D02*
X222500Y97296D01*
X217500Y97296D02*
X217500Y91616D01*
X212500Y91616D02*
X212500Y97296D01*
X208384Y87500D02*
X202704Y87500D01*
X202704Y82500D02*
X208384Y82500D01*
X208384Y77500D02*
X202704Y77500D01*
X202704Y72500D02*
X208384Y72500D01*
X212500Y68384D02*
X212500Y62704D01*
X217500Y62704D02*
X217500Y68384D01*
X222500Y68384D02*
X222500Y62704D01*
X227500Y62704D02*
X227500Y68384D01*
X231616Y72500D02*
X237296Y72500D01*
X237296Y77500D02*
X231616Y77500D01*
X231616Y82500D02*
X237296Y82500D01*
X237296Y87500D02*
X231616Y87500D01*
D33*
X220000Y80000D03*
D34*
X209500Y318750D03*
X201500Y318750D03*
X193500Y318750D03*
X185500Y318750D03*
X185500Y306250D03*
X193500Y306250D03*
X201500Y306250D03*
X209500Y306250D03*
X92000Y276250D03*
X84000Y276250D03*
X76000Y276250D03*
X68000Y276250D03*
X68000Y263750D03*
X76000Y263750D03*
X84000Y263750D03*
X92000Y263750D03*
D35*
X546500Y23500D03*
X458500Y23500D03*
D36*
X522500Y81000D03*
X502500Y81000D03*
X482500Y81000D03*
D37*
X45000Y67500D03*
X50000Y67500D03*
X55000Y67500D03*
X60000Y67500D03*
X65000Y67500D03*
X70000Y67500D03*
X75000Y67500D03*
X80000Y67500D03*
X85000Y67500D03*
X90000Y67500D03*
X95000Y67500D03*
X100000Y67500D03*
X105000Y67500D03*
X110000Y67500D03*
X115000Y67500D03*
X120000Y67500D03*
X125000Y67500D03*
X130000Y67500D03*
X135000Y67500D03*
X140000Y67500D03*
X145000Y67500D03*
X150000Y67500D03*
X155000Y67500D03*
X160000Y67500D03*
D38*
X26300Y35000D03*
X178700Y35000D03*
D34*
X164500Y318750D03*
X156500Y318750D03*
X148500Y318750D03*
X140500Y318750D03*
X140500Y306250D03*
X148500Y306250D03*
X156500Y306250D03*
X164500Y306250D03*
X254500Y318750D03*
X246500Y318750D03*
X238500Y318750D03*
X230500Y318750D03*
X230500Y306250D03*
X238500Y306250D03*
X246500Y306250D03*
X254500Y306250D03*
D32*
X357500Y97296D02*
X357500Y91616D01*
X352500Y91616D02*
X352500Y97296D01*
X347500Y97296D02*
X347500Y91616D01*
X342500Y91616D02*
X342500Y97296D01*
X338384Y87500D02*
X332704Y87500D01*
X332704Y82500D02*
X338384Y82500D01*
X338384Y77500D02*
X332704Y77500D01*
X332704Y72500D02*
X338384Y72500D01*
X342500Y68384D02*
X342500Y62704D01*
X347500Y62704D02*
X347500Y68384D01*
X352500Y68384D02*
X352500Y62704D01*
X357500Y62704D02*
X357500Y68384D01*
X361616Y72500D02*
X367296Y72500D01*
X367296Y77500D02*
X361616Y77500D01*
X361616Y82500D02*
X367296Y82500D01*
X367296Y87500D02*
X361616Y87500D01*
D33*
X350000Y80000D03*
D13*
X288249Y126251D02*
X281751Y126251D01*
X281751Y133749D01*
X288249Y133749D01*
X288249Y126251D01*
X288249Y131509D02*
X281751Y131509D01*
X298751Y126251D02*
X305249Y126251D01*
X298751Y126251D02*
X298751Y133749D01*
X305249Y133749D01*
X305249Y126251D01*
X305249Y131509D02*
X298751Y131509D01*
X271249Y126251D02*
X264751Y126251D01*
X264751Y133749D01*
X271249Y133749D01*
X271249Y126251D01*
X271249Y131509D02*
X264751Y131509D01*
X379251Y126251D02*
X385749Y126251D01*
X379251Y126251D02*
X379251Y133749D01*
X385749Y133749D01*
X385749Y126251D01*
X385749Y131509D02*
X379251Y131509D01*
X396251Y126251D02*
X402749Y126251D01*
X396251Y126251D02*
X396251Y133749D01*
X402749Y133749D01*
X402749Y126251D01*
X402749Y131509D02*
X396251Y131509D01*
X368749Y126251D02*
X362251Y126251D01*
X362251Y133749D01*
X368749Y133749D01*
X368749Y126251D01*
X368749Y131509D02*
X362251Y131509D01*
X296749Y111249D02*
X290251Y111249D01*
X296749Y111249D02*
X296749Y103751D01*
X290251Y103751D01*
X290251Y111249D01*
X290251Y109009D02*
X296749Y109009D01*
X279749Y111249D02*
X273251Y111249D01*
X279749Y111249D02*
X279749Y103751D01*
X273251Y103751D01*
X273251Y111249D01*
X273251Y109009D02*
X279749Y109009D01*
X395251Y111249D02*
X401749Y111249D01*
X401749Y103751D01*
X395251Y103751D01*
X395251Y111249D01*
X395251Y109009D02*
X401749Y109009D01*
X384749Y111249D02*
X378251Y111249D01*
X384749Y111249D02*
X384749Y103751D01*
X378251Y103751D01*
X378251Y111249D01*
X378251Y109009D02*
X384749Y109009D01*
X288749Y74749D02*
X281251Y74749D01*
X288749Y74749D02*
X288749Y68251D01*
X281251Y68251D01*
X281251Y74749D01*
X281251Y73509D02*
X288749Y73509D01*
X288749Y91749D02*
X281251Y91749D01*
X288749Y91749D02*
X288749Y85251D01*
X281251Y85251D01*
X281251Y91749D01*
X281251Y90509D02*
X288749Y90509D01*
X411251Y74749D02*
X418749Y74749D01*
X418749Y68251D01*
X411251Y68251D01*
X411251Y74749D01*
X411251Y73509D02*
X418749Y73509D01*
X418749Y91749D02*
X411251Y91749D01*
X418749Y91749D02*
X418749Y85251D01*
X411251Y85251D01*
X411251Y91749D01*
X411251Y90509D02*
X418749Y90509D01*
D39*
X427500Y311400D03*
D40*
X427500Y286000D03*
X427500Y260600D03*
X427500Y235200D03*
X427500Y209800D03*
X427500Y184400D03*
X427500Y159000D03*
X427500Y133600D03*
D39*
X427500Y108200D03*
D41*
X271000Y47500D03*
X299000Y47500D03*
X429000Y47500D03*
X401000Y47500D03*
D13*
X398749Y74749D02*
X391251Y74749D01*
X398749Y74749D02*
X398749Y68251D01*
X391251Y68251D01*
X391251Y74749D01*
X391251Y73509D02*
X398749Y73509D01*
X398749Y91749D02*
X391251Y91749D01*
X398749Y91749D02*
X398749Y85251D01*
X391251Y85251D01*
X391251Y91749D01*
X391251Y90509D02*
X398749Y90509D01*
X268749Y74749D02*
X261251Y74749D01*
X268749Y74749D02*
X268749Y68251D01*
X261251Y68251D01*
X261251Y74749D01*
X261251Y73509D02*
X268749Y73509D01*
X268749Y91749D02*
X261251Y91749D01*
X268749Y91749D02*
X268749Y85251D01*
X261251Y85251D01*
X261251Y91749D01*
X261251Y90509D02*
X268749Y90509D01*
D42*
X522500Y210000D03*
X527500Y205000D03*
X532500Y210000D03*
X527500Y215000D03*
X382500Y53500D03*
X380000Y42500D03*
X370000Y37500D03*
X507500Y147500D03*
X497500Y147500D03*
X492500Y155000D03*
X477859Y201859D03*
X473000Y207230D03*
X467888Y201888D03*
X463388Y207388D03*
X252500Y53500D03*
X250000Y42500D03*
X240000Y37500D03*
X330000Y37500D03*
X320000Y42500D03*
X317500Y53500D03*
X187500Y53500D03*
X200000Y37500D03*
X540000Y195000D03*
X540000Y187000D03*
X533000Y191000D03*
X492500Y55000D03*
X502500Y55000D03*
X492500Y45000D03*
X502500Y45000D03*
X492500Y35000D03*
X502500Y35000D03*
X357500Y50000D03*
X357500Y40000D03*
X370020Y60000D03*
X370020Y50000D03*
X329980Y60000D03*
X329980Y50000D03*
X342500Y50000D03*
X342500Y40000D03*
X227500Y50000D03*
X227500Y40000D03*
X240020Y60000D03*
X240020Y50000D03*
X199980Y60000D03*
X199980Y50000D03*
X212500Y50000D03*
X212500Y40000D03*
X530000Y159000D03*
X538000Y163000D03*
X540000Y154000D03*
M02*
