<?xml version="1.0" encoding="UTF-8" standalone="no"?>
<!-- Created with Inkscape (http://www.inkscape.org/) -->

<svg
   xmlns:dc="http://purl.org/dc/elements/1.1/"
   xmlns:cc="http://creativecommons.org/ns#"
   xmlns:rdf="http://www.w3.org/1999/02/22-rdf-syntax-ns#"
   xmlns:svg="http://www.w3.org/2000/svg"
   xmlns="http://www.w3.org/2000/svg"
   xmlns:sodipodi="http://sodipodi.sourceforge.net/DTD/sodipodi-0.dtd"
   xmlns:inkscape="http://www.inkscape.org/namespaces/inkscape"
   version="1.1"
   id="svg10"
   xml:space="preserve"
   width="47.997498mm"
   height="31.235184mm"
   viewBox="0 0 181.40787 118.05423"
   sodipodi:docname="top.svg"
   inkscape:version="0.92.4 (5da689c313, 2019-01-14)"><metadata
     id="metadata16"><rdf:RDF><cc:Work
         rdf:about=""><dc:format>image/svg+xml</dc:format><dc:type
           rdf:resource="http://purl.org/dc/dcmitype/StillImage" /><dc:title></dc:title></cc:Work></rdf:RDF></metadata><defs
     id="defs14"><clipPath
       clipPathUnits="userSpaceOnUse"
       id="clipPath36"><path
         d="M 165,165 H 9752 V 13433 H 165 Z"
         id="path34"
         inkscape:connector-curvature="0"
         style="clip-rule:evenodd" /></clipPath><clipPath
       clipPathUnits="userSpaceOnUse"
       id="clipPath46"><path
         d="M 165,165 H 9752 V 13433 H 165 Z"
         id="path44"
         inkscape:connector-curvature="0"
         style="clip-rule:evenodd" /></clipPath><clipPath
       clipPathUnits="userSpaceOnUse"
       id="clipPath52"><path
         d="M 3326,165 H 6591 V 2021 H 3326 Z"
         id="path50"
         inkscape:connector-curvature="0"
         style="clip-rule:evenodd" /></clipPath></defs><sodipodi:namedview
     pagecolor="#ffffff"
     bordercolor="#666666"
     borderopacity="1"
     objecttolerance="10"
     gridtolerance="10"
     guidetolerance="10"
     inkscape:pageopacity="0"
     inkscape:pageshadow="2"
     inkscape:window-width="1366"
     inkscape:window-height="715"
     id="namedview12"
     showgrid="false"
     units="mm"
     fit-margin-top="0"
     fit-margin-left="0"
     fit-margin-right="0"
     fit-margin-bottom="0"
     inkscape:zoom="2.7511658"
     inkscape:cx="65.501784"
     inkscape:cy="114.41121"
     inkscape:window-x="-8"
     inkscape:window-y="-8"
     inkscape:window-maximized="1"
     inkscape:current-layer="g18" /><g
     id="g18"
     inkscape:groupmode="layer"
     inkscape:label="top"
     transform="matrix(1.3333333,0,0,-1.3333333,-330.37924,1083.1738)"><g
       id="layer1"
       inkscape:label="Layer 1"
       transform="matrix(0.02072676,0,0,-0.02072676,327.34615,814.41)"><path
         inkscape:connector-curvature="0"
         id="path3351"
         d="m 340.12293,845.68904 c -2.61336,-1.59366 -2.70624,-1.90503 -3.15984,-10.59093 -0.54891,-10.51152 -0.36534,-10.75413 8.57262,-11.33151 11.50644,-0.74328 22.40331,-2.1102 33.67077,-4.2237 12.17373,-2.28348 12.88704,-1.94073 14.81544,7.11876 2.12397,9.97821 1.3725,12.78018 -3.72219,13.87839 -17.79282,3.83544 -47.35608,6.86913 -50.1768,5.14899 z m -99.28722,-13.81383 c -14.4964,-4.96464 -38.07497,-15.24462 -40.90351,-17.83341 -2.56686,-2.34933 -2.28471,-4.92867 1.27974,-11.69907 5.11634,-9.71814 5.76147,-9.90408 16.40585,-4.72821 10.64023,5.17383 19.46447,8.80302 31.12509,12.80103 8.93133,3.06225 9.32439,3.98709 6.04541,14.22429 -3.20269,9.99906 -4.26869,10.55184 -13.95258,7.23537 z M 475.73572,803.0867 c -1.34451,-0.83505 -1.89135,-1.55934 -5.01231,-6.63879 -3.69579,-6.015 -3.53769,-5.66661 -3.53769,-7.79517 0,-3.16506 0.17931,-3.36033 7.65243,-8.33421 9.14967,-6.08976 20.02227,-14.49642 28.04757,-21.68634 4.71294,-4.22235 7.39092,-4.27743 11.26872,-0.23175 9.44148,9.85026 9.88824,11.763 3.99696,17.11251 -9.66111,8.77269 -23.11638,19.1019 -33.68529,25.85922 l -3.55941,2.27574 h -2.13549 c -1.55973,0 -2.37816,-0.15183 -3.03549,-0.5601 z m -155.3163,-7.26336 C 163.94208,789.69557 59.4989,626.87122 118.41414,480.90208 185.4589,314.7911 410.76384,286.32717 516.1864,430.64947 c 113.86065,155.874 -2.40288,372.74617 -195.76698,365.17387 z m 15.06629,-14.5854 c 28.66938,-12.12861 59.22876,-34.53969 84.60615,-62.04703 3.40731,-3.69327 4.5057,-4.9158 6.81417,-7.5843 1.24119,-1.43481 2.62776,-3.02559 3.08124,-3.53508 8.04513,-9.03915 22.16091,-28.3089 31.77091,-43.37109 7.38738,-11.57859 22.79826,-39.44835 27.17943,-49.15254 0.7077,-1.5675 1.89,-4.1325 2.6274,-5.7 0.73737,-1.5675 1.77162,-3.8625 2.29833,-5.1 0.52671,-1.2375 1.07913,-2.52 1.2276,-2.85 11.4192,-25.38006 20.68887,-59.43957 24.12711,-88.65 1.9467,-16.53883 1.83078,-35.68493 -0.32103,-53.02974 l -0.19599,-1.57973 -4.38267,-3.24745 c -92.37439,-68.44746 -273.6909,-68.44746 -366.06531,0 l -4.38265,3.24745 -0.19598,1.57973 c -1.98712,16.0171 -2.24846,32.32965 -0.7751,48.37974 2.68858,29.28811 12.44944,66.3363 24.58116,93.3 0.14848,0.33 0.7009,1.6125 1.2276,2.85 0.5267,1.2375 1.56095,3.5325 2.29834,5.1 0.73738,1.5675 1.91971,4.1325 2.62739,5.7 3.92909,8.70285 12.98788,25.31337 23.3143,42.75 9.23236,15.58923 25.77314,38.69211 35.63604,49.77363 0.45348,0.50949 1.84004,2.10027 3.08123,3.53508 10.57762,12.22735 24.49883,25.77376 36.97033,35.97502 17.53642,14.34417 36.16719,25.85586 54.75,33.8292 4.25448,1.8255 3.32958,1.84524 8.1,-0.17289 z m -9.17046,-38.59701 c -29.29903,-16.33416 -55.64051,-40.26661 -79.95529,-72.64303 -5.08106,-6.76572 -9.40858,-13.05147 -16.52313,-24 -2.81522,-4.33233 -16.48108,-28.17858 -19.68537,-34.35 -13.30465,-25.62456 -24.31424,-55.98985 -29.04201,-80.1 -0.93703,-4.77857 -1.89168,-10.15094 -2.21231,-12.45 -0.18409,-1.32 -0.46,-3.075 -0.61313,-3.9 -1.26955,-6.83986 -2.39416,-26.08898 -1.95974,-33.54341 l 0.22397,-3.8434 2.59374,-1.67985 c 26.51639,-17.17353 65.75485,-29.94131 106.24373,-34.57059 75.62241,-8.64624 151.86516,4.66272 198.04375,34.57059 l 2.59371,1.67985 0.22398,3.8434 c 0.71769,12.31504 -1.0686,30.94005 -4.78518,49.89341 -4.72776,24.11015 -15.73737,54.47544 -29.04202,80.1 -3.20427,6.17142 -16.87014,30.01767 -19.68537,34.35 -7.11453,10.94853 -11.44206,17.23428 -16.52313,24 -24.30918,32.36895 -50.66301,56.31262 -79.95528,72.64303 -5.43804,3.03168 -4.50288,3.03168 -9.94092,0 z m -42.03591,-61.75735 c 1.17168,-17.59245 21.77068,-44.03568 34.30334,-44.03568 0.55167,0 1.00303,-0.135 1.00303,-0.3 0,-0.165 -0.45136,-0.3 -1.00303,-0.3 -12.53266,0 -33.13166,-26.44323 -34.30334,-44.03568 -0.24501,-3.67881 -0.56131,-3.73083 -0.78636,-0.12939 -1.09989,17.60172 -21.73239,44.16507 -34.30424,44.16507 -0.55167,0 -1.00303,0.135 -1.00303,0.3 0,0.165 0.45136,0.3 1.00303,0.3 12.57185,0 33.20435,26.56335 34.30424,44.16507 0.22505,3.60144 0.54135,3.54942 0.78636,-0.12939 z m 91.86978,-5.86704 c 4.31313,-17.22576 22.60305,-38.16864 33.33357,-38.16864 0.55164,0 1.00302,-0.135 1.00302,-0.3 0,-0.165 -0.45138,-0.3 -1.00302,-0.3 -12.57186,0 -33.20436,-26.56335 -34.30425,-44.16507 -0.22506,-3.60144 -0.54135,-3.54942 -0.78636,0.12939 -1.17168,17.59245 -21.77067,44.03568 -34.30335,44.03568 -0.55164,0 -1.00302,0.135 -1.00302,0.3 0,0.165 0.45138,0.3 1.00302,0.3 12.43707,0 33.10719,26.40201 34.27446,43.77885 0.2499,3.72018 0.49779,3.88635 0.76239,0.51105 0.12762,-1.62807 0.58821,-4.38264 1.02354,-6.12126 z M 281.18571,544.7479 v -21.9 h -28.2 -28.2 v -6.3 -6.3 h 28.2 28.2 v -7.8 -7.8 h -36 -36 v 21.9 21.9 h 28.2 28.2 v 6.3 6.3 h -28.2 -28.2 v 7.8 7.8 h 36 36 z m 29.7,7.8 v -14.1 h 20.4 20.4 v 14.1 14.1 h 7.8 7.8 v -36 -36 h -36 -36 v 36 36 h 7.8 7.8 z m 0,-36 v -6.3 h 20.4 20.4 v 6.3 6.3 h -20.4 -20.4 z m 114.3,21.9 v -28.2 h 14.1 14.1 v -7.8 -7.8 h -36 -36 v 7.8 7.8 h 14.1 14.1 v 28.2 28.2 h 7.8 7.8 z m -300.3125,217.42501 c -3.32051,-2.2386 -18.0896,-20.72091 -26.0704,-32.625 -7.57024,-11.29168 -7.49373,-12.0007 1.93289,-17.91349 6.13284,-3.84681 5.7851,-3.6867 8.00528,-3.68541 3.15701,0.003 3.29291,0.13005 8.51951,8.03598 6.03673,9.1314 13.16531,18.47092 20.4455,26.78677 6.02021,6.87663 5.89597,7.87782 -1.8613,14.99976 -6.05453,5.55867 -8.06097,6.36357 -10.97148,4.40139 z M 567.38572,695.7592 c -9.34524,-4.84716 -9.83466,-5.95659 -6.00225,-13.60677 4.97943,-9.93996 9.81468,-21.5196 13.52844,-32.39853 3.5715,-10.4622 4.46532,-10.90722 15.05613,-7.49607 11.29611,3.63831 11.09481,7.30128 -2.03556,37.04007 -9.46818,21.44439 -10.04634,21.90759 -20.54676,16.4613 z M 59.78265,628.9729 c -1.4968,-1.01871 -2.10849,-2.03463 -2.59457,-4.30914 -3.90863,-18.28989 -6.747324,-47.76993 -4.86162,-50.48829 1.64827,-2.37606 2.38353,-2.54958 12.25924,-2.89308 8.28301,-0.28812 9.05247,0.28086 9.42303,6.96798 0.32061,5.78574 1.58716,19.62516 2.12298,23.19753 0.77523,5.16849 1.89126,11.60964 2.6971,15.56625 1.73246,8.5062 1.09285,9.39171 -8.26841,11.44743 -6.49453,1.4262 -9.24199,1.55655 -10.77775,0.51132 z m 531.42646,-69.79229 c -2.38152,-1.45223 -2.31777,-1.20678 -3.28071,-12.63271 -1.08876,-12.91908 -2.03682,-19.74597 -4.21521,-30.35303 -2.12781,-10.3608 -1.64313,-11.21357 7.57968,-13.3361 10.92471,-2.51421 12.56688,-1.81381 14.15913,6.03913 2.59185,12.78281 3.50505,19.34994 4.83846,34.79524 1.39341,16.14053 1.44897,16.05539 -10.47411,16.05365 -6.99309,0 -7.76358,-0.0517 -8.60724,-0.56618 z M 73.4357,489.1271 c -2.64,-0.8571 -5.10448,-1.66238 -5.47662,-1.78952 -5.2623,-1.79771 -4.14641,-7.99646 5.54271,-30.78968 10.81573,-25.44354 11.97655,-26.5286 22.43391,-20.96998 9.91865,5.27227 10.11112,5.83699 5.27812,15.48641 -5.53091,11.04285 -10.35263,22.68108 -14.11483,34.06913 -2.06944,6.26413 -4.49033,6.97173 -13.66329,3.99364 z m 476.21939,-59.96088 c -0.61806,-0.41332 -2.25945,-2.52335 -4.16937,-5.35986 -6.42531,-9.54247 -13.19325,-18.36603 -20.52462,-26.75859 -8.00094,-9.159 -7.98012,-9.37123 1.77462,-18.10462 4.20186,-3.76191 6.55308,-4.60708 9.08991,-3.26747 3.28146,1.73283 19.62012,21.89438 28.46262,35.12221 5.88489,8.80344 5.48124,9.82493 -6.93999,17.56274 -2.90391,1.809 -5.74743,2.10676 -7.69317,0.80559 z M 152.55822,376.08064 c -0.72763,-0.35083 -9.34502,-9.84857 -9.92417,-10.93802 -0.48424,-0.91092 -0.4362,-4.15462 0.0762,-5.1455 1.61728,-3.12748 19.17089,-17.19696 32.88368,-26.35676 11.37689,-7.59947 11.99039,-7.50832 18.40973,2.73522 5.28992,8.44128 5.10033,9.056 -4.83123,15.66481 -9.50925,6.3278 -18.66787,13.26789 -26.5417,20.11241 -5.07961,4.41557 -7.28071,5.2739 -10.07251,3.92784 z M 446.03571,336.1881 c -8.8389,-4.48987 -21.38754,-9.69512 -32.22438,-13.36689 -10.73967,-3.63884 -11.25504,-4.60731 -7.97595,-14.98874 3.40428,-10.77783 3.99468,-10.90482 21.30033,-4.58162 11.8575,4.33253 31.68889,13.20901 33.69415,15.08142 2.57166,2.40125 2.30067,4.77246 -1.33446,11.67631 -4.82313,9.16015 -6.27745,9.82785 -13.45969,6.17952 z m -172.0735,-22.22235 c -2.64786,-1.78439 -5.87456,-15.52423 -4.34183,-18.48822 1.14345,-2.21118 2.17396,-2.72654 7.51533,-3.75835 15.92513,-3.07633 44.37089,-5.85968 46.82765,-4.58198 1.99234,1.03616 2.63521,2.22346 3.11914,5.76069 0.20316,1.485 0.62448,4.10979 0.9363,5.83287 1.58934,8.78295 0.32787,10.27034 -9.03309,10.65071 -10.38846,0.42212 -27.14417,2.49652 -37.60802,4.65597 -4.00507,0.82653 -6.11284,0.80616 -7.41548,-0.0717 z"
         style="fill:#000000" /></g></g></svg>