M48
;GenerationSoftware,Autodesk,EAGLE,9.5.2*%
;CreationDate,2020-07-03T15:27:03Z*%
FMAT,2
ICI,OFF
METRIC,TZ,000.000
T6C0.500
T5C0.300
T4C0.350
T3C0.889
T2C0.900
T1C2.200
%
G90
M71
T1
X2250Y30500
X55250Y11000
X2250Y10250
T2
X38250Y30750
X35250Y30750
T3
X42750Y18400
X42750Y31100
X42750Y28560
X42750Y26020
X42750Y23480
X42750Y20940
T4
X34257Y31168
X42750Y7500
X42750Y9000
T5
X7646Y12646
X15877Y29873
X16750Y26250
X9950Y30750
X21362Y29361
X52250Y21000
X52750Y20500
X53250Y21000
X52750Y21500
X38250Y5350
X38000Y4250
X37000Y3750
X50750Y14750
X49750Y14750
X49250Y15500
X47786Y20186
X47300Y20723
X46789Y20189
X46339Y20739
X25250Y5350
X25000Y4250
X24000Y3750
X33000Y3750
X32000Y4250
X31750Y5350
X18750Y5350
X20000Y3750
X41500Y5250
X41500Y4250
X28500Y5250
X28500Y4250
X36500Y22700
X31700Y22700
X14500Y16600
X16200Y20300
X31700Y18500
X36600Y18500
X11200Y15100
X12400Y20400
X6200Y30600
X500Y29300
X500Y27300
X500Y25300
X500Y23300
X500Y21300
X500Y19300
X500Y17300
X500Y15200
X500Y13200
X500Y11200
X3750Y11200
X5250Y11200
X9750Y11200
X24100Y11450
X26600Y11450
X30600Y11450
X32700Y11450
X36950Y11450
X40950Y11450
X26500Y28100
X32100Y28100
X33600Y28100
X36600Y28100
X42750Y15450
X42750Y13450
X42750Y11450
X12600Y27750
X56400Y24950
X56400Y22950
X56400Y20950
X56400Y18950
X56400Y16950
X39500Y19670
X40000Y22500
X40000Y25390
X10050Y20750
X10050Y20000
X12750Y21750
X13057Y13265
X14596Y29500
X14123Y10877
X13671Y13750
X26250Y29573
X12877Y24873
X13858Y10150
X22300Y17500
X21750Y18250
X16000Y16000
X16000Y16750
X54000Y19500
X54000Y18700
X53300Y19100
X46515Y17123
X44014Y17264
X49789Y25403
X51500Y25403
X45887Y16723
X43250Y17250
X49000Y25403
X50711Y25403
X27750Y30823
X29777Y29500
X48250Y20750
X48777Y21779
X52000Y11250
X49250Y5500
X50250Y5500
X49250Y4500
X50250Y4500
X49250Y3500
X50250Y3500
X6500Y3250
X7500Y3250
X9973Y28500
X8750Y28500
X7750Y28500
X6500Y28500
X51223Y15500
X30804Y28200
X30581Y25915
X13835Y19250
X16750Y28000
X15735Y25777
X13835Y17750
X16750Y22250
X7500Y22000
X13835Y18500
X15000Y4500
X22223Y10500
X21169Y10664
X15205Y24700
X34473Y11000
X34473Y11805
X35874Y11626
X13316Y8684
X15077Y14318
X13594Y9423
X15077Y13572
X20442Y10777
X22223Y11250
X19796Y10250
X23277Y10750
X11777Y24945
X12363Y25387
X21850Y32250
X26750Y31250
X35750Y5000
X35750Y4000
X37002Y6000
X37002Y5000
X32998Y6000
X32998Y5000
X34250Y5000
X34250Y4000
X35597Y10899
X22750Y4000
X24002Y6000
X24002Y5000
X19998Y6000
X19998Y5000
X21250Y5000
X21250Y4000
X5696Y5200
X6908Y2092
X7323Y5200
X53000Y15900
X53800Y16300
X54000Y15400
X18948Y10150
X13064Y7936
X12000Y13500
X27600Y21150
X41452Y30700
X20800Y22500
X28100Y20400
X27150Y20400
X13650Y27400
X13650Y28750
X22750Y5000
M30